M48
;Layer_Color=9474304
;FILE_FORMAT=4:4
METRIC,LZ
;TYPE=PLATED
T01F00S00C0.3048
T03F00S00C0.7112
T04F00S00C1.0160
%
T01
X00085772Y00027746
X0009652Y0004318
X00111696Y00041496
X0012446Y000381
X0011938Y000508
Y00058928
X00112634Y00065877
X00095785Y00065305
X00127Y0007366
X0013716
X0014732
X0012192Y0008382
X00083232Y00103946
X00073072Y00098866
X00074077Y00152977
X0008382Y0014732
X0011938Y0014986
Y0017018
X00125647Y00178788
X00101302Y00186852
X0010114Y0020574
X0009906Y002159
X00121332Y00215706
X00121005Y00206654
X0008636Y0022606
X0017272Y002286
X00185406Y00228565
X0018542Y0020066
X0017526
X0018034Y0019558
X0018542Y0018796
X0017526
X00182391Y00167186
X0019812Y00154178
X00197111Y00138931
X00197532Y00124266
X0022098Y00127
X0023114Y0017272
X00226568Y00184872
X0021336Y00207381
X00161972Y00136966
X0014478Y0013208
X00136572Y00157286
X0014478Y000381
X001905Y0005334
X0019558Y0006096
X0020828
X0021336Y0005334
X0025146Y0007874
X0025908
X002667
X0027432
X0028194
Y0009652
X0027432
X002667
X0025908
X0025146
Y001143
X0025908
X002667
X0027432
X0028194
X00336179Y00095621
X0037338Y001143
X0037592Y0013716
Y001524
X00349758Y0016002
X00335049Y00210589
X00241771Y00208751
X0024344Y00222467
X00238188Y00154178
X0042672Y0012954
X00427182Y00117302
X0043942Y001143
Y0013208
X00459737Y00104151
X00461772Y00095758
X00497938Y00094079
X0050038Y0007874
X00493641Y00071882
X004699Y00057658
X0043434
X00408709Y00051031
X00521483Y00049043
X0054853Y0007609
X0055742Y00067818
X0056631Y0007609
X0058282
X0059171Y000672
X0060822Y0006593
X00626618
X0063362Y0007736
X0061711
X006006Y0007863
X00608005Y00090717
X00600202Y00115062
Y00131572
X00616712
Y00115062
X0057658Y0012319
X0057785Y001397
X0057415Y0017029
X0059066
X0060844
X00608655Y00156574
X0062495Y0017029
X0061733Y0018172
X0063384
X0059955
X0058304
X0056526
X0054875Y0018045
X0055637Y0017029
X005207Y0019304
X004953Y0017526
X0049784Y001651
X00506614Y00157728
X0051054Y00149098
X0051816Y00140317
X00513028Y00126601
X0050292Y0012954
Y0010795
X0051308Y0010922
X0052324Y001016
X00574587Y00107005
X0057393Y0006466
X0061468Y0022606
X00487829Y00182731
X0046736Y0018034
X00450206Y00179826
X00434109Y00195349
X0042164Y00200152
X00636904Y0022352
X00644Y0022617
X0066432Y0020585
X0066802Y0018288
X0065924Y0018299
X0066432Y0017388
Y0016499
Y0015737
Y0014848
Y0013959
Y0013197
Y0012308
Y0011419
Y0010657
Y0009768
Y0008879
Y0008117
X00665661Y00073169
X00665957Y00063277
X00650991Y00066923
X0064251Y000672
X00640803Y00106355
Y00122865
Y00138105
X00676329Y00043869
T03
X0009525Y001143
Y00127
Y001397
X0034925Y00127
X0036195
T04
X000889Y000127
X001143
X001397
X001651
X001905
X002159
X002413
X002667
X002921
X003175
X003429
X003683
X003937
X004191
X004445
X004699
X004953
X005207
X005461
X005715
X005969
X006223
X006477
X006731
Y002413
X006477
X006223
X005969
X005715
X005461
X005207
X004953
X004699
X004445
X004191
X003937
X003683
X003429
X003175
X002921
X002667
X002413
X002159
X001905
X001651
X001397
X001143
X000889
M30
