%TF.GenerationSoftware,KiCad,Pcbnew,8.0.5-8.0.5-0~ubuntu24.04.1*%
%TF.CreationDate,2024-09-30T02:40:30+03:30*%
%TF.ProjectId,stm32buckusb,73746d33-3262-4756-936b-7573622e6b69,rev?*%
%TF.SameCoordinates,Original*%
%TF.FileFunction,Soldermask,Top*%
%TF.FilePolarity,Negative*%
%FSLAX46Y46*%
G04 Gerber Fmt 4.6, Leading zero omitted, Abs format (unit mm)*
G04 Created by KiCad (PCBNEW 8.0.5-8.0.5-0~ubuntu24.04.1) date 2024-09-30 02:40:30*
%MOMM*%
%LPD*%
G01*
G04 APERTURE LIST*
G04 Aperture macros list*
%AMRoundRect*
0 Rectangle with rounded corners*
0 $1 Rounding radius*
0 $2 $3 $4 $5 $6 $7 $8 $9 X,Y pos of 4 corners*
0 Add a 4 corners polygon primitive as box body*
4,1,4,$2,$3,$4,$5,$6,$7,$8,$9,$2,$3,0*
0 Add four circle primitives for the rounded corners*
1,1,$1+$1,$2,$3*
1,1,$1+$1,$4,$5*
1,1,$1+$1,$6,$7*
1,1,$1+$1,$8,$9*
0 Add four rect primitives between the rounded corners*
20,1,$1+$1,$2,$3,$4,$5,0*
20,1,$1+$1,$4,$5,$6,$7,0*
20,1,$1+$1,$6,$7,$8,$9,0*
20,1,$1+$1,$8,$9,$2,$3,0*%
G04 Aperture macros list end*
%ADD10C,0.150000*%
%ADD11R,1.000000X1.000000*%
%ADD12O,1.000000X1.000000*%
%ADD13R,0.800000X1.000000*%
%ADD14C,0.900000*%
%ADD15R,1.500000X0.700000*%
%ADD16RoundRect,0.218750X0.256250X-0.218750X0.256250X0.218750X-0.256250X0.218750X-0.256250X-0.218750X0*%
%ADD17RoundRect,0.218750X-0.256250X0.218750X-0.256250X-0.218750X0.256250X-0.218750X0.256250X0.218750X0*%
%ADD18RoundRect,0.140000X0.170000X-0.140000X0.170000X0.140000X-0.170000X0.140000X-0.170000X-0.140000X0*%
%ADD19RoundRect,0.135000X-0.185000X0.135000X-0.185000X-0.135000X0.185000X-0.135000X0.185000X0.135000X0*%
%ADD20RoundRect,0.250000X0.625000X-0.375000X0.625000X0.375000X-0.625000X0.375000X-0.625000X-0.375000X0*%
%ADD21RoundRect,0.150000X0.150000X-0.512500X0.150000X0.512500X-0.150000X0.512500X-0.150000X-0.512500X0*%
%ADD22C,8.600000*%
%ADD23RoundRect,0.147500X0.147500X0.172500X-0.147500X0.172500X-0.147500X-0.172500X0.147500X-0.172500X0*%
%ADD24RoundRect,0.200000X-0.275000X0.200000X-0.275000X-0.200000X0.275000X-0.200000X0.275000X0.200000X0*%
%ADD25RoundRect,0.250000X0.250000X0.475000X-0.250000X0.475000X-0.250000X-0.475000X0.250000X-0.475000X0*%
%ADD26RoundRect,0.200000X-0.200000X-0.450000X0.200000X-0.450000X0.200000X0.450000X-0.200000X0.450000X0*%
%ADD27O,0.800000X1.300000*%
%ADD28RoundRect,0.140000X0.140000X0.170000X-0.140000X0.170000X-0.140000X-0.170000X0.140000X-0.170000X0*%
%ADD29RoundRect,0.140000X-0.140000X-0.170000X0.140000X-0.170000X0.140000X0.170000X-0.140000X0.170000X0*%
%ADD30RoundRect,0.200000X0.275000X-0.200000X0.275000X0.200000X-0.275000X0.200000X-0.275000X-0.200000X0*%
%ADD31O,1.600000X0.900000*%
%ADD32RoundRect,0.250000X0.450000X-0.550000X0.450000X0.550000X-0.450000X0.550000X-0.450000X-0.550000X0*%
%ADD33RoundRect,0.250000X0.700000X-0.700000X0.700000X0.700000X-0.700000X0.700000X-0.700000X-0.700000X0*%
%ADD34RoundRect,0.100000X0.575000X-0.100000X0.575000X0.100000X-0.575000X0.100000X-0.575000X-0.100000X0*%
%ADD35R,1.200000X1.400000*%
%ADD36RoundRect,0.200000X-0.200000X-0.275000X0.200000X-0.275000X0.200000X0.275000X-0.200000X0.275000X0*%
%ADD37RoundRect,0.218750X-0.381250X0.218750X-0.381250X-0.218750X0.381250X-0.218750X0.381250X0.218750X0*%
%ADD38RoundRect,0.135000X0.135000X0.185000X-0.135000X0.185000X-0.135000X-0.185000X0.135000X-0.185000X0*%
%ADD39RoundRect,0.150000X0.512500X0.150000X-0.512500X0.150000X-0.512500X-0.150000X0.512500X-0.150000X0*%
%ADD40RoundRect,0.225000X0.375000X-0.225000X0.375000X0.225000X-0.375000X0.225000X-0.375000X-0.225000X0*%
%ADD41RoundRect,0.200000X0.200000X0.275000X-0.200000X0.275000X-0.200000X-0.275000X0.200000X-0.275000X0*%
%ADD42RoundRect,0.200000X0.200000X0.450000X-0.200000X0.450000X-0.200000X-0.450000X0.200000X-0.450000X0*%
%ADD43RoundRect,0.150000X-0.150000X0.587500X-0.150000X-0.587500X0.150000X-0.587500X0.150000X0.587500X0*%
%ADD44RoundRect,0.140000X-0.170000X0.140000X-0.170000X-0.140000X0.170000X-0.140000X0.170000X0.140000X0*%
%ADD45RoundRect,0.225000X-0.250000X0.225000X-0.250000X-0.225000X0.250000X-0.225000X0.250000X0.225000X0*%
%ADD46R,2.400000X2.400000*%
%ADD47C,2.400000*%
%ADD48RoundRect,0.075000X-0.700000X-0.075000X0.700000X-0.075000X0.700000X0.075000X-0.700000X0.075000X0*%
%ADD49RoundRect,0.075000X-0.075000X-0.700000X0.075000X-0.700000X0.075000X0.700000X-0.075000X0.700000X0*%
G04 APERTURE END LIST*
D10*
X118349819Y-77968333D02*
X119064104Y-77968333D01*
X119064104Y-77968333D02*
X119206961Y-78015952D01*
X119206961Y-78015952D02*
X119302200Y-78111190D01*
X119302200Y-78111190D02*
X119349819Y-78254047D01*
X119349819Y-78254047D02*
X119349819Y-78349285D01*
X118445057Y-77539761D02*
X118397438Y-77492142D01*
X118397438Y-77492142D02*
X118349819Y-77396904D01*
X118349819Y-77396904D02*
X118349819Y-77158809D01*
X118349819Y-77158809D02*
X118397438Y-77063571D01*
X118397438Y-77063571D02*
X118445057Y-77015952D01*
X118445057Y-77015952D02*
X118540295Y-76968333D01*
X118540295Y-76968333D02*
X118635533Y-76968333D01*
X118635533Y-76968333D02*
X118778390Y-77015952D01*
X118778390Y-77015952D02*
X119349819Y-77587380D01*
X119349819Y-77587380D02*
X119349819Y-76968333D01*
D11*
%TO.C,J2*%
X117200000Y-77000000D03*
D12*
X117200000Y-78270000D03*
X115930000Y-77000000D03*
X115930000Y-78270000D03*
X114660000Y-77000000D03*
X114660000Y-78270000D03*
X113390000Y-77000000D03*
X113390000Y-78270000D03*
X112120000Y-77000000D03*
X112120000Y-78270000D03*
%TD*%
D13*
%TO.C,SW1*%
X83010000Y-86400000D03*
X80800000Y-86400000D03*
D14*
X81900000Y-88550000D03*
X81900000Y-91550000D03*
D13*
X83010000Y-93700000D03*
X80800000Y-93700000D03*
D15*
X83660000Y-87800000D03*
X83660000Y-90800000D03*
X83660000Y-92300000D03*
%TD*%
D16*
%TO.C,D1*%
X96375000Y-103967500D03*
X96375000Y-102392500D03*
%TD*%
D17*
%TO.C,D3*%
X125500000Y-97600000D03*
X125500000Y-99175000D03*
%TD*%
D18*
%TO.C,C10*%
X94875000Y-98890000D03*
X94875000Y-97930000D03*
%TD*%
D19*
%TO.C,R2*%
X93800000Y-95580000D03*
X93800000Y-96600000D03*
%TD*%
D18*
%TO.C,C12*%
X93600000Y-94000000D03*
X93600000Y-93040000D03*
%TD*%
D20*
%TO.C,F1*%
X117750000Y-98312500D03*
X117750000Y-95512500D03*
%TD*%
D21*
%TO.C,U2*%
X119250000Y-90475000D03*
X120200000Y-90475000D03*
X121150000Y-90475000D03*
X121150000Y-88200000D03*
X120200000Y-88200000D03*
X119250000Y-88200000D03*
%TD*%
D18*
%TO.C,C9*%
X93375000Y-98890000D03*
X93375000Y-97930000D03*
%TD*%
D14*
%TO.C,H4*%
X82305419Y-117780419D03*
X83250000Y-115500000D03*
X83250000Y-120060838D03*
X85530419Y-114555419D03*
D22*
X85530419Y-117780419D03*
D14*
X85530419Y-121005419D03*
X87810838Y-115500000D03*
X87810838Y-120060838D03*
X88755419Y-117780419D03*
%TD*%
D23*
%TO.C,L1*%
X94345000Y-100430000D03*
X93375000Y-100430000D03*
%TD*%
D24*
%TO.C,R6*%
X116400000Y-101200000D03*
X116400000Y-102850000D03*
%TD*%
D14*
%TO.C,H1*%
X122244581Y-78250000D03*
X123189162Y-75969581D03*
X123189162Y-80530419D03*
X125469581Y-75025000D03*
D22*
X125469581Y-78250000D03*
D14*
X125469581Y-81475000D03*
X127750000Y-75969581D03*
X127750000Y-80530419D03*
X128694581Y-78250000D03*
%TD*%
D25*
%TO.C,C3*%
X96875000Y-88430000D03*
X94975000Y-88430000D03*
%TD*%
D24*
%TO.C,R8*%
X118750000Y-101200000D03*
X118750000Y-102850000D03*
%TD*%
D26*
%TO.C,J4*%
X100325000Y-118300000D03*
D27*
X101575000Y-118300000D03*
X102825000Y-118300000D03*
X104075000Y-118300000D03*
%TD*%
D28*
%TO.C,C11*%
X87760000Y-94400000D03*
X86800000Y-94400000D03*
%TD*%
D14*
%TO.C,H3*%
X82305419Y-78280419D03*
X83250000Y-76000000D03*
X83250000Y-80560838D03*
X85530419Y-75055419D03*
D22*
X85530419Y-78280419D03*
D14*
X85530419Y-81505419D03*
X87810838Y-76000000D03*
X87810838Y-80560838D03*
X88755419Y-78280419D03*
%TD*%
D29*
%TO.C,C7*%
X108840000Y-91400000D03*
X109800000Y-91400000D03*
%TD*%
D14*
%TO.C,H2*%
X122275000Y-117750000D03*
X123219581Y-115469581D03*
X123219581Y-120030419D03*
X125500000Y-114525000D03*
D22*
X125500000Y-117750000D03*
D14*
X125500000Y-120975000D03*
X127780419Y-115469581D03*
X127780419Y-120030419D03*
X128725000Y-117750000D03*
%TD*%
D30*
%TO.C,R7*%
X120500000Y-102850000D03*
X120500000Y-101200000D03*
%TD*%
D31*
%TO.C,J5*%
X129800000Y-85700000D03*
D32*
X127350000Y-85800000D03*
D33*
X129800000Y-87800000D03*
X129800000Y-90200000D03*
D32*
X127350000Y-92200000D03*
D31*
X129800000Y-92300000D03*
D34*
X127125000Y-87700000D03*
X127125000Y-88350000D03*
X127125000Y-89000000D03*
X127125000Y-89650000D03*
X127125000Y-90300000D03*
%TD*%
D35*
%TO.C,Y1*%
X91800000Y-95400000D03*
X91800000Y-93200000D03*
X90100000Y-93200000D03*
X90100000Y-95400000D03*
%TD*%
D36*
%TO.C,R9*%
X99575000Y-86600000D03*
X101225000Y-86600000D03*
%TD*%
%TO.C,R5*%
X111950000Y-102850000D03*
X113600000Y-102850000D03*
%TD*%
D37*
%TO.C,L2*%
X110500000Y-109250000D03*
X110500000Y-111375000D03*
%TD*%
D29*
%TO.C,C8*%
X99145000Y-88930000D03*
X100105000Y-88930000D03*
%TD*%
D18*
%TO.C,C14*%
X112500000Y-110250000D03*
X112500000Y-109290000D03*
%TD*%
D38*
%TO.C,R1*%
X87310000Y-90800000D03*
X86290000Y-90800000D03*
%TD*%
D39*
%TO.C,MP2359DJ1*%
X114887500Y-107000000D03*
X114887500Y-106050000D03*
X114887500Y-105100000D03*
X112612500Y-105100000D03*
X112612500Y-106050000D03*
X112612500Y-107000000D03*
%TD*%
D24*
%TO.C,R4*%
X112500000Y-98025000D03*
X112500000Y-99675000D03*
%TD*%
D25*
%TO.C,C2*%
X108200000Y-105630000D03*
X106300000Y-105630000D03*
%TD*%
D40*
%TO.C,D2*%
X121000000Y-98562500D03*
X121000000Y-95262500D03*
%TD*%
D41*
%TO.C,R10*%
X104800000Y-86600000D03*
X103150000Y-86600000D03*
%TD*%
D42*
%TO.C,J3*%
X104075000Y-78500000D03*
D27*
X102825000Y-78500000D03*
X101575000Y-78500000D03*
X100325000Y-78500000D03*
%TD*%
D43*
%TO.C,Q1*%
X120250000Y-105500000D03*
X118350000Y-105500000D03*
X119300000Y-107375000D03*
%TD*%
D24*
%TO.C,R11*%
X127750000Y-97600000D03*
X127750000Y-99250000D03*
%TD*%
D28*
%TO.C,C5*%
X100375000Y-104430000D03*
X99415000Y-104430000D03*
%TD*%
D25*
%TO.C,C1*%
X113350000Y-92200000D03*
X111450000Y-92200000D03*
%TD*%
D37*
%TO.C,FB1*%
X114750000Y-96000000D03*
X114750000Y-98125000D03*
%TD*%
D30*
%TO.C,R3*%
X94625000Y-104005000D03*
X94625000Y-102355000D03*
%TD*%
D28*
%TO.C,C15*%
X122980000Y-101100000D03*
X122020000Y-101100000D03*
%TD*%
D44*
%TO.C,C4*%
X95125000Y-92930000D03*
X95125000Y-93890000D03*
%TD*%
D45*
%TO.C,C16*%
X123250000Y-97612500D03*
X123250000Y-99162500D03*
%TD*%
D44*
%TO.C,C6*%
X108125000Y-102930000D03*
X108125000Y-103890000D03*
%TD*%
D29*
%TO.C,C13*%
X114290000Y-99925000D03*
X115250000Y-99925000D03*
%TD*%
D46*
%TO.C,J1*%
X125550000Y-108100000D03*
D47*
X125550000Y-104600000D03*
%TD*%
D48*
%TO.C,U1*%
X97250000Y-92930000D03*
X97250000Y-93430000D03*
X97250000Y-93930000D03*
X97250000Y-94430000D03*
X97250000Y-94930000D03*
X97250000Y-95430000D03*
X97250000Y-95930000D03*
X97250000Y-96430000D03*
X97250000Y-96930000D03*
X97250000Y-97430000D03*
X97250000Y-97930000D03*
X97250000Y-98430000D03*
X97250000Y-98930000D03*
X97250000Y-99430000D03*
X97250000Y-99930000D03*
X97250000Y-100430000D03*
D49*
X99175000Y-102355000D03*
X99675000Y-102355000D03*
X100175000Y-102355000D03*
X100675000Y-102355000D03*
X101175000Y-102355000D03*
X101675000Y-102355000D03*
X102175000Y-102355000D03*
X102675000Y-102355000D03*
X103175000Y-102355000D03*
X103675000Y-102355000D03*
X104175000Y-102355000D03*
X104675000Y-102355000D03*
X105175000Y-102355000D03*
X105675000Y-102355000D03*
X106175000Y-102355000D03*
X106675000Y-102355000D03*
D48*
X108600000Y-100430000D03*
X108600000Y-99930000D03*
X108600000Y-99430000D03*
X108600000Y-98930000D03*
X108600000Y-98430000D03*
X108600000Y-97930000D03*
X108600000Y-97430000D03*
X108600000Y-96930000D03*
X108600000Y-96430000D03*
X108600000Y-95930000D03*
X108600000Y-95430000D03*
X108600000Y-94930000D03*
X108600000Y-94430000D03*
X108600000Y-93930000D03*
X108600000Y-93430000D03*
X108600000Y-92930000D03*
D49*
X106675000Y-91005000D03*
X106175000Y-91005000D03*
X105675000Y-91005000D03*
X105175000Y-91005000D03*
X104675000Y-91005000D03*
X104175000Y-91005000D03*
X103675000Y-91005000D03*
X103175000Y-91005000D03*
X102675000Y-91005000D03*
X102175000Y-91005000D03*
X101675000Y-91005000D03*
X101175000Y-91005000D03*
X100675000Y-91005000D03*
X100175000Y-91005000D03*
X99675000Y-91005000D03*
X99175000Y-91005000D03*
%TD*%
M02*
