%TF.GenerationSoftware,KiCad,Pcbnew,8.0.5-8.0.5-0~ubuntu24.04.1*%
%TF.CreationDate,2024-09-30T02:40:30+03:30*%
%TF.ProjectId,stm32buckusb,73746d33-3262-4756-936b-7573622e6b69,rev?*%
%TF.SameCoordinates,Original*%
%TF.FileFunction,Legend,Top*%
%TF.FilePolarity,Positive*%
%FSLAX46Y46*%
G04 Gerber Fmt 4.6, Leading zero omitted, Abs format (unit mm)*
G04 Created by KiCad (PCBNEW 8.0.5-8.0.5-0~ubuntu24.04.1) date 2024-09-30 02:40:30*
%MOMM*%
%LPD*%
G01*
G04 APERTURE LIST*
%ADD10C,0.100000*%
%ADD11C,0.200000*%
%ADD12C,0.150000*%
%ADD13C,0.120000*%
G04 APERTURE END LIST*
D10*
X85675312Y-93672419D02*
X85341979Y-93196228D01*
X85103884Y-93672419D02*
X85103884Y-92672419D01*
X85103884Y-92672419D02*
X85484836Y-92672419D01*
X85484836Y-92672419D02*
X85580074Y-92720038D01*
X85580074Y-92720038D02*
X85627693Y-92767657D01*
X85627693Y-92767657D02*
X85675312Y-92862895D01*
X85675312Y-92862895D02*
X85675312Y-93005752D01*
X85675312Y-93005752D02*
X85627693Y-93100990D01*
X85627693Y-93100990D02*
X85580074Y-93148609D01*
X85580074Y-93148609D02*
X85484836Y-93196228D01*
X85484836Y-93196228D02*
X85103884Y-93196228D01*
X86103884Y-92672419D02*
X86103884Y-93481942D01*
X86103884Y-93481942D02*
X86151503Y-93577180D01*
X86151503Y-93577180D02*
X86199122Y-93624800D01*
X86199122Y-93624800D02*
X86294360Y-93672419D01*
X86294360Y-93672419D02*
X86484836Y-93672419D01*
X86484836Y-93672419D02*
X86580074Y-93624800D01*
X86580074Y-93624800D02*
X86627693Y-93577180D01*
X86627693Y-93577180D02*
X86675312Y-93481942D01*
X86675312Y-93481942D02*
X86675312Y-92672419D01*
X87151503Y-93672419D02*
X87151503Y-92672419D01*
X87151503Y-92672419D02*
X87722931Y-93672419D01*
X87722931Y-93672419D02*
X87722931Y-92672419D01*
X96703884Y-101491466D02*
X97465789Y-101491466D01*
X97084836Y-101872419D02*
X97084836Y-101110514D01*
D11*
X125088720Y-110834600D02*
X126231578Y-110834600D01*
X125660149Y-111406028D02*
X125660149Y-110263171D01*
D10*
X125903884Y-99891466D02*
X126665789Y-99891466D01*
X126284836Y-100272419D02*
X126284836Y-99510514D01*
X120703884Y-94091466D02*
X121465789Y-94091466D01*
X121084836Y-94472419D02*
X121084836Y-93710514D01*
X93456265Y-106024800D02*
X93599122Y-106072419D01*
X93599122Y-106072419D02*
X93837217Y-106072419D01*
X93837217Y-106072419D02*
X93932455Y-106024800D01*
X93932455Y-106024800D02*
X93980074Y-105977180D01*
X93980074Y-105977180D02*
X94027693Y-105881942D01*
X94027693Y-105881942D02*
X94027693Y-105786704D01*
X94027693Y-105786704D02*
X93980074Y-105691466D01*
X93980074Y-105691466D02*
X93932455Y-105643847D01*
X93932455Y-105643847D02*
X93837217Y-105596228D01*
X93837217Y-105596228D02*
X93646741Y-105548609D01*
X93646741Y-105548609D02*
X93551503Y-105500990D01*
X93551503Y-105500990D02*
X93503884Y-105453371D01*
X93503884Y-105453371D02*
X93456265Y-105358133D01*
X93456265Y-105358133D02*
X93456265Y-105262895D01*
X93456265Y-105262895D02*
X93503884Y-105167657D01*
X93503884Y-105167657D02*
X93551503Y-105120038D01*
X93551503Y-105120038D02*
X93646741Y-105072419D01*
X93646741Y-105072419D02*
X93884836Y-105072419D01*
X93884836Y-105072419D02*
X94027693Y-105120038D01*
X94313408Y-105072419D02*
X94884836Y-105072419D01*
X94599122Y-106072419D02*
X94599122Y-105072419D01*
X95170551Y-105786704D02*
X95646741Y-105786704D01*
X95075313Y-106072419D02*
X95408646Y-105072419D01*
X95408646Y-105072419D02*
X95741979Y-106072419D01*
X95932456Y-105072419D02*
X96503884Y-105072419D01*
X96218170Y-106072419D02*
X96218170Y-105072419D01*
X96837218Y-105072419D02*
X96837218Y-105881942D01*
X96837218Y-105881942D02*
X96884837Y-105977180D01*
X96884837Y-105977180D02*
X96932456Y-106024800D01*
X96932456Y-106024800D02*
X97027694Y-106072419D01*
X97027694Y-106072419D02*
X97218170Y-106072419D01*
X97218170Y-106072419D02*
X97313408Y-106024800D01*
X97313408Y-106024800D02*
X97361027Y-105977180D01*
X97361027Y-105977180D02*
X97408646Y-105881942D01*
X97408646Y-105881942D02*
X97408646Y-105072419D01*
X97837218Y-106024800D02*
X97980075Y-106072419D01*
X97980075Y-106072419D02*
X98218170Y-106072419D01*
X98218170Y-106072419D02*
X98313408Y-106024800D01*
X98313408Y-106024800D02*
X98361027Y-105977180D01*
X98361027Y-105977180D02*
X98408646Y-105881942D01*
X98408646Y-105881942D02*
X98408646Y-105786704D01*
X98408646Y-105786704D02*
X98361027Y-105691466D01*
X98361027Y-105691466D02*
X98313408Y-105643847D01*
X98313408Y-105643847D02*
X98218170Y-105596228D01*
X98218170Y-105596228D02*
X98027694Y-105548609D01*
X98027694Y-105548609D02*
X97932456Y-105500990D01*
X97932456Y-105500990D02*
X97884837Y-105453371D01*
X97884837Y-105453371D02*
X97837218Y-105358133D01*
X97837218Y-105358133D02*
X97837218Y-105262895D01*
X97837218Y-105262895D02*
X97884837Y-105167657D01*
X97884837Y-105167657D02*
X97932456Y-105120038D01*
X97932456Y-105120038D02*
X98027694Y-105072419D01*
X98027694Y-105072419D02*
X98265789Y-105072419D01*
X98265789Y-105072419D02*
X98408646Y-105120038D01*
X124408646Y-95672419D02*
X125027693Y-95672419D01*
X125027693Y-95672419D02*
X124694360Y-96053371D01*
X124694360Y-96053371D02*
X124837217Y-96053371D01*
X124837217Y-96053371D02*
X124932455Y-96100990D01*
X124932455Y-96100990D02*
X124980074Y-96148609D01*
X124980074Y-96148609D02*
X125027693Y-96243847D01*
X125027693Y-96243847D02*
X125027693Y-96481942D01*
X125027693Y-96481942D02*
X124980074Y-96577180D01*
X124980074Y-96577180D02*
X124932455Y-96624800D01*
X124932455Y-96624800D02*
X124837217Y-96672419D01*
X124837217Y-96672419D02*
X124551503Y-96672419D01*
X124551503Y-96672419D02*
X124456265Y-96624800D01*
X124456265Y-96624800D02*
X124408646Y-96577180D01*
X125361027Y-96005752D02*
X125599122Y-96672419D01*
X125599122Y-96672419D02*
X125837217Y-96005752D01*
X126122932Y-95672419D02*
X126741979Y-95672419D01*
X126741979Y-95672419D02*
X126408646Y-96053371D01*
X126408646Y-96053371D02*
X126551503Y-96053371D01*
X126551503Y-96053371D02*
X126646741Y-96100990D01*
X126646741Y-96100990D02*
X126694360Y-96148609D01*
X126694360Y-96148609D02*
X126741979Y-96243847D01*
X126741979Y-96243847D02*
X126741979Y-96481942D01*
X126741979Y-96481942D02*
X126694360Y-96577180D01*
X126694360Y-96577180D02*
X126646741Y-96624800D01*
X126646741Y-96624800D02*
X126551503Y-96672419D01*
X126551503Y-96672419D02*
X126265789Y-96672419D01*
X126265789Y-96672419D02*
X126170551Y-96624800D01*
X126170551Y-96624800D02*
X126122932Y-96577180D01*
X111856265Y-74824800D02*
X111999122Y-74872419D01*
X111999122Y-74872419D02*
X112237217Y-74872419D01*
X112237217Y-74872419D02*
X112332455Y-74824800D01*
X112332455Y-74824800D02*
X112380074Y-74777180D01*
X112380074Y-74777180D02*
X112427693Y-74681942D01*
X112427693Y-74681942D02*
X112427693Y-74586704D01*
X112427693Y-74586704D02*
X112380074Y-74491466D01*
X112380074Y-74491466D02*
X112332455Y-74443847D01*
X112332455Y-74443847D02*
X112237217Y-74396228D01*
X112237217Y-74396228D02*
X112046741Y-74348609D01*
X112046741Y-74348609D02*
X111951503Y-74300990D01*
X111951503Y-74300990D02*
X111903884Y-74253371D01*
X111903884Y-74253371D02*
X111856265Y-74158133D01*
X111856265Y-74158133D02*
X111856265Y-74062895D01*
X111856265Y-74062895D02*
X111903884Y-73967657D01*
X111903884Y-73967657D02*
X111951503Y-73920038D01*
X111951503Y-73920038D02*
X112046741Y-73872419D01*
X112046741Y-73872419D02*
X112284836Y-73872419D01*
X112284836Y-73872419D02*
X112427693Y-73920038D01*
X112761027Y-73872419D02*
X112999122Y-74872419D01*
X112999122Y-74872419D02*
X113189598Y-74158133D01*
X113189598Y-74158133D02*
X113380074Y-74872419D01*
X113380074Y-74872419D02*
X113618170Y-73872419D01*
X113999122Y-74872419D02*
X113999122Y-73872419D01*
X113999122Y-73872419D02*
X114237217Y-73872419D01*
X114237217Y-73872419D02*
X114380074Y-73920038D01*
X114380074Y-73920038D02*
X114475312Y-74015276D01*
X114475312Y-74015276D02*
X114522931Y-74110514D01*
X114522931Y-74110514D02*
X114570550Y-74300990D01*
X114570550Y-74300990D02*
X114570550Y-74443847D01*
X114570550Y-74443847D02*
X114522931Y-74634323D01*
X114522931Y-74634323D02*
X114475312Y-74729561D01*
X114475312Y-74729561D02*
X114380074Y-74824800D01*
X114380074Y-74824800D02*
X114237217Y-74872419D01*
X114237217Y-74872419D02*
X113999122Y-74872419D01*
X85437217Y-86148609D02*
X85580074Y-86196228D01*
X85580074Y-86196228D02*
X85627693Y-86243847D01*
X85627693Y-86243847D02*
X85675312Y-86339085D01*
X85675312Y-86339085D02*
X85675312Y-86481942D01*
X85675312Y-86481942D02*
X85627693Y-86577180D01*
X85627693Y-86577180D02*
X85580074Y-86624800D01*
X85580074Y-86624800D02*
X85484836Y-86672419D01*
X85484836Y-86672419D02*
X85103884Y-86672419D01*
X85103884Y-86672419D02*
X85103884Y-85672419D01*
X85103884Y-85672419D02*
X85437217Y-85672419D01*
X85437217Y-85672419D02*
X85532455Y-85720038D01*
X85532455Y-85720038D02*
X85580074Y-85767657D01*
X85580074Y-85767657D02*
X85627693Y-85862895D01*
X85627693Y-85862895D02*
X85627693Y-85958133D01*
X85627693Y-85958133D02*
X85580074Y-86053371D01*
X85580074Y-86053371D02*
X85532455Y-86100990D01*
X85532455Y-86100990D02*
X85437217Y-86148609D01*
X85437217Y-86148609D02*
X85103884Y-86148609D01*
X86294360Y-85672419D02*
X86484836Y-85672419D01*
X86484836Y-85672419D02*
X86580074Y-85720038D01*
X86580074Y-85720038D02*
X86675312Y-85815276D01*
X86675312Y-85815276D02*
X86722931Y-86005752D01*
X86722931Y-86005752D02*
X86722931Y-86339085D01*
X86722931Y-86339085D02*
X86675312Y-86529561D01*
X86675312Y-86529561D02*
X86580074Y-86624800D01*
X86580074Y-86624800D02*
X86484836Y-86672419D01*
X86484836Y-86672419D02*
X86294360Y-86672419D01*
X86294360Y-86672419D02*
X86199122Y-86624800D01*
X86199122Y-86624800D02*
X86103884Y-86529561D01*
X86103884Y-86529561D02*
X86056265Y-86339085D01*
X86056265Y-86339085D02*
X86056265Y-86005752D01*
X86056265Y-86005752D02*
X86103884Y-85815276D01*
X86103884Y-85815276D02*
X86199122Y-85720038D01*
X86199122Y-85720038D02*
X86294360Y-85672419D01*
X87341979Y-85672419D02*
X87532455Y-85672419D01*
X87532455Y-85672419D02*
X87627693Y-85720038D01*
X87627693Y-85720038D02*
X87722931Y-85815276D01*
X87722931Y-85815276D02*
X87770550Y-86005752D01*
X87770550Y-86005752D02*
X87770550Y-86339085D01*
X87770550Y-86339085D02*
X87722931Y-86529561D01*
X87722931Y-86529561D02*
X87627693Y-86624800D01*
X87627693Y-86624800D02*
X87532455Y-86672419D01*
X87532455Y-86672419D02*
X87341979Y-86672419D01*
X87341979Y-86672419D02*
X87246741Y-86624800D01*
X87246741Y-86624800D02*
X87151503Y-86529561D01*
X87151503Y-86529561D02*
X87103884Y-86339085D01*
X87103884Y-86339085D02*
X87103884Y-86005752D01*
X87103884Y-86005752D02*
X87151503Y-85815276D01*
X87151503Y-85815276D02*
X87246741Y-85720038D01*
X87246741Y-85720038D02*
X87341979Y-85672419D01*
X88056265Y-85672419D02*
X88627693Y-85672419D01*
X88341979Y-86672419D02*
X88341979Y-85672419D01*
X124503884Y-102072419D02*
X124503884Y-101072419D01*
X124503884Y-101072419D02*
X124884836Y-101072419D01*
X124884836Y-101072419D02*
X124980074Y-101120038D01*
X124980074Y-101120038D02*
X125027693Y-101167657D01*
X125027693Y-101167657D02*
X125075312Y-101262895D01*
X125075312Y-101262895D02*
X125075312Y-101405752D01*
X125075312Y-101405752D02*
X125027693Y-101500990D01*
X125027693Y-101500990D02*
X124980074Y-101548609D01*
X124980074Y-101548609D02*
X124884836Y-101596228D01*
X124884836Y-101596228D02*
X124503884Y-101596228D01*
X125694360Y-101072419D02*
X125884836Y-101072419D01*
X125884836Y-101072419D02*
X125980074Y-101120038D01*
X125980074Y-101120038D02*
X126075312Y-101215276D01*
X126075312Y-101215276D02*
X126122931Y-101405752D01*
X126122931Y-101405752D02*
X126122931Y-101739085D01*
X126122931Y-101739085D02*
X126075312Y-101929561D01*
X126075312Y-101929561D02*
X125980074Y-102024800D01*
X125980074Y-102024800D02*
X125884836Y-102072419D01*
X125884836Y-102072419D02*
X125694360Y-102072419D01*
X125694360Y-102072419D02*
X125599122Y-102024800D01*
X125599122Y-102024800D02*
X125503884Y-101929561D01*
X125503884Y-101929561D02*
X125456265Y-101739085D01*
X125456265Y-101739085D02*
X125456265Y-101405752D01*
X125456265Y-101405752D02*
X125503884Y-101215276D01*
X125503884Y-101215276D02*
X125599122Y-101120038D01*
X125599122Y-101120038D02*
X125694360Y-101072419D01*
X126456265Y-101072419D02*
X126694360Y-102072419D01*
X126694360Y-102072419D02*
X126884836Y-101358133D01*
X126884836Y-101358133D02*
X127075312Y-102072419D01*
X127075312Y-102072419D02*
X127313408Y-101072419D01*
X127694360Y-101548609D02*
X128027693Y-101548609D01*
X128170550Y-102072419D02*
X127694360Y-102072419D01*
X127694360Y-102072419D02*
X127694360Y-101072419D01*
X127694360Y-101072419D02*
X128170550Y-101072419D01*
X129170550Y-102072419D02*
X128837217Y-101596228D01*
X128599122Y-102072419D02*
X128599122Y-101072419D01*
X128599122Y-101072419D02*
X128980074Y-101072419D01*
X128980074Y-101072419D02*
X129075312Y-101120038D01*
X129075312Y-101120038D02*
X129122931Y-101167657D01*
X129122931Y-101167657D02*
X129170550Y-101262895D01*
X129170550Y-101262895D02*
X129170550Y-101405752D01*
X129170550Y-101405752D02*
X129122931Y-101500990D01*
X129122931Y-101500990D02*
X129075312Y-101548609D01*
X129075312Y-101548609D02*
X128980074Y-101596228D01*
X128980074Y-101596228D02*
X128599122Y-101596228D01*
X127903884Y-93672419D02*
X127903884Y-94481942D01*
X127903884Y-94481942D02*
X127951503Y-94577180D01*
X127951503Y-94577180D02*
X127999122Y-94624800D01*
X127999122Y-94624800D02*
X128094360Y-94672419D01*
X128094360Y-94672419D02*
X128284836Y-94672419D01*
X128284836Y-94672419D02*
X128380074Y-94624800D01*
X128380074Y-94624800D02*
X128427693Y-94577180D01*
X128427693Y-94577180D02*
X128475312Y-94481942D01*
X128475312Y-94481942D02*
X128475312Y-93672419D01*
X128903884Y-94624800D02*
X129046741Y-94672419D01*
X129046741Y-94672419D02*
X129284836Y-94672419D01*
X129284836Y-94672419D02*
X129380074Y-94624800D01*
X129380074Y-94624800D02*
X129427693Y-94577180D01*
X129427693Y-94577180D02*
X129475312Y-94481942D01*
X129475312Y-94481942D02*
X129475312Y-94386704D01*
X129475312Y-94386704D02*
X129427693Y-94291466D01*
X129427693Y-94291466D02*
X129380074Y-94243847D01*
X129380074Y-94243847D02*
X129284836Y-94196228D01*
X129284836Y-94196228D02*
X129094360Y-94148609D01*
X129094360Y-94148609D02*
X128999122Y-94100990D01*
X128999122Y-94100990D02*
X128951503Y-94053371D01*
X128951503Y-94053371D02*
X128903884Y-93958133D01*
X128903884Y-93958133D02*
X128903884Y-93862895D01*
X128903884Y-93862895D02*
X128951503Y-93767657D01*
X128951503Y-93767657D02*
X128999122Y-93720038D01*
X128999122Y-93720038D02*
X129094360Y-93672419D01*
X129094360Y-93672419D02*
X129332455Y-93672419D01*
X129332455Y-93672419D02*
X129475312Y-93720038D01*
X130237217Y-94148609D02*
X130380074Y-94196228D01*
X130380074Y-94196228D02*
X130427693Y-94243847D01*
X130427693Y-94243847D02*
X130475312Y-94339085D01*
X130475312Y-94339085D02*
X130475312Y-94481942D01*
X130475312Y-94481942D02*
X130427693Y-94577180D01*
X130427693Y-94577180D02*
X130380074Y-94624800D01*
X130380074Y-94624800D02*
X130284836Y-94672419D01*
X130284836Y-94672419D02*
X129903884Y-94672419D01*
X129903884Y-94672419D02*
X129903884Y-93672419D01*
X129903884Y-93672419D02*
X130237217Y-93672419D01*
X130237217Y-93672419D02*
X130332455Y-93720038D01*
X130332455Y-93720038D02*
X130380074Y-93767657D01*
X130380074Y-93767657D02*
X130427693Y-93862895D01*
X130427693Y-93862895D02*
X130427693Y-93958133D01*
X130427693Y-93958133D02*
X130380074Y-94053371D01*
X130380074Y-94053371D02*
X130332455Y-94100990D01*
X130332455Y-94100990D02*
X130237217Y-94148609D01*
X130237217Y-94148609D02*
X129903884Y-94148609D01*
X100903884Y-115272419D02*
X100903884Y-116081942D01*
X100903884Y-116081942D02*
X100951503Y-116177180D01*
X100951503Y-116177180D02*
X100999122Y-116224800D01*
X100999122Y-116224800D02*
X101094360Y-116272419D01*
X101094360Y-116272419D02*
X101284836Y-116272419D01*
X101284836Y-116272419D02*
X101380074Y-116224800D01*
X101380074Y-116224800D02*
X101427693Y-116177180D01*
X101427693Y-116177180D02*
X101475312Y-116081942D01*
X101475312Y-116081942D02*
X101475312Y-115272419D01*
X101903884Y-115986704D02*
X102380074Y-115986704D01*
X101808646Y-116272419D02*
X102141979Y-115272419D01*
X102141979Y-115272419D02*
X102475312Y-116272419D01*
X103380074Y-116272419D02*
X103046741Y-115796228D01*
X102808646Y-116272419D02*
X102808646Y-115272419D01*
X102808646Y-115272419D02*
X103189598Y-115272419D01*
X103189598Y-115272419D02*
X103284836Y-115320038D01*
X103284836Y-115320038D02*
X103332455Y-115367657D01*
X103332455Y-115367657D02*
X103380074Y-115462895D01*
X103380074Y-115462895D02*
X103380074Y-115605752D01*
X103380074Y-115605752D02*
X103332455Y-115700990D01*
X103332455Y-115700990D02*
X103284836Y-115748609D01*
X103284836Y-115748609D02*
X103189598Y-115796228D01*
X103189598Y-115796228D02*
X102808646Y-115796228D01*
X103665789Y-115272419D02*
X104237217Y-115272419D01*
X103951503Y-116272419D02*
X103951503Y-115272419D01*
X101223810Y-81272419D02*
X101223810Y-80272419D01*
X101652381Y-80367657D02*
X101700000Y-80320038D01*
X101700000Y-80320038D02*
X101795238Y-80272419D01*
X101795238Y-80272419D02*
X102033333Y-80272419D01*
X102033333Y-80272419D02*
X102128571Y-80320038D01*
X102128571Y-80320038D02*
X102176190Y-80367657D01*
X102176190Y-80367657D02*
X102223809Y-80462895D01*
X102223809Y-80462895D02*
X102223809Y-80558133D01*
X102223809Y-80558133D02*
X102176190Y-80700990D01*
X102176190Y-80700990D02*
X101604762Y-81272419D01*
X101604762Y-81272419D02*
X102223809Y-81272419D01*
X103223809Y-81177180D02*
X103176190Y-81224800D01*
X103176190Y-81224800D02*
X103033333Y-81272419D01*
X103033333Y-81272419D02*
X102938095Y-81272419D01*
X102938095Y-81272419D02*
X102795238Y-81224800D01*
X102795238Y-81224800D02*
X102700000Y-81129561D01*
X102700000Y-81129561D02*
X102652381Y-81034323D01*
X102652381Y-81034323D02*
X102604762Y-80843847D01*
X102604762Y-80843847D02*
X102604762Y-80700990D01*
X102604762Y-80700990D02*
X102652381Y-80510514D01*
X102652381Y-80510514D02*
X102700000Y-80415276D01*
X102700000Y-80415276D02*
X102795238Y-80320038D01*
X102795238Y-80320038D02*
X102938095Y-80272419D01*
X102938095Y-80272419D02*
X103033333Y-80272419D01*
X103033333Y-80272419D02*
X103176190Y-80320038D01*
X103176190Y-80320038D02*
X103223809Y-80367657D01*
D12*
X84768514Y-112935238D02*
X84768514Y-111935238D01*
X84768514Y-112411428D02*
X85339942Y-112411428D01*
X85339942Y-112935238D02*
X85339942Y-111935238D01*
X86244704Y-112268571D02*
X86244704Y-112935238D01*
X86006609Y-111887619D02*
X85768514Y-112601904D01*
X85768514Y-112601904D02*
X86387561Y-112601904D01*
X124738095Y-112904819D02*
X124738095Y-111904819D01*
X124738095Y-112381009D02*
X125309523Y-112381009D01*
X125309523Y-112904819D02*
X125309523Y-111904819D01*
X125738095Y-112000057D02*
X125785714Y-111952438D01*
X125785714Y-111952438D02*
X125880952Y-111904819D01*
X125880952Y-111904819D02*
X126119047Y-111904819D01*
X126119047Y-111904819D02*
X126214285Y-111952438D01*
X126214285Y-111952438D02*
X126261904Y-112000057D01*
X126261904Y-112000057D02*
X126309523Y-112095295D01*
X126309523Y-112095295D02*
X126309523Y-112190533D01*
X126309523Y-112190533D02*
X126261904Y-112333390D01*
X126261904Y-112333390D02*
X125690476Y-112904819D01*
X125690476Y-112904819D02*
X126309523Y-112904819D01*
D13*
%TO.C,J2*%
X117960000Y-75870000D02*
X117960000Y-77000000D01*
X117200000Y-75870000D02*
X117960000Y-75870000D01*
X116440000Y-75870000D02*
X111425000Y-75870000D01*
X116440000Y-75870000D02*
X116440000Y-76436529D01*
X111425000Y-75870000D02*
X111425000Y-76692470D01*
X111425000Y-77307530D02*
X111425000Y-77962470D01*
X116440000Y-77563471D02*
X116440000Y-77706529D01*
X117895000Y-77760000D02*
X117895000Y-77962470D01*
X117763471Y-77760000D02*
X117895000Y-77760000D01*
X116493471Y-77760000D02*
X116636529Y-77760000D01*
X117895000Y-78577530D02*
X117895000Y-79400000D01*
X111425000Y-78577530D02*
X111425000Y-79400000D01*
X117895000Y-79400000D02*
X111425000Y-79400000D01*
%TO.C,SW1*%
X80500000Y-87200000D02*
X80500000Y-92900000D01*
X81510000Y-93500000D02*
X82300000Y-93500000D01*
X82300000Y-86600000D02*
X81510000Y-86600000D01*
X83350000Y-88450000D02*
X83350000Y-90150000D01*
X83350000Y-91450000D02*
X83350000Y-91650000D01*
%TO.C,D1*%
X95640000Y-102380000D02*
X95640000Y-104665000D01*
X95640000Y-104665000D02*
X97110000Y-104665000D01*
X97110000Y-104665000D02*
X97110000Y-102380000D01*
%TO.C,D3*%
X124765000Y-96902500D02*
X124765000Y-99187500D01*
X126235000Y-96902500D02*
X124765000Y-96902500D01*
X126235000Y-99187500D02*
X126235000Y-96902500D01*
%TO.C,C10*%
X94515000Y-98517836D02*
X94515000Y-98302164D01*
X95235000Y-98517836D02*
X95235000Y-98302164D01*
%TO.C,R2*%
X93420000Y-95936359D02*
X93420000Y-96243641D01*
X94180000Y-95936359D02*
X94180000Y-96243641D01*
%TO.C,C12*%
X93240000Y-93627836D02*
X93240000Y-93412164D01*
X93960000Y-93627836D02*
X93960000Y-93412164D01*
%TO.C,F1*%
X116840000Y-97514564D02*
X116840000Y-96310436D01*
X118660000Y-97514564D02*
X118660000Y-96310436D01*
%TO.C,U2*%
X118640000Y-89337500D02*
X118640000Y-88537500D01*
X118640000Y-89337500D02*
X118640000Y-90137500D01*
X121760000Y-89337500D02*
X121760000Y-88537500D01*
X121760000Y-89337500D02*
X121760000Y-90137500D01*
X118690000Y-90637500D02*
X118360000Y-90877500D01*
X118360000Y-90397500D01*
X118690000Y-90637500D01*
G36*
X118690000Y-90637500D02*
G01*
X118360000Y-90877500D01*
X118360000Y-90397500D01*
X118690000Y-90637500D01*
G37*
%TO.C,C9*%
X93015000Y-98517836D02*
X93015000Y-98302164D01*
X93735000Y-98517836D02*
X93735000Y-98302164D01*
%TO.C,R6*%
X115877500Y-101787742D02*
X115877500Y-102262258D01*
X116922500Y-101787742D02*
X116922500Y-102262258D01*
%TO.C,C3*%
X96186252Y-87695000D02*
X95663748Y-87695000D01*
X96186252Y-89165000D02*
X95663748Y-89165000D01*
%TO.C,R8*%
X118227500Y-101787742D02*
X118227500Y-102262258D01*
X119272500Y-101787742D02*
X119272500Y-102262258D01*
%TO.C,J4*%
X98715000Y-117140000D02*
X98715000Y-122860000D01*
X98715000Y-122860000D02*
X102200000Y-122860000D01*
X99785000Y-117140000D02*
X98715000Y-117140000D01*
X99785000Y-117440000D02*
X99785000Y-117140000D01*
X100075000Y-116850000D02*
X99575000Y-116850000D01*
X100075000Y-117150000D02*
X100075000Y-116850000D01*
X102200000Y-117440000D02*
X99785000Y-117440000D01*
X102200000Y-117440000D02*
X104615000Y-117440000D01*
X104615000Y-117140000D02*
X105685000Y-117140000D01*
X104615000Y-117440000D02*
X104615000Y-117140000D01*
X105685000Y-117140000D02*
X105685000Y-122860000D01*
X105685000Y-122860000D02*
X102200000Y-122860000D01*
%TO.C,C11*%
X87387836Y-94040000D02*
X87172164Y-94040000D01*
X87387836Y-94760000D02*
X87172164Y-94760000D01*
%TO.C,C7*%
X109212164Y-91040000D02*
X109427836Y-91040000D01*
X109212164Y-91760000D02*
X109427836Y-91760000D01*
%TO.C,R7*%
X119977500Y-102262258D02*
X119977500Y-101787742D01*
X121022500Y-102262258D02*
X121022500Y-101787742D01*
%TO.C,J5*%
X126390000Y-93260000D02*
X130750000Y-93260000D01*
X126390000Y-93260000D02*
X126390000Y-90760000D01*
X126390000Y-90760000D02*
X126190000Y-90760000D01*
X126390000Y-87240000D02*
X126390000Y-84740000D01*
X126390000Y-84740000D02*
X130750000Y-84740000D01*
X126190000Y-90100000D02*
X126190000Y-90760000D01*
%TO.C,Y1*%
X89300000Y-96300000D02*
X92600000Y-96300000D01*
X92600000Y-96300000D02*
X92600000Y-92300000D01*
%TO.C,R9*%
X100162742Y-86077500D02*
X100637258Y-86077500D01*
X100162742Y-87122500D02*
X100637258Y-87122500D01*
%TO.C,R5*%
X112537742Y-102327500D02*
X113012258Y-102327500D01*
X112537742Y-103372500D02*
X113012258Y-103372500D01*
%TO.C,L2*%
X109940000Y-109912878D02*
X109940000Y-110712122D01*
X111060000Y-109912878D02*
X111060000Y-110712122D01*
%TO.C,C8*%
X99517164Y-88570000D02*
X99732836Y-88570000D01*
X99517164Y-89290000D02*
X99732836Y-89290000D01*
%TO.C,C14*%
X112140000Y-109877836D02*
X112140000Y-109662164D01*
X112860000Y-109877836D02*
X112860000Y-109662164D01*
%TO.C,R1*%
X86953641Y-90420000D02*
X86646359Y-90420000D01*
X86953641Y-91180000D02*
X86646359Y-91180000D01*
%TO.C,MP2359DJ1*%
X113750000Y-104490000D02*
X112950000Y-104490000D01*
X113750000Y-104490000D02*
X114550000Y-104490000D01*
X113750000Y-107610000D02*
X112950000Y-107610000D01*
X113750000Y-107610000D02*
X114550000Y-107610000D01*
X115290000Y-107890000D02*
X114810000Y-107890000D01*
X115050000Y-107560000D01*
X115290000Y-107890000D01*
G36*
X115290000Y-107890000D02*
G01*
X114810000Y-107890000D01*
X115050000Y-107560000D01*
X115290000Y-107890000D01*
G37*
%TO.C,R4*%
X111977500Y-98612742D02*
X111977500Y-99087258D01*
X113022500Y-98612742D02*
X113022500Y-99087258D01*
%TO.C,C2*%
X107511252Y-104895000D02*
X106988748Y-104895000D01*
X107511252Y-106365000D02*
X106988748Y-106365000D01*
%TO.C,D2*%
X120000000Y-99272500D02*
X120000000Y-95262500D01*
X120000000Y-99272500D02*
X122000000Y-99272500D01*
X122000000Y-99272500D02*
X122000000Y-95262500D01*
%TO.C,R10*%
X104212258Y-86077500D02*
X103737742Y-86077500D01*
X104212258Y-87122500D02*
X103737742Y-87122500D01*
%TO.C,J3*%
X98715000Y-73940000D02*
X102200000Y-73940000D01*
X98715000Y-79660000D02*
X98715000Y-73940000D01*
X99785000Y-79360000D02*
X99785000Y-79660000D01*
X99785000Y-79660000D02*
X98715000Y-79660000D01*
X102200000Y-79360000D02*
X99785000Y-79360000D01*
X102200000Y-79360000D02*
X104615000Y-79360000D01*
X104325000Y-79650000D02*
X104325000Y-79950000D01*
X104325000Y-79950000D02*
X104825000Y-79950000D01*
X104615000Y-79360000D02*
X104615000Y-79660000D01*
X104615000Y-79660000D02*
X105685000Y-79660000D01*
X105685000Y-73940000D02*
X102200000Y-73940000D01*
X105685000Y-79660000D02*
X105685000Y-73940000D01*
%TO.C,Q1*%
X117740000Y-106437500D02*
X117740000Y-105787500D01*
X117740000Y-106437500D02*
X117740000Y-107087500D01*
X120860000Y-106437500D02*
X120860000Y-105787500D01*
X120860000Y-106437500D02*
X120860000Y-107087500D01*
X121140000Y-105515000D02*
X120810000Y-105275000D01*
X121140000Y-105035000D01*
X121140000Y-105515000D01*
G36*
X121140000Y-105515000D02*
G01*
X120810000Y-105275000D01*
X121140000Y-105035000D01*
X121140000Y-105515000D01*
G37*
%TO.C,R11*%
X127227500Y-98187742D02*
X127227500Y-98662258D01*
X128272500Y-98187742D02*
X128272500Y-98662258D01*
%TO.C,C5*%
X100002836Y-104070000D02*
X99787164Y-104070000D01*
X100002836Y-104790000D02*
X99787164Y-104790000D01*
%TO.C,C1*%
X112661252Y-91465000D02*
X112138748Y-91465000D01*
X112661252Y-92935000D02*
X112138748Y-92935000D01*
%TO.C,FB1*%
X114190000Y-96662878D02*
X114190000Y-97462122D01*
X115310000Y-96662878D02*
X115310000Y-97462122D01*
%TO.C,R3*%
X94102500Y-103417258D02*
X94102500Y-102942742D01*
X95147500Y-103417258D02*
X95147500Y-102942742D01*
%TO.C,C15*%
X122607836Y-100740000D02*
X122392164Y-100740000D01*
X122607836Y-101460000D02*
X122392164Y-101460000D01*
%TO.C,C4*%
X94765000Y-93302164D02*
X94765000Y-93517836D01*
X95485000Y-93302164D02*
X95485000Y-93517836D01*
%TO.C,C16*%
X122740000Y-98246920D02*
X122740000Y-98528080D01*
X123760000Y-98246920D02*
X123760000Y-98528080D01*
%TO.C,C6*%
X107765000Y-103302164D02*
X107765000Y-103517836D01*
X108485000Y-103302164D02*
X108485000Y-103517836D01*
%TO.C,C13*%
X114662164Y-99565000D02*
X114877836Y-99565000D01*
X114662164Y-100285000D02*
X114877836Y-100285000D01*
%TO.C,J1*%
X122390000Y-102790000D02*
X130110000Y-102790000D01*
X122390000Y-109910000D02*
X122390000Y-102790000D01*
X122390000Y-109910000D02*
X130110000Y-109910000D01*
X124275000Y-103530000D02*
X124369000Y-103624000D01*
X124481000Y-103325000D02*
X124609000Y-103454000D01*
X126491000Y-105745000D02*
X126619000Y-105874000D01*
X126731000Y-105575000D02*
X126824000Y-105669000D01*
X128550000Y-109910000D02*
X128550000Y-102790000D01*
X129650000Y-109910000D02*
X129650000Y-102790000D01*
X129710000Y-110150000D02*
X130350000Y-110150000D01*
X130110000Y-109910000D02*
X130110000Y-102790000D01*
X130350000Y-110150000D02*
X130350000Y-109750000D01*
X124124642Y-108989894D02*
G75*
G02*
X124110000Y-107234000I1425356J889894D01*
G01*
X124659807Y-106674496D02*
G75*
G02*
X126441000Y-106675000I890193J-1425507D01*
G01*
X126439894Y-109525358D02*
G75*
G02*
X124684000Y-109540000I-889894J1425356D01*
G01*
X126974721Y-107209736D02*
G75*
G02*
X127230000Y-108100000I-1424711J-890261D01*
G01*
X127230099Y-108071326D02*
G75*
G02*
X126990000Y-108966000I-1680113J-28671D01*
G01*
X127230000Y-104600000D02*
G75*
G02*
X123870000Y-104600000I-1680000J0D01*
G01*
X123870000Y-104600000D02*
G75*
G02*
X127230000Y-104600000I1680000J0D01*
G01*
%TO.C,U1*%
X97815000Y-91570000D02*
X97815000Y-92520000D01*
X97815000Y-101790000D02*
X97815000Y-100840000D01*
X98765000Y-91570000D02*
X97815000Y-91570000D01*
X98765000Y-101790000D02*
X97815000Y-101790000D01*
X107085000Y-91570000D02*
X108035000Y-91570000D01*
X107085000Y-101790000D02*
X108035000Y-101790000D01*
X108035000Y-91570000D02*
X108035000Y-92520000D01*
X108035000Y-101790000D02*
X108035000Y-100840000D01*
X97200000Y-92520000D02*
X96860000Y-92050000D01*
X97540000Y-92050000D01*
X97200000Y-92520000D01*
G36*
X97200000Y-92520000D02*
G01*
X96860000Y-92050000D01*
X97540000Y-92050000D01*
X97200000Y-92520000D01*
G37*
%TD*%
M02*
