%TF.GenerationSoftware,KiCad,Pcbnew,8.0.5-8.0.5-0~ubuntu24.04.1*%
%TF.CreationDate,2024-09-30T02:40:30+03:30*%
%TF.ProjectId,stm32buckusb,73746d33-3262-4756-936b-7573622e6b69,rev?*%
%TF.SameCoordinates,Original*%
%TF.FileFunction,Copper,L3,Inr*%
%TF.FilePolarity,Positive*%
%FSLAX46Y46*%
G04 Gerber Fmt 4.6, Leading zero omitted, Abs format (unit mm)*
G04 Created by KiCad (PCBNEW 8.0.5-8.0.5-0~ubuntu24.04.1) date 2024-09-30 02:40:30*
%MOMM*%
%LPD*%
G01*
G04 APERTURE LIST*
G04 Aperture macros list*
%AMRoundRect*
0 Rectangle with rounded corners*
0 $1 Rounding radius*
0 $2 $3 $4 $5 $6 $7 $8 $9 X,Y pos of 4 corners*
0 Add a 4 corners polygon primitive as box body*
4,1,4,$2,$3,$4,$5,$6,$7,$8,$9,$2,$3,0*
0 Add four circle primitives for the rounded corners*
1,1,$1+$1,$2,$3*
1,1,$1+$1,$4,$5*
1,1,$1+$1,$6,$7*
1,1,$1+$1,$8,$9*
0 Add four rect primitives between the rounded corners*
20,1,$1+$1,$2,$3,$4,$5,0*
20,1,$1+$1,$4,$5,$6,$7,0*
20,1,$1+$1,$6,$7,$8,$9,0*
20,1,$1+$1,$8,$9,$2,$3,0*%
G04 Aperture macros list end*
%TA.AperFunction,ComponentPad*%
%ADD10R,1.000000X1.000000*%
%TD*%
%TA.AperFunction,ComponentPad*%
%ADD11O,1.000000X1.000000*%
%TD*%
%TA.AperFunction,ComponentPad*%
%ADD12C,0.900000*%
%TD*%
%TA.AperFunction,ComponentPad*%
%ADD13C,8.600000*%
%TD*%
%TA.AperFunction,ComponentPad*%
%ADD14RoundRect,0.200000X-0.200000X-0.450000X0.200000X-0.450000X0.200000X0.450000X-0.200000X0.450000X0*%
%TD*%
%TA.AperFunction,ComponentPad*%
%ADD15O,0.800000X1.300000*%
%TD*%
%TA.AperFunction,ComponentPad*%
%ADD16O,1.600000X0.900000*%
%TD*%
%TA.AperFunction,ComponentPad*%
%ADD17RoundRect,0.200000X0.200000X0.450000X-0.200000X0.450000X-0.200000X-0.450000X0.200000X-0.450000X0*%
%TD*%
%TA.AperFunction,ComponentPad*%
%ADD18R,2.400000X2.400000*%
%TD*%
%TA.AperFunction,ComponentPad*%
%ADD19C,2.400000*%
%TD*%
%TA.AperFunction,ViaPad*%
%ADD20C,0.800000*%
%TD*%
%TA.AperFunction,ViaPad*%
%ADD21C,0.600000*%
%TD*%
G04 APERTURE END LIST*
D10*
%TO.N,+3.3V*%
%TO.C,J2*%
X117200000Y-77000000D03*
D11*
%TO.N,SWDIO*%
X117200000Y-78270000D03*
%TO.N,GND*%
X115930000Y-77000000D03*
%TO.N,SECLK*%
X115930000Y-78270000D03*
%TO.N,GND*%
X114660000Y-77000000D03*
%TO.N,SWO*%
X114660000Y-78270000D03*
%TO.N,unconnected-(J2-Pin_7-Pad7)*%
X113390000Y-77000000D03*
%TO.N,unconnected-(J2-Pin_8-Pad8)*%
X113390000Y-78270000D03*
%TO.N,GND*%
X112120000Y-77000000D03*
%TO.N,NRST*%
X112120000Y-78270000D03*
%TD*%
D12*
%TO.N,GND*%
%TO.C,H4*%
X82305419Y-117780419D03*
X83250000Y-115500000D03*
X83250000Y-120060838D03*
X85530419Y-114555419D03*
D13*
X85530419Y-117780419D03*
D12*
X85530419Y-121005419D03*
X87810838Y-115500000D03*
X87810838Y-120060838D03*
X88755419Y-117780419D03*
%TD*%
%TO.N,GND*%
%TO.C,H1*%
X122244581Y-78250000D03*
X123189162Y-75969581D03*
X123189162Y-80530419D03*
X125469581Y-75025000D03*
D13*
X125469581Y-78250000D03*
D12*
X125469581Y-81475000D03*
X127750000Y-75969581D03*
X127750000Y-80530419D03*
X128694581Y-78250000D03*
%TD*%
D14*
%TO.N,+3.3V*%
%TO.C,J4*%
X100325000Y-118300000D03*
D15*
%TO.N,UART3_TX*%
X101575000Y-118300000D03*
%TO.N,UART3_RX*%
X102825000Y-118300000D03*
%TO.N,GND*%
X104075000Y-118300000D03*
%TD*%
D12*
%TO.N,GND*%
%TO.C,H3*%
X82305419Y-78280419D03*
X83250000Y-76000000D03*
X83250000Y-80560838D03*
X85530419Y-75055419D03*
D13*
X85530419Y-78280419D03*
D12*
X85530419Y-81505419D03*
X87810838Y-76000000D03*
X87810838Y-80560838D03*
X88755419Y-78280419D03*
%TD*%
%TO.N,GND*%
%TO.C,H2*%
X122275000Y-117750000D03*
X123219581Y-115469581D03*
X123219581Y-120030419D03*
X125500000Y-114525000D03*
D13*
X125500000Y-117750000D03*
D12*
X125500000Y-120975000D03*
X127780419Y-115469581D03*
X127780419Y-120030419D03*
X128725000Y-117750000D03*
%TD*%
D16*
%TO.N,unconnected-(J5-Shield-Pad6)_5*%
%TO.C,J5*%
X129800000Y-85700000D03*
%TO.N,unconnected-(J5-Shield-Pad6)_3*%
X129800000Y-92300000D03*
%TD*%
D17*
%TO.N,+3.3V*%
%TO.C,J3*%
X104075000Y-78500000D03*
D15*
%TO.N,I2C1_SCL*%
X102825000Y-78500000D03*
%TO.N,I2C1_SDA*%
X101575000Y-78500000D03*
%TO.N,GND*%
X100325000Y-78500000D03*
%TD*%
D18*
%TO.N,+12V*%
%TO.C,J1*%
X125550000Y-108100000D03*
D19*
%TO.N,GND*%
X125550000Y-104600000D03*
%TD*%
D20*
%TO.N,NRST*%
X107600000Y-83600000D03*
%TO.N,+3.3V*%
X117200000Y-75800000D03*
%TO.N,GND*%
X115800000Y-75800000D03*
X114600000Y-75800000D03*
X111000000Y-77000000D03*
%TO.N,NRST*%
X106400000Y-93200000D03*
%TO.N,GND*%
X93600000Y-92200000D03*
%TO.N,+5V*%
X122800000Y-87200000D03*
X123400000Y-90400000D03*
%TO.N,GND*%
X109000000Y-104000000D03*
X100200000Y-88200000D03*
%TO.N,+3.3V*%
X123600000Y-100200000D03*
X125400000Y-100200000D03*
%TO.N,GND*%
X109800000Y-90600000D03*
X116000000Y-99000000D03*
X113600000Y-101800000D03*
X109200000Y-105600000D03*
X93600000Y-102400000D03*
X89000000Y-95400000D03*
X91800000Y-92000000D03*
X100400000Y-79800000D03*
X113400000Y-90800000D03*
X120200000Y-91600000D03*
X116200000Y-106800000D03*
X116200000Y-105800000D03*
X119400000Y-104600000D03*
X120200000Y-104200000D03*
X121200000Y-104600000D03*
X120000000Y-100200000D03*
X121000000Y-100200000D03*
X127800000Y-100200000D03*
X128800000Y-99400000D03*
X124200000Y-97600000D03*
X122800000Y-96400000D03*
X125200000Y-86600000D03*
X124200000Y-86600000D03*
X124200000Y-87600000D03*
X125200000Y-87600000D03*
X104000000Y-117200000D03*
X92600000Y-98000000D03*
X95000000Y-97000000D03*
X98500000Y-104500000D03*
X94000000Y-88500000D03*
X84900000Y-92250000D03*
X86000000Y-94400000D03*
%TO.N,+3.3V*%
X118750000Y-100250000D03*
X116500000Y-100250000D03*
X111500000Y-111500000D03*
X110500000Y-112250000D03*
X109500000Y-111500000D03*
X109000000Y-103000000D03*
X95000000Y-92000000D03*
X108750000Y-90500000D03*
X104000000Y-79750000D03*
X99500000Y-85500000D03*
X100250000Y-117250000D03*
X101250000Y-104500000D03*
X95250000Y-100500000D03*
X84900000Y-87750000D03*
X96750000Y-87250000D03*
X105750000Y-86600000D03*
D21*
%TO.N,Net-(D2-K)*%
X117600000Y-100000000D03*
X117600000Y-103600000D03*
%TD*%
%TA.AperFunction,Conductor*%
%TO.N,+3.3V*%
G36*
X125602562Y-73100605D02*
G01*
X126049036Y-73119072D01*
X126059209Y-73119915D01*
X126500114Y-73174873D01*
X126510194Y-73176555D01*
X126945042Y-73267733D01*
X126954950Y-73270242D01*
X127380786Y-73397019D01*
X127390454Y-73400338D01*
X127693451Y-73518569D01*
X127804339Y-73561838D01*
X127813724Y-73565954D01*
X127926440Y-73621057D01*
X128212869Y-73761083D01*
X128221877Y-73765958D01*
X128603544Y-73993383D01*
X128612123Y-73998989D01*
X128973693Y-74257144D01*
X128981770Y-74263431D01*
X129288768Y-74523445D01*
X129320796Y-74550571D01*
X129328336Y-74557512D01*
X129642487Y-74871663D01*
X129649428Y-74879203D01*
X129699952Y-74938857D01*
X129874529Y-75144980D01*
X129936564Y-75218224D01*
X129942859Y-75226312D01*
X130201010Y-75587876D01*
X130206616Y-75596455D01*
X130434041Y-75978122D01*
X130438919Y-75987136D01*
X130634045Y-76386275D01*
X130638161Y-76395660D01*
X130799656Y-76809533D01*
X130802984Y-76819226D01*
X130929753Y-77245036D01*
X130932269Y-77254971D01*
X131023441Y-77689791D01*
X131025128Y-77699900D01*
X131080082Y-78140769D01*
X131080928Y-78150983D01*
X131099394Y-78597437D01*
X131099500Y-78602561D01*
X131099500Y-85005927D01*
X131079815Y-85072966D01*
X131027011Y-85118721D01*
X130957853Y-85128665D01*
X130894297Y-85099640D01*
X130887819Y-85093608D01*
X130755911Y-84961700D01*
X130755907Y-84961697D01*
X130600237Y-84857681D01*
X130600228Y-84857676D01*
X130427251Y-84786027D01*
X130427243Y-84786025D01*
X130243620Y-84749500D01*
X130243616Y-84749500D01*
X129356384Y-84749500D01*
X129356379Y-84749500D01*
X129172756Y-84786025D01*
X129172748Y-84786027D01*
X128999771Y-84857676D01*
X128999762Y-84857681D01*
X128844092Y-84961697D01*
X128844088Y-84961700D01*
X128711700Y-85094088D01*
X128711697Y-85094092D01*
X128607681Y-85249762D01*
X128607676Y-85249771D01*
X128536027Y-85422748D01*
X128536025Y-85422756D01*
X128499500Y-85606379D01*
X128499500Y-85793620D01*
X128536025Y-85977243D01*
X128536027Y-85977251D01*
X128607676Y-86150228D01*
X128607681Y-86150237D01*
X128711697Y-86305907D01*
X128711700Y-86305911D01*
X128844088Y-86438299D01*
X128844092Y-86438302D01*
X128999762Y-86542318D01*
X128999768Y-86542321D01*
X128999769Y-86542322D01*
X129172749Y-86613973D01*
X129356379Y-86650499D01*
X129356383Y-86650500D01*
X129356384Y-86650500D01*
X130243617Y-86650500D01*
X130243618Y-86650499D01*
X130427251Y-86613973D01*
X130600231Y-86542322D01*
X130755908Y-86438302D01*
X130810937Y-86383273D01*
X130887819Y-86306392D01*
X130949142Y-86272907D01*
X131018834Y-86277891D01*
X131074767Y-86319763D01*
X131099184Y-86385227D01*
X131099500Y-86394073D01*
X131099500Y-91605927D01*
X131079815Y-91672966D01*
X131027011Y-91718721D01*
X130957853Y-91728665D01*
X130894297Y-91699640D01*
X130887819Y-91693608D01*
X130755911Y-91561700D01*
X130755907Y-91561697D01*
X130600237Y-91457681D01*
X130600228Y-91457676D01*
X130427251Y-91386027D01*
X130427243Y-91386025D01*
X130243620Y-91349500D01*
X130243616Y-91349500D01*
X129356384Y-91349500D01*
X129356379Y-91349500D01*
X129172756Y-91386025D01*
X129172748Y-91386027D01*
X128999771Y-91457676D01*
X128999762Y-91457681D01*
X128844092Y-91561697D01*
X128844088Y-91561700D01*
X128711700Y-91694088D01*
X128711697Y-91694092D01*
X128607681Y-91849762D01*
X128607676Y-91849771D01*
X128536027Y-92022748D01*
X128536025Y-92022756D01*
X128499500Y-92206379D01*
X128499500Y-92393620D01*
X128536025Y-92577243D01*
X128536027Y-92577251D01*
X128607676Y-92750228D01*
X128607681Y-92750237D01*
X128711697Y-92905907D01*
X128711700Y-92905911D01*
X128844088Y-93038299D01*
X128844092Y-93038302D01*
X128999762Y-93142318D01*
X128999768Y-93142321D01*
X128999769Y-93142322D01*
X129172749Y-93213973D01*
X129356379Y-93250499D01*
X129356383Y-93250500D01*
X129356384Y-93250500D01*
X130243617Y-93250500D01*
X130243618Y-93250499D01*
X130427251Y-93213973D01*
X130600231Y-93142322D01*
X130755908Y-93038302D01*
X130810062Y-92984148D01*
X130887819Y-92906392D01*
X130949142Y-92872907D01*
X131018834Y-92877891D01*
X131074767Y-92919763D01*
X131099184Y-92985227D01*
X131099500Y-92994073D01*
X131099500Y-117797438D01*
X131099394Y-117802562D01*
X131080928Y-118249016D01*
X131080082Y-118259230D01*
X131025128Y-118700099D01*
X131023441Y-118710208D01*
X130932269Y-119145028D01*
X130929753Y-119154963D01*
X130802984Y-119580773D01*
X130799656Y-119590466D01*
X130638161Y-120004339D01*
X130634045Y-120013724D01*
X130438919Y-120412863D01*
X130434041Y-120421877D01*
X130206616Y-120803544D01*
X130201010Y-120812123D01*
X129942859Y-121173687D01*
X129936564Y-121181775D01*
X129649428Y-121520796D01*
X129642487Y-121528336D01*
X129328336Y-121842487D01*
X129320796Y-121849428D01*
X128981775Y-122136564D01*
X128973687Y-122142859D01*
X128612123Y-122401010D01*
X128603544Y-122406616D01*
X128221877Y-122634041D01*
X128212863Y-122638919D01*
X127813724Y-122834045D01*
X127804339Y-122838161D01*
X127390466Y-122999656D01*
X127380773Y-123002984D01*
X126954963Y-123129753D01*
X126945028Y-123132269D01*
X126510208Y-123223441D01*
X126500099Y-123225128D01*
X126059230Y-123280082D01*
X126049016Y-123280928D01*
X125602563Y-123299394D01*
X125597439Y-123299500D01*
X85602561Y-123299500D01*
X85597437Y-123299394D01*
X85167499Y-123281612D01*
X85157285Y-123280766D01*
X84732819Y-123227856D01*
X84722710Y-123226169D01*
X84304068Y-123138389D01*
X84294133Y-123135873D01*
X83884166Y-123013820D01*
X83874473Y-123010492D01*
X83475993Y-122855005D01*
X83466608Y-122850888D01*
X83082330Y-122663026D01*
X83073323Y-122658153D01*
X82705850Y-122439187D01*
X82697270Y-122433581D01*
X82349156Y-122185031D01*
X82341069Y-122178737D01*
X82014653Y-121902278D01*
X82007113Y-121895336D01*
X81704663Y-121592886D01*
X81697721Y-121585346D01*
X81421262Y-121258930D01*
X81414968Y-121250843D01*
X81290693Y-121076786D01*
X81166414Y-120902723D01*
X81160812Y-120894149D01*
X81128311Y-120839605D01*
X80941841Y-120526667D01*
X80936973Y-120517669D01*
X80885736Y-120412863D01*
X80788841Y-120214661D01*
X80749111Y-120133391D01*
X80744994Y-120124006D01*
X80644073Y-119865366D01*
X80589503Y-119725514D01*
X80586183Y-119715846D01*
X80464122Y-119305853D01*
X80461613Y-119295945D01*
X80373827Y-118877275D01*
X80372145Y-118867195D01*
X80319231Y-118442693D01*
X80318388Y-118432520D01*
X80300606Y-118002562D01*
X80300500Y-117997438D01*
X80300500Y-117780415D01*
X80725080Y-117780415D01*
X80725080Y-117780422D01*
X80744424Y-118211156D01*
X80744425Y-118211165D01*
X80802304Y-118638446D01*
X80898249Y-119058810D01*
X81031492Y-119468891D01*
X81031495Y-119468899D01*
X81200952Y-119865366D01*
X81200956Y-119865374D01*
X81200958Y-119865377D01*
X81405282Y-120245074D01*
X81405286Y-120245080D01*
X81405286Y-120245081D01*
X81642813Y-120604920D01*
X81642823Y-120604933D01*
X81911644Y-120942026D01*
X81911656Y-120942039D01*
X82180540Y-121223269D01*
X82209629Y-121253693D01*
X82471054Y-121482094D01*
X82515352Y-121520796D01*
X82534339Y-121537384D01*
X82534349Y-121537391D01*
X82534350Y-121537392D01*
X82818696Y-121743982D01*
X82883172Y-121790826D01*
X83253319Y-122011979D01*
X83253322Y-122011980D01*
X83253323Y-122011981D01*
X83253325Y-122011982D01*
X83641791Y-122199058D01*
X83641805Y-122199064D01*
X84045474Y-122350563D01*
X84045478Y-122350564D01*
X84045488Y-122350568D01*
X84461130Y-122465278D01*
X84885383Y-122542269D01*
X85314828Y-122580919D01*
X85314835Y-122580919D01*
X85746003Y-122580919D01*
X85746010Y-122580919D01*
X86175455Y-122542269D01*
X86599708Y-122465278D01*
X87015350Y-122350568D01*
X87419038Y-122199062D01*
X87807519Y-122011979D01*
X88177666Y-121790826D01*
X88526499Y-121537384D01*
X88851209Y-121253693D01*
X89149183Y-120942038D01*
X89173441Y-120911620D01*
X89418014Y-120604933D01*
X89418020Y-120604926D01*
X89655556Y-120245074D01*
X89859880Y-119865377D01*
X89872887Y-119834947D01*
X89959702Y-119631831D01*
X90029345Y-119468894D01*
X90162587Y-119058816D01*
X90258534Y-118638445D01*
X90290834Y-118399999D01*
X90718888Y-118399999D01*
X90718888Y-118400000D01*
X90737295Y-118598649D01*
X90737295Y-118598651D01*
X90737296Y-118598654D01*
X90769036Y-118710208D01*
X90791894Y-118790546D01*
X90880816Y-118969126D01*
X90880821Y-118969134D01*
X90997797Y-119124034D01*
X91001049Y-119128340D01*
X91148484Y-119262746D01*
X91318107Y-119367772D01*
X91504140Y-119439841D01*
X91700248Y-119476500D01*
X91700250Y-119476500D01*
X91899750Y-119476500D01*
X91899752Y-119476500D01*
X92095860Y-119439841D01*
X92281893Y-119367772D01*
X92451516Y-119262746D01*
X92598951Y-119128340D01*
X92719180Y-118969132D01*
X92800121Y-118806582D01*
X99425001Y-118806582D01*
X99431408Y-118877102D01*
X99431409Y-118877107D01*
X99481981Y-119039396D01*
X99569927Y-119184877D01*
X99690122Y-119305072D01*
X99835604Y-119393019D01*
X99835603Y-119393019D01*
X99997894Y-119443590D01*
X99997893Y-119443590D01*
X100068408Y-119449998D01*
X100068426Y-119449999D01*
X100074999Y-119449998D01*
X100075000Y-119449998D01*
X100075000Y-118550000D01*
X99425001Y-118550000D01*
X99425001Y-118806582D01*
X92800121Y-118806582D01*
X92808107Y-118790543D01*
X92862704Y-118598654D01*
X92881112Y-118400000D01*
X92867238Y-118250272D01*
X100075000Y-118250272D01*
X100075000Y-118349728D01*
X100113060Y-118441614D01*
X100183386Y-118511940D01*
X100275272Y-118550000D01*
X100374728Y-118550000D01*
X100466614Y-118511940D01*
X100536940Y-118441614D01*
X100575000Y-118349728D01*
X100575000Y-119449999D01*
X100581581Y-119449999D01*
X100652102Y-119443591D01*
X100652107Y-119443590D01*
X100814398Y-119393018D01*
X100957662Y-119306411D01*
X101025217Y-119288574D01*
X101090702Y-119309425D01*
X101148453Y-119348013D01*
X101148455Y-119348014D01*
X101148457Y-119348015D01*
X101257106Y-119393018D01*
X101312334Y-119415894D01*
X101312336Y-119415894D01*
X101312341Y-119415896D01*
X101486304Y-119450499D01*
X101486307Y-119450500D01*
X101486309Y-119450500D01*
X101663693Y-119450500D01*
X101663694Y-119450499D01*
X101724159Y-119438472D01*
X101837658Y-119415896D01*
X101837661Y-119415894D01*
X101837666Y-119415894D01*
X102001547Y-119348013D01*
X102131109Y-119261442D01*
X102197786Y-119240564D01*
X102265166Y-119259048D01*
X102268891Y-119261442D01*
X102398453Y-119348013D01*
X102398455Y-119348014D01*
X102398459Y-119348016D01*
X102507106Y-119393018D01*
X102562334Y-119415894D01*
X102562336Y-119415894D01*
X102562341Y-119415896D01*
X102736304Y-119450499D01*
X102736307Y-119450500D01*
X102736309Y-119450500D01*
X102913693Y-119450500D01*
X102913694Y-119450499D01*
X102974159Y-119438472D01*
X103087658Y-119415896D01*
X103087661Y-119415894D01*
X103087666Y-119415894D01*
X103251547Y-119348013D01*
X103381109Y-119261442D01*
X103447786Y-119240564D01*
X103515166Y-119259048D01*
X103518891Y-119261442D01*
X103648453Y-119348013D01*
X103648455Y-119348014D01*
X103648459Y-119348016D01*
X103757106Y-119393018D01*
X103812334Y-119415894D01*
X103812336Y-119415894D01*
X103812341Y-119415896D01*
X103986304Y-119450499D01*
X103986307Y-119450500D01*
X103986309Y-119450500D01*
X104163693Y-119450500D01*
X104163694Y-119450499D01*
X104224159Y-119438472D01*
X104337658Y-119415896D01*
X104337661Y-119415894D01*
X104337666Y-119415894D01*
X104501547Y-119348013D01*
X104649035Y-119249464D01*
X104774464Y-119124035D01*
X104873013Y-118976547D01*
X104940894Y-118812666D01*
X104942105Y-118806582D01*
X104975499Y-118638695D01*
X104975500Y-118638693D01*
X104975500Y-118399999D01*
X118118888Y-118399999D01*
X118118888Y-118400000D01*
X118137295Y-118598649D01*
X118137295Y-118598651D01*
X118137296Y-118598654D01*
X118169036Y-118710208D01*
X118191894Y-118790546D01*
X118280816Y-118969126D01*
X118280821Y-118969134D01*
X118397797Y-119124034D01*
X118401049Y-119128340D01*
X118548484Y-119262746D01*
X118718107Y-119367772D01*
X118904140Y-119439841D01*
X119100248Y-119476500D01*
X119100250Y-119476500D01*
X119299750Y-119476500D01*
X119299752Y-119476500D01*
X119495860Y-119439841D01*
X119681893Y-119367772D01*
X119851516Y-119262746D01*
X119998951Y-119128340D01*
X120119180Y-118969132D01*
X120208107Y-118790543D01*
X120262704Y-118598654D01*
X120281112Y-118400000D01*
X120262704Y-118201346D01*
X120208107Y-118009457D01*
X120170588Y-117934108D01*
X120119183Y-117830873D01*
X120119178Y-117830865D01*
X120058108Y-117749996D01*
X120694661Y-117749996D01*
X120694661Y-117750003D01*
X120714005Y-118180737D01*
X120714005Y-118180745D01*
X120714006Y-118180747D01*
X120724637Y-118259230D01*
X120771885Y-118608027D01*
X120867830Y-119028391D01*
X121001073Y-119438472D01*
X121001076Y-119438480D01*
X121170533Y-119834947D01*
X121170537Y-119834955D01*
X121186908Y-119865377D01*
X121374863Y-120214655D01*
X121374867Y-120214661D01*
X121374867Y-120214662D01*
X121612394Y-120574501D01*
X121612404Y-120574514D01*
X121881225Y-120911607D01*
X121881235Y-120911618D01*
X121881236Y-120911619D01*
X122179210Y-121223274D01*
X122503920Y-121506965D01*
X122852753Y-121760407D01*
X123222900Y-121981560D01*
X123222903Y-121981561D01*
X123222904Y-121981562D01*
X123222906Y-121981563D01*
X123611372Y-122168639D01*
X123611386Y-122168645D01*
X124015055Y-122320144D01*
X124015059Y-122320145D01*
X124015069Y-122320149D01*
X124430711Y-122434859D01*
X124854964Y-122511850D01*
X125284409Y-122550500D01*
X125284416Y-122550500D01*
X125715584Y-122550500D01*
X125715591Y-122550500D01*
X126145036Y-122511850D01*
X126569289Y-122434859D01*
X126984931Y-122320149D01*
X127388619Y-122168643D01*
X127777100Y-121981560D01*
X128147247Y-121760407D01*
X128496080Y-121506965D01*
X128820790Y-121223274D01*
X129118764Y-120911619D01*
X129387601Y-120574507D01*
X129625137Y-120214655D01*
X129829461Y-119834958D01*
X129998926Y-119438475D01*
X130132168Y-119028397D01*
X130228115Y-118608026D01*
X130285994Y-118180747D01*
X130302978Y-117802562D01*
X130305339Y-117750003D01*
X130305339Y-117749996D01*
X130296024Y-117542581D01*
X130285994Y-117319253D01*
X130228115Y-116891974D01*
X130132168Y-116471603D01*
X129998926Y-116061525D01*
X129935376Y-115912843D01*
X129829466Y-115665052D01*
X129829462Y-115665044D01*
X129829461Y-115665042D01*
X129625137Y-115285345D01*
X129407684Y-114955917D01*
X129387605Y-114925498D01*
X129387595Y-114925485D01*
X129118774Y-114588392D01*
X129118762Y-114588379D01*
X128820794Y-114276730D01*
X128820793Y-114276729D01*
X128820790Y-114276726D01*
X128530902Y-114023458D01*
X128496085Y-113993039D01*
X128496068Y-113993026D01*
X128147256Y-113739599D01*
X128147251Y-113739596D01*
X128147247Y-113739593D01*
X127777100Y-113518440D01*
X127777095Y-113518437D01*
X127777093Y-113518436D01*
X127388627Y-113331360D01*
X127388613Y-113331354D01*
X126984944Y-113179855D01*
X126984919Y-113179847D01*
X126569295Y-113065142D01*
X126145043Y-112988151D01*
X126145040Y-112988150D01*
X126145036Y-112988150D01*
X125715591Y-112949500D01*
X125284409Y-112949500D01*
X124854964Y-112988150D01*
X124854960Y-112988150D01*
X124854956Y-112988151D01*
X124430704Y-113065142D01*
X124015080Y-113179847D01*
X124015055Y-113179855D01*
X123611386Y-113331354D01*
X123611372Y-113331360D01*
X123222906Y-113518436D01*
X123222904Y-113518437D01*
X122852743Y-113739599D01*
X122503931Y-113993026D01*
X122503914Y-113993039D01*
X122179210Y-114276726D01*
X122179205Y-114276730D01*
X121881237Y-114588379D01*
X121881225Y-114588392D01*
X121612404Y-114925485D01*
X121612394Y-114925498D01*
X121374867Y-115285337D01*
X121374867Y-115285338D01*
X121170537Y-115665044D01*
X121170533Y-115665052D01*
X121001076Y-116061519D01*
X121001073Y-116061527D01*
X120867830Y-116471608D01*
X120771885Y-116891972D01*
X120714006Y-117319253D01*
X120714005Y-117319262D01*
X120694661Y-117749996D01*
X120058108Y-117749996D01*
X119998951Y-117671660D01*
X119851516Y-117537254D01*
X119851513Y-117537252D01*
X119851512Y-117537251D01*
X119681898Y-117432231D01*
X119681891Y-117432227D01*
X119568387Y-117388256D01*
X119495860Y-117360159D01*
X119299752Y-117323500D01*
X119100248Y-117323500D01*
X118904140Y-117360159D01*
X118904137Y-117360159D01*
X118904137Y-117360160D01*
X118718108Y-117432227D01*
X118718101Y-117432231D01*
X118548487Y-117537251D01*
X118401048Y-117671660D01*
X118280821Y-117830865D01*
X118280816Y-117830873D01*
X118191894Y-118009453D01*
X118137295Y-118201350D01*
X118118888Y-118399999D01*
X104975500Y-118399999D01*
X104975500Y-117961306D01*
X104975499Y-117961304D01*
X104940896Y-117787341D01*
X104940893Y-117787332D01*
X104873016Y-117623460D01*
X104873015Y-117623459D01*
X104873013Y-117623453D01*
X104863527Y-117609257D01*
X104842650Y-117542581D01*
X104848697Y-117502055D01*
X104885674Y-117388256D01*
X104905460Y-117200000D01*
X104885674Y-117011744D01*
X104827179Y-116831716D01*
X104732533Y-116667784D01*
X104605871Y-116527112D01*
X104605870Y-116527111D01*
X104452734Y-116415851D01*
X104452729Y-116415848D01*
X104279807Y-116338857D01*
X104279802Y-116338855D01*
X104134001Y-116307865D01*
X104094646Y-116299500D01*
X103905354Y-116299500D01*
X103872897Y-116306398D01*
X103720197Y-116338855D01*
X103720192Y-116338857D01*
X103547270Y-116415848D01*
X103547265Y-116415851D01*
X103394129Y-116527111D01*
X103267466Y-116667785D01*
X103172821Y-116831715D01*
X103172818Y-116831722D01*
X103114326Y-117011742D01*
X103114325Y-117011746D01*
X103110241Y-117050601D01*
X103083656Y-117115215D01*
X103026358Y-117155199D01*
X102962729Y-117159254D01*
X102913693Y-117149500D01*
X102913691Y-117149500D01*
X102736309Y-117149500D01*
X102736306Y-117149500D01*
X102562341Y-117184103D01*
X102562332Y-117184106D01*
X102398459Y-117251983D01*
X102398446Y-117251990D01*
X102268891Y-117338557D01*
X102202213Y-117359435D01*
X102134833Y-117340950D01*
X102131109Y-117338557D01*
X102001553Y-117251990D01*
X102001540Y-117251983D01*
X101837667Y-117184106D01*
X101837658Y-117184103D01*
X101663694Y-117149500D01*
X101663691Y-117149500D01*
X101486309Y-117149500D01*
X101486306Y-117149500D01*
X101312341Y-117184103D01*
X101312332Y-117184106D01*
X101148459Y-117251983D01*
X101148448Y-117251989D01*
X101090702Y-117290574D01*
X101024024Y-117311451D01*
X100957662Y-117293588D01*
X100814395Y-117206980D01*
X100814396Y-117206980D01*
X100652105Y-117156409D01*
X100652106Y-117156409D01*
X100581572Y-117150000D01*
X100575000Y-117150000D01*
X100575000Y-118250272D01*
X100536940Y-118158386D01*
X100466614Y-118088060D01*
X100374728Y-118050000D01*
X100275272Y-118050000D01*
X100183386Y-118088060D01*
X100113060Y-118158386D01*
X100075000Y-118250272D01*
X92867238Y-118250272D01*
X92862704Y-118201346D01*
X92808107Y-118009457D01*
X92770588Y-117934108D01*
X92719183Y-117830873D01*
X92719178Y-117830865D01*
X92690906Y-117793427D01*
X99425000Y-117793427D01*
X99425000Y-118050000D01*
X100075000Y-118050000D01*
X100075000Y-117150000D01*
X100074999Y-117149999D01*
X100068436Y-117150000D01*
X100068417Y-117150001D01*
X99997897Y-117156408D01*
X99997892Y-117156409D01*
X99835603Y-117206981D01*
X99690122Y-117294927D01*
X99569927Y-117415122D01*
X99481980Y-117560604D01*
X99431409Y-117722893D01*
X99425000Y-117793427D01*
X92690906Y-117793427D01*
X92598951Y-117671660D01*
X92451516Y-117537254D01*
X92451513Y-117537252D01*
X92451512Y-117537251D01*
X92281898Y-117432231D01*
X92281891Y-117432227D01*
X92168387Y-117388256D01*
X92095860Y-117360159D01*
X91899752Y-117323500D01*
X91700248Y-117323500D01*
X91504140Y-117360159D01*
X91504137Y-117360159D01*
X91504137Y-117360160D01*
X91318108Y-117432227D01*
X91318101Y-117432231D01*
X91148487Y-117537251D01*
X91001048Y-117671660D01*
X90880821Y-117830865D01*
X90880816Y-117830873D01*
X90791894Y-118009453D01*
X90737295Y-118201350D01*
X90718888Y-118399999D01*
X90290834Y-118399999D01*
X90316413Y-118211166D01*
X90333492Y-117830868D01*
X90335758Y-117780422D01*
X90335758Y-117780415D01*
X90325825Y-117559250D01*
X90316413Y-117349672D01*
X90258534Y-116922393D01*
X90162587Y-116502022D01*
X90029345Y-116091944D01*
X89965795Y-115943262D01*
X89859885Y-115695471D01*
X89859881Y-115695463D01*
X89843511Y-115665042D01*
X89655556Y-115315764D01*
X89635472Y-115285338D01*
X89418024Y-114955917D01*
X89418014Y-114955904D01*
X89149193Y-114618811D01*
X89149181Y-114618798D01*
X88851213Y-114307149D01*
X88851212Y-114307148D01*
X88851209Y-114307145D01*
X88526499Y-114023454D01*
X88526487Y-114023445D01*
X88177675Y-113770018D01*
X88177670Y-113770015D01*
X88177666Y-113770012D01*
X87807519Y-113548859D01*
X87807514Y-113548856D01*
X87807512Y-113548855D01*
X87419046Y-113361779D01*
X87419032Y-113361773D01*
X87015363Y-113210274D01*
X87015338Y-113210266D01*
X86599714Y-113095561D01*
X86175462Y-113018570D01*
X86175459Y-113018569D01*
X86175455Y-113018569D01*
X85746010Y-112979919D01*
X85314828Y-112979919D01*
X84885383Y-113018569D01*
X84885379Y-113018569D01*
X84885375Y-113018570D01*
X84461123Y-113095561D01*
X84045499Y-113210266D01*
X84045474Y-113210274D01*
X83641805Y-113361773D01*
X83641791Y-113361779D01*
X83253325Y-113548855D01*
X83253323Y-113548856D01*
X82883162Y-113770018D01*
X82534350Y-114023445D01*
X82534333Y-114023458D01*
X82209629Y-114307145D01*
X82209624Y-114307149D01*
X81911656Y-114618798D01*
X81911644Y-114618811D01*
X81642823Y-114955904D01*
X81642813Y-114955917D01*
X81405286Y-115315756D01*
X81405286Y-115315757D01*
X81200956Y-115695463D01*
X81200952Y-115695471D01*
X81031495Y-116091938D01*
X81031492Y-116091946D01*
X80898249Y-116502027D01*
X80802304Y-116922391D01*
X80744425Y-117349672D01*
X80744424Y-117349681D01*
X80725080Y-117780415D01*
X80300500Y-117780415D01*
X80300500Y-104500000D01*
X97594540Y-104500000D01*
X97614326Y-104688256D01*
X97614327Y-104688259D01*
X97672818Y-104868277D01*
X97672821Y-104868284D01*
X97767467Y-105032216D01*
X97852911Y-105127111D01*
X97894129Y-105172888D01*
X98047265Y-105284148D01*
X98047270Y-105284151D01*
X98220192Y-105361142D01*
X98220197Y-105361144D01*
X98405354Y-105400500D01*
X98405355Y-105400500D01*
X98594644Y-105400500D01*
X98594646Y-105400500D01*
X98779803Y-105361144D01*
X98952730Y-105284151D01*
X99105871Y-105172888D01*
X99232533Y-105032216D01*
X99327179Y-104868284D01*
X99385674Y-104688256D01*
X99405460Y-104500000D01*
X99385674Y-104311744D01*
X99327179Y-104131716D01*
X99251133Y-104000000D01*
X108094540Y-104000000D01*
X108114326Y-104188256D01*
X108114327Y-104188259D01*
X108172818Y-104368277D01*
X108172821Y-104368284D01*
X108267467Y-104532216D01*
X108394129Y-104672888D01*
X108541999Y-104780322D01*
X108584665Y-104835652D01*
X108590644Y-104905265D01*
X108561264Y-104963612D01*
X108467466Y-105067785D01*
X108372821Y-105231715D01*
X108372818Y-105231722D01*
X108317979Y-105400500D01*
X108314326Y-105411744D01*
X108294540Y-105600000D01*
X108314326Y-105788256D01*
X108314327Y-105788259D01*
X108372818Y-105968277D01*
X108372821Y-105968284D01*
X108467467Y-106132216D01*
X108562715Y-106237999D01*
X108594129Y-106272888D01*
X108747265Y-106384148D01*
X108747270Y-106384151D01*
X108920192Y-106461142D01*
X108920197Y-106461144D01*
X109105354Y-106500500D01*
X109105355Y-106500500D01*
X109294644Y-106500500D01*
X109294646Y-106500500D01*
X109479803Y-106461144D01*
X109652730Y-106384151D01*
X109805871Y-106272888D01*
X109932533Y-106132216D01*
X110027179Y-105968284D01*
X110081858Y-105800000D01*
X115294540Y-105800000D01*
X115314326Y-105988256D01*
X115314327Y-105988259D01*
X115372818Y-106168277D01*
X115372820Y-106168281D01*
X115372821Y-106168284D01*
X115413071Y-106237999D01*
X115413072Y-106238001D01*
X115429543Y-106305901D01*
X115413072Y-106361999D01*
X115372820Y-106431718D01*
X115372818Y-106431722D01*
X115336839Y-106542455D01*
X115314326Y-106611744D01*
X115294540Y-106800000D01*
X115314326Y-106988256D01*
X115314327Y-106988259D01*
X115372818Y-107168277D01*
X115372821Y-107168284D01*
X115467467Y-107332216D01*
X115594129Y-107472888D01*
X115747265Y-107584148D01*
X115747270Y-107584151D01*
X115920192Y-107661142D01*
X115920197Y-107661144D01*
X116105354Y-107700500D01*
X116105355Y-107700500D01*
X116294644Y-107700500D01*
X116294646Y-107700500D01*
X116479803Y-107661144D01*
X116652730Y-107584151D01*
X116805871Y-107472888D01*
X116932533Y-107332216D01*
X117027179Y-107168284D01*
X117085674Y-106988256D01*
X117105460Y-106800000D01*
X117085674Y-106611744D01*
X117027179Y-106431716D01*
X116986927Y-106361999D01*
X116970454Y-106294101D01*
X116986927Y-106238001D01*
X117027179Y-106168284D01*
X117085674Y-105988256D01*
X117105460Y-105800000D01*
X117085674Y-105611744D01*
X117027179Y-105431716D01*
X116932533Y-105267784D01*
X116805871Y-105127112D01*
X116772184Y-105102637D01*
X116652734Y-105015851D01*
X116652729Y-105015848D01*
X116479807Y-104938857D01*
X116479802Y-104938855D01*
X116321768Y-104905265D01*
X116294646Y-104899500D01*
X116105354Y-104899500D01*
X116078232Y-104905265D01*
X115920197Y-104938855D01*
X115920192Y-104938857D01*
X115747270Y-105015848D01*
X115747265Y-105015851D01*
X115594129Y-105127111D01*
X115467466Y-105267785D01*
X115372821Y-105431715D01*
X115372818Y-105431722D01*
X115318142Y-105600000D01*
X115314326Y-105611744D01*
X115294540Y-105800000D01*
X110081858Y-105800000D01*
X110085674Y-105788256D01*
X110105460Y-105600000D01*
X110085674Y-105411744D01*
X110027179Y-105231716D01*
X109932533Y-105067784D01*
X109805871Y-104927112D01*
X109805870Y-104927111D01*
X109658000Y-104819677D01*
X109615334Y-104764347D01*
X109609355Y-104694734D01*
X109638733Y-104636390D01*
X109671499Y-104600000D01*
X118494540Y-104600000D01*
X118514326Y-104788256D01*
X118514327Y-104788259D01*
X118572818Y-104968277D01*
X118572821Y-104968284D01*
X118667467Y-105132216D01*
X118757063Y-105231722D01*
X118794129Y-105272888D01*
X118947265Y-105384148D01*
X118947270Y-105384151D01*
X119120192Y-105461142D01*
X119120197Y-105461144D01*
X119305354Y-105500500D01*
X119305355Y-105500500D01*
X119494644Y-105500500D01*
X119494646Y-105500500D01*
X119679803Y-105461144D01*
X119852730Y-105384151D01*
X120005871Y-105272888D01*
X120124148Y-105141527D01*
X120183635Y-105104879D01*
X120216298Y-105100500D01*
X120294645Y-105100500D01*
X120294646Y-105100500D01*
X120345708Y-105089646D01*
X120415373Y-105094961D01*
X120463638Y-105127964D01*
X120594129Y-105272888D01*
X120747265Y-105384148D01*
X120747270Y-105384151D01*
X120920192Y-105461142D01*
X120920197Y-105461144D01*
X121105354Y-105500500D01*
X121105355Y-105500500D01*
X121294644Y-105500500D01*
X121294646Y-105500500D01*
X121479803Y-105461144D01*
X121652730Y-105384151D01*
X121805871Y-105272888D01*
X121932533Y-105132216D01*
X122027179Y-104968284D01*
X122085674Y-104788256D01*
X122105460Y-104600000D01*
X122105459Y-104599995D01*
X123844732Y-104599995D01*
X123844732Y-104600004D01*
X123863777Y-104854154D01*
X123917526Y-105089646D01*
X123920492Y-105102637D01*
X124013607Y-105339888D01*
X124141041Y-105560612D01*
X124299950Y-105759877D01*
X124486783Y-105933232D01*
X124697366Y-106076805D01*
X124697371Y-106076807D01*
X124697372Y-106076808D01*
X124697373Y-106076809D01*
X124812424Y-106132214D01*
X124877972Y-106163780D01*
X124929832Y-106210602D01*
X124948145Y-106278029D01*
X124927097Y-106344653D01*
X124873371Y-106389321D01*
X124824171Y-106399500D01*
X124302129Y-106399500D01*
X124302123Y-106399501D01*
X124242516Y-106405908D01*
X124107671Y-106456202D01*
X124107664Y-106456206D01*
X123992455Y-106542452D01*
X123992452Y-106542455D01*
X123906206Y-106657664D01*
X123906202Y-106657671D01*
X123855908Y-106792517D01*
X123855104Y-106800000D01*
X123849501Y-106852123D01*
X123849500Y-106852135D01*
X123849500Y-109347870D01*
X123849501Y-109347876D01*
X123855908Y-109407483D01*
X123906202Y-109542328D01*
X123906206Y-109542335D01*
X123992452Y-109657544D01*
X123992455Y-109657547D01*
X124107664Y-109743793D01*
X124107671Y-109743797D01*
X124242517Y-109794091D01*
X124242516Y-109794091D01*
X124249444Y-109794835D01*
X124302127Y-109800500D01*
X126797872Y-109800499D01*
X126857483Y-109794091D01*
X126992331Y-109743796D01*
X127107546Y-109657546D01*
X127193796Y-109542331D01*
X127244091Y-109407483D01*
X127250500Y-109347873D01*
X127250499Y-106852128D01*
X127244091Y-106792517D01*
X127193796Y-106657669D01*
X127193795Y-106657668D01*
X127193793Y-106657664D01*
X127107547Y-106542455D01*
X127107544Y-106542452D01*
X126992335Y-106456206D01*
X126992328Y-106456202D01*
X126857482Y-106405908D01*
X126857483Y-106405908D01*
X126797883Y-106399501D01*
X126797881Y-106399500D01*
X126797873Y-106399500D01*
X126797865Y-106399500D01*
X126275829Y-106399500D01*
X126208790Y-106379815D01*
X126163035Y-106327011D01*
X126153091Y-106257853D01*
X126182116Y-106194297D01*
X126222027Y-106163780D01*
X126402634Y-106076805D01*
X126613217Y-105933232D01*
X126800050Y-105759877D01*
X126958959Y-105560612D01*
X127086393Y-105339888D01*
X127179508Y-105102637D01*
X127236222Y-104854157D01*
X127249806Y-104672888D01*
X127255268Y-104600004D01*
X127255268Y-104599995D01*
X127236222Y-104345845D01*
X127231644Y-104325789D01*
X127179508Y-104097363D01*
X127086393Y-103860112D01*
X126958959Y-103639388D01*
X126800050Y-103440123D01*
X126613217Y-103266768D01*
X126402634Y-103123195D01*
X126402630Y-103123193D01*
X126402627Y-103123191D01*
X126402626Y-103123190D01*
X126173006Y-103012612D01*
X126173008Y-103012612D01*
X125929466Y-102937489D01*
X125929462Y-102937488D01*
X125929458Y-102937487D01*
X125808231Y-102919214D01*
X125677440Y-102899500D01*
X125677435Y-102899500D01*
X125422565Y-102899500D01*
X125422559Y-102899500D01*
X125265609Y-102923157D01*
X125170542Y-102937487D01*
X125170539Y-102937488D01*
X125170533Y-102937489D01*
X124926992Y-103012612D01*
X124697373Y-103123190D01*
X124697372Y-103123191D01*
X124486782Y-103266768D01*
X124299952Y-103440121D01*
X124299950Y-103440123D01*
X124141041Y-103639388D01*
X124013608Y-103860109D01*
X123920492Y-104097362D01*
X123920490Y-104097369D01*
X123863777Y-104345845D01*
X123844732Y-104599995D01*
X122105459Y-104599995D01*
X122085674Y-104411744D01*
X122027179Y-104231716D01*
X121932533Y-104067784D01*
X121805871Y-103927112D01*
X121805870Y-103927111D01*
X121652734Y-103815851D01*
X121652729Y-103815848D01*
X121479807Y-103738857D01*
X121479802Y-103738855D01*
X121334001Y-103707865D01*
X121294646Y-103699500D01*
X121105354Y-103699500D01*
X121054289Y-103710353D01*
X120984623Y-103705037D01*
X120936361Y-103672035D01*
X120805870Y-103527111D01*
X120652734Y-103415851D01*
X120652729Y-103415848D01*
X120479807Y-103338857D01*
X120479802Y-103338855D01*
X120334001Y-103307865D01*
X120294646Y-103299500D01*
X120105354Y-103299500D01*
X120072897Y-103306398D01*
X119920197Y-103338855D01*
X119920192Y-103338857D01*
X119747270Y-103415848D01*
X119747265Y-103415851D01*
X119594129Y-103527111D01*
X119528950Y-103599500D01*
X119499938Y-103631722D01*
X119475852Y-103658472D01*
X119416365Y-103695121D01*
X119383702Y-103699500D01*
X119305354Y-103699500D01*
X119279304Y-103705037D01*
X119120197Y-103738855D01*
X119120192Y-103738857D01*
X118947270Y-103815848D01*
X118947265Y-103815851D01*
X118794129Y-103927111D01*
X118667466Y-104067785D01*
X118572821Y-104231715D01*
X118572818Y-104231722D01*
X118514327Y-104411740D01*
X118514326Y-104411744D01*
X118494540Y-104600000D01*
X109671499Y-104600000D01*
X109732533Y-104532216D01*
X109827179Y-104368284D01*
X109885674Y-104188256D01*
X109905460Y-104000000D01*
X109885674Y-103811744D01*
X109827179Y-103631716D01*
X109808865Y-103599996D01*
X116794435Y-103599996D01*
X116794435Y-103600003D01*
X116814630Y-103779249D01*
X116814631Y-103779254D01*
X116874211Y-103949523D01*
X116885686Y-103967785D01*
X116970184Y-104102262D01*
X117097738Y-104229816D01*
X117188080Y-104286582D01*
X117228125Y-104311744D01*
X117250478Y-104325789D01*
X117307795Y-104345845D01*
X117420745Y-104385368D01*
X117420750Y-104385369D01*
X117599996Y-104405565D01*
X117600000Y-104405565D01*
X117600004Y-104405565D01*
X117779249Y-104385369D01*
X117779252Y-104385368D01*
X117779255Y-104385368D01*
X117949522Y-104325789D01*
X118102262Y-104229816D01*
X118229816Y-104102262D01*
X118325789Y-103949522D01*
X118385368Y-103779255D01*
X118389920Y-103738855D01*
X118405565Y-103600003D01*
X118405565Y-103599996D01*
X118385369Y-103420750D01*
X118385368Y-103420745D01*
X118343292Y-103300500D01*
X118325789Y-103250478D01*
X118304031Y-103215851D01*
X118255652Y-103138856D01*
X118229816Y-103097738D01*
X118102262Y-102970184D01*
X117949523Y-102874211D01*
X117779254Y-102814631D01*
X117779249Y-102814630D01*
X117600004Y-102794435D01*
X117599996Y-102794435D01*
X117420750Y-102814630D01*
X117420745Y-102814631D01*
X117250476Y-102874211D01*
X117097737Y-102970184D01*
X116970184Y-103097737D01*
X116874211Y-103250476D01*
X116814631Y-103420745D01*
X116814630Y-103420750D01*
X116794435Y-103599996D01*
X109808865Y-103599996D01*
X109732533Y-103467784D01*
X109605871Y-103327112D01*
X109569243Y-103300500D01*
X109452734Y-103215851D01*
X109452729Y-103215848D01*
X109279807Y-103138857D01*
X109279802Y-103138855D01*
X109134001Y-103107865D01*
X109094646Y-103099500D01*
X108905354Y-103099500D01*
X108872897Y-103106398D01*
X108720197Y-103138855D01*
X108720192Y-103138857D01*
X108547270Y-103215848D01*
X108547265Y-103215851D01*
X108394129Y-103327111D01*
X108267466Y-103467785D01*
X108172821Y-103631715D01*
X108172818Y-103631722D01*
X108124882Y-103779255D01*
X108114326Y-103811744D01*
X108094540Y-104000000D01*
X99251133Y-104000000D01*
X99232533Y-103967784D01*
X99105871Y-103827112D01*
X99090369Y-103815849D01*
X98952734Y-103715851D01*
X98952729Y-103715848D01*
X98779807Y-103638857D01*
X98779802Y-103638855D01*
X98597012Y-103600003D01*
X98594646Y-103599500D01*
X98405354Y-103599500D01*
X98402988Y-103600003D01*
X98220197Y-103638855D01*
X98220192Y-103638857D01*
X98047270Y-103715848D01*
X98047265Y-103715851D01*
X97894129Y-103827111D01*
X97767466Y-103967785D01*
X97672821Y-104131715D01*
X97672818Y-104131722D01*
X97614327Y-104311740D01*
X97614326Y-104311744D01*
X97594540Y-104500000D01*
X80300500Y-104500000D01*
X80300500Y-102400000D01*
X92694540Y-102400000D01*
X92714326Y-102588256D01*
X92714327Y-102588259D01*
X92772818Y-102768277D01*
X92772821Y-102768284D01*
X92867467Y-102932216D01*
X92939856Y-103012612D01*
X92994129Y-103072888D01*
X93147265Y-103184148D01*
X93147270Y-103184151D01*
X93320192Y-103261142D01*
X93320197Y-103261144D01*
X93505354Y-103300500D01*
X93505355Y-103300500D01*
X93694644Y-103300500D01*
X93694646Y-103300500D01*
X93879803Y-103261144D01*
X94052730Y-103184151D01*
X94205871Y-103072888D01*
X94332533Y-102932216D01*
X94427179Y-102768284D01*
X94485674Y-102588256D01*
X94505460Y-102400000D01*
X94485674Y-102211744D01*
X94427179Y-102031716D01*
X94332533Y-101867784D01*
X94271500Y-101800000D01*
X112694540Y-101800000D01*
X112714326Y-101988256D01*
X112714327Y-101988259D01*
X112772818Y-102168277D01*
X112772821Y-102168284D01*
X112867467Y-102332216D01*
X112994129Y-102472888D01*
X113147265Y-102584148D01*
X113147270Y-102584151D01*
X113320192Y-102661142D01*
X113320197Y-102661144D01*
X113505354Y-102700500D01*
X113505355Y-102700500D01*
X113694644Y-102700500D01*
X113694646Y-102700500D01*
X113879803Y-102661144D01*
X114052730Y-102584151D01*
X114205871Y-102472888D01*
X114332533Y-102332216D01*
X114427179Y-102168284D01*
X114485674Y-101988256D01*
X114505460Y-101800000D01*
X114485674Y-101611744D01*
X114427179Y-101431716D01*
X114332533Y-101267784D01*
X114205871Y-101127112D01*
X114169243Y-101100500D01*
X114052734Y-101015851D01*
X114052729Y-101015848D01*
X113879807Y-100938857D01*
X113879802Y-100938855D01*
X113734001Y-100907865D01*
X113694646Y-100899500D01*
X113505354Y-100899500D01*
X113472897Y-100906398D01*
X113320197Y-100938855D01*
X113320192Y-100938857D01*
X113147270Y-101015848D01*
X113147265Y-101015851D01*
X112994129Y-101127111D01*
X112867466Y-101267785D01*
X112772821Y-101431715D01*
X112772818Y-101431722D01*
X112714327Y-101611740D01*
X112714326Y-101611744D01*
X112694540Y-101800000D01*
X94271500Y-101800000D01*
X94205871Y-101727112D01*
X94205870Y-101727111D01*
X94052734Y-101615851D01*
X94052729Y-101615848D01*
X93879807Y-101538857D01*
X93879802Y-101538855D01*
X93734001Y-101507865D01*
X93694646Y-101499500D01*
X93505354Y-101499500D01*
X93472897Y-101506398D01*
X93320197Y-101538855D01*
X93320192Y-101538857D01*
X93147270Y-101615848D01*
X93147265Y-101615851D01*
X92994129Y-101727111D01*
X92867466Y-101867785D01*
X92772821Y-102031715D01*
X92772818Y-102031722D01*
X92728449Y-102168277D01*
X92714326Y-102211744D01*
X92694540Y-102400000D01*
X80300500Y-102400000D01*
X80300500Y-99000000D01*
X115094540Y-99000000D01*
X115114326Y-99188256D01*
X115114327Y-99188259D01*
X115172818Y-99368277D01*
X115172821Y-99368284D01*
X115267467Y-99532216D01*
X115348139Y-99621811D01*
X115394129Y-99672888D01*
X115547265Y-99784148D01*
X115547270Y-99784151D01*
X115720192Y-99861142D01*
X115720197Y-99861144D01*
X115905354Y-99900500D01*
X115905355Y-99900500D01*
X116094644Y-99900500D01*
X116094646Y-99900500D01*
X116279803Y-99861144D01*
X116452730Y-99784151D01*
X116605871Y-99672888D01*
X116618862Y-99658459D01*
X116678346Y-99621811D01*
X116748203Y-99623140D01*
X116806252Y-99662025D01*
X116834063Y-99726121D01*
X116828054Y-99782385D01*
X116814632Y-99820742D01*
X116814630Y-99820750D01*
X116794435Y-99999996D01*
X116794435Y-100000003D01*
X116814630Y-100179249D01*
X116814631Y-100179254D01*
X116874211Y-100349523D01*
X116897246Y-100386182D01*
X116970184Y-100502262D01*
X117097738Y-100629816D01*
X117250478Y-100725789D01*
X117420745Y-100785368D01*
X117420750Y-100785369D01*
X117599996Y-100805565D01*
X117600000Y-100805565D01*
X117600004Y-100805565D01*
X117779249Y-100785369D01*
X117779252Y-100785368D01*
X117779255Y-100785368D01*
X117949522Y-100725789D01*
X118102262Y-100629816D01*
X118229816Y-100502262D01*
X118325789Y-100349522D01*
X118378109Y-100200000D01*
X119094540Y-100200000D01*
X119114326Y-100388256D01*
X119114327Y-100388259D01*
X119172818Y-100568277D01*
X119172821Y-100568284D01*
X119267467Y-100732216D01*
X119333511Y-100805565D01*
X119394129Y-100872888D01*
X119547265Y-100984148D01*
X119547270Y-100984151D01*
X119720192Y-101061142D01*
X119720197Y-101061144D01*
X119905354Y-101100500D01*
X119905355Y-101100500D01*
X120094644Y-101100500D01*
X120094646Y-101100500D01*
X120279803Y-101061144D01*
X120449566Y-100985559D01*
X120518813Y-100976275D01*
X120550430Y-100985557D01*
X120720197Y-101061144D01*
X120905354Y-101100500D01*
X120905355Y-101100500D01*
X121094644Y-101100500D01*
X121094646Y-101100500D01*
X121279803Y-101061144D01*
X121452730Y-100984151D01*
X121605871Y-100872888D01*
X121732533Y-100732216D01*
X121827179Y-100568284D01*
X121885674Y-100388256D01*
X121905460Y-100200000D01*
X126894540Y-100200000D01*
X126914326Y-100388256D01*
X126914327Y-100388259D01*
X126972818Y-100568277D01*
X126972821Y-100568284D01*
X127067467Y-100732216D01*
X127133511Y-100805565D01*
X127194129Y-100872888D01*
X127347265Y-100984148D01*
X127347270Y-100984151D01*
X127520192Y-101061142D01*
X127520197Y-101061144D01*
X127705354Y-101100500D01*
X127705355Y-101100500D01*
X127894644Y-101100500D01*
X127894646Y-101100500D01*
X128079803Y-101061144D01*
X128252730Y-100984151D01*
X128405871Y-100872888D01*
X128532533Y-100732216D01*
X128627179Y-100568284D01*
X128685674Y-100388256D01*
X128685673Y-100388256D01*
X128686348Y-100386182D01*
X128725786Y-100328506D01*
X128790144Y-100301308D01*
X128804279Y-100300500D01*
X128894644Y-100300500D01*
X128894646Y-100300500D01*
X129079803Y-100261144D01*
X129252730Y-100184151D01*
X129405871Y-100072888D01*
X129532533Y-99932216D01*
X129627179Y-99768284D01*
X129685674Y-99588256D01*
X129705460Y-99400000D01*
X129685674Y-99211744D01*
X129627179Y-99031716D01*
X129532533Y-98867784D01*
X129405871Y-98727112D01*
X129405870Y-98727111D01*
X129252734Y-98615851D01*
X129252729Y-98615848D01*
X129079807Y-98538857D01*
X129079802Y-98538855D01*
X128934001Y-98507865D01*
X128894646Y-98499500D01*
X128705354Y-98499500D01*
X128672897Y-98506398D01*
X128520197Y-98538855D01*
X128520192Y-98538857D01*
X128347270Y-98615848D01*
X128347265Y-98615851D01*
X128194129Y-98727111D01*
X128067466Y-98867785D01*
X127972821Y-99031715D01*
X127972818Y-99031722D01*
X127913652Y-99213818D01*
X127874214Y-99271494D01*
X127809856Y-99298692D01*
X127795721Y-99299500D01*
X127705354Y-99299500D01*
X127672897Y-99306398D01*
X127520197Y-99338855D01*
X127520192Y-99338857D01*
X127347270Y-99415848D01*
X127347265Y-99415851D01*
X127194129Y-99527111D01*
X127067466Y-99667785D01*
X126972821Y-99831715D01*
X126972818Y-99831722D01*
X126940166Y-99932216D01*
X126914326Y-100011744D01*
X126894540Y-100200000D01*
X121905460Y-100200000D01*
X121885674Y-100011744D01*
X121827179Y-99831716D01*
X121732533Y-99667784D01*
X121605871Y-99527112D01*
X121605870Y-99527111D01*
X121452734Y-99415851D01*
X121452729Y-99415848D01*
X121279807Y-99338857D01*
X121279802Y-99338855D01*
X121134001Y-99307865D01*
X121094646Y-99299500D01*
X120905354Y-99299500D01*
X120872897Y-99306398D01*
X120720197Y-99338855D01*
X120720192Y-99338857D01*
X120550436Y-99414439D01*
X120481186Y-99423724D01*
X120449564Y-99414439D01*
X120279807Y-99338857D01*
X120279802Y-99338855D01*
X120134001Y-99307865D01*
X120094646Y-99299500D01*
X119905354Y-99299500D01*
X119872897Y-99306398D01*
X119720197Y-99338855D01*
X119720192Y-99338857D01*
X119547270Y-99415848D01*
X119547265Y-99415851D01*
X119394129Y-99527111D01*
X119267466Y-99667785D01*
X119172821Y-99831715D01*
X119172818Y-99831722D01*
X119140166Y-99932216D01*
X119114326Y-100011744D01*
X119094540Y-100200000D01*
X118378109Y-100200000D01*
X118385368Y-100179255D01*
X118404242Y-100011744D01*
X118405565Y-100000003D01*
X118405565Y-99999996D01*
X118385369Y-99820750D01*
X118385368Y-99820745D01*
X118367009Y-99768277D01*
X118325789Y-99650478D01*
X118308611Y-99623140D01*
X118251480Y-99532216D01*
X118229816Y-99497738D01*
X118102262Y-99370184D01*
X118099227Y-99368277D01*
X117949523Y-99274211D01*
X117779254Y-99214631D01*
X117779249Y-99214630D01*
X117600004Y-99194435D01*
X117599996Y-99194435D01*
X117420750Y-99214630D01*
X117420745Y-99214631D01*
X117250476Y-99274211D01*
X117097737Y-99370184D01*
X117061260Y-99406661D01*
X116999937Y-99440146D01*
X116930245Y-99435160D01*
X116874312Y-99393288D01*
X116849896Y-99327824D01*
X116855648Y-99280664D01*
X116885674Y-99188256D01*
X116905460Y-99000000D01*
X116885674Y-98811744D01*
X116827179Y-98631716D01*
X116732533Y-98467784D01*
X116605871Y-98327112D01*
X116605870Y-98327111D01*
X116452734Y-98215851D01*
X116452729Y-98215848D01*
X116279807Y-98138857D01*
X116279802Y-98138855D01*
X116134001Y-98107865D01*
X116094646Y-98099500D01*
X115905354Y-98099500D01*
X115872897Y-98106398D01*
X115720197Y-98138855D01*
X115720192Y-98138857D01*
X115547270Y-98215848D01*
X115547265Y-98215851D01*
X115394129Y-98327111D01*
X115267466Y-98467785D01*
X115172821Y-98631715D01*
X115172818Y-98631722D01*
X115114327Y-98811740D01*
X115114326Y-98811744D01*
X115094540Y-99000000D01*
X80300500Y-99000000D01*
X80300500Y-98000000D01*
X91694540Y-98000000D01*
X91714326Y-98188256D01*
X91714327Y-98188259D01*
X91772818Y-98368277D01*
X91772821Y-98368284D01*
X91867467Y-98532216D01*
X91957063Y-98631722D01*
X91994129Y-98672888D01*
X92147265Y-98784148D01*
X92147270Y-98784151D01*
X92320192Y-98861142D01*
X92320197Y-98861144D01*
X92505354Y-98900500D01*
X92505355Y-98900500D01*
X92694644Y-98900500D01*
X92694646Y-98900500D01*
X92879803Y-98861144D01*
X93052730Y-98784151D01*
X93205871Y-98672888D01*
X93332533Y-98532216D01*
X93427179Y-98368284D01*
X93485674Y-98188256D01*
X93505460Y-98000000D01*
X93485674Y-97811744D01*
X93427179Y-97631716D01*
X93332533Y-97467784D01*
X93205871Y-97327112D01*
X93169243Y-97300500D01*
X93052734Y-97215851D01*
X93052729Y-97215848D01*
X92879807Y-97138857D01*
X92879802Y-97138855D01*
X92734001Y-97107865D01*
X92694646Y-97099500D01*
X92505354Y-97099500D01*
X92472897Y-97106398D01*
X92320197Y-97138855D01*
X92320192Y-97138857D01*
X92147270Y-97215848D01*
X92147265Y-97215851D01*
X91994129Y-97327111D01*
X91867466Y-97467785D01*
X91772821Y-97631715D01*
X91772818Y-97631722D01*
X91714327Y-97811740D01*
X91714326Y-97811744D01*
X91694540Y-98000000D01*
X80300500Y-98000000D01*
X80300500Y-97000000D01*
X94094540Y-97000000D01*
X94114326Y-97188256D01*
X94114327Y-97188259D01*
X94172818Y-97368277D01*
X94172821Y-97368284D01*
X94267467Y-97532216D01*
X94357063Y-97631722D01*
X94394129Y-97672888D01*
X94547265Y-97784148D01*
X94547270Y-97784151D01*
X94720192Y-97861142D01*
X94720197Y-97861144D01*
X94905354Y-97900500D01*
X94905355Y-97900500D01*
X95094644Y-97900500D01*
X95094646Y-97900500D01*
X95279803Y-97861144D01*
X95452730Y-97784151D01*
X95605871Y-97672888D01*
X95732533Y-97532216D01*
X95827179Y-97368284D01*
X95885674Y-97188256D01*
X95905460Y-97000000D01*
X95885674Y-96811744D01*
X95827179Y-96631716D01*
X95732533Y-96467784D01*
X95671500Y-96400000D01*
X121894540Y-96400000D01*
X121914326Y-96588256D01*
X121914327Y-96588258D01*
X121914327Y-96588259D01*
X121972818Y-96768277D01*
X121972821Y-96768284D01*
X122067467Y-96932216D01*
X122189533Y-97067784D01*
X122194129Y-97072888D01*
X122347265Y-97184148D01*
X122347270Y-97184151D01*
X122520192Y-97261142D01*
X122520197Y-97261144D01*
X122705354Y-97300500D01*
X122705355Y-97300500D01*
X122894644Y-97300500D01*
X122894646Y-97300500D01*
X123079803Y-97261144D01*
X123156769Y-97226875D01*
X123226018Y-97217590D01*
X123289295Y-97247218D01*
X123326509Y-97306353D01*
X123325845Y-97376219D01*
X123325136Y-97378472D01*
X123314327Y-97411739D01*
X123314327Y-97411740D01*
X123314326Y-97411744D01*
X123294540Y-97600000D01*
X123314326Y-97788256D01*
X123314327Y-97788259D01*
X123372818Y-97968277D01*
X123372821Y-97968284D01*
X123467467Y-98132216D01*
X123542770Y-98215848D01*
X123594129Y-98272888D01*
X123747265Y-98384148D01*
X123747270Y-98384151D01*
X123920192Y-98461142D01*
X123920197Y-98461144D01*
X124105354Y-98500500D01*
X124105355Y-98500500D01*
X124294644Y-98500500D01*
X124294646Y-98500500D01*
X124479803Y-98461144D01*
X124652730Y-98384151D01*
X124805871Y-98272888D01*
X124932533Y-98132216D01*
X125027179Y-97968284D01*
X125085674Y-97788256D01*
X125105460Y-97600000D01*
X125085674Y-97411744D01*
X125027179Y-97231716D01*
X124932533Y-97067784D01*
X124805871Y-96927112D01*
X124805870Y-96927111D01*
X124652734Y-96815851D01*
X124652729Y-96815848D01*
X124479807Y-96738857D01*
X124479802Y-96738855D01*
X124334001Y-96707865D01*
X124294646Y-96699500D01*
X124105354Y-96699500D01*
X124072897Y-96706398D01*
X123920197Y-96738855D01*
X123920196Y-96738855D01*
X123843229Y-96773124D01*
X123773979Y-96782408D01*
X123710703Y-96752779D01*
X123673490Y-96693644D01*
X123674155Y-96623778D01*
X123674839Y-96621602D01*
X123685674Y-96588256D01*
X123705460Y-96400000D01*
X123685674Y-96211744D01*
X123627179Y-96031716D01*
X123532533Y-95867784D01*
X123405871Y-95727112D01*
X123405870Y-95727111D01*
X123252734Y-95615851D01*
X123252729Y-95615848D01*
X123079807Y-95538857D01*
X123079802Y-95538855D01*
X122934001Y-95507865D01*
X122894646Y-95499500D01*
X122705354Y-95499500D01*
X122672897Y-95506398D01*
X122520197Y-95538855D01*
X122520192Y-95538857D01*
X122347270Y-95615848D01*
X122347265Y-95615851D01*
X122194129Y-95727111D01*
X122067466Y-95867785D01*
X121972821Y-96031715D01*
X121972818Y-96031722D01*
X121914327Y-96211740D01*
X121914326Y-96211744D01*
X121894540Y-96400000D01*
X95671500Y-96400000D01*
X95605871Y-96327112D01*
X95569243Y-96300500D01*
X95452734Y-96215851D01*
X95452729Y-96215848D01*
X95279807Y-96138857D01*
X95279802Y-96138855D01*
X95134001Y-96107865D01*
X95094646Y-96099500D01*
X94905354Y-96099500D01*
X94872897Y-96106398D01*
X94720197Y-96138855D01*
X94720192Y-96138857D01*
X94547270Y-96215848D01*
X94547265Y-96215851D01*
X94394129Y-96327111D01*
X94267466Y-96467785D01*
X94172821Y-96631715D01*
X94172818Y-96631722D01*
X94114327Y-96811740D01*
X94114326Y-96811744D01*
X94094540Y-97000000D01*
X80300500Y-97000000D01*
X80300500Y-95400000D01*
X88094540Y-95400000D01*
X88114326Y-95588256D01*
X88114327Y-95588259D01*
X88172818Y-95768277D01*
X88172821Y-95768284D01*
X88267467Y-95932216D01*
X88357063Y-96031722D01*
X88394129Y-96072888D01*
X88547265Y-96184148D01*
X88547270Y-96184151D01*
X88720192Y-96261142D01*
X88720197Y-96261144D01*
X88905354Y-96300500D01*
X88905355Y-96300500D01*
X89094644Y-96300500D01*
X89094646Y-96300500D01*
X89279803Y-96261144D01*
X89452730Y-96184151D01*
X89605871Y-96072888D01*
X89732533Y-95932216D01*
X89827179Y-95768284D01*
X89885674Y-95588256D01*
X89905460Y-95400000D01*
X89885674Y-95211744D01*
X89827179Y-95031716D01*
X89732533Y-94867784D01*
X89605871Y-94727112D01*
X89605870Y-94727111D01*
X89452734Y-94615851D01*
X89452729Y-94615848D01*
X89279807Y-94538857D01*
X89279802Y-94538855D01*
X89134001Y-94507865D01*
X89094646Y-94499500D01*
X88905354Y-94499500D01*
X88872897Y-94506398D01*
X88720197Y-94538855D01*
X88720192Y-94538857D01*
X88547270Y-94615848D01*
X88547265Y-94615851D01*
X88394129Y-94727111D01*
X88267466Y-94867785D01*
X88172821Y-95031715D01*
X88172818Y-95031722D01*
X88114327Y-95211740D01*
X88114326Y-95211744D01*
X88094540Y-95400000D01*
X80300500Y-95400000D01*
X80300500Y-94400000D01*
X85094540Y-94400000D01*
X85114326Y-94588256D01*
X85114327Y-94588259D01*
X85172818Y-94768277D01*
X85172821Y-94768284D01*
X85267467Y-94932216D01*
X85357063Y-95031722D01*
X85394129Y-95072888D01*
X85547265Y-95184148D01*
X85547270Y-95184151D01*
X85720192Y-95261142D01*
X85720197Y-95261144D01*
X85905354Y-95300500D01*
X85905355Y-95300500D01*
X86094644Y-95300500D01*
X86094646Y-95300500D01*
X86279803Y-95261144D01*
X86452730Y-95184151D01*
X86605871Y-95072888D01*
X86732533Y-94932216D01*
X86827179Y-94768284D01*
X86885674Y-94588256D01*
X86905460Y-94400000D01*
X86885674Y-94211744D01*
X86827179Y-94031716D01*
X86732533Y-93867784D01*
X86605871Y-93727112D01*
X86605870Y-93727111D01*
X86452734Y-93615851D01*
X86452729Y-93615848D01*
X86279807Y-93538857D01*
X86279802Y-93538855D01*
X86134001Y-93507865D01*
X86094646Y-93499500D01*
X85905354Y-93499500D01*
X85872897Y-93506398D01*
X85720197Y-93538855D01*
X85720192Y-93538857D01*
X85547270Y-93615848D01*
X85547265Y-93615851D01*
X85394129Y-93727111D01*
X85267466Y-93867785D01*
X85172821Y-94031715D01*
X85172818Y-94031722D01*
X85114327Y-94211740D01*
X85114326Y-94211744D01*
X85094540Y-94400000D01*
X80300500Y-94400000D01*
X80300500Y-93200000D01*
X105494540Y-93200000D01*
X105514326Y-93388256D01*
X105514327Y-93388259D01*
X105572818Y-93568277D01*
X105572821Y-93568284D01*
X105667467Y-93732216D01*
X105789533Y-93867784D01*
X105794129Y-93872888D01*
X105947265Y-93984148D01*
X105947270Y-93984151D01*
X106120192Y-94061142D01*
X106120197Y-94061144D01*
X106305354Y-94100500D01*
X106305355Y-94100500D01*
X106494644Y-94100500D01*
X106494646Y-94100500D01*
X106679803Y-94061144D01*
X106852730Y-93984151D01*
X107005871Y-93872888D01*
X107132533Y-93732216D01*
X107227179Y-93568284D01*
X107285674Y-93388256D01*
X107305460Y-93200000D01*
X107285674Y-93011744D01*
X107227179Y-92831716D01*
X107132533Y-92667784D01*
X107005871Y-92527112D01*
X106969243Y-92500500D01*
X106852734Y-92415851D01*
X106852729Y-92415848D01*
X106679807Y-92338857D01*
X106679802Y-92338855D01*
X106534001Y-92307865D01*
X106494646Y-92299500D01*
X106305354Y-92299500D01*
X106272897Y-92306398D01*
X106120197Y-92338855D01*
X106120192Y-92338857D01*
X105947270Y-92415848D01*
X105947265Y-92415851D01*
X105794129Y-92527111D01*
X105667466Y-92667785D01*
X105572821Y-92831715D01*
X105572818Y-92831722D01*
X105514327Y-93011740D01*
X105514326Y-93011744D01*
X105494540Y-93200000D01*
X80300500Y-93200000D01*
X80300500Y-91618995D01*
X81199499Y-91618995D01*
X81226418Y-91754322D01*
X81226421Y-91754332D01*
X81279221Y-91881804D01*
X81279228Y-91881817D01*
X81355885Y-91996541D01*
X81355888Y-91996545D01*
X81453454Y-92094111D01*
X81453458Y-92094114D01*
X81568182Y-92170771D01*
X81568195Y-92170778D01*
X81654157Y-92206384D01*
X81695672Y-92223580D01*
X81695676Y-92223580D01*
X81695677Y-92223581D01*
X81831004Y-92250500D01*
X81831007Y-92250500D01*
X81968995Y-92250500D01*
X81971509Y-92250000D01*
X83994540Y-92250000D01*
X84014326Y-92438256D01*
X84014327Y-92438259D01*
X84072818Y-92618277D01*
X84072821Y-92618284D01*
X84167467Y-92782216D01*
X84273971Y-92900500D01*
X84294129Y-92922888D01*
X84447265Y-93034148D01*
X84447270Y-93034151D01*
X84620192Y-93111142D01*
X84620197Y-93111144D01*
X84805354Y-93150500D01*
X84805355Y-93150500D01*
X84994644Y-93150500D01*
X84994646Y-93150500D01*
X85179803Y-93111144D01*
X85352730Y-93034151D01*
X85505871Y-92922888D01*
X85632533Y-92782216D01*
X85727179Y-92618284D01*
X85785674Y-92438256D01*
X85805460Y-92250000D01*
X85785674Y-92061744D01*
X85765612Y-92000000D01*
X90894540Y-92000000D01*
X90914326Y-92188256D01*
X90914327Y-92188259D01*
X90972818Y-92368277D01*
X90972821Y-92368284D01*
X91067467Y-92532216D01*
X91189533Y-92667784D01*
X91194129Y-92672888D01*
X91347265Y-92784148D01*
X91347270Y-92784151D01*
X91520192Y-92861142D01*
X91520197Y-92861144D01*
X91705354Y-92900500D01*
X91705355Y-92900500D01*
X91894644Y-92900500D01*
X91894646Y-92900500D01*
X92079803Y-92861144D01*
X92252730Y-92784151D01*
X92405871Y-92672888D01*
X92532533Y-92532216D01*
X92539535Y-92520088D01*
X92590097Y-92471872D01*
X92658704Y-92458646D01*
X92723570Y-92484611D01*
X92764101Y-92541523D01*
X92764853Y-92543765D01*
X92772816Y-92568274D01*
X92772821Y-92568284D01*
X92867467Y-92732216D01*
X92957063Y-92831722D01*
X92994129Y-92872888D01*
X93147265Y-92984148D01*
X93147270Y-92984151D01*
X93320192Y-93061142D01*
X93320197Y-93061144D01*
X93505354Y-93100500D01*
X93505355Y-93100500D01*
X93694644Y-93100500D01*
X93694646Y-93100500D01*
X93879803Y-93061144D01*
X94052730Y-92984151D01*
X94205871Y-92872888D01*
X94332533Y-92732216D01*
X94427179Y-92568284D01*
X94485674Y-92388256D01*
X94505460Y-92200000D01*
X94485674Y-92011744D01*
X94427179Y-91831716D01*
X94332533Y-91667784D01*
X94205871Y-91527112D01*
X94142409Y-91481004D01*
X94052734Y-91415851D01*
X94052729Y-91415848D01*
X93879807Y-91338857D01*
X93879802Y-91338855D01*
X93734001Y-91307865D01*
X93694646Y-91299500D01*
X93505354Y-91299500D01*
X93472897Y-91306398D01*
X93320197Y-91338855D01*
X93320192Y-91338857D01*
X93147270Y-91415848D01*
X93147265Y-91415851D01*
X92994129Y-91527111D01*
X92867466Y-91667785D01*
X92860462Y-91679916D01*
X92809894Y-91728131D01*
X92741287Y-91741352D01*
X92676423Y-91715383D01*
X92635895Y-91658468D01*
X92635145Y-91656232D01*
X92627181Y-91631721D01*
X92627178Y-91631715D01*
X92532533Y-91467784D01*
X92405871Y-91327112D01*
X92369243Y-91300500D01*
X92252734Y-91215851D01*
X92252729Y-91215848D01*
X92079807Y-91138857D01*
X92079802Y-91138855D01*
X91913248Y-91103454D01*
X91894646Y-91099500D01*
X91705354Y-91099500D01*
X91686752Y-91103454D01*
X91520197Y-91138855D01*
X91520192Y-91138857D01*
X91347270Y-91215848D01*
X91347265Y-91215851D01*
X91194129Y-91327111D01*
X91067466Y-91467785D01*
X90972821Y-91631715D01*
X90972818Y-91631722D01*
X90914327Y-91811740D01*
X90914326Y-91811744D01*
X90894540Y-92000000D01*
X85765612Y-92000000D01*
X85727179Y-91881716D01*
X85632533Y-91717784D01*
X85505871Y-91577112D01*
X85505870Y-91577111D01*
X85352734Y-91465851D01*
X85352729Y-91465848D01*
X85179807Y-91388857D01*
X85179802Y-91388855D01*
X85034001Y-91357865D01*
X84994646Y-91349500D01*
X84805354Y-91349500D01*
X84772897Y-91356398D01*
X84620197Y-91388855D01*
X84620192Y-91388857D01*
X84447270Y-91465848D01*
X84447265Y-91465851D01*
X84294129Y-91577111D01*
X84167466Y-91717785D01*
X84072821Y-91881715D01*
X84072818Y-91881722D01*
X84026996Y-92022749D01*
X84014326Y-92061744D01*
X83994540Y-92250000D01*
X81971509Y-92250000D01*
X82060041Y-92232389D01*
X82104328Y-92223580D01*
X82231811Y-92170775D01*
X82346542Y-92094114D01*
X82444114Y-91996542D01*
X82520775Y-91881811D01*
X82573580Y-91754328D01*
X82597968Y-91631722D01*
X82600500Y-91618995D01*
X82600500Y-91481004D01*
X82573581Y-91345677D01*
X82573580Y-91345676D01*
X82573580Y-91345672D01*
X82543432Y-91272888D01*
X82520778Y-91218195D01*
X82520771Y-91218182D01*
X82444114Y-91103458D01*
X82444111Y-91103454D01*
X82346545Y-91005888D01*
X82346541Y-91005885D01*
X82231817Y-90929228D01*
X82231804Y-90929221D01*
X82104332Y-90876421D01*
X82104322Y-90876418D01*
X81968995Y-90849500D01*
X81968993Y-90849500D01*
X81831007Y-90849500D01*
X81831005Y-90849500D01*
X81695677Y-90876418D01*
X81695667Y-90876421D01*
X81568195Y-90929221D01*
X81568182Y-90929228D01*
X81453458Y-91005885D01*
X81453454Y-91005888D01*
X81355888Y-91103454D01*
X81355885Y-91103458D01*
X81279228Y-91218182D01*
X81279221Y-91218195D01*
X81226421Y-91345667D01*
X81226418Y-91345677D01*
X81199500Y-91481004D01*
X81199500Y-91481007D01*
X81199500Y-91618993D01*
X81199500Y-91618995D01*
X81199499Y-91618995D01*
X80300500Y-91618995D01*
X80300500Y-90600000D01*
X108894540Y-90600000D01*
X108914326Y-90788256D01*
X108914327Y-90788259D01*
X108972818Y-90968277D01*
X108972821Y-90968284D01*
X109067467Y-91132216D01*
X109157063Y-91231722D01*
X109194129Y-91272888D01*
X109347265Y-91384148D01*
X109347270Y-91384151D01*
X109520192Y-91461142D01*
X109520197Y-91461144D01*
X109705354Y-91500500D01*
X109705355Y-91500500D01*
X109894644Y-91500500D01*
X109894646Y-91500500D01*
X110079803Y-91461144D01*
X110252730Y-91384151D01*
X110405871Y-91272888D01*
X110532533Y-91132216D01*
X110627179Y-90968284D01*
X110681858Y-90800000D01*
X112494540Y-90800000D01*
X112514326Y-90988256D01*
X112514327Y-90988259D01*
X112572818Y-91168277D01*
X112572821Y-91168284D01*
X112667467Y-91332216D01*
X112718467Y-91388857D01*
X112794129Y-91472888D01*
X112947265Y-91584148D01*
X112947270Y-91584151D01*
X113120192Y-91661142D01*
X113120197Y-91661144D01*
X113305354Y-91700500D01*
X113305355Y-91700500D01*
X113494644Y-91700500D01*
X113494646Y-91700500D01*
X113679803Y-91661144D01*
X113817133Y-91600000D01*
X119294540Y-91600000D01*
X119314326Y-91788256D01*
X119314327Y-91788259D01*
X119372818Y-91968277D01*
X119372821Y-91968284D01*
X119467467Y-92132216D01*
X119573971Y-92250500D01*
X119594129Y-92272888D01*
X119747265Y-92384148D01*
X119747270Y-92384151D01*
X119920192Y-92461142D01*
X119920197Y-92461144D01*
X120105354Y-92500500D01*
X120105355Y-92500500D01*
X120294644Y-92500500D01*
X120294646Y-92500500D01*
X120479803Y-92461144D01*
X120652730Y-92384151D01*
X120805871Y-92272888D01*
X120932533Y-92132216D01*
X121027179Y-91968284D01*
X121085674Y-91788256D01*
X121105460Y-91600000D01*
X121085674Y-91411744D01*
X121027179Y-91231716D01*
X120932533Y-91067784D01*
X120805871Y-90927112D01*
X120736101Y-90876421D01*
X120652734Y-90815851D01*
X120652729Y-90815848D01*
X120479807Y-90738857D01*
X120479802Y-90738855D01*
X120334001Y-90707865D01*
X120294646Y-90699500D01*
X120105354Y-90699500D01*
X120072897Y-90706398D01*
X119920197Y-90738855D01*
X119920192Y-90738857D01*
X119747270Y-90815848D01*
X119747265Y-90815851D01*
X119594129Y-90927111D01*
X119467466Y-91067785D01*
X119372821Y-91231715D01*
X119372818Y-91231722D01*
X119321762Y-91388857D01*
X119314326Y-91411744D01*
X119294540Y-91600000D01*
X113817133Y-91600000D01*
X113852730Y-91584151D01*
X114005871Y-91472888D01*
X114132533Y-91332216D01*
X114227179Y-91168284D01*
X114285674Y-90988256D01*
X114305460Y-90800000D01*
X114285674Y-90611744D01*
X114227179Y-90431716D01*
X114208868Y-90400000D01*
X122494540Y-90400000D01*
X122514326Y-90588256D01*
X122514327Y-90588259D01*
X122572818Y-90768277D01*
X122572821Y-90768284D01*
X122667467Y-90932216D01*
X122733799Y-91005885D01*
X122794129Y-91072888D01*
X122947265Y-91184148D01*
X122947270Y-91184151D01*
X123120192Y-91261142D01*
X123120197Y-91261144D01*
X123305354Y-91300500D01*
X123305355Y-91300500D01*
X123494644Y-91300500D01*
X123494646Y-91300500D01*
X123679803Y-91261144D01*
X123852730Y-91184151D01*
X124005871Y-91072888D01*
X124132533Y-90932216D01*
X124227179Y-90768284D01*
X124285674Y-90588256D01*
X124305460Y-90400000D01*
X124285674Y-90211744D01*
X124227179Y-90031716D01*
X124132533Y-89867784D01*
X124005871Y-89727112D01*
X124005870Y-89727111D01*
X123852734Y-89615851D01*
X123852729Y-89615848D01*
X123679807Y-89538857D01*
X123679802Y-89538855D01*
X123534001Y-89507865D01*
X123494646Y-89499500D01*
X123305354Y-89499500D01*
X123272897Y-89506398D01*
X123120197Y-89538855D01*
X123120192Y-89538857D01*
X122947270Y-89615848D01*
X122947265Y-89615851D01*
X122794129Y-89727111D01*
X122667466Y-89867785D01*
X122572821Y-90031715D01*
X122572818Y-90031722D01*
X122514327Y-90211740D01*
X122514326Y-90211744D01*
X122494540Y-90400000D01*
X114208868Y-90400000D01*
X114132533Y-90267784D01*
X114005871Y-90127112D01*
X114005870Y-90127111D01*
X113852734Y-90015851D01*
X113852729Y-90015848D01*
X113679807Y-89938857D01*
X113679802Y-89938855D01*
X113534001Y-89907865D01*
X113494646Y-89899500D01*
X113305354Y-89899500D01*
X113272897Y-89906398D01*
X113120197Y-89938855D01*
X113120192Y-89938857D01*
X112947270Y-90015848D01*
X112947265Y-90015851D01*
X112794129Y-90127111D01*
X112667466Y-90267785D01*
X112572821Y-90431715D01*
X112572818Y-90431722D01*
X112518142Y-90600000D01*
X112514326Y-90611744D01*
X112494540Y-90800000D01*
X110681858Y-90800000D01*
X110685674Y-90788256D01*
X110705460Y-90600000D01*
X110685674Y-90411744D01*
X110627179Y-90231716D01*
X110532533Y-90067784D01*
X110405871Y-89927112D01*
X110405870Y-89927111D01*
X110252734Y-89815851D01*
X110252729Y-89815848D01*
X110079807Y-89738857D01*
X110079802Y-89738855D01*
X109934001Y-89707865D01*
X109894646Y-89699500D01*
X109705354Y-89699500D01*
X109672897Y-89706398D01*
X109520197Y-89738855D01*
X109520192Y-89738857D01*
X109347270Y-89815848D01*
X109347265Y-89815851D01*
X109194129Y-89927111D01*
X109067466Y-90067785D01*
X108972821Y-90231715D01*
X108972818Y-90231722D01*
X108918142Y-90400000D01*
X108914326Y-90411744D01*
X108894540Y-90600000D01*
X80300500Y-90600000D01*
X80300500Y-88618995D01*
X81199499Y-88618995D01*
X81226418Y-88754322D01*
X81226421Y-88754332D01*
X81279221Y-88881804D01*
X81279228Y-88881817D01*
X81355885Y-88996541D01*
X81355888Y-88996545D01*
X81453454Y-89094111D01*
X81453458Y-89094114D01*
X81568182Y-89170771D01*
X81568195Y-89170778D01*
X81695667Y-89223578D01*
X81695672Y-89223580D01*
X81695676Y-89223580D01*
X81695677Y-89223581D01*
X81831004Y-89250500D01*
X81831007Y-89250500D01*
X81968995Y-89250500D01*
X82060041Y-89232389D01*
X82104328Y-89223580D01*
X82231811Y-89170775D01*
X82346542Y-89094114D01*
X82444114Y-88996542D01*
X82520775Y-88881811D01*
X82573580Y-88754328D01*
X82600500Y-88618993D01*
X82600500Y-88500000D01*
X93094540Y-88500000D01*
X93114326Y-88688256D01*
X93114327Y-88688259D01*
X93172818Y-88868277D01*
X93172821Y-88868284D01*
X93267467Y-89032216D01*
X93392223Y-89170771D01*
X93394129Y-89172888D01*
X93547265Y-89284148D01*
X93547270Y-89284151D01*
X93720192Y-89361142D01*
X93720197Y-89361144D01*
X93905354Y-89400500D01*
X93905355Y-89400500D01*
X94094644Y-89400500D01*
X94094646Y-89400500D01*
X94279803Y-89361144D01*
X94452730Y-89284151D01*
X94605871Y-89172888D01*
X94732533Y-89032216D01*
X94827179Y-88868284D01*
X94885674Y-88688256D01*
X94905460Y-88500000D01*
X94885674Y-88311744D01*
X94849365Y-88200000D01*
X99294540Y-88200000D01*
X99314326Y-88388256D01*
X99314327Y-88388259D01*
X99372818Y-88568277D01*
X99372821Y-88568284D01*
X99467467Y-88732216D01*
X99589977Y-88868277D01*
X99594129Y-88872888D01*
X99747265Y-88984148D01*
X99747270Y-88984151D01*
X99920192Y-89061142D01*
X99920197Y-89061144D01*
X100105354Y-89100500D01*
X100105355Y-89100500D01*
X100294644Y-89100500D01*
X100294646Y-89100500D01*
X100479803Y-89061144D01*
X100652730Y-88984151D01*
X100805871Y-88872888D01*
X100932533Y-88732216D01*
X101027179Y-88568284D01*
X101085674Y-88388256D01*
X101105460Y-88200000D01*
X101085674Y-88011744D01*
X101027179Y-87831716D01*
X100932533Y-87667784D01*
X100805871Y-87527112D01*
X100805870Y-87527111D01*
X100652734Y-87415851D01*
X100652729Y-87415848D01*
X100479807Y-87338857D01*
X100479802Y-87338855D01*
X100334001Y-87307865D01*
X100294646Y-87299500D01*
X100105354Y-87299500D01*
X100072897Y-87306398D01*
X99920197Y-87338855D01*
X99920192Y-87338857D01*
X99747270Y-87415848D01*
X99747265Y-87415851D01*
X99594129Y-87527111D01*
X99467466Y-87667785D01*
X99372821Y-87831715D01*
X99372818Y-87831722D01*
X99314327Y-88011740D01*
X99314326Y-88011744D01*
X99294540Y-88200000D01*
X94849365Y-88200000D01*
X94831112Y-88143823D01*
X94827181Y-88131722D01*
X94827180Y-88131721D01*
X94827179Y-88131716D01*
X94732533Y-87967784D01*
X94605871Y-87827112D01*
X94605870Y-87827111D01*
X94452734Y-87715851D01*
X94452729Y-87715848D01*
X94279807Y-87638857D01*
X94279802Y-87638855D01*
X94134001Y-87607865D01*
X94094646Y-87599500D01*
X93905354Y-87599500D01*
X93872897Y-87606398D01*
X93720197Y-87638855D01*
X93720192Y-87638857D01*
X93547270Y-87715848D01*
X93547265Y-87715851D01*
X93394129Y-87827111D01*
X93267466Y-87967785D01*
X93172821Y-88131715D01*
X93172818Y-88131722D01*
X93126951Y-88272888D01*
X93114326Y-88311744D01*
X93094540Y-88500000D01*
X82600500Y-88500000D01*
X82600500Y-88481007D01*
X82600500Y-88481004D01*
X82573581Y-88345677D01*
X82573580Y-88345676D01*
X82573580Y-88345672D01*
X82543432Y-88272888D01*
X82520778Y-88218195D01*
X82520771Y-88218182D01*
X82444114Y-88103458D01*
X82444111Y-88103454D01*
X82346545Y-88005888D01*
X82346541Y-88005885D01*
X82231817Y-87929228D01*
X82231804Y-87929221D01*
X82104332Y-87876421D01*
X82104322Y-87876418D01*
X81968995Y-87849500D01*
X81968993Y-87849500D01*
X81831007Y-87849500D01*
X81831005Y-87849500D01*
X81695677Y-87876418D01*
X81695667Y-87876421D01*
X81568195Y-87929221D01*
X81568182Y-87929228D01*
X81453458Y-88005885D01*
X81453454Y-88005888D01*
X81355888Y-88103454D01*
X81355885Y-88103458D01*
X81279228Y-88218182D01*
X81279221Y-88218195D01*
X81226421Y-88345667D01*
X81226418Y-88345677D01*
X81199500Y-88481004D01*
X81199500Y-88481007D01*
X81199500Y-88618993D01*
X81199500Y-88618995D01*
X81199499Y-88618995D01*
X80300500Y-88618995D01*
X80300500Y-87200000D01*
X121894540Y-87200000D01*
X121914326Y-87388256D01*
X121914327Y-87388259D01*
X121972818Y-87568277D01*
X121972821Y-87568284D01*
X122067467Y-87732216D01*
X122157063Y-87831722D01*
X122194129Y-87872888D01*
X122347265Y-87984148D01*
X122347270Y-87984151D01*
X122520192Y-88061142D01*
X122520197Y-88061144D01*
X122705354Y-88100500D01*
X122705355Y-88100500D01*
X122894644Y-88100500D01*
X122894646Y-88100500D01*
X123079803Y-88061144D01*
X123252730Y-87984151D01*
X123252732Y-87984149D01*
X123253553Y-87983784D01*
X123322802Y-87974499D01*
X123386079Y-88004126D01*
X123411375Y-88035062D01*
X123467467Y-88132216D01*
X123544878Y-88218189D01*
X123594129Y-88272888D01*
X123747265Y-88384148D01*
X123747270Y-88384151D01*
X123920192Y-88461142D01*
X123920197Y-88461144D01*
X124105354Y-88500500D01*
X124105355Y-88500500D01*
X124294644Y-88500500D01*
X124294646Y-88500500D01*
X124479803Y-88461144D01*
X124649566Y-88385559D01*
X124718813Y-88376275D01*
X124750430Y-88385557D01*
X124920197Y-88461144D01*
X125105354Y-88500500D01*
X125105355Y-88500500D01*
X125294644Y-88500500D01*
X125294646Y-88500500D01*
X125479803Y-88461144D01*
X125652730Y-88384151D01*
X125805871Y-88272888D01*
X125932533Y-88132216D01*
X126027179Y-87968284D01*
X126085674Y-87788256D01*
X126105460Y-87600000D01*
X126085674Y-87411744D01*
X126027179Y-87231716D01*
X125986927Y-87161999D01*
X125970454Y-87094101D01*
X125986927Y-87038001D01*
X126027179Y-86968284D01*
X126085674Y-86788256D01*
X126105460Y-86600000D01*
X126085674Y-86411744D01*
X126027179Y-86231716D01*
X125932533Y-86067784D01*
X125805871Y-85927112D01*
X125805870Y-85927111D01*
X125652734Y-85815851D01*
X125652729Y-85815848D01*
X125479807Y-85738857D01*
X125479802Y-85738855D01*
X125334001Y-85707865D01*
X125294646Y-85699500D01*
X125105354Y-85699500D01*
X125072897Y-85706398D01*
X124920197Y-85738855D01*
X124920192Y-85738857D01*
X124750436Y-85814439D01*
X124681186Y-85823724D01*
X124649564Y-85814439D01*
X124479807Y-85738857D01*
X124479802Y-85738855D01*
X124334001Y-85707865D01*
X124294646Y-85699500D01*
X124105354Y-85699500D01*
X124072897Y-85706398D01*
X123920197Y-85738855D01*
X123920192Y-85738857D01*
X123747270Y-85815848D01*
X123747265Y-85815851D01*
X123594129Y-85927111D01*
X123467466Y-86067785D01*
X123372821Y-86231715D01*
X123372820Y-86231717D01*
X123347932Y-86308314D01*
X123308493Y-86365989D01*
X123244134Y-86393186D01*
X123179565Y-86383273D01*
X123079807Y-86338857D01*
X123079802Y-86338855D01*
X122934001Y-86307865D01*
X122894646Y-86299500D01*
X122705354Y-86299500D01*
X122675192Y-86305911D01*
X122520197Y-86338855D01*
X122520192Y-86338857D01*
X122347270Y-86415848D01*
X122347265Y-86415851D01*
X122194129Y-86527111D01*
X122067466Y-86667785D01*
X121972821Y-86831715D01*
X121972818Y-86831722D01*
X121928449Y-86968277D01*
X121914326Y-87011744D01*
X121894540Y-87200000D01*
X80300500Y-87200000D01*
X80300500Y-83600000D01*
X106694540Y-83600000D01*
X106714326Y-83788256D01*
X106714327Y-83788259D01*
X106772818Y-83968277D01*
X106772821Y-83968284D01*
X106867467Y-84132216D01*
X106994129Y-84272888D01*
X107147265Y-84384148D01*
X107147270Y-84384151D01*
X107320192Y-84461142D01*
X107320197Y-84461144D01*
X107505354Y-84500500D01*
X107505355Y-84500500D01*
X107694644Y-84500500D01*
X107694646Y-84500500D01*
X107879803Y-84461144D01*
X108052730Y-84384151D01*
X108205871Y-84272888D01*
X108332533Y-84132216D01*
X108427179Y-83968284D01*
X108485674Y-83788256D01*
X108505460Y-83600000D01*
X108485674Y-83411744D01*
X108427179Y-83231716D01*
X108332533Y-83067784D01*
X108205871Y-82927112D01*
X108205870Y-82927111D01*
X108052734Y-82815851D01*
X108052729Y-82815848D01*
X107879807Y-82738857D01*
X107879802Y-82738855D01*
X107734001Y-82707865D01*
X107694646Y-82699500D01*
X107505354Y-82699500D01*
X107472897Y-82706398D01*
X107320197Y-82738855D01*
X107320192Y-82738857D01*
X107147270Y-82815848D01*
X107147265Y-82815851D01*
X106994129Y-82927111D01*
X106867466Y-83067785D01*
X106772821Y-83231715D01*
X106772818Y-83231722D01*
X106714327Y-83411740D01*
X106714326Y-83411744D01*
X106694540Y-83600000D01*
X80300500Y-83600000D01*
X80300500Y-78402561D01*
X80300606Y-78397437D01*
X80305130Y-78288060D01*
X80305446Y-78280415D01*
X80725080Y-78280415D01*
X80725080Y-78280422D01*
X80744424Y-78711156D01*
X80744424Y-78711164D01*
X80744425Y-78711166D01*
X80761700Y-78838695D01*
X80802304Y-79138446D01*
X80898249Y-79558810D01*
X81031492Y-79968891D01*
X81031495Y-79968899D01*
X81200952Y-80365366D01*
X81200956Y-80365374D01*
X81200958Y-80365377D01*
X81405282Y-80745074D01*
X81405286Y-80745080D01*
X81405286Y-80745081D01*
X81642813Y-81104920D01*
X81642823Y-81104933D01*
X81911644Y-81442026D01*
X81911656Y-81442039D01*
X82180540Y-81723269D01*
X82209629Y-81753693D01*
X82534339Y-82037384D01*
X82883172Y-82290826D01*
X83253319Y-82511979D01*
X83253322Y-82511980D01*
X83253323Y-82511981D01*
X83253325Y-82511982D01*
X83641791Y-82699058D01*
X83641805Y-82699064D01*
X84045474Y-82850563D01*
X84045478Y-82850564D01*
X84045488Y-82850568D01*
X84461130Y-82965278D01*
X84885383Y-83042269D01*
X85314828Y-83080919D01*
X85314835Y-83080919D01*
X85746003Y-83080919D01*
X85746010Y-83080919D01*
X86175455Y-83042269D01*
X86599708Y-82965278D01*
X87015350Y-82850568D01*
X87419038Y-82699062D01*
X87807519Y-82511979D01*
X88177666Y-82290826D01*
X88526499Y-82037384D01*
X88851209Y-81753693D01*
X89149183Y-81442038D01*
X89173441Y-81411620D01*
X89418014Y-81104933D01*
X89418020Y-81104926D01*
X89655556Y-80745074D01*
X89859880Y-80365377D01*
X89872887Y-80334947D01*
X89903424Y-80263498D01*
X90029345Y-79968894D01*
X90162587Y-79558816D01*
X90258534Y-79138445D01*
X90316413Y-78711166D01*
X90331835Y-78367768D01*
X90335758Y-78280422D01*
X90335758Y-78280415D01*
X90324551Y-78030873D01*
X90316413Y-77849672D01*
X90258534Y-77422393D01*
X90253423Y-77399999D01*
X90518888Y-77399999D01*
X90518888Y-77400000D01*
X90537295Y-77598649D01*
X90537295Y-77598651D01*
X90537296Y-77598654D01*
X90590074Y-77784151D01*
X90591894Y-77790546D01*
X90680816Y-77969126D01*
X90680821Y-77969134D01*
X90749815Y-78060496D01*
X90801049Y-78128340D01*
X90948484Y-78262746D01*
X90948486Y-78262747D01*
X90948487Y-78262748D01*
X91005025Y-78297754D01*
X91118107Y-78367772D01*
X91304140Y-78439841D01*
X91500248Y-78476500D01*
X91500250Y-78476500D01*
X91699750Y-78476500D01*
X91699752Y-78476500D01*
X91895860Y-78439841D01*
X92081893Y-78367772D01*
X92251516Y-78262746D01*
X92362792Y-78161304D01*
X99424500Y-78161304D01*
X99424500Y-78838695D01*
X99459103Y-79012658D01*
X99459106Y-79012667D01*
X99526983Y-79176540D01*
X99526990Y-79176552D01*
X99587768Y-79267512D01*
X99608646Y-79334189D01*
X99592055Y-79398401D01*
X99572820Y-79431718D01*
X99528613Y-79567772D01*
X99514326Y-79611744D01*
X99494540Y-79800000D01*
X99514326Y-79988256D01*
X99514327Y-79988259D01*
X99572818Y-80168277D01*
X99572821Y-80168284D01*
X99667467Y-80332216D01*
X99794129Y-80472888D01*
X99947265Y-80584148D01*
X99947270Y-80584151D01*
X100120192Y-80661142D01*
X100120197Y-80661144D01*
X100305354Y-80700500D01*
X100305355Y-80700500D01*
X100494644Y-80700500D01*
X100494646Y-80700500D01*
X100679803Y-80661144D01*
X100852730Y-80584151D01*
X101005871Y-80472888D01*
X101132533Y-80332216D01*
X101227179Y-80168284D01*
X101285674Y-79988256D01*
X101305460Y-79800000D01*
X101303146Y-79777986D01*
X101315715Y-79709258D01*
X101363447Y-79658234D01*
X101431188Y-79641116D01*
X101450659Y-79643409D01*
X101486306Y-79650500D01*
X101486309Y-79650500D01*
X101663693Y-79650500D01*
X101663694Y-79650499D01*
X101721682Y-79638964D01*
X101837658Y-79615896D01*
X101837661Y-79615894D01*
X101837666Y-79615894D01*
X102001547Y-79548013D01*
X102131109Y-79461442D01*
X102197786Y-79440564D01*
X102265166Y-79459048D01*
X102268891Y-79461442D01*
X102398453Y-79548013D01*
X102398455Y-79548014D01*
X102398459Y-79548016D01*
X102507106Y-79593018D01*
X102562334Y-79615894D01*
X102562336Y-79615894D01*
X102562341Y-79615896D01*
X102736304Y-79650499D01*
X102736307Y-79650500D01*
X102736309Y-79650500D01*
X102913693Y-79650500D01*
X102913694Y-79650499D01*
X102971682Y-79638964D01*
X103087658Y-79615896D01*
X103087661Y-79615894D01*
X103087666Y-79615894D01*
X103251547Y-79548013D01*
X103309298Y-79509424D01*
X103375970Y-79488547D01*
X103442336Y-79506410D01*
X103585604Y-79593019D01*
X103585603Y-79593019D01*
X103747894Y-79643590D01*
X103747893Y-79643590D01*
X103818408Y-79649998D01*
X103818426Y-79649999D01*
X104325000Y-79649999D01*
X104331581Y-79649999D01*
X104402102Y-79643591D01*
X104402107Y-79643590D01*
X104564396Y-79593018D01*
X104709877Y-79505072D01*
X104830072Y-79384877D01*
X104918019Y-79239395D01*
X104968590Y-79077106D01*
X104975000Y-79006572D01*
X104975000Y-78750000D01*
X104325000Y-78750000D01*
X104325000Y-79649999D01*
X103818426Y-79649999D01*
X103824999Y-79649998D01*
X103825000Y-79649998D01*
X103825000Y-78549728D01*
X103863060Y-78641614D01*
X103933386Y-78711940D01*
X104025272Y-78750000D01*
X104124728Y-78750000D01*
X104216614Y-78711940D01*
X104286940Y-78641614D01*
X104325000Y-78549728D01*
X104325000Y-78450272D01*
X104286940Y-78358386D01*
X104216614Y-78288060D01*
X104124728Y-78250000D01*
X104325000Y-78250000D01*
X104974999Y-78250000D01*
X104974999Y-77993417D01*
X104968591Y-77922897D01*
X104968590Y-77922892D01*
X104918018Y-77760603D01*
X104830072Y-77615122D01*
X104709877Y-77494927D01*
X104564395Y-77406980D01*
X104564396Y-77406980D01*
X104402105Y-77356409D01*
X104402106Y-77356409D01*
X104331572Y-77350000D01*
X104325000Y-77350000D01*
X104325000Y-78250000D01*
X104124728Y-78250000D01*
X104025272Y-78250000D01*
X103933386Y-78288060D01*
X103863060Y-78358386D01*
X103825000Y-78450272D01*
X103825000Y-77350000D01*
X103824999Y-77349999D01*
X103818436Y-77350000D01*
X103818417Y-77350001D01*
X103747897Y-77356408D01*
X103747892Y-77356409D01*
X103585601Y-77406981D01*
X103585599Y-77406982D01*
X103442334Y-77493588D01*
X103374779Y-77511424D01*
X103309295Y-77490573D01*
X103251547Y-77451987D01*
X103251544Y-77451985D01*
X103251543Y-77451985D01*
X103251542Y-77451984D01*
X103087667Y-77384106D01*
X103087658Y-77384103D01*
X102913694Y-77349500D01*
X102913691Y-77349500D01*
X102736309Y-77349500D01*
X102736306Y-77349500D01*
X102562341Y-77384103D01*
X102562332Y-77384106D01*
X102398459Y-77451983D01*
X102398446Y-77451990D01*
X102268891Y-77538557D01*
X102202213Y-77559435D01*
X102134833Y-77540950D01*
X102131109Y-77538557D01*
X102001553Y-77451990D01*
X102001540Y-77451983D01*
X101837667Y-77384106D01*
X101837658Y-77384103D01*
X101663694Y-77349500D01*
X101663691Y-77349500D01*
X101486309Y-77349500D01*
X101486306Y-77349500D01*
X101312341Y-77384103D01*
X101312332Y-77384106D01*
X101148459Y-77451983D01*
X101148446Y-77451990D01*
X101018891Y-77538557D01*
X100952213Y-77559435D01*
X100884833Y-77540950D01*
X100881109Y-77538557D01*
X100751553Y-77451990D01*
X100751540Y-77451983D01*
X100587667Y-77384106D01*
X100587658Y-77384103D01*
X100413694Y-77349500D01*
X100413691Y-77349500D01*
X100236309Y-77349500D01*
X100236306Y-77349500D01*
X100062341Y-77384103D01*
X100062332Y-77384106D01*
X99898459Y-77451983D01*
X99898446Y-77451990D01*
X99750965Y-77550535D01*
X99750961Y-77550538D01*
X99625538Y-77675961D01*
X99625535Y-77675965D01*
X99526990Y-77823446D01*
X99526983Y-77823459D01*
X99459106Y-77987332D01*
X99459103Y-77987341D01*
X99424500Y-78161304D01*
X92362792Y-78161304D01*
X92398951Y-78128340D01*
X92519180Y-77969132D01*
X92608107Y-77790543D01*
X92662704Y-77598654D01*
X92681112Y-77400000D01*
X92662704Y-77201346D01*
X92608107Y-77009457D01*
X92603398Y-77000000D01*
X110094540Y-77000000D01*
X110114326Y-77188256D01*
X110114327Y-77188259D01*
X110172818Y-77368277D01*
X110172821Y-77368284D01*
X110267467Y-77532216D01*
X110357521Y-77632231D01*
X110394129Y-77672888D01*
X110547265Y-77784148D01*
X110547270Y-77784151D01*
X110720192Y-77861142D01*
X110720197Y-77861144D01*
X110905354Y-77900500D01*
X110905355Y-77900500D01*
X111019372Y-77900500D01*
X111086411Y-77920185D01*
X111132166Y-77972989D01*
X111142110Y-78042147D01*
X111138032Y-78060496D01*
X111133976Y-78073866D01*
X111114659Y-78270000D01*
X111133975Y-78466129D01*
X111191188Y-78654733D01*
X111284086Y-78828532D01*
X111284090Y-78828539D01*
X111409116Y-78980883D01*
X111561460Y-79105909D01*
X111561467Y-79105913D01*
X111735266Y-79198811D01*
X111735269Y-79198811D01*
X111735273Y-79198814D01*
X111923868Y-79256024D01*
X112120000Y-79275341D01*
X112316132Y-79256024D01*
X112504727Y-79198814D01*
X112678538Y-79105910D01*
X112678544Y-79105904D01*
X112683607Y-79102523D01*
X112684703Y-79104164D01*
X112740639Y-79080405D01*
X112809507Y-79092194D01*
X112826148Y-79102888D01*
X112826393Y-79102523D01*
X112831458Y-79105907D01*
X112831462Y-79105910D01*
X113005273Y-79198814D01*
X113193868Y-79256024D01*
X113390000Y-79275341D01*
X113586132Y-79256024D01*
X113774727Y-79198814D01*
X113948538Y-79105910D01*
X113948544Y-79105904D01*
X113953607Y-79102523D01*
X113954703Y-79104164D01*
X114010639Y-79080405D01*
X114079507Y-79092194D01*
X114096148Y-79102888D01*
X114096393Y-79102523D01*
X114101458Y-79105907D01*
X114101462Y-79105910D01*
X114275273Y-79198814D01*
X114463868Y-79256024D01*
X114660000Y-79275341D01*
X114856132Y-79256024D01*
X115044727Y-79198814D01*
X115218538Y-79105910D01*
X115218544Y-79105904D01*
X115223607Y-79102523D01*
X115224703Y-79104164D01*
X115280639Y-79080405D01*
X115349507Y-79092194D01*
X115366148Y-79102888D01*
X115366393Y-79102523D01*
X115371458Y-79105907D01*
X115371462Y-79105910D01*
X115545273Y-79198814D01*
X115733868Y-79256024D01*
X115930000Y-79275341D01*
X116126132Y-79256024D01*
X116314727Y-79198814D01*
X116488538Y-79105910D01*
X116488544Y-79105904D01*
X116493607Y-79102523D01*
X116494703Y-79104164D01*
X116550639Y-79080405D01*
X116619507Y-79092194D01*
X116636148Y-79102888D01*
X116636393Y-79102523D01*
X116641458Y-79105907D01*
X116641462Y-79105910D01*
X116815273Y-79198814D01*
X117003868Y-79256024D01*
X117200000Y-79275341D01*
X117396132Y-79256024D01*
X117584727Y-79198814D01*
X117758538Y-79105910D01*
X117910883Y-78980883D01*
X118035910Y-78828538D01*
X118128814Y-78654727D01*
X118145416Y-78599999D01*
X118718888Y-78599999D01*
X118718888Y-78600000D01*
X118737295Y-78798649D01*
X118737295Y-78798651D01*
X118737296Y-78798654D01*
X118791893Y-78990543D01*
X118791894Y-78990546D01*
X118880816Y-79169126D01*
X118880821Y-79169134D01*
X118976225Y-79295468D01*
X119001049Y-79328340D01*
X119148484Y-79462746D01*
X119318107Y-79567772D01*
X119504140Y-79639841D01*
X119700248Y-79676500D01*
X119700250Y-79676500D01*
X119899750Y-79676500D01*
X119899752Y-79676500D01*
X120095860Y-79639841D01*
X120281893Y-79567772D01*
X120451516Y-79462746D01*
X120598951Y-79328340D01*
X120598952Y-79328338D01*
X120601423Y-79326086D01*
X120664227Y-79295468D01*
X120733614Y-79303665D01*
X120787555Y-79348075D01*
X120805853Y-79390129D01*
X120833083Y-79509426D01*
X120837413Y-79528397D01*
X120896178Y-79709258D01*
X120970654Y-79938472D01*
X120970657Y-79938480D01*
X121140114Y-80334947D01*
X121140118Y-80334955D01*
X121156489Y-80365377D01*
X121344444Y-80714655D01*
X121344448Y-80714661D01*
X121344448Y-80714662D01*
X121581975Y-81074501D01*
X121581985Y-81074514D01*
X121850806Y-81411607D01*
X121850816Y-81411618D01*
X121850817Y-81411619D01*
X122148791Y-81723274D01*
X122473501Y-82006965D01*
X122822334Y-82260407D01*
X123192481Y-82481560D01*
X123192484Y-82481561D01*
X123192485Y-82481562D01*
X123192487Y-82481563D01*
X123580953Y-82668639D01*
X123580967Y-82668645D01*
X123984636Y-82820144D01*
X123984640Y-82820145D01*
X123984650Y-82820149D01*
X124400292Y-82934859D01*
X124824545Y-83011850D01*
X125253990Y-83050500D01*
X125253997Y-83050500D01*
X125685165Y-83050500D01*
X125685172Y-83050500D01*
X126114617Y-83011850D01*
X126538870Y-82934859D01*
X126954512Y-82820149D01*
X127358200Y-82668643D01*
X127746681Y-82481560D01*
X128116828Y-82260407D01*
X128465661Y-82006965D01*
X128790371Y-81723274D01*
X129088345Y-81411619D01*
X129357182Y-81074507D01*
X129594718Y-80714655D01*
X129799042Y-80334958D01*
X129968507Y-79938475D01*
X130101749Y-79528397D01*
X130197696Y-79108026D01*
X130255575Y-78680747D01*
X130274920Y-78250000D01*
X130255575Y-77819253D01*
X130197696Y-77391974D01*
X130101749Y-76971603D01*
X129968507Y-76561525D01*
X129893602Y-76386275D01*
X129799047Y-76165052D01*
X129799043Y-76165044D01*
X129798529Y-76164089D01*
X129594718Y-75785345D01*
X129594713Y-75785337D01*
X129357186Y-75425498D01*
X129357176Y-75425485D01*
X129088355Y-75088392D01*
X129088343Y-75088379D01*
X128790375Y-74776730D01*
X128790374Y-74776729D01*
X128790371Y-74776726D01*
X128539461Y-74557512D01*
X128465666Y-74493039D01*
X128465649Y-74493026D01*
X128116837Y-74239599D01*
X128116832Y-74239596D01*
X128116828Y-74239593D01*
X127746681Y-74018440D01*
X127746676Y-74018437D01*
X127746674Y-74018436D01*
X127358208Y-73831360D01*
X127358194Y-73831354D01*
X126954525Y-73679855D01*
X126954500Y-73679847D01*
X126538876Y-73565142D01*
X126114624Y-73488151D01*
X126114621Y-73488150D01*
X126114617Y-73488150D01*
X125685172Y-73449500D01*
X125253990Y-73449500D01*
X124824545Y-73488150D01*
X124824541Y-73488150D01*
X124824537Y-73488151D01*
X124400285Y-73565142D01*
X123984661Y-73679847D01*
X123984636Y-73679855D01*
X123580967Y-73831354D01*
X123580953Y-73831360D01*
X123192487Y-74018436D01*
X123192485Y-74018437D01*
X122822324Y-74239599D01*
X122473512Y-74493026D01*
X122473495Y-74493039D01*
X122148791Y-74776726D01*
X122148786Y-74776730D01*
X121850818Y-75088379D01*
X121850806Y-75088392D01*
X121581985Y-75425485D01*
X121581975Y-75425498D01*
X121344448Y-75785337D01*
X121344448Y-75785338D01*
X121344445Y-75785343D01*
X121344444Y-75785345D01*
X121336558Y-75800000D01*
X121140118Y-76165044D01*
X121140114Y-76165052D01*
X120970657Y-76561519D01*
X120970654Y-76561527D01*
X120837411Y-76971608D01*
X120741771Y-77390636D01*
X120741466Y-77391974D01*
X120699755Y-77699900D01*
X120699696Y-77700334D01*
X120671190Y-77764124D01*
X120612722Y-77802377D01*
X120542855Y-77802947D01*
X120493280Y-77775327D01*
X120465377Y-77749890D01*
X120451516Y-77737254D01*
X120451513Y-77737252D01*
X120451512Y-77737251D01*
X120281898Y-77632231D01*
X120281891Y-77632227D01*
X120188876Y-77596193D01*
X120095860Y-77560159D01*
X119899752Y-77523500D01*
X119700248Y-77523500D01*
X119504140Y-77560159D01*
X119504137Y-77560159D01*
X119504137Y-77560160D01*
X119318108Y-77632227D01*
X119318101Y-77632231D01*
X119148487Y-77737251D01*
X119001048Y-77871660D01*
X118880821Y-78030865D01*
X118880816Y-78030873D01*
X118791894Y-78209453D01*
X118737295Y-78401350D01*
X118718888Y-78599999D01*
X118145416Y-78599999D01*
X118186024Y-78466132D01*
X118205341Y-78270000D01*
X118186024Y-78073868D01*
X118128814Y-77885273D01*
X118127419Y-77882663D01*
X118127100Y-77881135D01*
X118126482Y-77879641D01*
X118126765Y-77879523D01*
X118113174Y-77814261D01*
X118137512Y-77749890D01*
X118143351Y-77742089D01*
X118193597Y-77607376D01*
X118193598Y-77607372D01*
X118199999Y-77547844D01*
X118200000Y-77547827D01*
X118200000Y-77250000D01*
X117409618Y-77250000D01*
X117460064Y-77199554D01*
X117502851Y-77125445D01*
X117525000Y-77042787D01*
X117525000Y-76957213D01*
X117502851Y-76874555D01*
X117460064Y-76800446D01*
X117409618Y-76750000D01*
X117450000Y-76750000D01*
X118200000Y-76750000D01*
X118200000Y-76452172D01*
X118199999Y-76452155D01*
X118193598Y-76392627D01*
X118193596Y-76392620D01*
X118143354Y-76257913D01*
X118143350Y-76257906D01*
X118057190Y-76142812D01*
X118057187Y-76142809D01*
X117942093Y-76056649D01*
X117942086Y-76056645D01*
X117807379Y-76006403D01*
X117807372Y-76006401D01*
X117747844Y-76000000D01*
X117450000Y-76000000D01*
X117450000Y-76750000D01*
X117409618Y-76750000D01*
X117399554Y-76739936D01*
X117325445Y-76697149D01*
X117242787Y-76675000D01*
X117157213Y-76675000D01*
X117074555Y-76697149D01*
X117000446Y-76739936D01*
X116950000Y-76790382D01*
X116950000Y-76000000D01*
X116822155Y-76000000D01*
X116755116Y-75980315D01*
X116709361Y-75927511D01*
X116698834Y-75863040D01*
X116705460Y-75800000D01*
X116685674Y-75611744D01*
X116627179Y-75431716D01*
X116532533Y-75267784D01*
X116405871Y-75127112D01*
X116405870Y-75127111D01*
X116252734Y-75015851D01*
X116252729Y-75015848D01*
X116079807Y-74938857D01*
X116079802Y-74938855D01*
X115934001Y-74907865D01*
X115894646Y-74899500D01*
X115705354Y-74899500D01*
X115672897Y-74906398D01*
X115520197Y-74938855D01*
X115520192Y-74938857D01*
X115347270Y-75015848D01*
X115347265Y-75015851D01*
X115272885Y-75069892D01*
X115207079Y-75093372D01*
X115139025Y-75077546D01*
X115127115Y-75069892D01*
X115052734Y-75015851D01*
X115052729Y-75015848D01*
X114879807Y-74938857D01*
X114879802Y-74938855D01*
X114734001Y-74907865D01*
X114694646Y-74899500D01*
X114505354Y-74899500D01*
X114472897Y-74906398D01*
X114320197Y-74938855D01*
X114320192Y-74938857D01*
X114147270Y-75015848D01*
X114147265Y-75015851D01*
X113994129Y-75127111D01*
X113867466Y-75267785D01*
X113772821Y-75431715D01*
X113772818Y-75431722D01*
X113714327Y-75611740D01*
X113714326Y-75611744D01*
X113696081Y-75785337D01*
X113694540Y-75800000D01*
X113702499Y-75875731D01*
X113689929Y-75944460D01*
X113642196Y-75995484D01*
X113574456Y-76012601D01*
X113567024Y-76012094D01*
X113390000Y-75994659D01*
X113193870Y-76013975D01*
X113005266Y-76071188D01*
X112831467Y-76164086D01*
X112826399Y-76167473D01*
X112825305Y-76165836D01*
X112769337Y-76189596D01*
X112700471Y-76177795D01*
X112683843Y-76167109D01*
X112683601Y-76167473D01*
X112678532Y-76164086D01*
X112504733Y-76071188D01*
X112504727Y-76071186D01*
X112316132Y-76013976D01*
X112316129Y-76013975D01*
X112120000Y-75994659D01*
X111923870Y-76013975D01*
X111735266Y-76071188D01*
X111561467Y-76164086D01*
X111561461Y-76164089D01*
X111541502Y-76180470D01*
X111477192Y-76207782D01*
X111412403Y-76197894D01*
X111279807Y-76138857D01*
X111279802Y-76138855D01*
X111134001Y-76107865D01*
X111094646Y-76099500D01*
X110905354Y-76099500D01*
X110872897Y-76106398D01*
X110720197Y-76138855D01*
X110720192Y-76138857D01*
X110547270Y-76215848D01*
X110547265Y-76215851D01*
X110394129Y-76327111D01*
X110267466Y-76467785D01*
X110172821Y-76631715D01*
X110172818Y-76631722D01*
X110128484Y-76768169D01*
X110114326Y-76811744D01*
X110094540Y-77000000D01*
X92603398Y-77000000D01*
X92540934Y-76874555D01*
X92519183Y-76830873D01*
X92519178Y-76830865D01*
X92398951Y-76671660D01*
X92251516Y-76537254D01*
X92251513Y-76537252D01*
X92251512Y-76537251D01*
X92081898Y-76432231D01*
X92081891Y-76432227D01*
X91963274Y-76386275D01*
X91895860Y-76360159D01*
X91699752Y-76323500D01*
X91500248Y-76323500D01*
X91304140Y-76360159D01*
X91304137Y-76360159D01*
X91304137Y-76360160D01*
X91118108Y-76432227D01*
X91118101Y-76432231D01*
X90948487Y-76537251D01*
X90801048Y-76671660D01*
X90680821Y-76830865D01*
X90680816Y-76830873D01*
X90591894Y-77009453D01*
X90591893Y-77009457D01*
X90541021Y-77188256D01*
X90537295Y-77201350D01*
X90518888Y-77399999D01*
X90253423Y-77399999D01*
X90162587Y-77002022D01*
X90029345Y-76591944D01*
X89944150Y-76392620D01*
X89859885Y-76195471D01*
X89859881Y-76195463D01*
X89851813Y-76180470D01*
X89655556Y-75815764D01*
X89655551Y-75815756D01*
X89418024Y-75455917D01*
X89418014Y-75455904D01*
X89149193Y-75118811D01*
X89149181Y-75118798D01*
X88851213Y-74807149D01*
X88851212Y-74807148D01*
X88851209Y-74807145D01*
X88622806Y-74607595D01*
X88526504Y-74523458D01*
X88526487Y-74523445D01*
X88177675Y-74270018D01*
X88177670Y-74270015D01*
X88177666Y-74270012D01*
X87807519Y-74048859D01*
X87807514Y-74048856D01*
X87807512Y-74048855D01*
X87419046Y-73861779D01*
X87419032Y-73861773D01*
X87015363Y-73710274D01*
X87015338Y-73710266D01*
X86599714Y-73595561D01*
X86175462Y-73518570D01*
X86175459Y-73518569D01*
X86175455Y-73518569D01*
X85746010Y-73479919D01*
X85314828Y-73479919D01*
X84885383Y-73518569D01*
X84885379Y-73518569D01*
X84885375Y-73518570D01*
X84461123Y-73595561D01*
X84045499Y-73710266D01*
X84045474Y-73710274D01*
X83641805Y-73861773D01*
X83641791Y-73861779D01*
X83253325Y-74048855D01*
X83253323Y-74048856D01*
X82883162Y-74270018D01*
X82534350Y-74523445D01*
X82534333Y-74523458D01*
X82209629Y-74807145D01*
X82209624Y-74807149D01*
X81911656Y-75118798D01*
X81911644Y-75118811D01*
X81642823Y-75455904D01*
X81642813Y-75455917D01*
X81405286Y-75815756D01*
X81405286Y-75815757D01*
X81405283Y-75815762D01*
X81405282Y-75815764D01*
X81369461Y-75882330D01*
X81200956Y-76195463D01*
X81200952Y-76195471D01*
X81031495Y-76591938D01*
X81031492Y-76591946D01*
X80898249Y-77002027D01*
X80802304Y-77422391D01*
X80744425Y-77849672D01*
X80744424Y-77849681D01*
X80725080Y-78280415D01*
X80305446Y-78280415D01*
X80318388Y-77967477D01*
X80319231Y-77957308D01*
X80372146Y-77532800D01*
X80373826Y-77522728D01*
X80461614Y-77104048D01*
X80464121Y-77094152D01*
X80586185Y-76684145D01*
X80589500Y-76674492D01*
X80744999Y-76275980D01*
X80749111Y-76266608D01*
X80773926Y-76215848D01*
X80936981Y-75882313D01*
X80941835Y-75873341D01*
X81160823Y-75505832D01*
X81166406Y-75497287D01*
X81414972Y-75149150D01*
X81421262Y-75141069D01*
X81697732Y-74814640D01*
X81704651Y-74807125D01*
X82007125Y-74504651D01*
X82014640Y-74497732D01*
X82341075Y-74221257D01*
X82349150Y-74214972D01*
X82697287Y-73966406D01*
X82705832Y-73960823D01*
X83073341Y-73741835D01*
X83082313Y-73736981D01*
X83466612Y-73549108D01*
X83475980Y-73544999D01*
X83874492Y-73389500D01*
X83884145Y-73386185D01*
X84294152Y-73264121D01*
X84304048Y-73261614D01*
X84722728Y-73173826D01*
X84732800Y-73172146D01*
X85157308Y-73119231D01*
X85167477Y-73118388D01*
X85597437Y-73100605D01*
X85602561Y-73100500D01*
X85665892Y-73100500D01*
X125534108Y-73100500D01*
X125597439Y-73100500D01*
X125602562Y-73100605D01*
G37*
%TD.AperFunction*%
%TD*%
M02*
