%TF.GenerationSoftware,KiCad,Pcbnew,8.0.5-8.0.5-0~ubuntu24.04.1*%
%TF.CreationDate,2024-09-30T02:40:30+03:30*%
%TF.ProjectId,stm32buckusb,73746d33-3262-4756-936b-7573622e6b69,rev?*%
%TF.SameCoordinates,Original*%
%TF.FileFunction,Copper,L2,Inr*%
%TF.FilePolarity,Positive*%
%FSLAX46Y46*%
G04 Gerber Fmt 4.6, Leading zero omitted, Abs format (unit mm)*
G04 Created by KiCad (PCBNEW 8.0.5-8.0.5-0~ubuntu24.04.1) date 2024-09-30 02:40:30*
%MOMM*%
%LPD*%
G01*
G04 APERTURE LIST*
G04 Aperture macros list*
%AMRoundRect*
0 Rectangle with rounded corners*
0 $1 Rounding radius*
0 $2 $3 $4 $5 $6 $7 $8 $9 X,Y pos of 4 corners*
0 Add a 4 corners polygon primitive as box body*
4,1,4,$2,$3,$4,$5,$6,$7,$8,$9,$2,$3,0*
0 Add four circle primitives for the rounded corners*
1,1,$1+$1,$2,$3*
1,1,$1+$1,$4,$5*
1,1,$1+$1,$6,$7*
1,1,$1+$1,$8,$9*
0 Add four rect primitives between the rounded corners*
20,1,$1+$1,$2,$3,$4,$5,0*
20,1,$1+$1,$4,$5,$6,$7,0*
20,1,$1+$1,$6,$7,$8,$9,0*
20,1,$1+$1,$8,$9,$2,$3,0*%
G04 Aperture macros list end*
%TA.AperFunction,ComponentPad*%
%ADD10R,1.000000X1.000000*%
%TD*%
%TA.AperFunction,ComponentPad*%
%ADD11O,1.000000X1.000000*%
%TD*%
%TA.AperFunction,ComponentPad*%
%ADD12C,0.900000*%
%TD*%
%TA.AperFunction,ComponentPad*%
%ADD13C,8.600000*%
%TD*%
%TA.AperFunction,ComponentPad*%
%ADD14RoundRect,0.200000X-0.200000X-0.450000X0.200000X-0.450000X0.200000X0.450000X-0.200000X0.450000X0*%
%TD*%
%TA.AperFunction,ComponentPad*%
%ADD15O,0.800000X1.300000*%
%TD*%
%TA.AperFunction,ComponentPad*%
%ADD16O,1.600000X0.900000*%
%TD*%
%TA.AperFunction,ComponentPad*%
%ADD17RoundRect,0.200000X0.200000X0.450000X-0.200000X0.450000X-0.200000X-0.450000X0.200000X-0.450000X0*%
%TD*%
%TA.AperFunction,ComponentPad*%
%ADD18R,2.400000X2.400000*%
%TD*%
%TA.AperFunction,ComponentPad*%
%ADD19C,2.400000*%
%TD*%
%TA.AperFunction,ViaPad*%
%ADD20C,0.800000*%
%TD*%
%TA.AperFunction,ViaPad*%
%ADD21C,0.600000*%
%TD*%
G04 APERTURE END LIST*
D10*
%TO.N,+3.3V*%
%TO.C,J2*%
X117200000Y-77000000D03*
D11*
%TO.N,SWDIO*%
X117200000Y-78270000D03*
%TO.N,GND*%
X115930000Y-77000000D03*
%TO.N,SECLK*%
X115930000Y-78270000D03*
%TO.N,GND*%
X114660000Y-77000000D03*
%TO.N,SWO*%
X114660000Y-78270000D03*
%TO.N,unconnected-(J2-Pin_7-Pad7)*%
X113390000Y-77000000D03*
%TO.N,unconnected-(J2-Pin_8-Pad8)*%
X113390000Y-78270000D03*
%TO.N,GND*%
X112120000Y-77000000D03*
%TO.N,NRST*%
X112120000Y-78270000D03*
%TD*%
D12*
%TO.N,GND*%
%TO.C,H4*%
X82305419Y-117780419D03*
X83250000Y-115500000D03*
X83250000Y-120060838D03*
X85530419Y-114555419D03*
D13*
X85530419Y-117780419D03*
D12*
X85530419Y-121005419D03*
X87810838Y-115500000D03*
X87810838Y-120060838D03*
X88755419Y-117780419D03*
%TD*%
%TO.N,GND*%
%TO.C,H1*%
X122244581Y-78250000D03*
X123189162Y-75969581D03*
X123189162Y-80530419D03*
X125469581Y-75025000D03*
D13*
X125469581Y-78250000D03*
D12*
X125469581Y-81475000D03*
X127750000Y-75969581D03*
X127750000Y-80530419D03*
X128694581Y-78250000D03*
%TD*%
D14*
%TO.N,+3.3V*%
%TO.C,J4*%
X100325000Y-118300000D03*
D15*
%TO.N,UART3_TX*%
X101575000Y-118300000D03*
%TO.N,UART3_RX*%
X102825000Y-118300000D03*
%TO.N,GND*%
X104075000Y-118300000D03*
%TD*%
D12*
%TO.N,GND*%
%TO.C,H3*%
X82305419Y-78280419D03*
X83250000Y-76000000D03*
X83250000Y-80560838D03*
X85530419Y-75055419D03*
D13*
X85530419Y-78280419D03*
D12*
X85530419Y-81505419D03*
X87810838Y-76000000D03*
X87810838Y-80560838D03*
X88755419Y-78280419D03*
%TD*%
%TO.N,GND*%
%TO.C,H2*%
X122275000Y-117750000D03*
X123219581Y-115469581D03*
X123219581Y-120030419D03*
X125500000Y-114525000D03*
D13*
X125500000Y-117750000D03*
D12*
X125500000Y-120975000D03*
X127780419Y-115469581D03*
X127780419Y-120030419D03*
X128725000Y-117750000D03*
%TD*%
D16*
%TO.N,unconnected-(J5-Shield-Pad6)_5*%
%TO.C,J5*%
X129800000Y-85700000D03*
%TO.N,unconnected-(J5-Shield-Pad6)_3*%
X129800000Y-92300000D03*
%TD*%
D17*
%TO.N,+3.3V*%
%TO.C,J3*%
X104075000Y-78500000D03*
D15*
%TO.N,I2C1_SCL*%
X102825000Y-78500000D03*
%TO.N,I2C1_SDA*%
X101575000Y-78500000D03*
%TO.N,GND*%
X100325000Y-78500000D03*
%TD*%
D18*
%TO.N,+12V*%
%TO.C,J1*%
X125550000Y-108100000D03*
D19*
%TO.N,GND*%
X125550000Y-104600000D03*
%TD*%
D20*
%TO.N,NRST*%
X107600000Y-83600000D03*
%TO.N,+3.3V*%
X117200000Y-75800000D03*
%TO.N,GND*%
X115800000Y-75800000D03*
X114600000Y-75800000D03*
X111000000Y-77000000D03*
%TO.N,NRST*%
X106400000Y-93200000D03*
%TO.N,GND*%
X93600000Y-92200000D03*
%TO.N,+5V*%
X122800000Y-87200000D03*
X123400000Y-90400000D03*
%TO.N,GND*%
X109000000Y-104000000D03*
X100200000Y-88200000D03*
%TO.N,+3.3V*%
X123600000Y-100200000D03*
X125400000Y-100200000D03*
%TO.N,GND*%
X109800000Y-90600000D03*
X116000000Y-99000000D03*
X113600000Y-101800000D03*
X109200000Y-105600000D03*
X93600000Y-102400000D03*
X89000000Y-95400000D03*
X91800000Y-92000000D03*
X100400000Y-79800000D03*
X113400000Y-90800000D03*
X120200000Y-91600000D03*
X116200000Y-106800000D03*
X116200000Y-105800000D03*
X119400000Y-104600000D03*
X120200000Y-104200000D03*
X121200000Y-104600000D03*
X120000000Y-100200000D03*
X121000000Y-100200000D03*
X127800000Y-100200000D03*
X128800000Y-99400000D03*
X124200000Y-97600000D03*
X122800000Y-96400000D03*
X125200000Y-86600000D03*
X124200000Y-86600000D03*
X124200000Y-87600000D03*
X125200000Y-87600000D03*
X104000000Y-117200000D03*
X92600000Y-98000000D03*
X95000000Y-97000000D03*
X98500000Y-104500000D03*
X94000000Y-88500000D03*
X84900000Y-92250000D03*
X86000000Y-94400000D03*
%TO.N,+3.3V*%
X118750000Y-100250000D03*
X116500000Y-100250000D03*
X111500000Y-111500000D03*
X110500000Y-112250000D03*
X109500000Y-111500000D03*
X109000000Y-103000000D03*
X95000000Y-92000000D03*
X108750000Y-90500000D03*
X104000000Y-79750000D03*
X99500000Y-85500000D03*
X100250000Y-117250000D03*
X101250000Y-104500000D03*
X95250000Y-100500000D03*
X84900000Y-87750000D03*
X96750000Y-87250000D03*
X105750000Y-86600000D03*
D21*
%TO.N,Net-(D2-K)*%
X117600000Y-100000000D03*
X117600000Y-103600000D03*
%TD*%
%TA.AperFunction,Conductor*%
%TO.N,GND*%
G36*
X125602562Y-73100605D02*
G01*
X126049036Y-73119072D01*
X126059209Y-73119915D01*
X126500114Y-73174873D01*
X126510194Y-73176555D01*
X126945042Y-73267733D01*
X126954950Y-73270242D01*
X127380786Y-73397019D01*
X127390454Y-73400338D01*
X127694727Y-73519067D01*
X127804339Y-73561838D01*
X127813724Y-73565954D01*
X128212869Y-73761083D01*
X128221877Y-73765958D01*
X128603544Y-73993383D01*
X128612123Y-73998989D01*
X128973693Y-74257144D01*
X128981770Y-74263431D01*
X129289230Y-74523836D01*
X129320796Y-74550571D01*
X129328336Y-74557512D01*
X129642487Y-74871663D01*
X129649428Y-74879203D01*
X129699952Y-74938857D01*
X129874529Y-75144980D01*
X129936564Y-75218224D01*
X129942859Y-75226312D01*
X130201010Y-75587876D01*
X130206616Y-75596455D01*
X130434041Y-75978122D01*
X130438919Y-75987136D01*
X130634045Y-76386275D01*
X130638161Y-76395660D01*
X130799656Y-76809533D01*
X130802984Y-76819226D01*
X130929753Y-77245036D01*
X130932269Y-77254971D01*
X131023441Y-77689791D01*
X131025128Y-77699900D01*
X131080082Y-78140769D01*
X131080928Y-78150983D01*
X131099394Y-78597437D01*
X131099500Y-78602561D01*
X131099500Y-85005927D01*
X131079815Y-85072966D01*
X131027011Y-85118721D01*
X130957853Y-85128665D01*
X130894297Y-85099640D01*
X130887819Y-85093608D01*
X130755911Y-84961700D01*
X130755907Y-84961697D01*
X130600237Y-84857681D01*
X130600228Y-84857676D01*
X130427251Y-84786027D01*
X130427243Y-84786025D01*
X130243620Y-84749500D01*
X130243616Y-84749500D01*
X129356384Y-84749500D01*
X129356379Y-84749500D01*
X129172756Y-84786025D01*
X129172748Y-84786027D01*
X128999771Y-84857676D01*
X128999762Y-84857681D01*
X128844092Y-84961697D01*
X128844088Y-84961700D01*
X128711700Y-85094088D01*
X128711697Y-85094092D01*
X128607681Y-85249762D01*
X128607676Y-85249771D01*
X128536027Y-85422748D01*
X128536025Y-85422756D01*
X128499500Y-85606379D01*
X128499500Y-85793620D01*
X128536025Y-85977243D01*
X128536027Y-85977251D01*
X128607676Y-86150228D01*
X128607681Y-86150237D01*
X128711697Y-86305907D01*
X128711700Y-86305911D01*
X128844088Y-86438299D01*
X128844092Y-86438302D01*
X128999762Y-86542318D01*
X128999768Y-86542321D01*
X128999769Y-86542322D01*
X129172749Y-86613973D01*
X129356379Y-86650499D01*
X129356383Y-86650500D01*
X129356384Y-86650500D01*
X130243617Y-86650500D01*
X130243618Y-86650499D01*
X130427251Y-86613973D01*
X130600231Y-86542322D01*
X130755908Y-86438302D01*
X130808983Y-86385227D01*
X130887819Y-86306392D01*
X130949142Y-86272907D01*
X131018834Y-86277891D01*
X131074767Y-86319763D01*
X131099184Y-86385227D01*
X131099500Y-86394073D01*
X131099500Y-91605927D01*
X131079815Y-91672966D01*
X131027011Y-91718721D01*
X130957853Y-91728665D01*
X130894297Y-91699640D01*
X130887819Y-91693608D01*
X130755911Y-91561700D01*
X130755907Y-91561697D01*
X130600237Y-91457681D01*
X130600228Y-91457676D01*
X130427251Y-91386027D01*
X130427243Y-91386025D01*
X130243620Y-91349500D01*
X130243616Y-91349500D01*
X129356384Y-91349500D01*
X129356379Y-91349500D01*
X129172756Y-91386025D01*
X129172748Y-91386027D01*
X128999771Y-91457676D01*
X128999762Y-91457681D01*
X128844092Y-91561697D01*
X128844088Y-91561700D01*
X128711700Y-91694088D01*
X128711697Y-91694092D01*
X128607681Y-91849762D01*
X128607676Y-91849771D01*
X128536027Y-92022748D01*
X128536025Y-92022756D01*
X128499500Y-92206379D01*
X128499500Y-92393620D01*
X128536025Y-92577243D01*
X128536027Y-92577251D01*
X128607676Y-92750228D01*
X128607681Y-92750237D01*
X128711697Y-92905907D01*
X128711700Y-92905911D01*
X128844088Y-93038299D01*
X128844092Y-93038302D01*
X128999762Y-93142318D01*
X128999768Y-93142321D01*
X128999769Y-93142322D01*
X129172749Y-93213973D01*
X129356379Y-93250499D01*
X129356383Y-93250500D01*
X129356384Y-93250500D01*
X130243617Y-93250500D01*
X130243618Y-93250499D01*
X130427251Y-93213973D01*
X130600231Y-93142322D01*
X130755908Y-93038302D01*
X130808983Y-92985227D01*
X130887819Y-92906392D01*
X130949142Y-92872907D01*
X131018834Y-92877891D01*
X131074767Y-92919763D01*
X131099184Y-92985227D01*
X131099500Y-92994073D01*
X131099500Y-117797438D01*
X131099394Y-117802562D01*
X131080928Y-118249016D01*
X131080082Y-118259230D01*
X131025128Y-118700099D01*
X131023441Y-118710208D01*
X130932269Y-119145028D01*
X130929753Y-119154963D01*
X130802984Y-119580773D01*
X130799656Y-119590466D01*
X130638161Y-120004339D01*
X130634045Y-120013724D01*
X130438919Y-120412863D01*
X130434041Y-120421877D01*
X130206616Y-120803544D01*
X130201010Y-120812123D01*
X129942859Y-121173687D01*
X129936564Y-121181775D01*
X129649428Y-121520796D01*
X129642487Y-121528336D01*
X129328336Y-121842487D01*
X129320796Y-121849428D01*
X128981775Y-122136564D01*
X128973687Y-122142859D01*
X128612123Y-122401010D01*
X128603544Y-122406616D01*
X128221877Y-122634041D01*
X128212863Y-122638919D01*
X127813724Y-122834045D01*
X127804339Y-122838161D01*
X127390466Y-122999656D01*
X127380773Y-123002984D01*
X126954963Y-123129753D01*
X126945028Y-123132269D01*
X126510208Y-123223441D01*
X126500099Y-123225128D01*
X126059230Y-123280082D01*
X126049016Y-123280928D01*
X125602563Y-123299394D01*
X125597439Y-123299500D01*
X85602561Y-123299500D01*
X85597437Y-123299394D01*
X85167499Y-123281612D01*
X85157285Y-123280766D01*
X84732819Y-123227856D01*
X84722710Y-123226169D01*
X84304068Y-123138389D01*
X84294133Y-123135873D01*
X83884166Y-123013820D01*
X83874473Y-123010492D01*
X83475993Y-122855005D01*
X83466608Y-122850888D01*
X83082330Y-122663026D01*
X83073323Y-122658153D01*
X82705850Y-122439187D01*
X82697270Y-122433581D01*
X82349156Y-122185031D01*
X82341069Y-122178737D01*
X82014653Y-121902278D01*
X82007113Y-121895336D01*
X81704663Y-121592886D01*
X81697721Y-121585346D01*
X81421262Y-121258930D01*
X81414968Y-121250843D01*
X81232042Y-120994640D01*
X81166414Y-120902723D01*
X81160812Y-120894149D01*
X81128311Y-120839605D01*
X80941841Y-120526667D01*
X80936973Y-120517669D01*
X80885736Y-120412863D01*
X80749111Y-120133391D01*
X80744994Y-120124006D01*
X80676504Y-119948481D01*
X80589503Y-119725514D01*
X80586183Y-119715846D01*
X80464122Y-119305853D01*
X80461613Y-119295945D01*
X80373827Y-118877275D01*
X80372145Y-118867195D01*
X80319231Y-118442693D01*
X80318388Y-118432520D01*
X80300606Y-118002562D01*
X80300500Y-117997438D01*
X80300500Y-117780415D01*
X80725581Y-117780415D01*
X80725581Y-117780422D01*
X80744923Y-118211111D01*
X80744924Y-118211120D01*
X80802797Y-118638357D01*
X80898732Y-119058677D01*
X81031961Y-119468715D01*
X81031964Y-119468723D01*
X81201404Y-119865149D01*
X81201408Y-119865157D01*
X81405713Y-120244818D01*
X81643218Y-120604626D01*
X81643219Y-120604627D01*
X81912027Y-120941701D01*
X81962642Y-120994640D01*
X83843516Y-119113766D01*
X83910495Y-119201054D01*
X84109784Y-119400343D01*
X84197070Y-119467320D01*
X82317296Y-121347094D01*
X82534646Y-121536988D01*
X82534663Y-121537001D01*
X82883443Y-121790405D01*
X83253559Y-122011539D01*
X83253565Y-122011542D01*
X83641988Y-122198597D01*
X83642002Y-122198603D01*
X84045628Y-122350086D01*
X84045653Y-122350094D01*
X84461235Y-122464788D01*
X84885442Y-122541770D01*
X85314854Y-122580418D01*
X85314857Y-122580419D01*
X85745981Y-122580419D01*
X85745983Y-122580418D01*
X86175395Y-122541770D01*
X86599602Y-122464788D01*
X87015184Y-122350094D01*
X87015209Y-122350086D01*
X87418835Y-122198603D01*
X87418849Y-122198597D01*
X87807272Y-122011542D01*
X87807278Y-122011539D01*
X88177394Y-121790405D01*
X88526174Y-121537001D01*
X88526191Y-121536988D01*
X88743540Y-121347094D01*
X86863767Y-119467320D01*
X86951054Y-119400343D01*
X87150343Y-119201054D01*
X87217320Y-119113767D01*
X89098194Y-120994641D01*
X89098195Y-120994641D01*
X89148805Y-120941708D01*
X89148805Y-120941707D01*
X89417618Y-120604627D01*
X89417619Y-120604626D01*
X89655124Y-120244818D01*
X89859429Y-119865157D01*
X89859433Y-119865149D01*
X90028873Y-119468723D01*
X90028876Y-119468715D01*
X90162105Y-119058677D01*
X90258040Y-118638357D01*
X90290328Y-118399999D01*
X90718888Y-118399999D01*
X90718888Y-118400000D01*
X90737295Y-118598649D01*
X90737295Y-118598651D01*
X90737296Y-118598654D01*
X90769036Y-118710208D01*
X90791894Y-118790546D01*
X90880816Y-118969126D01*
X90880821Y-118969134D01*
X90997557Y-119123716D01*
X91001049Y-119128340D01*
X91148484Y-119262746D01*
X91318107Y-119367772D01*
X91504140Y-119439841D01*
X91700248Y-119476500D01*
X91700250Y-119476500D01*
X91899750Y-119476500D01*
X91899752Y-119476500D01*
X92095860Y-119439841D01*
X92281893Y-119367772D01*
X92451516Y-119262746D01*
X92598951Y-119128340D01*
X92719180Y-118969132D01*
X92808107Y-118790543D01*
X92862704Y-118598654D01*
X92881112Y-118400000D01*
X92862704Y-118201346D01*
X92808107Y-118009457D01*
X92770588Y-117934108D01*
X92719183Y-117830873D01*
X92719178Y-117830865D01*
X92598951Y-117671660D01*
X92590576Y-117664025D01*
X92451516Y-117537254D01*
X92451513Y-117537252D01*
X92451512Y-117537251D01*
X92281898Y-117432231D01*
X92281891Y-117432227D01*
X92188876Y-117396193D01*
X92095860Y-117360159D01*
X91899752Y-117323500D01*
X91700248Y-117323500D01*
X91504140Y-117360159D01*
X91504137Y-117360159D01*
X91504137Y-117360160D01*
X91318108Y-117432227D01*
X91318101Y-117432231D01*
X91148487Y-117537251D01*
X91001048Y-117671660D01*
X90880821Y-117830865D01*
X90880816Y-117830873D01*
X90791894Y-118009453D01*
X90737295Y-118201350D01*
X90718888Y-118399999D01*
X90290328Y-118399999D01*
X90315913Y-118211120D01*
X90315914Y-118211111D01*
X90335257Y-117780422D01*
X90335257Y-117780415D01*
X90315914Y-117349726D01*
X90315913Y-117349717D01*
X90302405Y-117250000D01*
X99344540Y-117250000D01*
X99364326Y-117438256D01*
X99364327Y-117438259D01*
X99422821Y-117618285D01*
X99425464Y-117624221D01*
X99423985Y-117624879D01*
X99438546Y-117684881D01*
X99433073Y-117715874D01*
X99430914Y-117722800D01*
X99430914Y-117722803D01*
X99424500Y-117793386D01*
X99424500Y-118806613D01*
X99430913Y-118877192D01*
X99430913Y-118877194D01*
X99430914Y-118877196D01*
X99462156Y-118977458D01*
X99481522Y-119039606D01*
X99569530Y-119185188D01*
X99689811Y-119305469D01*
X99689813Y-119305470D01*
X99689815Y-119305472D01*
X99835394Y-119393478D01*
X99997804Y-119444086D01*
X100068384Y-119450500D01*
X100068387Y-119450500D01*
X100581613Y-119450500D01*
X100581616Y-119450500D01*
X100652196Y-119444086D01*
X100814606Y-119393478D01*
X100958125Y-119306717D01*
X101025676Y-119288882D01*
X101091162Y-119309733D01*
X101148450Y-119348011D01*
X101148457Y-119348015D01*
X101201351Y-119369924D01*
X101312334Y-119415894D01*
X101312336Y-119415894D01*
X101312341Y-119415896D01*
X101486304Y-119450499D01*
X101486307Y-119450500D01*
X101486309Y-119450500D01*
X101663693Y-119450500D01*
X101663694Y-119450499D01*
X101725044Y-119438296D01*
X101837658Y-119415896D01*
X101837661Y-119415894D01*
X101837666Y-119415894D01*
X102001547Y-119348013D01*
X102131109Y-119261442D01*
X102197786Y-119240564D01*
X102265166Y-119259048D01*
X102268891Y-119261442D01*
X102398446Y-119348008D01*
X102398453Y-119348013D01*
X102398455Y-119348014D01*
X102398459Y-119348016D01*
X102451351Y-119369924D01*
X102562334Y-119415894D01*
X102562336Y-119415894D01*
X102562341Y-119415896D01*
X102736304Y-119450499D01*
X102736307Y-119450500D01*
X102736309Y-119450500D01*
X102913693Y-119450500D01*
X102913694Y-119450499D01*
X102975044Y-119438296D01*
X103087658Y-119415896D01*
X103087661Y-119415894D01*
X103087666Y-119415894D01*
X103251547Y-119348013D01*
X103251552Y-119348009D01*
X103251555Y-119348008D01*
X103321981Y-119300950D01*
X103381558Y-119261141D01*
X103448234Y-119240263D01*
X103515615Y-119258747D01*
X103519340Y-119261141D01*
X103648683Y-119347566D01*
X103648693Y-119347571D01*
X103812476Y-119415412D01*
X103812483Y-119415415D01*
X103825000Y-119417904D01*
X103825000Y-119417903D01*
X104325000Y-119417903D01*
X104337516Y-119415415D01*
X104337523Y-119415412D01*
X104501306Y-119347571D01*
X104501316Y-119347566D01*
X104648716Y-119249076D01*
X104648720Y-119249073D01*
X104774073Y-119123720D01*
X104774076Y-119123716D01*
X104872566Y-118976316D01*
X104872571Y-118976307D01*
X104940413Y-118812520D01*
X104940415Y-118812512D01*
X104974999Y-118638646D01*
X104975000Y-118638643D01*
X104975000Y-118550000D01*
X104325000Y-118550000D01*
X104325000Y-119417903D01*
X103825000Y-119417903D01*
X103825000Y-118349728D01*
X103863060Y-118441614D01*
X103933386Y-118511940D01*
X104025272Y-118550000D01*
X104124728Y-118550000D01*
X104216614Y-118511940D01*
X104286940Y-118441614D01*
X104304177Y-118399999D01*
X118118888Y-118399999D01*
X118118888Y-118400000D01*
X118137295Y-118598649D01*
X118137295Y-118598651D01*
X118137296Y-118598654D01*
X118169036Y-118710208D01*
X118191894Y-118790546D01*
X118280816Y-118969126D01*
X118280821Y-118969134D01*
X118397557Y-119123716D01*
X118401049Y-119128340D01*
X118548484Y-119262746D01*
X118718107Y-119367772D01*
X118904140Y-119439841D01*
X119100248Y-119476500D01*
X119100250Y-119476500D01*
X119299750Y-119476500D01*
X119299752Y-119476500D01*
X119495860Y-119439841D01*
X119681893Y-119367772D01*
X119851516Y-119262746D01*
X119998951Y-119128340D01*
X120119180Y-118969132D01*
X120208107Y-118790543D01*
X120262704Y-118598654D01*
X120281112Y-118400000D01*
X120262704Y-118201346D01*
X120208107Y-118009457D01*
X120170588Y-117934108D01*
X120119183Y-117830873D01*
X120119178Y-117830865D01*
X120058108Y-117749996D01*
X120695162Y-117749996D01*
X120695162Y-117750003D01*
X120714504Y-118180692D01*
X120714505Y-118180701D01*
X120772378Y-118607938D01*
X120868313Y-119028258D01*
X121001542Y-119438296D01*
X121001545Y-119438304D01*
X121170985Y-119834730D01*
X121170989Y-119834738D01*
X121375294Y-120214399D01*
X121612799Y-120574207D01*
X121612800Y-120574208D01*
X121881608Y-120911282D01*
X121932223Y-120964221D01*
X123813097Y-119083347D01*
X123880076Y-119170635D01*
X124079365Y-119369924D01*
X124166651Y-119436901D01*
X122286877Y-121316675D01*
X122504227Y-121506569D01*
X122504244Y-121506582D01*
X122853024Y-121759986D01*
X123223140Y-121981120D01*
X123223146Y-121981123D01*
X123611569Y-122168178D01*
X123611583Y-122168184D01*
X124015209Y-122319667D01*
X124015234Y-122319675D01*
X124430816Y-122434369D01*
X124855023Y-122511351D01*
X125284435Y-122549999D01*
X125284438Y-122550000D01*
X125715562Y-122550000D01*
X125715564Y-122549999D01*
X126144976Y-122511351D01*
X126569183Y-122434369D01*
X126984765Y-122319675D01*
X126984790Y-122319667D01*
X127388416Y-122168184D01*
X127388430Y-122168178D01*
X127776853Y-121981123D01*
X127776859Y-121981120D01*
X128146975Y-121759986D01*
X128495755Y-121506582D01*
X128495772Y-121506569D01*
X128713121Y-121316675D01*
X126833348Y-119436901D01*
X126920635Y-119369924D01*
X127119924Y-119170635D01*
X127186901Y-119083348D01*
X129067775Y-120964222D01*
X129067776Y-120964222D01*
X129118386Y-120911289D01*
X129118386Y-120911288D01*
X129387199Y-120574208D01*
X129387200Y-120574207D01*
X129624705Y-120214399D01*
X129829010Y-119834738D01*
X129829014Y-119834730D01*
X129998454Y-119438304D01*
X129998457Y-119438296D01*
X130131686Y-119028258D01*
X130227621Y-118607938D01*
X130285494Y-118180701D01*
X130285495Y-118180692D01*
X130304838Y-117750003D01*
X130304838Y-117749996D01*
X130285495Y-117319307D01*
X130285494Y-117319298D01*
X130227621Y-116892061D01*
X130131686Y-116471741D01*
X129998457Y-116061703D01*
X129998454Y-116061695D01*
X129829014Y-115665269D01*
X129829010Y-115665261D01*
X129624705Y-115285600D01*
X129387200Y-114925792D01*
X129387199Y-114925791D01*
X129118391Y-114588717D01*
X129067774Y-114535776D01*
X127186900Y-116416650D01*
X127119924Y-116329365D01*
X126920635Y-116130076D01*
X126833346Y-116063097D01*
X128713121Y-114183323D01*
X128495772Y-113993430D01*
X128495755Y-113993417D01*
X128146975Y-113740013D01*
X127776859Y-113518879D01*
X127776853Y-113518876D01*
X127388430Y-113331821D01*
X127388416Y-113331815D01*
X126984790Y-113180332D01*
X126984765Y-113180324D01*
X126569183Y-113065630D01*
X126144976Y-112988648D01*
X125715564Y-112950000D01*
X125284435Y-112950000D01*
X124855023Y-112988648D01*
X124430816Y-113065630D01*
X124015234Y-113180324D01*
X124015209Y-113180332D01*
X123611583Y-113331815D01*
X123611569Y-113331821D01*
X123223146Y-113518876D01*
X123223140Y-113518879D01*
X122853024Y-113740013D01*
X122504235Y-113993423D01*
X122286877Y-114183322D01*
X122286877Y-114183323D01*
X124166652Y-116063098D01*
X124079365Y-116130076D01*
X123880076Y-116329365D01*
X123813098Y-116416651D01*
X121932223Y-114535777D01*
X121881624Y-114588699D01*
X121881612Y-114588712D01*
X121612800Y-114925791D01*
X121612799Y-114925792D01*
X121375294Y-115285600D01*
X121170989Y-115665261D01*
X121170985Y-115665269D01*
X121001545Y-116061695D01*
X121001542Y-116061703D01*
X120868313Y-116471741D01*
X120772378Y-116892061D01*
X120714505Y-117319298D01*
X120714504Y-117319307D01*
X120695162Y-117749996D01*
X120058108Y-117749996D01*
X119998951Y-117671660D01*
X119990576Y-117664025D01*
X119851516Y-117537254D01*
X119851513Y-117537252D01*
X119851512Y-117537251D01*
X119681898Y-117432231D01*
X119681891Y-117432227D01*
X119588876Y-117396193D01*
X119495860Y-117360159D01*
X119299752Y-117323500D01*
X119100248Y-117323500D01*
X118904140Y-117360159D01*
X118904137Y-117360159D01*
X118904137Y-117360160D01*
X118718108Y-117432227D01*
X118718101Y-117432231D01*
X118548487Y-117537251D01*
X118401048Y-117671660D01*
X118280821Y-117830865D01*
X118280816Y-117830873D01*
X118191894Y-118009453D01*
X118137295Y-118201350D01*
X118118888Y-118399999D01*
X104304177Y-118399999D01*
X104325000Y-118349728D01*
X104325000Y-118250272D01*
X104286940Y-118158386D01*
X104216614Y-118088060D01*
X104124728Y-118050000D01*
X104325000Y-118050000D01*
X104975000Y-118050000D01*
X104975000Y-117961357D01*
X104974999Y-117961353D01*
X104940415Y-117787487D01*
X104940413Y-117787479D01*
X104872571Y-117623692D01*
X104872566Y-117623683D01*
X104774076Y-117476283D01*
X104774073Y-117476279D01*
X104648720Y-117350926D01*
X104648716Y-117350923D01*
X104501316Y-117252433D01*
X104501307Y-117252428D01*
X104337519Y-117184585D01*
X104325000Y-117182094D01*
X104325000Y-118050000D01*
X104124728Y-118050000D01*
X104025272Y-118050000D01*
X103933386Y-118088060D01*
X103863060Y-118158386D01*
X103825000Y-118250272D01*
X103825000Y-117182095D01*
X103824999Y-117182094D01*
X103812480Y-117184585D01*
X103648692Y-117252428D01*
X103648683Y-117252433D01*
X103519340Y-117338858D01*
X103452662Y-117359736D01*
X103385282Y-117341251D01*
X103381558Y-117338858D01*
X103251552Y-117251990D01*
X103251540Y-117251983D01*
X103087667Y-117184106D01*
X103087658Y-117184103D01*
X102913694Y-117149500D01*
X102913691Y-117149500D01*
X102736309Y-117149500D01*
X102736306Y-117149500D01*
X102562341Y-117184103D01*
X102562332Y-117184106D01*
X102398459Y-117251983D01*
X102398446Y-117251990D01*
X102268891Y-117338557D01*
X102202213Y-117359435D01*
X102134833Y-117340950D01*
X102131109Y-117338557D01*
X102001553Y-117251990D01*
X102001540Y-117251983D01*
X101837667Y-117184106D01*
X101837658Y-117184103D01*
X101663694Y-117149500D01*
X101663691Y-117149500D01*
X101486309Y-117149500D01*
X101486306Y-117149500D01*
X101312336Y-117184104D01*
X101312326Y-117184107D01*
X101308772Y-117185580D01*
X101306761Y-117185795D01*
X101306501Y-117185875D01*
X101306486Y-117185825D01*
X101239302Y-117193042D01*
X101176826Y-117161761D01*
X101141180Y-117101668D01*
X101138010Y-117083972D01*
X101135674Y-117061745D01*
X101135672Y-117061740D01*
X101077179Y-116881716D01*
X100982533Y-116717784D01*
X100855871Y-116577112D01*
X100822630Y-116552961D01*
X100702734Y-116465851D01*
X100702729Y-116465848D01*
X100529807Y-116388857D01*
X100529802Y-116388855D01*
X100384001Y-116357865D01*
X100344646Y-116349500D01*
X100155354Y-116349500D01*
X100122897Y-116356398D01*
X99970197Y-116388855D01*
X99970192Y-116388857D01*
X99797270Y-116465848D01*
X99797265Y-116465851D01*
X99644129Y-116577111D01*
X99517466Y-116717785D01*
X99422821Y-116881715D01*
X99422818Y-116881722D01*
X99365730Y-117057422D01*
X99364326Y-117061744D01*
X99344540Y-117250000D01*
X90302405Y-117250000D01*
X90258040Y-116922480D01*
X90162105Y-116502160D01*
X90028876Y-116092122D01*
X90028873Y-116092114D01*
X89859433Y-115695688D01*
X89859429Y-115695680D01*
X89655124Y-115316019D01*
X89417619Y-114956211D01*
X89417618Y-114956210D01*
X89148810Y-114619136D01*
X89098193Y-114566195D01*
X87217319Y-116447069D01*
X87150343Y-116359784D01*
X86951054Y-116160495D01*
X86863765Y-116093516D01*
X88743540Y-114213742D01*
X88526191Y-114023849D01*
X88526174Y-114023836D01*
X88177394Y-113770432D01*
X87807278Y-113549298D01*
X87807272Y-113549295D01*
X87418849Y-113362240D01*
X87418835Y-113362234D01*
X87015209Y-113210751D01*
X87015184Y-113210743D01*
X86599602Y-113096049D01*
X86175395Y-113019067D01*
X85745983Y-112980419D01*
X85314854Y-112980419D01*
X84885442Y-113019067D01*
X84461235Y-113096049D01*
X84045653Y-113210743D01*
X84045628Y-113210751D01*
X83642002Y-113362234D01*
X83641988Y-113362240D01*
X83253565Y-113549295D01*
X83253559Y-113549298D01*
X82883443Y-113770432D01*
X82534654Y-114023842D01*
X82317296Y-114213741D01*
X82317296Y-114213742D01*
X84197071Y-116093517D01*
X84109784Y-116160495D01*
X83910495Y-116359784D01*
X83843517Y-116447070D01*
X81962642Y-114566196D01*
X81912043Y-114619118D01*
X81912031Y-114619131D01*
X81643219Y-114956210D01*
X81643218Y-114956211D01*
X81405713Y-115316019D01*
X81201408Y-115695680D01*
X81201404Y-115695688D01*
X81031964Y-116092114D01*
X81031961Y-116092122D01*
X80898732Y-116502160D01*
X80802797Y-116922480D01*
X80744924Y-117349717D01*
X80744923Y-117349726D01*
X80725581Y-117780415D01*
X80300500Y-117780415D01*
X80300500Y-111500000D01*
X108594540Y-111500000D01*
X108614326Y-111688256D01*
X108614327Y-111688259D01*
X108672818Y-111868277D01*
X108672821Y-111868284D01*
X108767467Y-112032216D01*
X108894129Y-112172888D01*
X109047265Y-112284148D01*
X109047270Y-112284151D01*
X109220192Y-112361142D01*
X109220197Y-112361144D01*
X109405354Y-112400500D01*
X109405355Y-112400500D01*
X109511967Y-112400500D01*
X109579006Y-112420185D01*
X109624761Y-112472989D01*
X109629898Y-112486182D01*
X109672818Y-112618277D01*
X109672821Y-112618284D01*
X109767467Y-112782216D01*
X109894129Y-112922888D01*
X110047265Y-113034148D01*
X110047270Y-113034151D01*
X110220192Y-113111142D01*
X110220197Y-113111144D01*
X110405354Y-113150500D01*
X110405355Y-113150500D01*
X110594644Y-113150500D01*
X110594646Y-113150500D01*
X110779803Y-113111144D01*
X110952730Y-113034151D01*
X111105871Y-112922888D01*
X111232533Y-112782216D01*
X111327179Y-112618284D01*
X111370102Y-112486182D01*
X111409540Y-112428506D01*
X111473898Y-112401308D01*
X111488033Y-112400500D01*
X111594644Y-112400500D01*
X111594646Y-112400500D01*
X111779803Y-112361144D01*
X111952730Y-112284151D01*
X112105871Y-112172888D01*
X112232533Y-112032216D01*
X112327179Y-111868284D01*
X112385674Y-111688256D01*
X112405460Y-111500000D01*
X112385674Y-111311744D01*
X112327179Y-111131716D01*
X112232533Y-110967784D01*
X112105871Y-110827112D01*
X112105870Y-110827111D01*
X111952734Y-110715851D01*
X111952729Y-110715848D01*
X111779807Y-110638857D01*
X111779802Y-110638855D01*
X111634001Y-110607865D01*
X111594646Y-110599500D01*
X111405354Y-110599500D01*
X111372897Y-110606398D01*
X111220197Y-110638855D01*
X111220192Y-110638857D01*
X111047270Y-110715848D01*
X111047265Y-110715851D01*
X110894129Y-110827111D01*
X110767466Y-110967785D01*
X110672821Y-111131715D01*
X110672818Y-111131722D01*
X110629898Y-111263818D01*
X110590460Y-111321494D01*
X110526102Y-111348692D01*
X110511967Y-111349500D01*
X110488033Y-111349500D01*
X110420994Y-111329815D01*
X110375239Y-111277011D01*
X110370102Y-111263818D01*
X110327181Y-111131722D01*
X110327180Y-111131721D01*
X110327179Y-111131716D01*
X110232533Y-110967784D01*
X110105871Y-110827112D01*
X110105870Y-110827111D01*
X109952734Y-110715851D01*
X109952729Y-110715848D01*
X109779807Y-110638857D01*
X109779802Y-110638855D01*
X109634001Y-110607865D01*
X109594646Y-110599500D01*
X109405354Y-110599500D01*
X109372897Y-110606398D01*
X109220197Y-110638855D01*
X109220192Y-110638857D01*
X109047270Y-110715848D01*
X109047265Y-110715851D01*
X108894129Y-110827111D01*
X108767466Y-110967785D01*
X108672821Y-111131715D01*
X108672818Y-111131722D01*
X108614327Y-111311740D01*
X108614326Y-111311744D01*
X108594540Y-111500000D01*
X80300500Y-111500000D01*
X80300500Y-104500000D01*
X100344540Y-104500000D01*
X100364326Y-104688256D01*
X100364327Y-104688259D01*
X100422818Y-104868277D01*
X100422821Y-104868284D01*
X100517467Y-105032216D01*
X100580746Y-105102494D01*
X100644129Y-105172888D01*
X100797265Y-105284148D01*
X100797270Y-105284151D01*
X100970192Y-105361142D01*
X100970197Y-105361144D01*
X101155354Y-105400500D01*
X101155355Y-105400500D01*
X101344644Y-105400500D01*
X101344646Y-105400500D01*
X101529803Y-105361144D01*
X101702730Y-105284151D01*
X101855871Y-105172888D01*
X101982533Y-105032216D01*
X102077179Y-104868284D01*
X102135674Y-104688256D01*
X102144950Y-104599995D01*
X123845233Y-104599995D01*
X123845233Y-104600004D01*
X123864273Y-104854079D01*
X123920968Y-105102477D01*
X123920973Y-105102494D01*
X124014058Y-105339671D01*
X124014057Y-105339671D01*
X124141454Y-105560327D01*
X124141461Y-105560338D01*
X124183452Y-105612991D01*
X124183453Y-105612992D01*
X124985387Y-104811058D01*
X124990889Y-104831591D01*
X125069881Y-104968408D01*
X125181592Y-105080119D01*
X125318409Y-105159111D01*
X125338940Y-105164612D01*
X124536813Y-105966738D01*
X124697616Y-106076371D01*
X124697624Y-106076376D01*
X124879123Y-106163780D01*
X124930983Y-106210602D01*
X124949296Y-106278029D01*
X124928249Y-106344653D01*
X124874522Y-106389321D01*
X124825322Y-106399500D01*
X124302129Y-106399500D01*
X124302123Y-106399501D01*
X124242516Y-106405908D01*
X124107671Y-106456202D01*
X124107664Y-106456206D01*
X123992455Y-106542452D01*
X123992452Y-106542455D01*
X123906206Y-106657664D01*
X123906202Y-106657671D01*
X123855908Y-106792517D01*
X123849501Y-106852116D01*
X123849501Y-106852123D01*
X123849500Y-106852135D01*
X123849500Y-109347870D01*
X123849501Y-109347876D01*
X123855908Y-109407483D01*
X123906202Y-109542328D01*
X123906206Y-109542335D01*
X123992452Y-109657544D01*
X123992455Y-109657547D01*
X124107664Y-109743793D01*
X124107671Y-109743797D01*
X124242517Y-109794091D01*
X124242516Y-109794091D01*
X124249444Y-109794835D01*
X124302127Y-109800500D01*
X126797872Y-109800499D01*
X126857483Y-109794091D01*
X126992331Y-109743796D01*
X127107546Y-109657546D01*
X127193796Y-109542331D01*
X127244091Y-109407483D01*
X127250500Y-109347873D01*
X127250499Y-106852128D01*
X127244091Y-106792517D01*
X127193796Y-106657669D01*
X127193795Y-106657668D01*
X127193793Y-106657664D01*
X127107547Y-106542455D01*
X127107544Y-106542452D01*
X126992335Y-106456206D01*
X126992328Y-106456202D01*
X126857482Y-106405908D01*
X126857483Y-106405908D01*
X126797883Y-106399501D01*
X126797881Y-106399500D01*
X126797873Y-106399500D01*
X126797865Y-106399500D01*
X126274679Y-106399500D01*
X126207640Y-106379815D01*
X126161885Y-106327011D01*
X126151941Y-106257853D01*
X126180966Y-106194297D01*
X126220878Y-106163780D01*
X126402376Y-106076376D01*
X126402377Y-106076375D01*
X126563185Y-105966738D01*
X125761060Y-105164612D01*
X125781591Y-105159111D01*
X125918408Y-105080119D01*
X126030119Y-104968408D01*
X126109111Y-104831591D01*
X126114612Y-104811059D01*
X126916544Y-105612992D01*
X126916546Y-105612991D01*
X126958544Y-105560330D01*
X127085941Y-105339671D01*
X127179026Y-105102494D01*
X127179031Y-105102477D01*
X127235726Y-104854079D01*
X127254767Y-104600004D01*
X127254767Y-104599995D01*
X127235726Y-104345920D01*
X127179031Y-104097522D01*
X127179026Y-104097505D01*
X127085941Y-103860328D01*
X127085942Y-103860328D01*
X126958545Y-103639672D01*
X126916545Y-103587006D01*
X126114612Y-104388939D01*
X126109111Y-104368409D01*
X126030119Y-104231592D01*
X125918408Y-104119881D01*
X125781591Y-104040889D01*
X125761059Y-104035387D01*
X126563185Y-103233260D01*
X126402384Y-103123628D01*
X126402376Y-103123623D01*
X126172823Y-103013078D01*
X126172825Y-103013078D01*
X125929347Y-102937975D01*
X125929341Y-102937973D01*
X125677404Y-102900000D01*
X125422595Y-102900000D01*
X125170658Y-102937973D01*
X125170652Y-102937975D01*
X124927175Y-103013078D01*
X124697622Y-103123625D01*
X124697609Y-103123632D01*
X124536813Y-103233259D01*
X125338941Y-104035387D01*
X125318409Y-104040889D01*
X125181592Y-104119881D01*
X125069881Y-104231592D01*
X124990889Y-104368409D01*
X124985387Y-104388940D01*
X124183452Y-103587006D01*
X124141457Y-103639667D01*
X124014058Y-103860328D01*
X123920973Y-104097505D01*
X123920968Y-104097522D01*
X123864273Y-104345920D01*
X123845233Y-104599995D01*
X102144950Y-104599995D01*
X102155460Y-104500000D01*
X102135674Y-104311744D01*
X102077179Y-104131716D01*
X101982533Y-103967784D01*
X101855871Y-103827112D01*
X101855870Y-103827111D01*
X101702734Y-103715851D01*
X101702729Y-103715848D01*
X101529807Y-103638857D01*
X101529802Y-103638855D01*
X101347012Y-103600003D01*
X101344646Y-103599500D01*
X101155354Y-103599500D01*
X101152988Y-103600003D01*
X100970197Y-103638855D01*
X100970192Y-103638857D01*
X100797270Y-103715848D01*
X100797265Y-103715851D01*
X100644129Y-103827111D01*
X100517466Y-103967785D01*
X100422821Y-104131715D01*
X100422818Y-104131722D01*
X100364327Y-104311740D01*
X100364326Y-104311744D01*
X100344540Y-104500000D01*
X80300500Y-104500000D01*
X80300500Y-103000000D01*
X108094540Y-103000000D01*
X108114326Y-103188256D01*
X108114327Y-103188259D01*
X108172818Y-103368277D01*
X108172821Y-103368284D01*
X108267467Y-103532216D01*
X108363487Y-103638857D01*
X108394129Y-103672888D01*
X108547265Y-103784148D01*
X108547270Y-103784151D01*
X108720192Y-103861142D01*
X108720197Y-103861144D01*
X108905354Y-103900500D01*
X108905355Y-103900500D01*
X109094644Y-103900500D01*
X109094646Y-103900500D01*
X109279803Y-103861144D01*
X109452730Y-103784151D01*
X109605871Y-103672888D01*
X109671503Y-103599996D01*
X116794435Y-103599996D01*
X116794435Y-103600003D01*
X116814630Y-103779249D01*
X116814631Y-103779254D01*
X116874211Y-103949523D01*
X116967195Y-104097505D01*
X116970184Y-104102262D01*
X117097738Y-104229816D01*
X117188080Y-104286582D01*
X117228125Y-104311744D01*
X117250478Y-104325789D01*
X117372279Y-104368409D01*
X117420745Y-104385368D01*
X117420750Y-104385369D01*
X117599996Y-104405565D01*
X117600000Y-104405565D01*
X117600004Y-104405565D01*
X117779249Y-104385369D01*
X117779252Y-104385368D01*
X117779255Y-104385368D01*
X117949522Y-104325789D01*
X118102262Y-104229816D01*
X118229816Y-104102262D01*
X118325789Y-103949522D01*
X118385368Y-103779255D01*
X118392512Y-103715849D01*
X118405565Y-103600003D01*
X118405565Y-103599996D01*
X118385369Y-103420750D01*
X118385368Y-103420745D01*
X118325788Y-103250476D01*
X118246082Y-103123625D01*
X118229816Y-103097738D01*
X118102262Y-102970184D01*
X118050999Y-102937973D01*
X117949523Y-102874211D01*
X117779254Y-102814631D01*
X117779249Y-102814630D01*
X117600004Y-102794435D01*
X117599996Y-102794435D01*
X117420750Y-102814630D01*
X117420745Y-102814631D01*
X117250476Y-102874211D01*
X117097737Y-102970184D01*
X116970184Y-103097737D01*
X116874211Y-103250476D01*
X116814631Y-103420745D01*
X116814630Y-103420750D01*
X116794435Y-103599996D01*
X109671503Y-103599996D01*
X109732533Y-103532216D01*
X109827179Y-103368284D01*
X109885674Y-103188256D01*
X109905460Y-103000000D01*
X109885674Y-102811744D01*
X109827179Y-102631716D01*
X109732533Y-102467784D01*
X109605871Y-102327112D01*
X109605870Y-102327111D01*
X109452734Y-102215851D01*
X109452729Y-102215848D01*
X109279807Y-102138857D01*
X109279802Y-102138855D01*
X109134001Y-102107865D01*
X109094646Y-102099500D01*
X108905354Y-102099500D01*
X108872897Y-102106398D01*
X108720197Y-102138855D01*
X108720192Y-102138857D01*
X108547270Y-102215848D01*
X108547265Y-102215851D01*
X108394129Y-102327111D01*
X108267466Y-102467785D01*
X108172821Y-102631715D01*
X108172818Y-102631722D01*
X108119950Y-102794435D01*
X108114326Y-102811744D01*
X108094540Y-103000000D01*
X80300500Y-103000000D01*
X80300500Y-100500000D01*
X94344540Y-100500000D01*
X94364326Y-100688256D01*
X94364327Y-100688259D01*
X94422818Y-100868277D01*
X94422821Y-100868284D01*
X94517467Y-101032216D01*
X94623971Y-101150500D01*
X94644129Y-101172888D01*
X94797265Y-101284148D01*
X94797270Y-101284151D01*
X94970192Y-101361142D01*
X94970197Y-101361144D01*
X95155354Y-101400500D01*
X95155355Y-101400500D01*
X95344644Y-101400500D01*
X95344646Y-101400500D01*
X95529803Y-101361144D01*
X95702730Y-101284151D01*
X95855871Y-101172888D01*
X95982533Y-101032216D01*
X96077179Y-100868284D01*
X96135674Y-100688256D01*
X96155460Y-100500000D01*
X96135674Y-100311744D01*
X96115612Y-100250000D01*
X115594540Y-100250000D01*
X115614326Y-100438256D01*
X115614327Y-100438259D01*
X115672818Y-100618277D01*
X115672821Y-100618284D01*
X115767467Y-100782216D01*
X115849109Y-100872888D01*
X115894129Y-100922888D01*
X116047265Y-101034148D01*
X116047270Y-101034151D01*
X116220192Y-101111142D01*
X116220197Y-101111144D01*
X116405354Y-101150500D01*
X116405355Y-101150500D01*
X116594644Y-101150500D01*
X116594646Y-101150500D01*
X116779803Y-101111144D01*
X116952730Y-101034151D01*
X117105871Y-100922888D01*
X117220252Y-100795855D01*
X117279738Y-100759207D01*
X117349595Y-100760538D01*
X117353336Y-100761780D01*
X117420745Y-100785368D01*
X117420751Y-100785368D01*
X117420753Y-100785369D01*
X117599996Y-100805565D01*
X117600000Y-100805565D01*
X117600004Y-100805565D01*
X117779249Y-100785369D01*
X117779252Y-100785368D01*
X117779255Y-100785368D01*
X117779256Y-100785367D01*
X117779259Y-100785367D01*
X117814499Y-100773035D01*
X117884666Y-100748482D01*
X117954443Y-100744920D01*
X118015071Y-100779649D01*
X118017755Y-100782536D01*
X118020306Y-100785369D01*
X118144129Y-100922888D01*
X118297265Y-101034148D01*
X118297270Y-101034151D01*
X118470192Y-101111142D01*
X118470197Y-101111144D01*
X118655354Y-101150500D01*
X118655355Y-101150500D01*
X118844644Y-101150500D01*
X118844646Y-101150500D01*
X119029803Y-101111144D01*
X119202730Y-101034151D01*
X119355871Y-100922888D01*
X119482533Y-100782216D01*
X119577179Y-100618284D01*
X119635674Y-100438256D01*
X119655460Y-100250000D01*
X119650205Y-100200000D01*
X122694540Y-100200000D01*
X122714326Y-100388256D01*
X122714327Y-100388259D01*
X122772818Y-100568277D01*
X122772821Y-100568284D01*
X122867467Y-100732216D01*
X122924769Y-100795856D01*
X122994129Y-100872888D01*
X123147265Y-100984148D01*
X123147270Y-100984151D01*
X123320192Y-101061142D01*
X123320197Y-101061144D01*
X123505354Y-101100500D01*
X123505355Y-101100500D01*
X123694644Y-101100500D01*
X123694646Y-101100500D01*
X123879803Y-101061144D01*
X124052730Y-100984151D01*
X124205871Y-100872888D01*
X124332533Y-100732216D01*
X124392613Y-100628153D01*
X124443179Y-100579939D01*
X124511786Y-100566715D01*
X124576651Y-100592683D01*
X124607386Y-100628153D01*
X124667467Y-100732216D01*
X124724769Y-100795856D01*
X124794129Y-100872888D01*
X124947265Y-100984148D01*
X124947270Y-100984151D01*
X125120192Y-101061142D01*
X125120197Y-101061144D01*
X125305354Y-101100500D01*
X125305355Y-101100500D01*
X125494644Y-101100500D01*
X125494646Y-101100500D01*
X125679803Y-101061144D01*
X125852730Y-100984151D01*
X126005871Y-100872888D01*
X126132533Y-100732216D01*
X126227179Y-100568284D01*
X126285674Y-100388256D01*
X126305460Y-100200000D01*
X126285674Y-100011744D01*
X126231112Y-99843823D01*
X126227181Y-99831722D01*
X126227180Y-99831721D01*
X126227179Y-99831716D01*
X126132533Y-99667784D01*
X126005871Y-99527112D01*
X125981618Y-99509491D01*
X125852734Y-99415851D01*
X125852729Y-99415848D01*
X125679807Y-99338857D01*
X125679802Y-99338855D01*
X125534001Y-99307865D01*
X125494646Y-99299500D01*
X125305354Y-99299500D01*
X125272897Y-99306398D01*
X125120197Y-99338855D01*
X125120192Y-99338857D01*
X124947270Y-99415848D01*
X124947265Y-99415851D01*
X124794129Y-99527111D01*
X124667465Y-99667785D01*
X124607387Y-99771845D01*
X124556820Y-99820061D01*
X124488213Y-99833284D01*
X124423348Y-99807316D01*
X124392613Y-99771845D01*
X124332534Y-99667785D01*
X124205870Y-99527111D01*
X124052734Y-99415851D01*
X124052729Y-99415848D01*
X123879807Y-99338857D01*
X123879802Y-99338855D01*
X123734001Y-99307865D01*
X123694646Y-99299500D01*
X123505354Y-99299500D01*
X123472897Y-99306398D01*
X123320197Y-99338855D01*
X123320192Y-99338857D01*
X123147270Y-99415848D01*
X123147265Y-99415851D01*
X122994129Y-99527111D01*
X122867466Y-99667785D01*
X122772821Y-99831715D01*
X122772818Y-99831722D01*
X122728609Y-99967785D01*
X122714326Y-100011744D01*
X122694540Y-100200000D01*
X119650205Y-100200000D01*
X119635674Y-100061744D01*
X119577179Y-99881716D01*
X119482533Y-99717784D01*
X119355871Y-99577112D01*
X119287052Y-99527112D01*
X119202734Y-99465851D01*
X119202729Y-99465848D01*
X119029807Y-99388857D01*
X119029802Y-99388855D01*
X118884001Y-99357865D01*
X118844646Y-99349500D01*
X118655354Y-99349500D01*
X118605375Y-99360123D01*
X118470199Y-99388855D01*
X118306386Y-99461790D01*
X118237136Y-99471074D01*
X118173859Y-99441446D01*
X118168269Y-99436191D01*
X118102262Y-99370184D01*
X117949523Y-99274211D01*
X117779254Y-99214631D01*
X117779249Y-99214630D01*
X117600004Y-99194435D01*
X117599996Y-99194435D01*
X117420750Y-99214630D01*
X117420745Y-99214631D01*
X117250476Y-99274211D01*
X117097736Y-99370185D01*
X117047131Y-99420789D01*
X116985807Y-99454273D01*
X116916115Y-99449287D01*
X116909015Y-99446385D01*
X116779807Y-99388857D01*
X116779802Y-99388855D01*
X116634001Y-99357865D01*
X116594646Y-99349500D01*
X116405354Y-99349500D01*
X116372897Y-99356398D01*
X116220197Y-99388855D01*
X116220192Y-99388857D01*
X116047270Y-99465848D01*
X116047265Y-99465851D01*
X115894129Y-99577111D01*
X115767466Y-99717785D01*
X115672821Y-99881715D01*
X115672818Y-99881722D01*
X115644855Y-99967785D01*
X115614326Y-100061744D01*
X115594540Y-100250000D01*
X96115612Y-100250000D01*
X96077179Y-100131716D01*
X95982533Y-99967784D01*
X95855871Y-99827112D01*
X95855870Y-99827111D01*
X95702734Y-99715851D01*
X95702729Y-99715848D01*
X95529807Y-99638857D01*
X95529802Y-99638855D01*
X95384001Y-99607865D01*
X95344646Y-99599500D01*
X95155354Y-99599500D01*
X95122897Y-99606398D01*
X94970197Y-99638855D01*
X94970192Y-99638857D01*
X94797270Y-99715848D01*
X94797265Y-99715851D01*
X94644129Y-99827111D01*
X94517466Y-99967785D01*
X94422821Y-100131715D01*
X94422818Y-100131722D01*
X94364327Y-100311740D01*
X94364326Y-100311744D01*
X94344540Y-100500000D01*
X80300500Y-100500000D01*
X80300500Y-93200000D01*
X105494540Y-93200000D01*
X105514326Y-93388256D01*
X105514327Y-93388259D01*
X105572818Y-93568277D01*
X105572821Y-93568284D01*
X105667467Y-93732216D01*
X105794129Y-93872888D01*
X105947265Y-93984148D01*
X105947270Y-93984151D01*
X106120192Y-94061142D01*
X106120197Y-94061144D01*
X106305354Y-94100500D01*
X106305355Y-94100500D01*
X106494644Y-94100500D01*
X106494646Y-94100500D01*
X106679803Y-94061144D01*
X106852730Y-93984151D01*
X107005871Y-93872888D01*
X107132533Y-93732216D01*
X107227179Y-93568284D01*
X107285674Y-93388256D01*
X107305460Y-93200000D01*
X107285674Y-93011744D01*
X107227179Y-92831716D01*
X107132533Y-92667784D01*
X107005871Y-92527112D01*
X107005870Y-92527111D01*
X106852734Y-92415851D01*
X106852729Y-92415848D01*
X106679807Y-92338857D01*
X106679802Y-92338855D01*
X106534001Y-92307865D01*
X106494646Y-92299500D01*
X106305354Y-92299500D01*
X106272897Y-92306398D01*
X106120197Y-92338855D01*
X106120192Y-92338857D01*
X105947270Y-92415848D01*
X105947265Y-92415851D01*
X105794129Y-92527111D01*
X105667466Y-92667785D01*
X105572821Y-92831715D01*
X105572818Y-92831722D01*
X105514327Y-93011740D01*
X105514326Y-93011744D01*
X105494540Y-93200000D01*
X80300500Y-93200000D01*
X80300500Y-91618995D01*
X81199499Y-91618995D01*
X81226418Y-91754322D01*
X81226421Y-91754332D01*
X81279221Y-91881804D01*
X81279228Y-91881817D01*
X81355885Y-91996541D01*
X81355888Y-91996545D01*
X81453454Y-92094111D01*
X81453458Y-92094114D01*
X81568182Y-92170771D01*
X81568195Y-92170778D01*
X81654157Y-92206384D01*
X81695672Y-92223580D01*
X81695676Y-92223580D01*
X81695677Y-92223581D01*
X81831004Y-92250500D01*
X81831007Y-92250500D01*
X81968995Y-92250500D01*
X82060041Y-92232389D01*
X82104328Y-92223580D01*
X82231811Y-92170775D01*
X82346542Y-92094114D01*
X82440656Y-92000000D01*
X94094540Y-92000000D01*
X94114326Y-92188256D01*
X94114327Y-92188259D01*
X94172818Y-92368277D01*
X94172821Y-92368284D01*
X94267467Y-92532216D01*
X94308010Y-92577243D01*
X94394129Y-92672888D01*
X94547265Y-92784148D01*
X94547270Y-92784151D01*
X94720192Y-92861142D01*
X94720197Y-92861144D01*
X94905354Y-92900500D01*
X94905355Y-92900500D01*
X95094644Y-92900500D01*
X95094646Y-92900500D01*
X95279803Y-92861144D01*
X95452730Y-92784151D01*
X95605871Y-92672888D01*
X95732533Y-92532216D01*
X95827179Y-92368284D01*
X95885674Y-92188256D01*
X95905460Y-92000000D01*
X95885674Y-91811744D01*
X95827179Y-91631716D01*
X95732533Y-91467784D01*
X95605871Y-91327112D01*
X95569243Y-91300500D01*
X95452734Y-91215851D01*
X95452729Y-91215848D01*
X95279807Y-91138857D01*
X95279802Y-91138855D01*
X95113248Y-91103454D01*
X95094646Y-91099500D01*
X94905354Y-91099500D01*
X94886752Y-91103454D01*
X94720197Y-91138855D01*
X94720192Y-91138857D01*
X94547270Y-91215848D01*
X94547265Y-91215851D01*
X94394129Y-91327111D01*
X94267466Y-91467785D01*
X94172821Y-91631715D01*
X94172818Y-91631722D01*
X94132980Y-91754332D01*
X94114326Y-91811744D01*
X94094540Y-92000000D01*
X82440656Y-92000000D01*
X82444114Y-91996542D01*
X82520775Y-91881811D01*
X82573580Y-91754328D01*
X82597968Y-91631722D01*
X82600500Y-91618995D01*
X82600500Y-91481004D01*
X82573581Y-91345677D01*
X82573580Y-91345676D01*
X82573580Y-91345672D01*
X82554869Y-91300500D01*
X82520778Y-91218195D01*
X82520771Y-91218182D01*
X82444114Y-91103458D01*
X82444111Y-91103454D01*
X82346545Y-91005888D01*
X82346541Y-91005885D01*
X82231817Y-90929228D01*
X82231804Y-90929221D01*
X82104332Y-90876421D01*
X82104322Y-90876418D01*
X81968995Y-90849500D01*
X81968993Y-90849500D01*
X81831007Y-90849500D01*
X81831005Y-90849500D01*
X81695677Y-90876418D01*
X81695667Y-90876421D01*
X81568195Y-90929221D01*
X81568182Y-90929228D01*
X81453458Y-91005885D01*
X81453454Y-91005888D01*
X81355888Y-91103454D01*
X81355885Y-91103458D01*
X81279228Y-91218182D01*
X81279221Y-91218195D01*
X81226421Y-91345667D01*
X81226418Y-91345677D01*
X81199500Y-91481004D01*
X81199500Y-91481007D01*
X81199500Y-91618993D01*
X81199500Y-91618995D01*
X81199499Y-91618995D01*
X80300500Y-91618995D01*
X80300500Y-90500000D01*
X107844540Y-90500000D01*
X107864326Y-90688256D01*
X107864327Y-90688259D01*
X107922818Y-90868277D01*
X107922821Y-90868284D01*
X108017467Y-91032216D01*
X108113487Y-91138857D01*
X108144129Y-91172888D01*
X108297265Y-91284148D01*
X108297270Y-91284151D01*
X108470192Y-91361142D01*
X108470197Y-91361144D01*
X108655354Y-91400500D01*
X108655355Y-91400500D01*
X108844644Y-91400500D01*
X108844646Y-91400500D01*
X109029803Y-91361144D01*
X109202730Y-91284151D01*
X109355871Y-91172888D01*
X109482533Y-91032216D01*
X109577179Y-90868284D01*
X109635674Y-90688256D01*
X109655460Y-90500000D01*
X109644950Y-90400000D01*
X122494540Y-90400000D01*
X122514326Y-90588256D01*
X122514327Y-90588259D01*
X122572818Y-90768277D01*
X122572821Y-90768284D01*
X122667467Y-90932216D01*
X122733799Y-91005885D01*
X122794129Y-91072888D01*
X122947265Y-91184148D01*
X122947270Y-91184151D01*
X123120192Y-91261142D01*
X123120197Y-91261144D01*
X123305354Y-91300500D01*
X123305355Y-91300500D01*
X123494644Y-91300500D01*
X123494646Y-91300500D01*
X123679803Y-91261144D01*
X123852730Y-91184151D01*
X124005871Y-91072888D01*
X124132533Y-90932216D01*
X124227179Y-90768284D01*
X124285674Y-90588256D01*
X124305460Y-90400000D01*
X124285674Y-90211744D01*
X124227179Y-90031716D01*
X124132533Y-89867784D01*
X124005871Y-89727112D01*
X123990369Y-89715849D01*
X123852734Y-89615851D01*
X123852729Y-89615848D01*
X123679807Y-89538857D01*
X123679802Y-89538855D01*
X123534001Y-89507865D01*
X123494646Y-89499500D01*
X123305354Y-89499500D01*
X123272897Y-89506398D01*
X123120197Y-89538855D01*
X123120192Y-89538857D01*
X122947270Y-89615848D01*
X122947265Y-89615851D01*
X122794129Y-89727111D01*
X122667466Y-89867785D01*
X122572821Y-90031715D01*
X122572818Y-90031722D01*
X122514327Y-90211740D01*
X122514326Y-90211744D01*
X122494540Y-90400000D01*
X109644950Y-90400000D01*
X109635674Y-90311744D01*
X109577179Y-90131716D01*
X109482533Y-89967784D01*
X109355871Y-89827112D01*
X109355870Y-89827111D01*
X109202734Y-89715851D01*
X109202729Y-89715848D01*
X109029807Y-89638857D01*
X109029802Y-89638855D01*
X108884001Y-89607865D01*
X108844646Y-89599500D01*
X108655354Y-89599500D01*
X108622897Y-89606398D01*
X108470197Y-89638855D01*
X108470192Y-89638857D01*
X108297270Y-89715848D01*
X108297265Y-89715851D01*
X108144129Y-89827111D01*
X108017466Y-89967785D01*
X107922821Y-90131715D01*
X107922818Y-90131722D01*
X107864327Y-90311740D01*
X107864326Y-90311744D01*
X107844540Y-90500000D01*
X80300500Y-90500000D01*
X80300500Y-88618995D01*
X81199499Y-88618995D01*
X81226418Y-88754322D01*
X81226421Y-88754332D01*
X81279221Y-88881804D01*
X81279228Y-88881817D01*
X81355885Y-88996541D01*
X81355888Y-88996545D01*
X81453454Y-89094111D01*
X81453458Y-89094114D01*
X81568182Y-89170771D01*
X81568195Y-89170778D01*
X81695667Y-89223578D01*
X81695672Y-89223580D01*
X81695676Y-89223580D01*
X81695677Y-89223581D01*
X81831004Y-89250500D01*
X81831007Y-89250500D01*
X81968995Y-89250500D01*
X82060041Y-89232389D01*
X82104328Y-89223580D01*
X82231811Y-89170775D01*
X82346542Y-89094114D01*
X82444114Y-88996542D01*
X82520775Y-88881811D01*
X82573580Y-88754328D01*
X82600500Y-88618993D01*
X82600500Y-88481007D01*
X82600500Y-88481004D01*
X82573581Y-88345677D01*
X82573580Y-88345676D01*
X82573580Y-88345672D01*
X82547295Y-88282214D01*
X82520778Y-88218195D01*
X82520771Y-88218182D01*
X82444114Y-88103458D01*
X82444111Y-88103454D01*
X82346545Y-88005888D01*
X82346541Y-88005885D01*
X82231817Y-87929228D01*
X82231804Y-87929221D01*
X82104332Y-87876421D01*
X82104322Y-87876418D01*
X81968995Y-87849500D01*
X81968993Y-87849500D01*
X81831007Y-87849500D01*
X81831005Y-87849500D01*
X81695677Y-87876418D01*
X81695667Y-87876421D01*
X81568195Y-87929221D01*
X81568182Y-87929228D01*
X81453458Y-88005885D01*
X81453454Y-88005888D01*
X81355888Y-88103454D01*
X81355885Y-88103458D01*
X81279228Y-88218182D01*
X81279221Y-88218195D01*
X81226421Y-88345667D01*
X81226418Y-88345677D01*
X81199500Y-88481004D01*
X81199500Y-88481007D01*
X81199500Y-88618993D01*
X81199500Y-88618995D01*
X81199499Y-88618995D01*
X80300500Y-88618995D01*
X80300500Y-87750000D01*
X83994540Y-87750000D01*
X84014326Y-87938256D01*
X84014327Y-87938259D01*
X84072818Y-88118277D01*
X84072821Y-88118284D01*
X84167467Y-88282216D01*
X84224608Y-88345677D01*
X84294129Y-88422888D01*
X84447265Y-88534148D01*
X84447270Y-88534151D01*
X84620192Y-88611142D01*
X84620197Y-88611144D01*
X84805354Y-88650500D01*
X84805355Y-88650500D01*
X84994644Y-88650500D01*
X84994646Y-88650500D01*
X85179803Y-88611144D01*
X85352730Y-88534151D01*
X85505871Y-88422888D01*
X85632533Y-88282216D01*
X85727179Y-88118284D01*
X85785674Y-87938256D01*
X85805460Y-87750000D01*
X85785674Y-87561744D01*
X85727179Y-87381716D01*
X85651133Y-87250000D01*
X95844540Y-87250000D01*
X95864326Y-87438256D01*
X95864327Y-87438259D01*
X95922818Y-87618277D01*
X95922821Y-87618284D01*
X96017467Y-87782216D01*
X96078050Y-87849500D01*
X96144129Y-87922888D01*
X96297265Y-88034148D01*
X96297270Y-88034151D01*
X96470192Y-88111142D01*
X96470197Y-88111144D01*
X96655354Y-88150500D01*
X96655355Y-88150500D01*
X96844644Y-88150500D01*
X96844646Y-88150500D01*
X97029803Y-88111144D01*
X97202730Y-88034151D01*
X97355871Y-87922888D01*
X97482533Y-87782216D01*
X97577179Y-87618284D01*
X97635674Y-87438256D01*
X97655460Y-87250000D01*
X97635674Y-87061744D01*
X97577179Y-86881716D01*
X97482533Y-86717784D01*
X97376480Y-86600000D01*
X104844540Y-86600000D01*
X104864326Y-86788256D01*
X104864327Y-86788259D01*
X104922818Y-86968277D01*
X104922821Y-86968284D01*
X105017467Y-87132216D01*
X105144129Y-87272888D01*
X105297265Y-87384148D01*
X105297270Y-87384151D01*
X105470192Y-87461142D01*
X105470197Y-87461144D01*
X105655354Y-87500500D01*
X105655355Y-87500500D01*
X105844644Y-87500500D01*
X105844646Y-87500500D01*
X106029803Y-87461144D01*
X106202730Y-87384151D01*
X106355871Y-87272888D01*
X106421500Y-87200000D01*
X121894540Y-87200000D01*
X121914326Y-87388256D01*
X121914327Y-87388259D01*
X121972818Y-87568277D01*
X121972821Y-87568284D01*
X122067467Y-87732216D01*
X122173070Y-87849500D01*
X122194129Y-87872888D01*
X122347265Y-87984148D01*
X122347270Y-87984151D01*
X122520192Y-88061142D01*
X122520197Y-88061144D01*
X122705354Y-88100500D01*
X122705355Y-88100500D01*
X122894644Y-88100500D01*
X122894646Y-88100500D01*
X123079803Y-88061144D01*
X123252730Y-87984151D01*
X123405871Y-87872888D01*
X123532533Y-87732216D01*
X123627179Y-87568284D01*
X123685674Y-87388256D01*
X123705460Y-87200000D01*
X123685674Y-87011744D01*
X123627179Y-86831716D01*
X123532533Y-86667784D01*
X123405871Y-86527112D01*
X123405870Y-86527111D01*
X123252734Y-86415851D01*
X123252729Y-86415848D01*
X123079807Y-86338857D01*
X123079802Y-86338855D01*
X122934001Y-86307865D01*
X122894646Y-86299500D01*
X122705354Y-86299500D01*
X122675192Y-86305911D01*
X122520197Y-86338855D01*
X122520192Y-86338857D01*
X122347270Y-86415848D01*
X122347265Y-86415851D01*
X122194129Y-86527111D01*
X122067466Y-86667785D01*
X121972821Y-86831715D01*
X121972818Y-86831722D01*
X121928449Y-86968277D01*
X121914326Y-87011744D01*
X121894540Y-87200000D01*
X106421500Y-87200000D01*
X106482533Y-87132216D01*
X106577179Y-86968284D01*
X106635674Y-86788256D01*
X106655460Y-86600000D01*
X106635674Y-86411744D01*
X106577179Y-86231716D01*
X106482533Y-86067784D01*
X106355871Y-85927112D01*
X106355870Y-85927111D01*
X106202734Y-85815851D01*
X106202729Y-85815848D01*
X106029807Y-85738857D01*
X106029802Y-85738855D01*
X105884001Y-85707865D01*
X105844646Y-85699500D01*
X105655354Y-85699500D01*
X105622897Y-85706398D01*
X105470197Y-85738855D01*
X105470192Y-85738857D01*
X105297270Y-85815848D01*
X105297265Y-85815851D01*
X105144129Y-85927111D01*
X105017466Y-86067785D01*
X104922821Y-86231715D01*
X104922818Y-86231722D01*
X104867979Y-86400500D01*
X104864326Y-86411744D01*
X104844540Y-86600000D01*
X97376480Y-86600000D01*
X97355871Y-86577112D01*
X97355870Y-86577111D01*
X97202734Y-86465851D01*
X97202729Y-86465848D01*
X97029807Y-86388857D01*
X97029802Y-86388855D01*
X96884001Y-86357865D01*
X96844646Y-86349500D01*
X96655354Y-86349500D01*
X96622897Y-86356398D01*
X96470197Y-86388855D01*
X96470192Y-86388857D01*
X96297270Y-86465848D01*
X96297265Y-86465851D01*
X96144129Y-86577111D01*
X96017466Y-86717785D01*
X95922821Y-86881715D01*
X95922818Y-86881722D01*
X95880573Y-87011740D01*
X95864326Y-87061744D01*
X95844540Y-87250000D01*
X85651133Y-87250000D01*
X85632533Y-87217784D01*
X85505871Y-87077112D01*
X85484719Y-87061744D01*
X85352734Y-86965851D01*
X85352729Y-86965848D01*
X85179807Y-86888857D01*
X85179802Y-86888855D01*
X85034001Y-86857865D01*
X84994646Y-86849500D01*
X84805354Y-86849500D01*
X84772897Y-86856398D01*
X84620197Y-86888855D01*
X84620192Y-86888857D01*
X84447270Y-86965848D01*
X84447265Y-86965851D01*
X84294129Y-87077111D01*
X84167466Y-87217785D01*
X84072821Y-87381715D01*
X84072818Y-87381722D01*
X84014327Y-87561740D01*
X84014326Y-87561744D01*
X83994540Y-87750000D01*
X80300500Y-87750000D01*
X80300500Y-85500000D01*
X98594540Y-85500000D01*
X98614326Y-85688256D01*
X98614327Y-85688259D01*
X98672818Y-85868277D01*
X98672821Y-85868284D01*
X98767467Y-86032216D01*
X98873734Y-86150237D01*
X98894129Y-86172888D01*
X99047265Y-86284148D01*
X99047270Y-86284151D01*
X99220192Y-86361142D01*
X99220197Y-86361144D01*
X99405354Y-86400500D01*
X99405355Y-86400500D01*
X99594644Y-86400500D01*
X99594646Y-86400500D01*
X99779803Y-86361144D01*
X99952730Y-86284151D01*
X100105871Y-86172888D01*
X100232533Y-86032216D01*
X100327179Y-85868284D01*
X100385674Y-85688256D01*
X100405460Y-85500000D01*
X100385674Y-85311744D01*
X100327179Y-85131716D01*
X100232533Y-84967784D01*
X100105871Y-84827112D01*
X100105870Y-84827111D01*
X99952734Y-84715851D01*
X99952729Y-84715848D01*
X99779807Y-84638857D01*
X99779802Y-84638855D01*
X99634001Y-84607865D01*
X99594646Y-84599500D01*
X99405354Y-84599500D01*
X99372897Y-84606398D01*
X99220197Y-84638855D01*
X99220192Y-84638857D01*
X99047270Y-84715848D01*
X99047265Y-84715851D01*
X98894129Y-84827111D01*
X98767466Y-84967785D01*
X98672821Y-85131715D01*
X98672818Y-85131722D01*
X98634462Y-85249771D01*
X98614326Y-85311744D01*
X98594540Y-85500000D01*
X80300500Y-85500000D01*
X80300500Y-83600000D01*
X106694540Y-83600000D01*
X106714326Y-83788256D01*
X106714327Y-83788259D01*
X106772818Y-83968277D01*
X106772821Y-83968284D01*
X106867467Y-84132216D01*
X106994129Y-84272888D01*
X107147265Y-84384148D01*
X107147270Y-84384151D01*
X107320192Y-84461142D01*
X107320197Y-84461144D01*
X107505354Y-84500500D01*
X107505355Y-84500500D01*
X107694644Y-84500500D01*
X107694646Y-84500500D01*
X107879803Y-84461144D01*
X108052730Y-84384151D01*
X108205871Y-84272888D01*
X108332533Y-84132216D01*
X108427179Y-83968284D01*
X108485674Y-83788256D01*
X108505460Y-83600000D01*
X108485674Y-83411744D01*
X108427179Y-83231716D01*
X108332533Y-83067784D01*
X108205871Y-82927112D01*
X108205870Y-82927111D01*
X108052734Y-82815851D01*
X108052729Y-82815848D01*
X107879807Y-82738857D01*
X107879802Y-82738855D01*
X107734001Y-82707865D01*
X107694646Y-82699500D01*
X107505354Y-82699500D01*
X107472897Y-82706398D01*
X107320197Y-82738855D01*
X107320192Y-82738857D01*
X107147270Y-82815848D01*
X107147265Y-82815851D01*
X106994129Y-82927111D01*
X106867466Y-83067785D01*
X106772821Y-83231715D01*
X106772818Y-83231722D01*
X106714327Y-83411740D01*
X106714326Y-83411744D01*
X106694540Y-83600000D01*
X80300500Y-83600000D01*
X80300500Y-78402561D01*
X80300606Y-78397437D01*
X80305130Y-78288060D01*
X80305446Y-78280415D01*
X80725581Y-78280415D01*
X80725581Y-78280422D01*
X80744923Y-78711111D01*
X80744924Y-78711120D01*
X80802797Y-79138357D01*
X80898732Y-79558677D01*
X81031961Y-79968715D01*
X81031964Y-79968723D01*
X81201404Y-80365149D01*
X81201408Y-80365157D01*
X81405713Y-80744818D01*
X81643218Y-81104626D01*
X81643219Y-81104627D01*
X81912027Y-81441701D01*
X81962642Y-81494640D01*
X83843516Y-79613766D01*
X83910495Y-79701054D01*
X84109784Y-79900343D01*
X84197070Y-79967320D01*
X82317296Y-81847094D01*
X82534646Y-82036988D01*
X82534663Y-82037001D01*
X82883443Y-82290405D01*
X83253559Y-82511539D01*
X83253565Y-82511542D01*
X83641988Y-82698597D01*
X83642002Y-82698603D01*
X84045628Y-82850086D01*
X84045653Y-82850094D01*
X84461235Y-82964788D01*
X84885442Y-83041770D01*
X85314854Y-83080418D01*
X85314857Y-83080419D01*
X85745981Y-83080419D01*
X85745983Y-83080418D01*
X86175395Y-83041770D01*
X86599602Y-82964788D01*
X87015184Y-82850094D01*
X87015209Y-82850086D01*
X87418835Y-82698603D01*
X87418849Y-82698597D01*
X87807272Y-82511542D01*
X87807278Y-82511539D01*
X88177394Y-82290405D01*
X88526174Y-82037001D01*
X88526191Y-82036988D01*
X88743540Y-81847094D01*
X86863767Y-79967320D01*
X86951054Y-79900343D01*
X87150343Y-79701054D01*
X87217320Y-79613767D01*
X89098194Y-81494641D01*
X89098195Y-81494641D01*
X89148805Y-81441708D01*
X89148805Y-81441707D01*
X89417618Y-81104627D01*
X89417619Y-81104626D01*
X89655124Y-80744818D01*
X89859429Y-80365157D01*
X89859433Y-80365149D01*
X90028873Y-79968723D01*
X90028876Y-79968715D01*
X90162105Y-79558677D01*
X90258040Y-79138357D01*
X90298638Y-78838646D01*
X99425000Y-78838646D01*
X99459584Y-79012512D01*
X99459586Y-79012520D01*
X99527428Y-79176307D01*
X99527433Y-79176316D01*
X99625923Y-79323716D01*
X99625926Y-79323720D01*
X99751279Y-79449073D01*
X99751283Y-79449076D01*
X99898683Y-79547566D01*
X99898693Y-79547571D01*
X100062476Y-79615412D01*
X100062483Y-79615415D01*
X100075000Y-79617904D01*
X100075000Y-78750000D01*
X99425000Y-78750000D01*
X99425000Y-78838646D01*
X90298638Y-78838646D01*
X90315913Y-78711120D01*
X90315914Y-78711111D01*
X90335257Y-78280422D01*
X90335257Y-78280415D01*
X90315914Y-77849726D01*
X90315913Y-77849717D01*
X90258040Y-77422480D01*
X90252909Y-77399999D01*
X90518888Y-77399999D01*
X90518888Y-77400000D01*
X90537295Y-77598649D01*
X90537295Y-77598651D01*
X90537296Y-77598654D01*
X90583315Y-77760393D01*
X90591894Y-77790546D01*
X90680816Y-77969126D01*
X90680821Y-77969134D01*
X90727441Y-78030868D01*
X90801049Y-78128340D01*
X90948484Y-78262746D01*
X90948486Y-78262747D01*
X90948487Y-78262748D01*
X91005025Y-78297754D01*
X91118107Y-78367772D01*
X91304140Y-78439841D01*
X91500248Y-78476500D01*
X91500250Y-78476500D01*
X91699750Y-78476500D01*
X91699752Y-78476500D01*
X91840059Y-78450272D01*
X100075000Y-78450272D01*
X100075000Y-78549728D01*
X100113060Y-78641614D01*
X100183386Y-78711940D01*
X100275272Y-78750000D01*
X100374728Y-78750000D01*
X100466614Y-78711940D01*
X100536940Y-78641614D01*
X100575000Y-78549728D01*
X100575000Y-79617903D01*
X100587516Y-79615415D01*
X100587523Y-79615412D01*
X100751306Y-79547571D01*
X100751315Y-79547566D01*
X100880659Y-79461141D01*
X100947336Y-79440263D01*
X101014716Y-79458747D01*
X101018434Y-79461136D01*
X101020846Y-79462748D01*
X101147791Y-79547571D01*
X101148453Y-79548013D01*
X101148455Y-79548014D01*
X101148459Y-79548016D01*
X101271363Y-79598923D01*
X101312334Y-79615894D01*
X101312336Y-79615894D01*
X101312341Y-79615896D01*
X101486304Y-79650499D01*
X101486307Y-79650500D01*
X101486309Y-79650500D01*
X101663693Y-79650500D01*
X101663694Y-79650499D01*
X101721682Y-79638964D01*
X101837658Y-79615896D01*
X101837661Y-79615894D01*
X101837666Y-79615894D01*
X102001547Y-79548013D01*
X102131109Y-79461442D01*
X102197786Y-79440564D01*
X102265166Y-79459048D01*
X102268891Y-79461442D01*
X102398447Y-79548009D01*
X102398453Y-79548013D01*
X102398455Y-79548014D01*
X102398459Y-79548016D01*
X102521363Y-79598923D01*
X102562334Y-79615894D01*
X102562336Y-79615894D01*
X102562341Y-79615896D01*
X102736304Y-79650499D01*
X102736307Y-79650500D01*
X102736309Y-79650500D01*
X102913691Y-79650500D01*
X102947287Y-79643817D01*
X103016877Y-79650043D01*
X103072055Y-79692905D01*
X103094799Y-79752471D01*
X103114326Y-79938256D01*
X103114327Y-79938259D01*
X103172818Y-80118277D01*
X103172821Y-80118284D01*
X103267467Y-80282216D01*
X103394129Y-80422888D01*
X103547265Y-80534148D01*
X103547270Y-80534151D01*
X103720192Y-80611142D01*
X103720197Y-80611144D01*
X103905354Y-80650500D01*
X103905355Y-80650500D01*
X104094644Y-80650500D01*
X104094646Y-80650500D01*
X104279803Y-80611144D01*
X104452730Y-80534151D01*
X104605871Y-80422888D01*
X104732533Y-80282216D01*
X104827179Y-80118284D01*
X104885674Y-79938256D01*
X104905460Y-79750000D01*
X104885674Y-79561744D01*
X104846586Y-79441447D01*
X104844592Y-79371610D01*
X104858398Y-79338988D01*
X104918478Y-79239606D01*
X104969086Y-79077196D01*
X104975500Y-79006616D01*
X104975500Y-78270000D01*
X111114659Y-78270000D01*
X111133975Y-78466129D01*
X111133976Y-78466132D01*
X111175662Y-78603553D01*
X111191188Y-78654733D01*
X111284086Y-78828532D01*
X111284090Y-78828539D01*
X111409116Y-78980883D01*
X111561460Y-79105909D01*
X111561467Y-79105913D01*
X111735266Y-79198811D01*
X111735269Y-79198811D01*
X111735273Y-79198814D01*
X111923868Y-79256024D01*
X112120000Y-79275341D01*
X112316132Y-79256024D01*
X112504727Y-79198814D01*
X112678538Y-79105910D01*
X112678544Y-79105904D01*
X112683607Y-79102523D01*
X112684703Y-79104164D01*
X112740639Y-79080405D01*
X112809507Y-79092194D01*
X112826148Y-79102888D01*
X112826393Y-79102523D01*
X112831458Y-79105907D01*
X112831462Y-79105910D01*
X113005273Y-79198814D01*
X113193868Y-79256024D01*
X113390000Y-79275341D01*
X113586132Y-79256024D01*
X113774727Y-79198814D01*
X113948538Y-79105910D01*
X113948544Y-79105904D01*
X113953607Y-79102523D01*
X113954703Y-79104164D01*
X114010639Y-79080405D01*
X114079507Y-79092194D01*
X114096148Y-79102888D01*
X114096393Y-79102523D01*
X114101458Y-79105907D01*
X114101462Y-79105910D01*
X114275273Y-79198814D01*
X114463868Y-79256024D01*
X114660000Y-79275341D01*
X114856132Y-79256024D01*
X115044727Y-79198814D01*
X115218538Y-79105910D01*
X115218544Y-79105904D01*
X115223607Y-79102523D01*
X115224703Y-79104164D01*
X115280639Y-79080405D01*
X115349507Y-79092194D01*
X115366148Y-79102888D01*
X115366393Y-79102523D01*
X115371458Y-79105907D01*
X115371462Y-79105910D01*
X115545273Y-79198814D01*
X115733868Y-79256024D01*
X115930000Y-79275341D01*
X116126132Y-79256024D01*
X116314727Y-79198814D01*
X116488538Y-79105910D01*
X116488544Y-79105904D01*
X116493607Y-79102523D01*
X116494703Y-79104164D01*
X116550639Y-79080405D01*
X116619507Y-79092194D01*
X116636148Y-79102888D01*
X116636393Y-79102523D01*
X116641458Y-79105907D01*
X116641462Y-79105910D01*
X116815273Y-79198814D01*
X117003868Y-79256024D01*
X117200000Y-79275341D01*
X117396132Y-79256024D01*
X117584727Y-79198814D01*
X117758538Y-79105910D01*
X117910883Y-78980883D01*
X118035910Y-78828538D01*
X118114931Y-78680701D01*
X118128811Y-78654733D01*
X118128811Y-78654732D01*
X118128814Y-78654727D01*
X118145416Y-78599999D01*
X118718888Y-78599999D01*
X118718888Y-78600000D01*
X118737295Y-78798649D01*
X118737295Y-78798651D01*
X118737296Y-78798654D01*
X118791893Y-78990543D01*
X118791894Y-78990546D01*
X118880816Y-79169126D01*
X118880821Y-79169134D01*
X118975932Y-79295080D01*
X119001049Y-79328340D01*
X119148484Y-79462746D01*
X119318107Y-79567772D01*
X119504140Y-79639841D01*
X119700248Y-79676500D01*
X119700250Y-79676500D01*
X119899750Y-79676500D01*
X119899752Y-79676500D01*
X120095860Y-79639841D01*
X120281893Y-79567772D01*
X120451516Y-79462746D01*
X120598951Y-79328340D01*
X120598953Y-79328336D01*
X120601848Y-79325698D01*
X120664652Y-79295080D01*
X120734039Y-79303277D01*
X120787979Y-79347686D01*
X120806278Y-79389741D01*
X120837895Y-79528260D01*
X120971123Y-79938296D01*
X120971126Y-79938304D01*
X121140566Y-80334730D01*
X121140570Y-80334738D01*
X121344875Y-80714399D01*
X121582380Y-81074207D01*
X121582381Y-81074208D01*
X121851189Y-81411282D01*
X121901804Y-81464221D01*
X123782678Y-79583347D01*
X123849657Y-79670635D01*
X124048946Y-79869924D01*
X124136232Y-79936901D01*
X122256458Y-81816675D01*
X122473808Y-82006569D01*
X122473825Y-82006582D01*
X122822605Y-82259986D01*
X123192721Y-82481120D01*
X123192727Y-82481123D01*
X123581150Y-82668178D01*
X123581164Y-82668184D01*
X123984790Y-82819667D01*
X123984815Y-82819675D01*
X124400397Y-82934369D01*
X124824604Y-83011351D01*
X125254016Y-83049999D01*
X125254019Y-83050000D01*
X125685143Y-83050000D01*
X125685145Y-83049999D01*
X126114557Y-83011351D01*
X126538764Y-82934369D01*
X126954346Y-82819675D01*
X126954371Y-82819667D01*
X127357997Y-82668184D01*
X127358011Y-82668178D01*
X127746434Y-82481123D01*
X127746440Y-82481120D01*
X128116556Y-82259986D01*
X128465336Y-82006582D01*
X128465353Y-82006569D01*
X128682702Y-81816675D01*
X126802929Y-79936901D01*
X126890216Y-79869924D01*
X127089505Y-79670635D01*
X127156482Y-79583348D01*
X129037356Y-81464222D01*
X129037357Y-81464222D01*
X129087967Y-81411289D01*
X129087967Y-81411288D01*
X129356780Y-81074208D01*
X129356781Y-81074207D01*
X129594286Y-80714399D01*
X129798591Y-80334738D01*
X129798595Y-80334730D01*
X129968035Y-79938304D01*
X129968038Y-79938296D01*
X130101267Y-79528258D01*
X130197202Y-79107938D01*
X130255075Y-78680701D01*
X130255076Y-78680692D01*
X130274419Y-78250000D01*
X130274419Y-78249996D01*
X130255076Y-77819307D01*
X130255075Y-77819298D01*
X130197202Y-77392061D01*
X130101267Y-76971741D01*
X129968038Y-76561703D01*
X129968035Y-76561695D01*
X129798595Y-76165269D01*
X129798591Y-76165261D01*
X129594286Y-75785600D01*
X129356781Y-75425792D01*
X129356776Y-75425786D01*
X129087972Y-75088717D01*
X129037355Y-75035776D01*
X127156481Y-76916650D01*
X127089505Y-76829365D01*
X126890216Y-76630076D01*
X126802927Y-76563097D01*
X128682702Y-74683323D01*
X128465353Y-74493430D01*
X128465336Y-74493417D01*
X128116556Y-74240013D01*
X127746440Y-74018879D01*
X127746434Y-74018876D01*
X127358011Y-73831821D01*
X127357997Y-73831815D01*
X126954371Y-73680332D01*
X126954346Y-73680324D01*
X126538764Y-73565630D01*
X126114557Y-73488648D01*
X125685145Y-73450000D01*
X125254016Y-73450000D01*
X124824604Y-73488648D01*
X124400397Y-73565630D01*
X123984815Y-73680324D01*
X123984790Y-73680332D01*
X123581164Y-73831815D01*
X123581150Y-73831821D01*
X123192727Y-74018876D01*
X123192721Y-74018879D01*
X122822605Y-74240013D01*
X122473816Y-74493423D01*
X122256458Y-74683322D01*
X122256458Y-74683323D01*
X124136233Y-76563098D01*
X124048946Y-76630076D01*
X123849657Y-76829365D01*
X123782679Y-76916651D01*
X121901804Y-75035777D01*
X121851205Y-75088699D01*
X121851193Y-75088712D01*
X121582386Y-75425786D01*
X121582380Y-75425792D01*
X121344875Y-75785600D01*
X121140570Y-76165261D01*
X121140566Y-76165269D01*
X120971126Y-76561695D01*
X120971123Y-76561703D01*
X120837894Y-76971741D01*
X120741959Y-77392061D01*
X120700145Y-77700744D01*
X120671639Y-77764535D01*
X120613171Y-77802787D01*
X120543304Y-77803357D01*
X120493729Y-77775736D01*
X120451516Y-77737254D01*
X120451514Y-77737252D01*
X120281898Y-77632231D01*
X120281891Y-77632227D01*
X120167316Y-77587841D01*
X120095860Y-77560159D01*
X119899752Y-77523500D01*
X119700248Y-77523500D01*
X119504140Y-77560159D01*
X119504137Y-77560159D01*
X119504137Y-77560160D01*
X119318108Y-77632227D01*
X119318101Y-77632231D01*
X119148487Y-77737251D01*
X119001048Y-77871660D01*
X118880821Y-78030865D01*
X118880816Y-78030873D01*
X118791894Y-78209453D01*
X118737295Y-78401350D01*
X118718888Y-78599999D01*
X118145416Y-78599999D01*
X118186024Y-78466132D01*
X118205341Y-78270000D01*
X118186024Y-78073868D01*
X118128814Y-77885273D01*
X118127677Y-77883146D01*
X118127418Y-77881904D01*
X118126483Y-77879645D01*
X118126911Y-77879467D01*
X118113435Y-77814746D01*
X118137771Y-77750379D01*
X118143796Y-77742331D01*
X118194091Y-77607483D01*
X118200500Y-77547873D01*
X118200499Y-76452128D01*
X118194091Y-76392517D01*
X118182022Y-76360159D01*
X118143797Y-76257671D01*
X118143793Y-76257664D01*
X118080757Y-76173459D01*
X118056339Y-76107995D01*
X118062093Y-76060828D01*
X118071838Y-76030839D01*
X118085674Y-75988256D01*
X118105460Y-75800000D01*
X118085674Y-75611744D01*
X118027179Y-75431716D01*
X117932533Y-75267784D01*
X117805871Y-75127112D01*
X117794886Y-75119131D01*
X117652734Y-75015851D01*
X117652729Y-75015848D01*
X117479807Y-74938857D01*
X117479802Y-74938855D01*
X117334001Y-74907865D01*
X117294646Y-74899500D01*
X117105354Y-74899500D01*
X117072897Y-74906398D01*
X116920197Y-74938855D01*
X116920192Y-74938857D01*
X116747270Y-75015848D01*
X116747265Y-75015851D01*
X116594129Y-75127111D01*
X116467466Y-75267785D01*
X116372821Y-75431715D01*
X116372818Y-75431722D01*
X116314327Y-75611740D01*
X116314326Y-75611744D01*
X116294540Y-75800000D01*
X116302813Y-75878717D01*
X116303837Y-75888454D01*
X116291267Y-75957183D01*
X116243535Y-76008207D01*
X116193452Y-76020862D01*
X116180000Y-76030839D01*
X116180000Y-76790382D01*
X116129554Y-76739936D01*
X116055445Y-76697149D01*
X115972787Y-76675000D01*
X115887213Y-76675000D01*
X115804555Y-76697149D01*
X115730446Y-76739936D01*
X115669936Y-76800446D01*
X115627149Y-76874555D01*
X115605000Y-76957213D01*
X115605000Y-77042787D01*
X115627149Y-77125445D01*
X115669936Y-77199554D01*
X115720382Y-77250000D01*
X114869618Y-77250000D01*
X114920064Y-77199554D01*
X114962851Y-77125445D01*
X114985000Y-77042787D01*
X114985000Y-76957213D01*
X114962851Y-76874555D01*
X114920064Y-76800446D01*
X114859554Y-76739936D01*
X114785445Y-76697149D01*
X114702787Y-76675000D01*
X114617213Y-76675000D01*
X114534555Y-76697149D01*
X114460446Y-76739936D01*
X114410000Y-76790382D01*
X114410000Y-76030839D01*
X114910000Y-76030839D01*
X114910000Y-76750000D01*
X115680000Y-76750000D01*
X115680000Y-76030839D01*
X115679999Y-76030839D01*
X115545458Y-76071652D01*
X115371746Y-76164503D01*
X115366678Y-76167890D01*
X115365641Y-76166338D01*
X115309339Y-76190242D01*
X115240473Y-76178442D01*
X115223541Y-76167560D01*
X115223322Y-76167890D01*
X115218253Y-76164503D01*
X115044541Y-76071652D01*
X114910000Y-76030839D01*
X114410000Y-76030839D01*
X114409999Y-76030839D01*
X114275458Y-76071652D01*
X114101742Y-76164505D01*
X114096673Y-76167893D01*
X114095556Y-76166221D01*
X114039715Y-76189921D01*
X113970851Y-76178111D01*
X113953811Y-76167158D01*
X113953601Y-76167473D01*
X113948532Y-76164086D01*
X113774733Y-76071188D01*
X113774727Y-76071186D01*
X113586132Y-76013976D01*
X113586129Y-76013975D01*
X113390000Y-75994659D01*
X113193870Y-76013975D01*
X113005266Y-76071188D01*
X112831467Y-76164086D01*
X112826399Y-76167473D01*
X112825386Y-76165958D01*
X112768936Y-76189920D01*
X112700071Y-76178115D01*
X112683574Y-76167511D01*
X112683322Y-76167890D01*
X112678253Y-76164503D01*
X112504541Y-76071652D01*
X112370000Y-76030839D01*
X112370000Y-76790382D01*
X112319554Y-76739936D01*
X112245445Y-76697149D01*
X112162787Y-76675000D01*
X112077213Y-76675000D01*
X111994555Y-76697149D01*
X111920446Y-76739936D01*
X111859936Y-76800446D01*
X111817149Y-76874555D01*
X111795000Y-76957213D01*
X111795000Y-77042787D01*
X111817149Y-77125445D01*
X111859936Y-77199554D01*
X111910382Y-77250000D01*
X111150840Y-77250000D01*
X111191652Y-77384541D01*
X111284503Y-77558253D01*
X111287890Y-77563322D01*
X111286215Y-77564440D01*
X111309918Y-77620259D01*
X111298123Y-77689125D01*
X111287158Y-77706188D01*
X111287473Y-77706399D01*
X111284086Y-77711467D01*
X111191188Y-77885266D01*
X111133975Y-78073870D01*
X111114659Y-78270000D01*
X104975500Y-78270000D01*
X104975500Y-77993384D01*
X104969086Y-77922804D01*
X104918478Y-77760394D01*
X104830472Y-77614815D01*
X104830470Y-77614813D01*
X104830469Y-77614811D01*
X104710188Y-77494530D01*
X104639820Y-77451991D01*
X104564606Y-77406522D01*
X104402196Y-77355914D01*
X104402194Y-77355913D01*
X104402192Y-77355913D01*
X104352778Y-77351423D01*
X104331616Y-77349500D01*
X103818384Y-77349500D01*
X103799145Y-77351248D01*
X103747807Y-77355913D01*
X103747804Y-77355914D01*
X103606328Y-77399999D01*
X103585391Y-77406523D01*
X103441875Y-77493281D01*
X103374321Y-77511117D01*
X103308834Y-77490265D01*
X103251555Y-77451991D01*
X103251540Y-77451983D01*
X103087667Y-77384106D01*
X103087658Y-77384103D01*
X102913694Y-77349500D01*
X102913691Y-77349500D01*
X102736309Y-77349500D01*
X102736306Y-77349500D01*
X102562341Y-77384103D01*
X102562332Y-77384106D01*
X102398459Y-77451983D01*
X102398446Y-77451990D01*
X102268891Y-77538557D01*
X102202213Y-77559435D01*
X102134833Y-77540950D01*
X102131109Y-77538557D01*
X102001553Y-77451990D01*
X102001540Y-77451983D01*
X101837667Y-77384106D01*
X101837658Y-77384103D01*
X101663694Y-77349500D01*
X101663691Y-77349500D01*
X101486309Y-77349500D01*
X101486306Y-77349500D01*
X101312341Y-77384103D01*
X101312332Y-77384106D01*
X101148459Y-77451983D01*
X101148446Y-77451990D01*
X101018441Y-77538858D01*
X100951764Y-77559736D01*
X100884383Y-77541252D01*
X100880659Y-77538858D01*
X100751316Y-77452433D01*
X100751307Y-77452428D01*
X100587519Y-77384585D01*
X100575000Y-77382094D01*
X100575000Y-78450272D01*
X100536940Y-78358386D01*
X100466614Y-78288060D01*
X100374728Y-78250000D01*
X100275272Y-78250000D01*
X100183386Y-78288060D01*
X100113060Y-78358386D01*
X100075000Y-78450272D01*
X91840059Y-78450272D01*
X91895860Y-78439841D01*
X92081893Y-78367772D01*
X92251516Y-78262746D01*
X92362738Y-78161353D01*
X99425000Y-78161353D01*
X99425000Y-78250000D01*
X100075000Y-78250000D01*
X100075000Y-77382095D01*
X100074999Y-77382094D01*
X100062480Y-77384585D01*
X99898692Y-77452428D01*
X99898683Y-77452433D01*
X99751283Y-77550923D01*
X99751279Y-77550926D01*
X99625926Y-77676279D01*
X99625923Y-77676283D01*
X99527433Y-77823683D01*
X99527428Y-77823692D01*
X99459586Y-77987479D01*
X99459584Y-77987487D01*
X99425000Y-78161353D01*
X92362738Y-78161353D01*
X92398951Y-78128340D01*
X92519180Y-77969132D01*
X92608107Y-77790543D01*
X92662704Y-77598654D01*
X92681112Y-77400000D01*
X92662704Y-77201346D01*
X92608107Y-77009457D01*
X92540934Y-76874555D01*
X92519183Y-76830873D01*
X92519178Y-76830865D01*
X92458110Y-76749999D01*
X111150839Y-76749999D01*
X111150840Y-76750000D01*
X111870000Y-76750000D01*
X111870000Y-76030839D01*
X111869999Y-76030839D01*
X111735458Y-76071652D01*
X111561746Y-76164503D01*
X111561739Y-76164507D01*
X111409471Y-76289471D01*
X111284507Y-76441739D01*
X111284503Y-76441746D01*
X111191652Y-76615458D01*
X111150839Y-76749999D01*
X92458110Y-76749999D01*
X92398951Y-76671660D01*
X92337098Y-76615273D01*
X92251516Y-76537254D01*
X92251513Y-76537252D01*
X92251512Y-76537251D01*
X92081898Y-76432231D01*
X92081891Y-76432227D01*
X91963274Y-76386275D01*
X91895860Y-76360159D01*
X91699752Y-76323500D01*
X91500248Y-76323500D01*
X91304140Y-76360159D01*
X91304137Y-76360159D01*
X91304137Y-76360160D01*
X91118108Y-76432227D01*
X91118101Y-76432231D01*
X90948487Y-76537251D01*
X90801048Y-76671660D01*
X90680821Y-76830865D01*
X90680816Y-76830873D01*
X90591894Y-77009453D01*
X90537295Y-77201350D01*
X90518888Y-77399999D01*
X90252909Y-77399999D01*
X90162105Y-77002160D01*
X90028876Y-76592122D01*
X90028873Y-76592114D01*
X89859433Y-76195688D01*
X89859429Y-76195680D01*
X89655124Y-75816019D01*
X89417619Y-75456211D01*
X89417618Y-75456210D01*
X89148810Y-75119136D01*
X89098193Y-75066195D01*
X87217319Y-76947069D01*
X87150343Y-76859784D01*
X86951054Y-76660495D01*
X86863765Y-76593516D01*
X88743540Y-74713742D01*
X88526191Y-74523849D01*
X88526174Y-74523836D01*
X88177394Y-74270432D01*
X87807278Y-74049298D01*
X87807272Y-74049295D01*
X87418849Y-73862240D01*
X87418835Y-73862234D01*
X87015209Y-73710751D01*
X87015184Y-73710743D01*
X86599602Y-73596049D01*
X86175395Y-73519067D01*
X85745983Y-73480419D01*
X85314854Y-73480419D01*
X84885442Y-73519067D01*
X84461235Y-73596049D01*
X84045653Y-73710743D01*
X84045628Y-73710751D01*
X83642002Y-73862234D01*
X83641988Y-73862240D01*
X83253565Y-74049295D01*
X83253559Y-74049298D01*
X82883443Y-74270432D01*
X82534654Y-74523842D01*
X82317296Y-74713741D01*
X82317296Y-74713742D01*
X84197071Y-76593517D01*
X84109784Y-76660495D01*
X83910495Y-76859784D01*
X83843517Y-76947070D01*
X81962642Y-75066196D01*
X81912043Y-75119118D01*
X81912031Y-75119131D01*
X81643219Y-75456210D01*
X81643218Y-75456211D01*
X81405713Y-75816019D01*
X81201408Y-76195680D01*
X81201404Y-76195688D01*
X81031964Y-76592114D01*
X81031961Y-76592122D01*
X80898732Y-77002160D01*
X80802797Y-77422480D01*
X80744924Y-77849717D01*
X80744923Y-77849726D01*
X80725581Y-78280415D01*
X80305446Y-78280415D01*
X80318388Y-77967477D01*
X80319231Y-77957308D01*
X80372146Y-77532800D01*
X80373826Y-77522728D01*
X80461614Y-77104048D01*
X80464121Y-77094152D01*
X80586185Y-76684145D01*
X80589500Y-76674492D01*
X80744999Y-76275980D01*
X80749111Y-76266608D01*
X80753481Y-76257669D01*
X80936981Y-75882313D01*
X80941835Y-75873341D01*
X81160823Y-75505832D01*
X81166406Y-75497287D01*
X81414972Y-75149150D01*
X81421262Y-75141069D01*
X81697732Y-74814640D01*
X81704651Y-74807125D01*
X82007125Y-74504651D01*
X82014640Y-74497732D01*
X82341075Y-74221257D01*
X82349150Y-74214972D01*
X82697287Y-73966406D01*
X82705832Y-73960823D01*
X83073341Y-73741835D01*
X83082313Y-73736981D01*
X83466612Y-73549108D01*
X83475980Y-73544999D01*
X83874492Y-73389500D01*
X83884145Y-73386185D01*
X84294152Y-73264121D01*
X84304048Y-73261614D01*
X84722728Y-73173826D01*
X84732800Y-73172146D01*
X85157308Y-73119231D01*
X85167477Y-73118388D01*
X85597437Y-73100605D01*
X85602561Y-73100500D01*
X85665892Y-73100500D01*
X125534108Y-73100500D01*
X125597439Y-73100500D01*
X125602562Y-73100605D01*
G37*
%TD.AperFunction*%
%TD*%
M02*
