%TF.GenerationSoftware,KiCad,Pcbnew,8.0.5-8.0.5-0~ubuntu24.04.1*%
%TF.CreationDate,2024-09-30T02:40:29+03:30*%
%TF.ProjectId,stm32buckusb,73746d33-3262-4756-936b-7573622e6b69,rev?*%
%TF.SameCoordinates,Original*%
%TF.FileFunction,Copper,L1,Top*%
%TF.FilePolarity,Positive*%
%FSLAX46Y46*%
G04 Gerber Fmt 4.6, Leading zero omitted, Abs format (unit mm)*
G04 Created by KiCad (PCBNEW 8.0.5-8.0.5-0~ubuntu24.04.1) date 2024-09-30 02:40:29*
%MOMM*%
%LPD*%
G01*
G04 APERTURE LIST*
G04 Aperture macros list*
%AMRoundRect*
0 Rectangle with rounded corners*
0 $1 Rounding radius*
0 $2 $3 $4 $5 $6 $7 $8 $9 X,Y pos of 4 corners*
0 Add a 4 corners polygon primitive as box body*
4,1,4,$2,$3,$4,$5,$6,$7,$8,$9,$2,$3,0*
0 Add four circle primitives for the rounded corners*
1,1,$1+$1,$2,$3*
1,1,$1+$1,$4,$5*
1,1,$1+$1,$6,$7*
1,1,$1+$1,$8,$9*
0 Add four rect primitives between the rounded corners*
20,1,$1+$1,$2,$3,$4,$5,0*
20,1,$1+$1,$4,$5,$6,$7,0*
20,1,$1+$1,$6,$7,$8,$9,0*
20,1,$1+$1,$8,$9,$2,$3,0*%
G04 Aperture macros list end*
%TA.AperFunction,NonConductor*%
%ADD10C,0.100000*%
%TD*%
%TA.AperFunction,ComponentPad*%
%ADD11R,1.000000X1.000000*%
%TD*%
%TA.AperFunction,ComponentPad*%
%ADD12O,1.000000X1.000000*%
%TD*%
%TA.AperFunction,SMDPad,CuDef*%
%ADD13R,0.800000X1.000000*%
%TD*%
%TA.AperFunction,SMDPad,CuDef*%
%ADD14R,1.500000X0.700000*%
%TD*%
%TA.AperFunction,SMDPad,CuDef*%
%ADD15RoundRect,0.218750X0.256250X-0.218750X0.256250X0.218750X-0.256250X0.218750X-0.256250X-0.218750X0*%
%TD*%
%TA.AperFunction,SMDPad,CuDef*%
%ADD16RoundRect,0.218750X-0.256250X0.218750X-0.256250X-0.218750X0.256250X-0.218750X0.256250X0.218750X0*%
%TD*%
%TA.AperFunction,SMDPad,CuDef*%
%ADD17RoundRect,0.140000X0.170000X-0.140000X0.170000X0.140000X-0.170000X0.140000X-0.170000X-0.140000X0*%
%TD*%
%TA.AperFunction,SMDPad,CuDef*%
%ADD18RoundRect,0.135000X-0.185000X0.135000X-0.185000X-0.135000X0.185000X-0.135000X0.185000X0.135000X0*%
%TD*%
%TA.AperFunction,SMDPad,CuDef*%
%ADD19RoundRect,0.250000X0.625000X-0.375000X0.625000X0.375000X-0.625000X0.375000X-0.625000X-0.375000X0*%
%TD*%
%TA.AperFunction,SMDPad,CuDef*%
%ADD20RoundRect,0.150000X0.150000X-0.512500X0.150000X0.512500X-0.150000X0.512500X-0.150000X-0.512500X0*%
%TD*%
%TA.AperFunction,ComponentPad*%
%ADD21C,0.900000*%
%TD*%
%TA.AperFunction,ComponentPad*%
%ADD22C,8.600000*%
%TD*%
%TA.AperFunction,SMDPad,CuDef*%
%ADD23RoundRect,0.147500X0.147500X0.172500X-0.147500X0.172500X-0.147500X-0.172500X0.147500X-0.172500X0*%
%TD*%
%TA.AperFunction,SMDPad,CuDef*%
%ADD24RoundRect,0.200000X-0.275000X0.200000X-0.275000X-0.200000X0.275000X-0.200000X0.275000X0.200000X0*%
%TD*%
%TA.AperFunction,SMDPad,CuDef*%
%ADD25RoundRect,0.250000X0.250000X0.475000X-0.250000X0.475000X-0.250000X-0.475000X0.250000X-0.475000X0*%
%TD*%
%TA.AperFunction,ComponentPad*%
%ADD26RoundRect,0.200000X-0.200000X-0.450000X0.200000X-0.450000X0.200000X0.450000X-0.200000X0.450000X0*%
%TD*%
%TA.AperFunction,ComponentPad*%
%ADD27O,0.800000X1.300000*%
%TD*%
%TA.AperFunction,SMDPad,CuDef*%
%ADD28RoundRect,0.140000X0.140000X0.170000X-0.140000X0.170000X-0.140000X-0.170000X0.140000X-0.170000X0*%
%TD*%
%TA.AperFunction,SMDPad,CuDef*%
%ADD29RoundRect,0.140000X-0.140000X-0.170000X0.140000X-0.170000X0.140000X0.170000X-0.140000X0.170000X0*%
%TD*%
%TA.AperFunction,SMDPad,CuDef*%
%ADD30RoundRect,0.200000X0.275000X-0.200000X0.275000X0.200000X-0.275000X0.200000X-0.275000X-0.200000X0*%
%TD*%
%TA.AperFunction,ComponentPad*%
%ADD31O,1.600000X0.900000*%
%TD*%
%TA.AperFunction,SMDPad,CuDef*%
%ADD32RoundRect,0.250000X0.450000X-0.550000X0.450000X0.550000X-0.450000X0.550000X-0.450000X-0.550000X0*%
%TD*%
%TA.AperFunction,SMDPad,CuDef*%
%ADD33RoundRect,0.250000X0.700000X-0.700000X0.700000X0.700000X-0.700000X0.700000X-0.700000X-0.700000X0*%
%TD*%
%TA.AperFunction,SMDPad,CuDef*%
%ADD34RoundRect,0.100000X0.575000X-0.100000X0.575000X0.100000X-0.575000X0.100000X-0.575000X-0.100000X0*%
%TD*%
%TA.AperFunction,SMDPad,CuDef*%
%ADD35R,1.200000X1.400000*%
%TD*%
%TA.AperFunction,SMDPad,CuDef*%
%ADD36RoundRect,0.200000X-0.200000X-0.275000X0.200000X-0.275000X0.200000X0.275000X-0.200000X0.275000X0*%
%TD*%
%TA.AperFunction,SMDPad,CuDef*%
%ADD37RoundRect,0.218750X-0.381250X0.218750X-0.381250X-0.218750X0.381250X-0.218750X0.381250X0.218750X0*%
%TD*%
%TA.AperFunction,SMDPad,CuDef*%
%ADD38RoundRect,0.135000X0.135000X0.185000X-0.135000X0.185000X-0.135000X-0.185000X0.135000X-0.185000X0*%
%TD*%
%TA.AperFunction,SMDPad,CuDef*%
%ADD39RoundRect,0.150000X0.512500X0.150000X-0.512500X0.150000X-0.512500X-0.150000X0.512500X-0.150000X0*%
%TD*%
%TA.AperFunction,SMDPad,CuDef*%
%ADD40RoundRect,0.225000X0.375000X-0.225000X0.375000X0.225000X-0.375000X0.225000X-0.375000X-0.225000X0*%
%TD*%
%TA.AperFunction,SMDPad,CuDef*%
%ADD41RoundRect,0.200000X0.200000X0.275000X-0.200000X0.275000X-0.200000X-0.275000X0.200000X-0.275000X0*%
%TD*%
%TA.AperFunction,ComponentPad*%
%ADD42RoundRect,0.200000X0.200000X0.450000X-0.200000X0.450000X-0.200000X-0.450000X0.200000X-0.450000X0*%
%TD*%
%TA.AperFunction,SMDPad,CuDef*%
%ADD43RoundRect,0.150000X-0.150000X0.587500X-0.150000X-0.587500X0.150000X-0.587500X0.150000X0.587500X0*%
%TD*%
%TA.AperFunction,SMDPad,CuDef*%
%ADD44RoundRect,0.140000X-0.170000X0.140000X-0.170000X-0.140000X0.170000X-0.140000X0.170000X0.140000X0*%
%TD*%
%TA.AperFunction,SMDPad,CuDef*%
%ADD45RoundRect,0.225000X-0.250000X0.225000X-0.250000X-0.225000X0.250000X-0.225000X0.250000X0.225000X0*%
%TD*%
%TA.AperFunction,ComponentPad*%
%ADD46R,2.400000X2.400000*%
%TD*%
%TA.AperFunction,ComponentPad*%
%ADD47C,2.400000*%
%TD*%
%TA.AperFunction,SMDPad,CuDef*%
%ADD48RoundRect,0.075000X-0.700000X-0.075000X0.700000X-0.075000X0.700000X0.075000X-0.700000X0.075000X0*%
%TD*%
%TA.AperFunction,SMDPad,CuDef*%
%ADD49RoundRect,0.075000X-0.075000X-0.700000X0.075000X-0.700000X0.075000X0.700000X-0.075000X0.700000X0*%
%TD*%
%TA.AperFunction,ViaPad*%
%ADD50C,0.800000*%
%TD*%
%TA.AperFunction,ViaPad*%
%ADD51C,0.600000*%
%TD*%
%TA.AperFunction,Conductor*%
%ADD52C,0.300000*%
%TD*%
%TA.AperFunction,Conductor*%
%ADD53C,0.500000*%
%TD*%
%TA.AperFunction,Conductor*%
%ADD54C,0.261000*%
%TD*%
%TA.AperFunction,Conductor*%
%ADD55C,0.750000*%
%TD*%
G04 APERTURE END LIST*
D10*
X119200000Y-76800000D02*
X119800000Y-76800000D01*
X119800000Y-77200000D01*
X119200000Y-77200000D01*
X119200000Y-77400000D01*
X118800000Y-77000000D01*
X119200000Y-76600000D01*
X119200000Y-76800000D01*
D11*
%TO.P,J2,1,Pin_1*%
%TO.N,+3.3V*%
X117200000Y-77000000D03*
D12*
%TO.P,J2,2,Pin_2*%
%TO.N,SWDIO*%
X117200000Y-78270000D03*
%TO.P,J2,3,Pin_3*%
%TO.N,GND*%
X115930000Y-77000000D03*
%TO.P,J2,4,Pin_4*%
%TO.N,SECLK*%
X115930000Y-78270000D03*
%TO.P,J2,5,Pin_5*%
%TO.N,GND*%
X114660000Y-77000000D03*
%TO.P,J2,6,Pin_6*%
%TO.N,SWO*%
X114660000Y-78270000D03*
%TO.P,J2,7,Pin_7*%
%TO.N,unconnected-(J2-Pin_7-Pad7)*%
X113390000Y-77000000D03*
%TO.P,J2,8,Pin_8*%
%TO.N,unconnected-(J2-Pin_8-Pad8)*%
X113390000Y-78270000D03*
%TO.P,J2,9,Pin_9*%
%TO.N,GND*%
X112120000Y-77000000D03*
%TO.P,J2,10,Pin_10*%
%TO.N,NRST*%
X112120000Y-78270000D03*
%TD*%
D13*
%TO.P,SW1,*%
%TO.N,*%
X83010000Y-86400000D03*
X80800000Y-86400000D03*
X83010000Y-93700000D03*
X80800000Y-93700000D03*
D14*
%TO.P,SW1,1,A*%
%TO.N,+3.3V*%
X83660000Y-87800000D03*
%TO.P,SW1,2,B*%
%TO.N,Net-(SW1-B)*%
X83660000Y-90800000D03*
%TO.P,SW1,3,C*%
%TO.N,GND*%
X83660000Y-92300000D03*
%TD*%
D15*
%TO.P,D1,1,K*%
%TO.N,Net-(D1-K)*%
X96375000Y-103967500D03*
%TO.P,D1,2,A*%
%TO.N,LED_STATUS*%
X96375000Y-102392500D03*
%TD*%
D16*
%TO.P,D3,1,K*%
%TO.N,Net-(D3-K)*%
X125500000Y-97600000D03*
%TO.P,D3,2,A*%
%TO.N,+3.3V*%
X125500000Y-99175000D03*
%TD*%
D17*
%TO.P,C10,1*%
%TO.N,+3.3VA*%
X94875000Y-98890000D03*
%TO.P,C10,2*%
%TO.N,GND*%
X94875000Y-97930000D03*
%TD*%
D18*
%TO.P,R2,1*%
%TO.N,HSE_OUT*%
X93800000Y-95580000D03*
%TO.P,R2,2*%
%TO.N,Net-(C11-Pad1)*%
X93800000Y-96600000D03*
%TD*%
D17*
%TO.P,C12,1*%
%TO.N,HSE_IN*%
X93600000Y-94000000D03*
%TO.P,C12,2*%
%TO.N,GND*%
X93600000Y-93040000D03*
%TD*%
D19*
%TO.P,F1,1*%
%TO.N,Net-(D2-K)*%
X117750000Y-98312500D03*
%TO.P,F1,2*%
%TO.N,Net-(F1-Pad2)*%
X117750000Y-95512500D03*
%TD*%
D20*
%TO.P,U2,1,I/O1*%
%TO.N,USB_D-*%
X119250000Y-90475000D03*
%TO.P,U2,2,GND*%
%TO.N,GND*%
X120200000Y-90475000D03*
%TO.P,U2,3,I/O2*%
%TO.N,USB_Conn_D-*%
X121150000Y-90475000D03*
%TO.P,U2,4,I/O2*%
%TO.N,USB_Conn_D+*%
X121150000Y-88200000D03*
%TO.P,U2,5,VBUS*%
%TO.N,+5V*%
X120200000Y-88200000D03*
%TO.P,U2,6,I/O1*%
%TO.N,USB_D+*%
X119250000Y-88200000D03*
%TD*%
D17*
%TO.P,C9,1*%
%TO.N,+3.3VA*%
X93375000Y-98890000D03*
%TO.P,C9,2*%
%TO.N,GND*%
X93375000Y-97930000D03*
%TD*%
D21*
%TO.P,H4,1,1*%
%TO.N,GND*%
X82305419Y-117780419D03*
X83250000Y-115500000D03*
X83250000Y-120060838D03*
X85530419Y-114555419D03*
D22*
X85530419Y-117780419D03*
D21*
X85530419Y-121005419D03*
X87810838Y-115500000D03*
X87810838Y-120060838D03*
X88755419Y-117780419D03*
%TD*%
D23*
%TO.P,L1,1*%
%TO.N,+3.3V*%
X94345000Y-100430000D03*
%TO.P,L1,2*%
%TO.N,+3.3VA*%
X93375000Y-100430000D03*
%TD*%
D24*
%TO.P,R6,1*%
%TO.N,+3.3V*%
X116400000Y-101200000D03*
%TO.P,R6,2*%
%TO.N,Net-(MP2359DJ1-FB)*%
X116400000Y-102850000D03*
%TD*%
D21*
%TO.P,H1,1,1*%
%TO.N,GND*%
X122244581Y-78250000D03*
X123189162Y-75969581D03*
X123189162Y-80530419D03*
X125469581Y-75025000D03*
D22*
X125469581Y-78250000D03*
D21*
X125469581Y-81475000D03*
X127750000Y-75969581D03*
X127750000Y-80530419D03*
X128694581Y-78250000D03*
%TD*%
D25*
%TO.P,C3,1*%
%TO.N,+3.3V*%
X96875000Y-88430000D03*
%TO.P,C3,2*%
%TO.N,GND*%
X94975000Y-88430000D03*
%TD*%
D24*
%TO.P,R8,1*%
%TO.N,+3.3V*%
X118750000Y-101200000D03*
%TO.P,R8,2*%
%TO.N,Net-(MP2359DJ1-FB)*%
X118750000Y-102850000D03*
%TD*%
D26*
%TO.P,J4,1,Pin_1*%
%TO.N,+3.3V*%
X100325000Y-118300000D03*
D27*
%TO.P,J4,2,Pin_2*%
%TO.N,UART3_TX*%
X101575000Y-118300000D03*
%TO.P,J4,3,Pin_3*%
%TO.N,UART3_RX*%
X102825000Y-118300000D03*
%TO.P,J4,4,Pin_4*%
%TO.N,GND*%
X104075000Y-118300000D03*
%TD*%
D28*
%TO.P,C11,1*%
%TO.N,Net-(C11-Pad1)*%
X87760000Y-94400000D03*
%TO.P,C11,2*%
%TO.N,GND*%
X86800000Y-94400000D03*
%TD*%
D21*
%TO.P,H3,1,1*%
%TO.N,GND*%
X82305419Y-78280419D03*
X83250000Y-76000000D03*
X83250000Y-80560838D03*
X85530419Y-75055419D03*
D22*
X85530419Y-78280419D03*
D21*
X85530419Y-81505419D03*
X87810838Y-76000000D03*
X87810838Y-80560838D03*
X88755419Y-78280419D03*
%TD*%
D29*
%TO.P,C7,1*%
%TO.N,+3.3V*%
X108840000Y-91400000D03*
%TO.P,C7,2*%
%TO.N,GND*%
X109800000Y-91400000D03*
%TD*%
D21*
%TO.P,H2,1,1*%
%TO.N,GND*%
X122275000Y-117750000D03*
X123219581Y-115469581D03*
X123219581Y-120030419D03*
X125500000Y-114525000D03*
D22*
X125500000Y-117750000D03*
D21*
X125500000Y-120975000D03*
X127780419Y-115469581D03*
X127780419Y-120030419D03*
X128725000Y-117750000D03*
%TD*%
D30*
%TO.P,R7,1*%
%TO.N,Net-(MP2359DJ1-FB)*%
X120500000Y-102850000D03*
%TO.P,R7,2*%
%TO.N,GND*%
X120500000Y-101200000D03*
%TD*%
D31*
%TO.P,J5,6,Shield*%
%TO.N,unconnected-(J5-Shield-Pad6)_5*%
X129800000Y-85700000D03*
D32*
%TO.N,unconnected-(J5-Shield-Pad6)_2*%
X127350000Y-85800000D03*
D33*
%TO.N,unconnected-(J5-Shield-Pad6)_4*%
X129800000Y-87800000D03*
%TO.N,unconnected-(J5-Shield-Pad6)_1*%
X129800000Y-90200000D03*
D32*
%TO.N,unconnected-(J5-Shield-Pad6)*%
X127350000Y-92200000D03*
D31*
%TO.N,unconnected-(J5-Shield-Pad6)_3*%
X129800000Y-92300000D03*
D34*
%TO.P,J5,5,GND*%
%TO.N,GND*%
X127125000Y-87700000D03*
%TO.P,J5,4,ID*%
%TO.N,unconnected-(J5-ID-Pad4)*%
X127125000Y-88350000D03*
%TO.P,J5,3,D+*%
%TO.N,USB_Conn_D+*%
X127125000Y-89000000D03*
%TO.P,J5,2,D-*%
%TO.N,USB_Conn_D-*%
X127125000Y-89650000D03*
%TO.P,J5,1,VBUS*%
%TO.N,+5V*%
X127125000Y-90300000D03*
%TD*%
D35*
%TO.P,Y1,1,1*%
%TO.N,HSE_IN*%
X91800000Y-95400000D03*
%TO.P,Y1,2,2*%
%TO.N,GND*%
X91800000Y-93200000D03*
%TO.P,Y1,3,3*%
%TO.N,Net-(C11-Pad1)*%
X90100000Y-93200000D03*
%TO.P,Y1,4,4*%
%TO.N,GND*%
X90100000Y-95400000D03*
%TD*%
D36*
%TO.P,R9,1*%
%TO.N,+3.3V*%
X99575000Y-86600000D03*
%TO.P,R9,2*%
%TO.N,I2C1_SDA*%
X101225000Y-86600000D03*
%TD*%
%TO.P,R5,1*%
%TO.N,Net-(MP2359DJ1-EN)*%
X111950000Y-102850000D03*
%TO.P,R5,2*%
%TO.N,GND*%
X113600000Y-102850000D03*
%TD*%
D37*
%TO.P,L2,1*%
%TO.N,Net-(MP2359DJ1-SW)*%
X110500000Y-109250000D03*
%TO.P,L2,2*%
%TO.N,+3.3V*%
X110500000Y-111375000D03*
%TD*%
D29*
%TO.P,C8,1*%
%TO.N,+3.3V*%
X99145000Y-88930000D03*
%TO.P,C8,2*%
%TO.N,GND*%
X100105000Y-88930000D03*
%TD*%
D17*
%TO.P,C14,1*%
%TO.N,Net-(MP2359DJ1-BST)*%
X112500000Y-110250000D03*
%TO.P,C14,2*%
%TO.N,Net-(MP2359DJ1-SW)*%
X112500000Y-109290000D03*
%TD*%
D38*
%TO.P,R1,1*%
%TO.N,BOOT0*%
X87310000Y-90800000D03*
%TO.P,R1,2*%
%TO.N,Net-(SW1-B)*%
X86290000Y-90800000D03*
%TD*%
D39*
%TO.P,MP2359DJ1,1,BST*%
%TO.N,Net-(MP2359DJ1-BST)*%
X114887500Y-107000000D03*
%TO.P,MP2359DJ1,2,GND*%
%TO.N,GND*%
X114887500Y-106050000D03*
%TO.P,MP2359DJ1,3,FB*%
%TO.N,Net-(MP2359DJ1-FB)*%
X114887500Y-105100000D03*
%TO.P,MP2359DJ1,4,EN*%
%TO.N,Net-(MP2359DJ1-EN)*%
X112612500Y-105100000D03*
%TO.P,MP2359DJ1,5,IN*%
%TO.N,Net-(MP2359DJ1-IN)*%
X112612500Y-106050000D03*
%TO.P,MP2359DJ1,6,SW*%
%TO.N,Net-(MP2359DJ1-SW)*%
X112612500Y-107000000D03*
%TD*%
D24*
%TO.P,R4,1*%
%TO.N,Net-(MP2359DJ1-IN)*%
X112500000Y-98025000D03*
%TO.P,R4,2*%
%TO.N,Net-(MP2359DJ1-EN)*%
X112500000Y-99675000D03*
%TD*%
D25*
%TO.P,C2,1*%
%TO.N,GND*%
X108200000Y-105630000D03*
%TO.P,C2,2*%
%TO.N,Net-(U1-VCAP_1)*%
X106300000Y-105630000D03*
%TD*%
D40*
%TO.P,D2,1,K*%
%TO.N,Net-(D2-K)*%
X121000000Y-98562500D03*
%TO.P,D2,2,A*%
%TO.N,+5V*%
X121000000Y-95262500D03*
%TD*%
D41*
%TO.P,R10,1*%
%TO.N,+3.3V*%
X104800000Y-86600000D03*
%TO.P,R10,2*%
%TO.N,I2C1_SCL*%
X103150000Y-86600000D03*
%TD*%
D42*
%TO.P,J3,1,Pin_1*%
%TO.N,+3.3V*%
X104075000Y-78500000D03*
D27*
%TO.P,J3,2,Pin_2*%
%TO.N,I2C1_SCL*%
X102825000Y-78500000D03*
%TO.P,J3,3,Pin_3*%
%TO.N,I2C1_SDA*%
X101575000Y-78500000D03*
%TO.P,J3,4,Pin_4*%
%TO.N,GND*%
X100325000Y-78500000D03*
%TD*%
D43*
%TO.P,Q1,1,G*%
%TO.N,GND*%
X120250000Y-105500000D03*
%TO.P,Q1,2,S*%
%TO.N,Net-(D2-K)*%
X118350000Y-105500000D03*
%TO.P,Q1,3,D*%
%TO.N,+12V*%
X119300000Y-107375000D03*
%TD*%
D24*
%TO.P,R11,1*%
%TO.N,Net-(D3-K)*%
X127750000Y-97600000D03*
%TO.P,R11,2*%
%TO.N,GND*%
X127750000Y-99250000D03*
%TD*%
D28*
%TO.P,C5,1*%
%TO.N,+3.3V*%
X100375000Y-104430000D03*
%TO.P,C5,2*%
%TO.N,GND*%
X99415000Y-104430000D03*
%TD*%
D25*
%TO.P,C1,1*%
%TO.N,GND*%
X113350000Y-92200000D03*
%TO.P,C1,2*%
%TO.N,Net-(U1-VCAP_2)*%
X111450000Y-92200000D03*
%TD*%
D37*
%TO.P,FB1,1*%
%TO.N,Net-(F1-Pad2)*%
X114750000Y-96000000D03*
%TO.P,FB1,2*%
%TO.N,Net-(MP2359DJ1-IN)*%
X114750000Y-98125000D03*
%TD*%
D30*
%TO.P,R3,1*%
%TO.N,Net-(D1-K)*%
X94625000Y-104005000D03*
%TO.P,R3,2*%
%TO.N,GND*%
X94625000Y-102355000D03*
%TD*%
D28*
%TO.P,C15,1*%
%TO.N,+3.3V*%
X122980000Y-101100000D03*
%TO.P,C15,2*%
%TO.N,Net-(MP2359DJ1-FB)*%
X122020000Y-101100000D03*
%TD*%
D44*
%TO.P,C4,1*%
%TO.N,+3.3V*%
X95125000Y-92930000D03*
%TO.P,C4,2*%
%TO.N,GND*%
X95125000Y-93890000D03*
%TD*%
D45*
%TO.P,C16,1*%
%TO.N,GND*%
X123250000Y-97612500D03*
%TO.P,C16,2*%
%TO.N,+3.3V*%
X123250000Y-99162500D03*
%TD*%
D44*
%TO.P,C6,1*%
%TO.N,+3.3V*%
X108125000Y-102930000D03*
%TO.P,C6,2*%
%TO.N,GND*%
X108125000Y-103890000D03*
%TD*%
D29*
%TO.P,C13,1*%
%TO.N,Net-(MP2359DJ1-IN)*%
X114290000Y-99925000D03*
%TO.P,C13,2*%
%TO.N,GND*%
X115250000Y-99925000D03*
%TD*%
D46*
%TO.P,J1,1,Pin_1*%
%TO.N,+12V*%
X125550000Y-108100000D03*
D47*
%TO.P,J1,2,Pin_2*%
%TO.N,GND*%
X125550000Y-104600000D03*
%TD*%
D48*
%TO.P,U1,1,VBAT*%
%TO.N,+3.3V*%
X97250000Y-92930000D03*
%TO.P,U1,2,PC13*%
%TO.N,unconnected-(U1-PC13-Pad2)*%
X97250000Y-93430000D03*
%TO.P,U1,3,PC14*%
%TO.N,unconnected-(U1-PC14-Pad3)*%
X97250000Y-93930000D03*
%TO.P,U1,4,PC15*%
%TO.N,unconnected-(U1-PC15-Pad4)*%
X97250000Y-94430000D03*
%TO.P,U1,5,PH0*%
%TO.N,HSE_IN*%
X97250000Y-94930000D03*
%TO.P,U1,6,PH1*%
%TO.N,HSE_OUT*%
X97250000Y-95430000D03*
%TO.P,U1,7,NRST*%
%TO.N,NRST*%
X97250000Y-95930000D03*
%TO.P,U1,8,PC0*%
%TO.N,unconnected-(U1-PC0-Pad8)*%
X97250000Y-96430000D03*
%TO.P,U1,9,PC1*%
%TO.N,unconnected-(U1-PC1-Pad9)*%
X97250000Y-96930000D03*
%TO.P,U1,10,PC2*%
%TO.N,unconnected-(U1-PC2-Pad10)*%
X97250000Y-97430000D03*
%TO.P,U1,11,PC3*%
%TO.N,unconnected-(U1-PC3-Pad11)*%
X97250000Y-97930000D03*
%TO.P,U1,12,VSSA*%
%TO.N,GND*%
X97250000Y-98430000D03*
%TO.P,U1,13,VDDA*%
%TO.N,+3.3VA*%
X97250000Y-98930000D03*
%TO.P,U1,14,PA0*%
%TO.N,unconnected-(U1-PA0-Pad14)*%
X97250000Y-99430000D03*
%TO.P,U1,15,PA1*%
%TO.N,unconnected-(U1-PA1-Pad15)*%
X97250000Y-99930000D03*
%TO.P,U1,16,PA2*%
%TO.N,LED_STATUS*%
X97250000Y-100430000D03*
D49*
%TO.P,U1,17,PA3*%
%TO.N,unconnected-(U1-PA3-Pad17)*%
X99175000Y-102355000D03*
%TO.P,U1,18,VSS*%
%TO.N,GND*%
X99675000Y-102355000D03*
%TO.P,U1,19,VDD*%
%TO.N,+3.3V*%
X100175000Y-102355000D03*
%TO.P,U1,20,PA4*%
%TO.N,unconnected-(U1-PA4-Pad20)*%
X100675000Y-102355000D03*
%TO.P,U1,21,PA5*%
%TO.N,unconnected-(U1-PA5-Pad21)*%
X101175000Y-102355000D03*
%TO.P,U1,22,PA6*%
%TO.N,unconnected-(U1-PA6-Pad22)*%
X101675000Y-102355000D03*
%TO.P,U1,23,PA7*%
%TO.N,unconnected-(U1-PA7-Pad23)*%
X102175000Y-102355000D03*
%TO.P,U1,24,PC4*%
%TO.N,unconnected-(U1-PC4-Pad24)*%
X102675000Y-102355000D03*
%TO.P,U1,25,PC5*%
%TO.N,unconnected-(U1-PC5-Pad25)*%
X103175000Y-102355000D03*
%TO.P,U1,26,PB0*%
%TO.N,unconnected-(U1-PB0-Pad26)*%
X103675000Y-102355000D03*
%TO.P,U1,27,PB1*%
%TO.N,unconnected-(U1-PB1-Pad27)*%
X104175000Y-102355000D03*
%TO.P,U1,28,PB2*%
%TO.N,unconnected-(U1-PB2-Pad28)*%
X104675000Y-102355000D03*
%TO.P,U1,29,PB10*%
%TO.N,UART3_TX*%
X105175000Y-102355000D03*
%TO.P,U1,30,PB11*%
%TO.N,UART3_RX*%
X105675000Y-102355000D03*
%TO.P,U1,31,VCAP_1*%
%TO.N,Net-(U1-VCAP_1)*%
X106175000Y-102355000D03*
%TO.P,U1,32,VDD*%
%TO.N,+3.3V*%
X106675000Y-102355000D03*
D48*
%TO.P,U1,33,PB12*%
%TO.N,unconnected-(U1-PB12-Pad33)*%
X108600000Y-100430000D03*
%TO.P,U1,34,PB13*%
%TO.N,unconnected-(U1-PB13-Pad34)*%
X108600000Y-99930000D03*
%TO.P,U1,35,PB14*%
%TO.N,unconnected-(U1-PB14-Pad35)*%
X108600000Y-99430000D03*
%TO.P,U1,36,PB15*%
%TO.N,unconnected-(U1-PB15-Pad36)*%
X108600000Y-98930000D03*
%TO.P,U1,37,PC6*%
%TO.N,unconnected-(U1-PC6-Pad37)*%
X108600000Y-98430000D03*
%TO.P,U1,38,PC7*%
%TO.N,unconnected-(U1-PC7-Pad38)*%
X108600000Y-97930000D03*
%TO.P,U1,39,PC8*%
%TO.N,unconnected-(U1-PC8-Pad39)*%
X108600000Y-97430000D03*
%TO.P,U1,40,PC9*%
%TO.N,unconnected-(U1-PC9-Pad40)*%
X108600000Y-96930000D03*
%TO.P,U1,41,PA8*%
%TO.N,unconnected-(U1-PA8-Pad41)*%
X108600000Y-96430000D03*
%TO.P,U1,42,PA9*%
%TO.N,unconnected-(U1-PA9-Pad42)*%
X108600000Y-95930000D03*
%TO.P,U1,43,PA10*%
%TO.N,unconnected-(U1-PA10-Pad43)*%
X108600000Y-95430000D03*
%TO.P,U1,44,PA11*%
%TO.N,USB_D-*%
X108600000Y-94930000D03*
%TO.P,U1,45,PA12*%
%TO.N,USB_D+*%
X108600000Y-94430000D03*
%TO.P,U1,46,PA13*%
%TO.N,SWDIO*%
X108600000Y-93930000D03*
%TO.P,U1,47,VCAP_2*%
%TO.N,Net-(U1-VCAP_2)*%
X108600000Y-93430000D03*
%TO.P,U1,48,VDD*%
%TO.N,+3.3V*%
X108600000Y-92930000D03*
D49*
%TO.P,U1,49,PA14*%
%TO.N,SECLK*%
X106675000Y-91005000D03*
%TO.P,U1,50,PA15*%
%TO.N,unconnected-(U1-PA15-Pad50)*%
X106175000Y-91005000D03*
%TO.P,U1,51,PC10*%
%TO.N,unconnected-(U1-PC10-Pad51)*%
X105675000Y-91005000D03*
%TO.P,U1,52,PC11*%
%TO.N,unconnected-(U1-PC11-Pad52)*%
X105175000Y-91005000D03*
%TO.P,U1,53,PC12*%
%TO.N,unconnected-(U1-PC12-Pad53)*%
X104675000Y-91005000D03*
%TO.P,U1,54,PD2*%
%TO.N,unconnected-(U1-PD2-Pad54)*%
X104175000Y-91005000D03*
%TO.P,U1,55,PB3*%
%TO.N,SWO*%
X103675000Y-91005000D03*
%TO.P,U1,56,PB4*%
%TO.N,unconnected-(U1-PB4-Pad56)*%
X103175000Y-91005000D03*
%TO.P,U1,57,PB5*%
%TO.N,unconnected-(U1-PB5-Pad57)*%
X102675000Y-91005000D03*
%TO.P,U1,58,PB6*%
%TO.N,I2C1_SCL*%
X102175000Y-91005000D03*
%TO.P,U1,59,PB7*%
%TO.N,I2C1_SDA*%
X101675000Y-91005000D03*
%TO.P,U1,60,BOOT0*%
%TO.N,BOOT0*%
X101175000Y-91005000D03*
%TO.P,U1,61,PB8*%
%TO.N,unconnected-(U1-PB8-Pad61)*%
X100675000Y-91005000D03*
%TO.P,U1,62,PB9*%
%TO.N,unconnected-(U1-PB9-Pad62)*%
X100175000Y-91005000D03*
%TO.P,U1,63,VSS*%
%TO.N,GND*%
X99675000Y-91005000D03*
%TO.P,U1,64,VDD*%
%TO.N,+3.3V*%
X99175000Y-91005000D03*
%TD*%
D50*
%TO.N,NRST*%
X107600000Y-83600000D03*
%TO.N,+3.3V*%
X117200000Y-75800000D03*
%TO.N,GND*%
X115800000Y-75800000D03*
X114600000Y-75800000D03*
X111000000Y-77000000D03*
%TO.N,NRST*%
X106400000Y-93200000D03*
%TO.N,GND*%
X93600000Y-92200000D03*
%TO.N,+5V*%
X122800000Y-87200000D03*
X123400000Y-90400000D03*
%TO.N,GND*%
X109000000Y-104000000D03*
X100200000Y-88200000D03*
%TO.N,+3.3V*%
X123600000Y-100200000D03*
X125400000Y-100200000D03*
%TO.N,GND*%
X109800000Y-90600000D03*
X116000000Y-99000000D03*
X113600000Y-101800000D03*
X109200000Y-105600000D03*
X93600000Y-102400000D03*
X89000000Y-95400000D03*
X91800000Y-92000000D03*
X100400000Y-79800000D03*
X113400000Y-90800000D03*
X120200000Y-91600000D03*
X116200000Y-106800000D03*
X116200000Y-105800000D03*
X119400000Y-104600000D03*
X120200000Y-104200000D03*
X121200000Y-104600000D03*
X120000000Y-100200000D03*
X121000000Y-100200000D03*
X127800000Y-100200000D03*
X128800000Y-99400000D03*
X124200000Y-97600000D03*
X122800000Y-96400000D03*
X125200000Y-86600000D03*
X124200000Y-86600000D03*
X124200000Y-87600000D03*
X125200000Y-87600000D03*
X104000000Y-117200000D03*
X92600000Y-98000000D03*
X95000000Y-97000000D03*
X98500000Y-104500000D03*
X94000000Y-88500000D03*
X84900000Y-92250000D03*
X86000000Y-94400000D03*
%TO.N,+3.3V*%
X118750000Y-100250000D03*
X116500000Y-100250000D03*
X111500000Y-111500000D03*
X110500000Y-112250000D03*
X109500000Y-111500000D03*
X109000000Y-103000000D03*
X95000000Y-92000000D03*
X108750000Y-90500000D03*
X104000000Y-79750000D03*
X99500000Y-85500000D03*
X100250000Y-117250000D03*
X101250000Y-104500000D03*
X95250000Y-100500000D03*
X84900000Y-87750000D03*
X96750000Y-87250000D03*
X105750000Y-86600000D03*
D51*
%TO.N,Net-(D2-K)*%
X117600000Y-100000000D03*
X117600000Y-103600000D03*
%TD*%
D52*
%TO.N,NRST*%
X107600000Y-83600000D02*
X112120000Y-79080000D01*
X112120000Y-79080000D02*
X112120000Y-78270000D01*
D53*
%TO.N,+3.3V*%
X117200000Y-77000000D02*
X117200000Y-75800000D01*
%TO.N,GND*%
X115800000Y-75800000D02*
X114600000Y-75800000D01*
X115930000Y-77000000D02*
X115930000Y-75930000D01*
X115930000Y-75930000D02*
X115800000Y-75800000D01*
X114660000Y-77000000D02*
X114660000Y-75860000D01*
X114660000Y-75860000D02*
X114600000Y-75800000D01*
X111000000Y-77000000D02*
X112120000Y-77000000D01*
D52*
%TO.N,NRST*%
X111990000Y-78400000D02*
X112120000Y-78270000D01*
X105400000Y-95800000D02*
X105400000Y-94200000D01*
X105400000Y-94200000D02*
X106400000Y-93200000D01*
%TO.N,SWO*%
X103675000Y-91005000D02*
X103675000Y-90126880D01*
X103675000Y-90126880D02*
X114660000Y-79141880D01*
X114660000Y-79141880D02*
X114660000Y-78270000D01*
%TO.N,SECLK*%
X106675000Y-91005000D02*
X106675000Y-88925000D01*
X106675000Y-88925000D02*
X115930000Y-79670000D01*
X115930000Y-79670000D02*
X115930000Y-78270000D01*
%TO.N,SWDIO*%
X108600000Y-93930000D02*
X107330000Y-93930000D01*
X107200000Y-91800000D02*
X108000000Y-91000000D01*
X107330000Y-93930000D02*
X107200000Y-93800000D01*
X107200000Y-93800000D02*
X107200000Y-91800000D01*
X108000000Y-91000000D02*
X108000000Y-89600000D01*
X108000000Y-89600000D02*
X117200000Y-80400000D01*
X117200000Y-80400000D02*
X117200000Y-78270000D01*
D53*
%TO.N,Net-(SW1-B)*%
X86290000Y-90800000D02*
X83660000Y-90800000D01*
%TO.N,+3.3V*%
X100325000Y-118300000D02*
X100325000Y-117325000D01*
X100325000Y-117325000D02*
X100250000Y-117250000D01*
%TO.N,GND*%
X104075000Y-118300000D02*
X104075000Y-117275000D01*
X104075000Y-117275000D02*
X104000000Y-117200000D01*
X93600000Y-93040000D02*
X94086734Y-93040000D01*
X94086734Y-93040000D02*
X94936734Y-93890000D01*
X94936734Y-93890000D02*
X95125000Y-93890000D01*
X93600000Y-93040000D02*
X93600000Y-92200000D01*
X115250000Y-99925000D02*
X115250000Y-99750000D01*
X115250000Y-99750000D02*
X116000000Y-99000000D01*
%TO.N,+5V*%
X122800000Y-86400000D02*
X122800000Y-87200000D01*
X123400000Y-90400000D02*
X125000000Y-90400000D01*
X120200000Y-88200000D02*
X120200000Y-86400000D01*
X120200000Y-86400000D02*
X122800000Y-86400000D01*
X125000000Y-90400000D02*
X125100000Y-90300000D01*
%TO.N,GND*%
X109000000Y-104000000D02*
X109000000Y-105400000D01*
X109000000Y-105400000D02*
X109200000Y-105600000D01*
X108125000Y-103890000D02*
X108890000Y-103890000D01*
X108890000Y-103890000D02*
X109000000Y-104000000D01*
X100200000Y-88200000D02*
X100200000Y-88835000D01*
X100200000Y-88835000D02*
X100105000Y-88930000D01*
D52*
%TO.N,NRST*%
X105270000Y-95930000D02*
X105400000Y-95800000D01*
X104570000Y-95930000D02*
X105270000Y-95930000D01*
D54*
%TO.N,USB_D-*%
X109782001Y-94910500D02*
X113191453Y-94910500D01*
%TO.N,USB_D+*%
X108600000Y-94430000D02*
X109762501Y-94430000D01*
%TO.N,USB_D-*%
X108600000Y-94930000D02*
X109762501Y-94930000D01*
%TO.N,USB_D+*%
X109782001Y-94449500D02*
X113000500Y-94449500D01*
%TO.N,USB_D-*%
X109762501Y-94930000D02*
X109782001Y-94910500D01*
X117626953Y-90475000D02*
X119250000Y-90475000D01*
X113191453Y-94910500D02*
X117626953Y-90475000D01*
%TO.N,USB_D+*%
X109762501Y-94430000D02*
X109782001Y-94449500D01*
X113000500Y-94449500D02*
X119250000Y-88200000D01*
D53*
%TO.N,+3.3V*%
X123600000Y-100200000D02*
X123600000Y-99512500D01*
X123600000Y-99512500D02*
X123250000Y-99162500D01*
X125400000Y-100200000D02*
X125400000Y-99275000D01*
X125400000Y-99275000D02*
X125500000Y-99175000D01*
%TO.N,Net-(MP2359DJ1-FB)*%
X116400000Y-102850000D02*
X116750000Y-102850000D01*
X116750000Y-102850000D02*
X116825000Y-102775000D01*
X116825000Y-102775000D02*
X118675000Y-102775000D01*
X118675000Y-102775000D02*
X118750000Y-102850000D01*
%TO.N,GND*%
X109800000Y-91400000D02*
X109800000Y-90600000D01*
D55*
X113600000Y-102850000D02*
X113600000Y-101800000D01*
X108200000Y-105630000D02*
X109170000Y-105630000D01*
X109170000Y-105630000D02*
X109200000Y-105600000D01*
X98500000Y-104500000D02*
X99345000Y-104500000D01*
X99345000Y-104500000D02*
X99415000Y-104430000D01*
X93600000Y-102400000D02*
X94580000Y-102400000D01*
X94580000Y-102400000D02*
X94625000Y-102355000D01*
X95000000Y-97000000D02*
X95000000Y-97805000D01*
X95000000Y-97805000D02*
X94875000Y-97930000D01*
X92600000Y-98000000D02*
X93305000Y-98000000D01*
X93305000Y-98000000D02*
X93375000Y-97930000D01*
X89000000Y-95400000D02*
X90100000Y-95400000D01*
X91800000Y-92000000D02*
X91800000Y-93200000D01*
X86000000Y-94400000D02*
X86800000Y-94400000D01*
X83660000Y-92300000D02*
X84850000Y-92300000D01*
X84850000Y-92300000D02*
X84900000Y-92250000D01*
X94000000Y-88500000D02*
X94905000Y-88500000D01*
X94905000Y-88500000D02*
X94975000Y-88430000D01*
X100400000Y-79800000D02*
X100400000Y-78575000D01*
X100400000Y-78575000D02*
X100325000Y-78500000D01*
X113400000Y-90800000D02*
X113400000Y-92150000D01*
X113400000Y-92150000D02*
X113350000Y-92200000D01*
X120200000Y-91600000D02*
X120200000Y-90475000D01*
X124200000Y-87600000D02*
X125200000Y-86600000D01*
X125200000Y-87600000D02*
X125225000Y-87575000D01*
X125225000Y-87575000D02*
X127125000Y-87575000D01*
X125200000Y-86600000D02*
X125200000Y-87600000D01*
X124200000Y-86600000D02*
X124200000Y-87600000D01*
X125200000Y-87600000D02*
X124200000Y-87600000D01*
X124200000Y-86600000D02*
X125200000Y-86600000D01*
X123000000Y-96400000D02*
X123200000Y-96600000D01*
X123200000Y-96600000D02*
X124200000Y-97600000D01*
X123250000Y-97612500D02*
X123262500Y-97600000D01*
X123262500Y-97600000D02*
X123262500Y-96662500D01*
X123262500Y-96662500D02*
X123200000Y-96600000D01*
X124200000Y-97600000D02*
X123262500Y-97600000D01*
X122800000Y-96400000D02*
X123000000Y-96400000D01*
X128800000Y-99400000D02*
X128600000Y-99400000D01*
X128600000Y-99400000D02*
X127800000Y-100200000D01*
X127750000Y-99250000D02*
X128650000Y-99250000D01*
X128650000Y-99250000D02*
X128800000Y-99400000D01*
X127800000Y-100200000D02*
X127800000Y-99300000D01*
X127800000Y-99300000D02*
X127750000Y-99250000D01*
X121000000Y-100700000D02*
X120850000Y-100850000D01*
X120850000Y-100850000D02*
X120500000Y-101200000D01*
X120000000Y-100200000D02*
X120200000Y-100200000D01*
X120200000Y-100200000D02*
X120850000Y-100850000D01*
X121000000Y-100200000D02*
X121000000Y-100700000D01*
X120000000Y-100200000D02*
X121000000Y-100200000D01*
X120000000Y-100200000D02*
X120000000Y-100700000D01*
X120000000Y-100700000D02*
X120500000Y-101200000D01*
X120200000Y-104200000D02*
X120800000Y-104200000D01*
X120800000Y-104200000D02*
X121200000Y-104600000D01*
X120200000Y-104200000D02*
X119800000Y-104200000D01*
X119800000Y-104200000D02*
X119400000Y-104600000D01*
X119400000Y-104600000D02*
X121200000Y-104600000D01*
X120250000Y-105500000D02*
X120250000Y-104250000D01*
X120250000Y-104250000D02*
X120200000Y-104200000D01*
X116200000Y-106800000D02*
X116200000Y-105800000D01*
X114887500Y-106050000D02*
X115950000Y-106050000D01*
X115950000Y-106050000D02*
X116200000Y-105800000D01*
%TO.N,+3.3V*%
X110500000Y-112250000D02*
X110500000Y-111375000D01*
X111500000Y-111500000D02*
X109500000Y-111500000D01*
X116500000Y-100250000D02*
X116500000Y-101100000D01*
X116500000Y-101100000D02*
X116400000Y-101200000D01*
X118750000Y-100250000D02*
X118750000Y-101200000D01*
D52*
X108125000Y-102930000D02*
X108930000Y-102930000D01*
X108930000Y-102930000D02*
X109000000Y-103000000D01*
X108840000Y-91400000D02*
X108840000Y-90590000D01*
X108840000Y-90590000D02*
X108750000Y-90500000D01*
X100375000Y-104430000D02*
X101180000Y-104430000D01*
X101180000Y-104430000D02*
X101250000Y-104500000D01*
D53*
X94345000Y-100430000D02*
X95180000Y-100430000D01*
X95180000Y-100430000D02*
X95250000Y-100500000D01*
X95000000Y-92000000D02*
X95000000Y-92805000D01*
X95000000Y-92805000D02*
X95125000Y-92930000D01*
X83660000Y-87800000D02*
X84850000Y-87800000D01*
X84850000Y-87800000D02*
X84900000Y-87750000D01*
D52*
X96875000Y-88430000D02*
X96875000Y-87375000D01*
X96875000Y-87375000D02*
X96750000Y-87250000D01*
D53*
X104800000Y-86600000D02*
X105750000Y-86600000D01*
X104075000Y-78500000D02*
X104075000Y-79675000D01*
X104075000Y-79675000D02*
X104000000Y-79750000D01*
X99575000Y-86600000D02*
X99575000Y-85575000D01*
X99575000Y-85575000D02*
X99500000Y-85500000D01*
D52*
%TO.N,NRST*%
X97250000Y-95930000D02*
X104570000Y-95930000D01*
%TO.N,Net-(C11-Pad1)*%
X87800000Y-97000000D02*
X93000000Y-97000000D01*
%TO.N,+3.3V*%
X95125000Y-92930000D02*
X97250000Y-92930000D01*
%TO.N,BOOT0*%
X98400000Y-92400000D02*
X96800000Y-90800000D01*
X101175000Y-92225000D02*
X101000000Y-92400000D01*
X101175000Y-91005000D02*
X101175000Y-92225000D01*
X101000000Y-92400000D02*
X98400000Y-92400000D01*
X96800000Y-90800000D02*
X87310000Y-90800000D01*
%TO.N,Net-(U1-VCAP_2)*%
X111070000Y-93430000D02*
X111450000Y-93050000D01*
X111450000Y-93050000D02*
X111450000Y-92200000D01*
X108600000Y-93430000D02*
X111070000Y-93430000D01*
%TO.N,GND*%
X90645000Y-95945000D02*
X90100000Y-95400000D01*
X99675000Y-102355000D02*
X99675000Y-104170000D01*
D55*
X120250000Y-105500000D02*
X124650000Y-105500000D01*
D52*
X99675000Y-91005000D02*
X99675000Y-89406846D01*
X94921846Y-97930000D02*
X94875000Y-97930000D01*
X100105000Y-88976846D02*
X100105000Y-88930000D01*
X95421846Y-98430000D02*
X94921846Y-97930000D01*
D55*
X124650000Y-105500000D02*
X125550000Y-104600000D01*
D52*
X99675000Y-89406846D02*
X100105000Y-88976846D01*
X99675000Y-104170000D02*
X99415000Y-104430000D01*
X97250000Y-98430000D02*
X95421846Y-98430000D01*
%TO.N,Net-(U1-VCAP_1)*%
X106175000Y-105505000D02*
X106175000Y-102355000D01*
X106300000Y-105630000D02*
X106175000Y-105505000D01*
%TO.N,+3.3V*%
X108600000Y-92930000D02*
X108600000Y-91640000D01*
X107550000Y-102355000D02*
X108125000Y-102930000D01*
D53*
X122980000Y-99432500D02*
X123250000Y-99162500D01*
D52*
X106675000Y-102355000D02*
X107550000Y-102355000D01*
D53*
X118750000Y-101200000D02*
X116400000Y-101200000D01*
D52*
X100175000Y-104230000D02*
X100375000Y-104430000D01*
X99175000Y-91005000D02*
X99175000Y-88960000D01*
D55*
X125487500Y-99162500D02*
X125500000Y-99175000D01*
D52*
X96875000Y-88430000D02*
X98645000Y-88430000D01*
D55*
X123250000Y-99162500D02*
X125487500Y-99162500D01*
D53*
X122980000Y-101100000D02*
X122980000Y-99432500D01*
D52*
X98645000Y-88430000D02*
X99145000Y-88930000D01*
X100175000Y-102355000D02*
X100175000Y-104230000D01*
X108600000Y-91640000D02*
X108840000Y-91400000D01*
X99175000Y-88960000D02*
X99145000Y-88930000D01*
%TO.N,+3.3VA*%
X97250000Y-98930000D02*
X94915000Y-98930000D01*
X94915000Y-98930000D02*
X94875000Y-98890000D01*
X93375000Y-98890000D02*
X93375000Y-100430000D01*
X93375000Y-98890000D02*
X94875000Y-98890000D01*
%TO.N,Net-(C11-Pad1)*%
X90165000Y-93135000D02*
X90100000Y-93200000D01*
X93800000Y-96600000D02*
X93400000Y-96600000D01*
X93400000Y-96600000D02*
X93000000Y-97000000D01*
X87800000Y-97000000D02*
X87760000Y-96960000D01*
X90100000Y-93200000D02*
X88960000Y-93200000D01*
X88960000Y-93200000D02*
X87760000Y-94400000D01*
X87760000Y-96960000D02*
X87760000Y-94400000D01*
%TO.N,HSE_IN*%
X92270000Y-94930000D02*
X91800000Y-95400000D01*
X97250000Y-94930000D02*
X93600000Y-94930000D01*
X93600000Y-94930000D02*
X92270000Y-94930000D01*
X93600000Y-94000000D02*
X93600000Y-94930000D01*
D53*
%TO.N,Net-(MP2359DJ1-IN)*%
X112612500Y-106050000D02*
X113274999Y-106050000D01*
D55*
X112600000Y-98125000D02*
X112500000Y-98025000D01*
D53*
X114290000Y-100490000D02*
X114290000Y-99925000D01*
D55*
X114290000Y-98585000D02*
X114750000Y-98125000D01*
D53*
X113725000Y-105599999D02*
X113725000Y-104675000D01*
D55*
X114750000Y-98125000D02*
X112600000Y-98125000D01*
X114290000Y-99925000D02*
X114290000Y-98585000D01*
D53*
X114850000Y-103550000D02*
X114850000Y-101050000D01*
X113725000Y-104675000D02*
X114850000Y-103550000D01*
X114850000Y-101050000D02*
X114290000Y-100490000D01*
X113274999Y-106050000D02*
X113725000Y-105599999D01*
D55*
%TO.N,Net-(MP2359DJ1-SW)*%
X110800000Y-107000000D02*
X112612500Y-107000000D01*
X110500000Y-107300000D02*
X110800000Y-107000000D01*
X112500000Y-107112500D02*
X112612500Y-107000000D01*
X110500000Y-109250000D02*
X110500000Y-107300000D01*
X112500000Y-109290000D02*
X112500000Y-107112500D01*
%TO.N,Net-(MP2359DJ1-BST)*%
X112500000Y-110250000D02*
X112883503Y-110250000D01*
X114800000Y-110200000D02*
X114887500Y-110112500D01*
X112883503Y-110250000D02*
X112933503Y-110200000D01*
X112933503Y-110200000D02*
X114800000Y-110200000D01*
X114887500Y-110112500D02*
X114887500Y-107000000D01*
D53*
%TO.N,Net-(MP2359DJ1-FB)*%
X116400000Y-103587500D02*
X116400000Y-102850000D01*
D55*
X118750000Y-102850000D02*
X120500000Y-102850000D01*
D53*
X114887500Y-105100000D02*
X116400000Y-103587500D01*
X121600000Y-102600000D02*
X121350000Y-102850000D01*
X121350000Y-102850000D02*
X120500000Y-102850000D01*
X122020000Y-101780000D02*
X121600000Y-102200000D01*
X122020000Y-101100000D02*
X122020000Y-101780000D01*
X121600000Y-102200000D02*
X121600000Y-102600000D01*
D52*
%TO.N,LED_STATUS*%
X96375000Y-101305000D02*
X97250000Y-100430000D01*
X96375000Y-102392500D02*
X96375000Y-101305000D01*
D53*
%TO.N,Net-(D1-K)*%
X94662500Y-103967500D02*
X94625000Y-104005000D01*
X96375000Y-103967500D02*
X94662500Y-103967500D01*
%TO.N,+5V*%
X124937500Y-95262500D02*
X121000000Y-95262500D01*
X125000000Y-95200000D02*
X124937500Y-95262500D01*
D55*
%TO.N,Net-(D2-K)*%
X118350000Y-105500000D02*
X117600000Y-104750000D01*
X117600000Y-98462500D02*
X117750000Y-98312500D01*
X117600000Y-104750000D02*
X117600000Y-104400000D01*
X117600000Y-100000000D02*
X117600000Y-98462500D01*
X117750000Y-98312500D02*
X120750000Y-98312500D01*
X120750000Y-98312500D02*
X121000000Y-98562500D01*
X117600000Y-104400000D02*
X117600000Y-103600000D01*
%TO.N,Net-(D3-K)*%
X125500000Y-97600000D02*
X127750000Y-97600000D01*
D52*
%TO.N,Net-(F1-Pad2)*%
X115237500Y-95512500D02*
X114750000Y-96000000D01*
X117750000Y-95512500D02*
X115237500Y-95512500D01*
D55*
%TO.N,+12V*%
X124825000Y-107375000D02*
X125550000Y-108100000D01*
X119300000Y-107375000D02*
X124825000Y-107375000D01*
D52*
%TO.N,I2C1_SCL*%
X102825000Y-85625000D02*
X102825000Y-78500000D01*
X103150000Y-85950000D02*
X102825000Y-85625000D01*
X102175000Y-91005000D02*
X102175000Y-89825000D01*
X102175000Y-89825000D02*
X103150000Y-88850000D01*
X103150000Y-88850000D02*
X103150000Y-86600000D01*
X103150000Y-86600000D02*
X103150000Y-85950000D01*
%TO.N,I2C1_SDA*%
X101225000Y-86600000D02*
X101225000Y-85975000D01*
X101225000Y-85975000D02*
X101575000Y-85625000D01*
X101225000Y-86600000D02*
X101225000Y-88425000D01*
X101225000Y-88425000D02*
X101675000Y-88875000D01*
X101575000Y-85625000D02*
X101575000Y-78500000D01*
X101675000Y-88875000D02*
X101675000Y-91005000D01*
%TO.N,UART3_TX*%
X105175000Y-103425000D02*
X105175000Y-102355000D01*
X101575000Y-107025000D02*
X105175000Y-103425000D01*
X101575000Y-118300000D02*
X101575000Y-107025000D01*
%TO.N,UART3_RX*%
X102825000Y-106775000D02*
X105675000Y-103925000D01*
X105675000Y-103925000D02*
X105675000Y-102355000D01*
X102825000Y-118300000D02*
X102825000Y-106775000D01*
D55*
%TO.N,Net-(MP2359DJ1-EN)*%
X111950000Y-102850000D02*
X111950000Y-104437500D01*
X111950000Y-104437500D02*
X112612500Y-105100000D01*
X111950000Y-101250000D02*
X111950000Y-102850000D01*
X112500000Y-100700000D02*
X111950000Y-101250000D01*
X112500000Y-99675000D02*
X112500000Y-100700000D01*
D52*
%TO.N,HSE_OUT*%
X97250000Y-95430000D02*
X93950000Y-95430000D01*
X93950000Y-95430000D02*
X93800000Y-95580000D01*
D53*
%TO.N,+5V*%
X125000000Y-90400000D02*
X125000000Y-95200000D01*
X127125000Y-90300000D02*
X125100000Y-90300000D01*
D54*
%TO.N,USB_Conn_D-*%
X123050751Y-89568000D02*
X127317411Y-89568000D01*
X122143751Y-90475000D02*
X123050751Y-89568000D01*
X121150000Y-90475000D02*
X122143751Y-90475000D01*
%TO.N,USB_Conn_D+*%
X123050751Y-89107000D02*
X127317411Y-89107000D01*
X122143751Y-88200000D02*
X123050751Y-89107000D01*
X121150000Y-88200000D02*
X122143751Y-88200000D01*
%TD*%
M02*
