%TF.GenerationSoftware,KiCad,Pcbnew,8.0.5-8.0.5-0~ubuntu24.04.1*%
%TF.CreationDate,2024-09-30T02:40:30+03:30*%
%TF.ProjectId,stm32buckusb,73746d33-3262-4756-936b-7573622e6b69,rev?*%
%TF.SameCoordinates,Original*%
%TF.FileFunction,Copper,L4,Bot*%
%TF.FilePolarity,Positive*%
%FSLAX46Y46*%
G04 Gerber Fmt 4.6, Leading zero omitted, Abs format (unit mm)*
G04 Created by KiCad (PCBNEW 8.0.5-8.0.5-0~ubuntu24.04.1) date 2024-09-30 02:40:30*
%MOMM*%
%LPD*%
G01*
G04 APERTURE LIST*
G04 Aperture macros list*
%AMRoundRect*
0 Rectangle with rounded corners*
0 $1 Rounding radius*
0 $2 $3 $4 $5 $6 $7 $8 $9 X,Y pos of 4 corners*
0 Add a 4 corners polygon primitive as box body*
4,1,4,$2,$3,$4,$5,$6,$7,$8,$9,$2,$3,0*
0 Add four circle primitives for the rounded corners*
1,1,$1+$1,$2,$3*
1,1,$1+$1,$4,$5*
1,1,$1+$1,$6,$7*
1,1,$1+$1,$8,$9*
0 Add four rect primitives between the rounded corners*
20,1,$1+$1,$2,$3,$4,$5,0*
20,1,$1+$1,$4,$5,$6,$7,0*
20,1,$1+$1,$6,$7,$8,$9,0*
20,1,$1+$1,$8,$9,$2,$3,0*%
G04 Aperture macros list end*
%TA.AperFunction,ComponentPad*%
%ADD10R,1.000000X1.000000*%
%TD*%
%TA.AperFunction,ComponentPad*%
%ADD11O,1.000000X1.000000*%
%TD*%
%TA.AperFunction,ComponentPad*%
%ADD12C,0.900000*%
%TD*%
%TA.AperFunction,ComponentPad*%
%ADD13C,8.600000*%
%TD*%
%TA.AperFunction,ComponentPad*%
%ADD14RoundRect,0.200000X-0.200000X-0.450000X0.200000X-0.450000X0.200000X0.450000X-0.200000X0.450000X0*%
%TD*%
%TA.AperFunction,ComponentPad*%
%ADD15O,0.800000X1.300000*%
%TD*%
%TA.AperFunction,ComponentPad*%
%ADD16O,1.600000X0.900000*%
%TD*%
%TA.AperFunction,ComponentPad*%
%ADD17RoundRect,0.200000X0.200000X0.450000X-0.200000X0.450000X-0.200000X-0.450000X0.200000X-0.450000X0*%
%TD*%
%TA.AperFunction,ComponentPad*%
%ADD18R,2.400000X2.400000*%
%TD*%
%TA.AperFunction,ComponentPad*%
%ADD19C,2.400000*%
%TD*%
%TA.AperFunction,ViaPad*%
%ADD20C,0.800000*%
%TD*%
%TA.AperFunction,ViaPad*%
%ADD21C,0.600000*%
%TD*%
%TA.AperFunction,Conductor*%
%ADD22C,0.300000*%
%TD*%
%TA.AperFunction,Conductor*%
%ADD23C,0.500000*%
%TD*%
%TA.AperFunction,Conductor*%
%ADD24C,0.750000*%
%TD*%
G04 APERTURE END LIST*
D10*
%TO.P,J2,1,Pin_1*%
%TO.N,+3.3V*%
X117200000Y-77000000D03*
D11*
%TO.P,J2,2,Pin_2*%
%TO.N,SWDIO*%
X117200000Y-78270000D03*
%TO.P,J2,3,Pin_3*%
%TO.N,GND*%
X115930000Y-77000000D03*
%TO.P,J2,4,Pin_4*%
%TO.N,SECLK*%
X115930000Y-78270000D03*
%TO.P,J2,5,Pin_5*%
%TO.N,GND*%
X114660000Y-77000000D03*
%TO.P,J2,6,Pin_6*%
%TO.N,SWO*%
X114660000Y-78270000D03*
%TO.P,J2,7,Pin_7*%
%TO.N,unconnected-(J2-Pin_7-Pad7)*%
X113390000Y-77000000D03*
%TO.P,J2,8,Pin_8*%
%TO.N,unconnected-(J2-Pin_8-Pad8)*%
X113390000Y-78270000D03*
%TO.P,J2,9,Pin_9*%
%TO.N,GND*%
X112120000Y-77000000D03*
%TO.P,J2,10,Pin_10*%
%TO.N,NRST*%
X112120000Y-78270000D03*
%TD*%
D12*
%TO.P,H4,1,1*%
%TO.N,GND*%
X82305419Y-117780419D03*
X83250000Y-115500000D03*
X83250000Y-120060838D03*
X85530419Y-114555419D03*
D13*
X85530419Y-117780419D03*
D12*
X85530419Y-121005419D03*
X87810838Y-115500000D03*
X87810838Y-120060838D03*
X88755419Y-117780419D03*
%TD*%
%TO.P,H1,1,1*%
%TO.N,GND*%
X122244581Y-78250000D03*
X123189162Y-75969581D03*
X123189162Y-80530419D03*
X125469581Y-75025000D03*
D13*
X125469581Y-78250000D03*
D12*
X125469581Y-81475000D03*
X127750000Y-75969581D03*
X127750000Y-80530419D03*
X128694581Y-78250000D03*
%TD*%
D14*
%TO.P,J4,1,Pin_1*%
%TO.N,+3.3V*%
X100325000Y-118300000D03*
D15*
%TO.P,J4,2,Pin_2*%
%TO.N,UART3_TX*%
X101575000Y-118300000D03*
%TO.P,J4,3,Pin_3*%
%TO.N,UART3_RX*%
X102825000Y-118300000D03*
%TO.P,J4,4,Pin_4*%
%TO.N,GND*%
X104075000Y-118300000D03*
%TD*%
D12*
%TO.P,H3,1,1*%
%TO.N,GND*%
X82305419Y-78280419D03*
X83250000Y-76000000D03*
X83250000Y-80560838D03*
X85530419Y-75055419D03*
D13*
X85530419Y-78280419D03*
D12*
X85530419Y-81505419D03*
X87810838Y-76000000D03*
X87810838Y-80560838D03*
X88755419Y-78280419D03*
%TD*%
%TO.P,H2,1,1*%
%TO.N,GND*%
X122275000Y-117750000D03*
X123219581Y-115469581D03*
X123219581Y-120030419D03*
X125500000Y-114525000D03*
D13*
X125500000Y-117750000D03*
D12*
X125500000Y-120975000D03*
X127780419Y-115469581D03*
X127780419Y-120030419D03*
X128725000Y-117750000D03*
%TD*%
D16*
%TO.P,J5,6,Shield*%
%TO.N,unconnected-(J5-Shield-Pad6)_5*%
X129800000Y-85700000D03*
%TO.N,unconnected-(J5-Shield-Pad6)_3*%
X129800000Y-92300000D03*
%TD*%
D17*
%TO.P,J3,1,Pin_1*%
%TO.N,+3.3V*%
X104075000Y-78500000D03*
D15*
%TO.P,J3,2,Pin_2*%
%TO.N,I2C1_SCL*%
X102825000Y-78500000D03*
%TO.P,J3,3,Pin_3*%
%TO.N,I2C1_SDA*%
X101575000Y-78500000D03*
%TO.P,J3,4,Pin_4*%
%TO.N,GND*%
X100325000Y-78500000D03*
%TD*%
D18*
%TO.P,J1,1,Pin_1*%
%TO.N,+12V*%
X125550000Y-108100000D03*
D19*
%TO.P,J1,2,Pin_2*%
%TO.N,GND*%
X125550000Y-104600000D03*
%TD*%
D20*
%TO.N,NRST*%
X107600000Y-83600000D03*
%TO.N,+3.3V*%
X117200000Y-75800000D03*
%TO.N,GND*%
X115800000Y-75800000D03*
X114600000Y-75800000D03*
X111000000Y-77000000D03*
%TO.N,NRST*%
X106400000Y-93200000D03*
%TO.N,GND*%
X93600000Y-92200000D03*
%TO.N,+5V*%
X122800000Y-87200000D03*
X123400000Y-90400000D03*
%TO.N,GND*%
X109000000Y-104000000D03*
X100200000Y-88200000D03*
%TO.N,+3.3V*%
X123600000Y-100200000D03*
X125400000Y-100200000D03*
%TO.N,GND*%
X109800000Y-90600000D03*
X116000000Y-99000000D03*
X113600000Y-101800000D03*
X109200000Y-105600000D03*
X93600000Y-102400000D03*
X89000000Y-95400000D03*
X91800000Y-92000000D03*
X100400000Y-79800000D03*
X113400000Y-90800000D03*
X120200000Y-91600000D03*
X116200000Y-106800000D03*
X116200000Y-105800000D03*
X119400000Y-104600000D03*
X120200000Y-104200000D03*
X121200000Y-104600000D03*
X120000000Y-100200000D03*
X121000000Y-100200000D03*
X127800000Y-100200000D03*
X128800000Y-99400000D03*
X124200000Y-97600000D03*
X122800000Y-96400000D03*
X125200000Y-86600000D03*
X124200000Y-86600000D03*
X124200000Y-87600000D03*
X125200000Y-87600000D03*
X104000000Y-117200000D03*
X92600000Y-98000000D03*
X95000000Y-97000000D03*
X98500000Y-104500000D03*
X94000000Y-88500000D03*
X84900000Y-92250000D03*
X86000000Y-94400000D03*
%TO.N,+3.3V*%
X118750000Y-100250000D03*
X116500000Y-100250000D03*
X111500000Y-111500000D03*
X110500000Y-112250000D03*
X109500000Y-111500000D03*
X109000000Y-103000000D03*
X95000000Y-92000000D03*
X108750000Y-90500000D03*
X104000000Y-79750000D03*
X99500000Y-85500000D03*
X100250000Y-117250000D03*
X101250000Y-104500000D03*
X95250000Y-100500000D03*
X84900000Y-87750000D03*
X96750000Y-87250000D03*
X105750000Y-86600000D03*
D21*
%TO.N,Net-(D2-K)*%
X117600000Y-100000000D03*
X117600000Y-103600000D03*
%TD*%
D22*
%TO.N,NRST*%
X107600000Y-84200000D02*
X107600000Y-83600000D01*
X107600000Y-92000000D02*
X107600000Y-84200000D01*
X106400000Y-93200000D02*
X107600000Y-92000000D01*
D23*
%TO.N,+5V*%
X122800000Y-90400000D02*
X123400000Y-90400000D01*
X122800000Y-87200000D02*
X122800000Y-90400000D01*
D24*
%TO.N,Net-(D2-K)*%
X117600000Y-103600000D02*
X117600000Y-100000000D01*
%TD*%
M02*
