G04*
G04 #@! TF.GenerationSoftware,Altium Limited,Altium Designer,24.9.1 (31)*
G04*
G04 Layer_Physical_Order=4*
G04 Layer_Color=16711680*
%FSLAX44Y44*%
%MOMM*%
G71*
G04*
G04 #@! TF.SameCoordinates,318047C4-B972-4631-9CD3-40AE8DFBCC20*
G04*
G04*
G04 #@! TF.FilePolarity,Positive*
G04*
G01*
G75*
%ADD12C,0.1524*%
%ADD13C,0.2540*%
G04:AMPARAMS|DCode=55|XSize=1mm|YSize=2.2mm|CornerRadius=0.5mm|HoleSize=0mm|Usage=FLASHONLY|Rotation=270.000|XOffset=0mm|YOffset=0mm|HoleType=Round|Shape=RoundedRectangle|*
%AMROUNDEDRECTD55*
21,1,1.0000,1.2000,0,0,270.0*
21,1,0.0000,2.2000,0,0,270.0*
1,1,1.0000,-0.6000,0.0000*
1,1,1.0000,-0.6000,0.0000*
1,1,1.0000,0.6000,0.0000*
1,1,1.0000,0.6000,0.0000*
%
%ADD55ROUNDEDRECTD55*%
G04:AMPARAMS|DCode=56|XSize=1mm|YSize=1.8mm|CornerRadius=0.5mm|HoleSize=0mm|Usage=FLASHONLY|Rotation=270.000|XOffset=0mm|YOffset=0mm|HoleType=Round|Shape=RoundedRectangle|*
%AMROUNDEDRECTD56*
21,1,1.0000,0.8000,0,0,270.0*
21,1,0.0000,1.8000,0,0,270.0*
1,1,1.0000,-0.4000,0.0000*
1,1,1.0000,-0.4000,0.0000*
1,1,1.0000,0.4000,0.0000*
1,1,1.0000,0.4000,0.0000*
%
%ADD56ROUNDEDRECTD56*%
%ADD60C,0.1575*%
%ADD63C,1.0160*%
%ADD64R,1.0160X1.0160*%
%ADD65R,1.0160X1.0160*%
%ADD66R,1.6256X1.6256*%
%ADD67C,1.6256*%
%ADD68C,0.6096*%
%ADD69C,1.0160*%
D12*
X373380Y114300D02*
X398780Y139700D01*
X379813Y104902D02*
X396323Y121412D01*
X223241Y108458D02*
X378340D01*
X396323Y121412D02*
X422148D01*
X224714Y104902D02*
X379813D01*
X394850Y124968D02*
X422148D01*
X378340Y108458D02*
X394850Y124968D01*
X171425Y56642D02*
X223241Y108458D01*
X426284Y218440D02*
X469765D01*
X419100D02*
X424180Y213360D01*
X464820D01*
X403860Y223520D02*
X421204D01*
X462280Y208280D02*
X474980Y195580D01*
X422076Y208280D02*
X462280D01*
X416996Y213360D02*
X422076Y208280D01*
X436880Y223520D02*
X473312D01*
X438882Y191539D02*
X461709D01*
X435072Y195349D02*
X438882Y191539D01*
X419100Y241300D02*
X436880Y223520D01*
X434109Y195349D02*
X435072D01*
X421204Y223520D02*
X426284Y218440D01*
X461709Y191539D02*
X462748Y190500D01*
X120273Y58928D02*
X122559Y56642D01*
X120273Y50800D02*
X122559Y53086D01*
X119380Y50800D02*
X120273D01*
X119380Y58928D02*
X120273D01*
X203222Y223498D02*
X208280Y218440D01*
X218440D02*
X234987Y201893D01*
X208280Y218440D02*
X218440D01*
X230779Y223520D02*
X238690Y215609D01*
X193040Y241300D02*
X210820Y223520D01*
X230779D01*
X190500Y241300D02*
X193040D01*
X87040Y225380D02*
X89580D01*
X99060Y215900D01*
X86360Y226060D02*
X87040Y225380D01*
X86360Y225098D02*
Y226060D01*
X101140Y205740D02*
X101221Y205659D01*
Y186933D02*
Y205659D01*
Y186933D02*
X101302Y186852D01*
X218004Y12700D02*
X261184Y55880D01*
X215900Y12700D02*
X218004D01*
X461318Y95758D02*
X461772D01*
X458789Y104151D02*
X459737D01*
X454460Y99822D02*
X458789Y104151D01*
X422148Y121412D02*
X426258Y117302D01*
X427182D01*
X398780Y139700D02*
X501740D01*
X633840Y181720D02*
Y197201D01*
X595257Y228600D02*
X617330Y206527D01*
X596900Y241300D02*
X607822Y230378D01*
Y223219D02*
Y230378D01*
X593897Y222776D02*
X608440Y208233D01*
X539224Y222776D02*
X593897D01*
X599550Y181720D02*
Y209939D01*
X537120Y217696D02*
X591793D01*
X553720Y228600D02*
X595257D01*
X617330Y181720D02*
Y206527D01*
X591793Y217696D02*
X599550Y209939D01*
X608440Y170290D02*
Y208233D01*
X607822Y223219D02*
X633840Y197201D01*
X410383Y172974D02*
X410891D01*
X402581Y187960D02*
X412487Y178054D01*
X400477Y182880D02*
X410383Y172974D01*
X302260Y187960D02*
X402581D01*
X415099Y183134D02*
X422696Y175537D01*
X409702Y195207D02*
Y195715D01*
X294640Y182880D02*
X400477D01*
X409702Y195207D02*
X416695Y188214D01*
X412995Y178054D02*
X420592Y170457D01*
X419307Y193294D02*
X425911Y186690D01*
X284480Y175260D02*
X400912D01*
X418799Y193294D02*
X419307D01*
X314960Y193040D02*
X404685D01*
X410891Y172974D02*
X418487Y165377D01*
X408278Y167894D02*
X408786D01*
X406861Y205740D02*
X414782Y197819D01*
X416695Y188214D02*
X417203D01*
X414782Y197311D02*
X418799Y193294D01*
X400912Y175260D02*
X408278Y167894D01*
X414782Y197311D02*
Y197819D01*
X408786Y167894D02*
X431900Y144780D01*
X407297Y198120D02*
X409702Y195715D01*
X404685Y193040D02*
X414591Y183134D01*
X415099D01*
X417203Y188214D02*
X424800Y180617D01*
X412487Y178054D02*
X412995D01*
X317500Y241300D02*
X353060Y205740D01*
X246281Y229325D02*
X266700Y220980D01*
X241300Y241300D02*
X261089Y230763D01*
X215900Y241300D02*
X235689Y230763D01*
X269240Y228600D02*
X269984Y227856D01*
X302260Y195580D01*
X266700Y220980D02*
X267444Y220236D01*
X264318Y229602D02*
X269240Y228600D01*
X241209Y229362D02*
X246281Y229325D01*
X267444Y220236D02*
X294640Y193040D01*
X261911Y215609D02*
X284480Y193040D01*
X260387Y201893D02*
X274320Y187960D01*
X234987Y201893D02*
X260387D01*
X238690Y215609D02*
X261911D01*
X194270Y145789D02*
X199951D01*
X200961Y144780D01*
X193260D02*
X194270Y145789D01*
X226568Y184872D02*
X228687D01*
X136348Y144780D02*
X193260D01*
X200961D02*
X259080D01*
X228687Y184872D02*
X240905Y172653D01*
X243471D01*
X340360Y35560D02*
X383540D01*
X381000Y40640D02*
X409956Y69596D01*
X320040Y40640D02*
X381000D01*
X383540Y35560D02*
X412496Y64516D01*
X497599D01*
X409956Y69596D02*
X474845D01*
X408940Y78740D02*
X500380D01*
X279400Y50800D02*
X373816D01*
X375920Y45720D02*
X408940Y78740D01*
X299720Y45720D02*
X375920D01*
X406836Y83820D02*
X487680D01*
X373816Y50800D02*
X406836Y83820D01*
X259080Y144780D02*
X266700Y152400D01*
X129714Y151414D02*
X136348Y144780D01*
X154918Y198360D02*
X157480Y200922D01*
X127682Y171125D02*
X154918Y198360D01*
X127682Y153604D02*
Y171125D01*
Y153604D02*
X129714Y151572D01*
Y151414D02*
Y151572D01*
X198155Y228565D02*
X203222Y223498D01*
X274320Y167640D02*
X375920D01*
X274320D02*
Y187960D01*
X284480Y175260D02*
Y193040D01*
X294640Y182880D02*
Y193040D01*
X302260Y187960D02*
Y195580D01*
X185406Y228565D02*
X198155D01*
X163344Y229362D02*
Y239544D01*
X157480Y223498D02*
X163344Y229362D01*
Y239544D02*
X165100Y241300D01*
X157480Y200922D02*
Y223498D01*
X368300Y55880D02*
X401320Y88900D01*
X459540Y93980D02*
X461318Y95758D01*
X401320Y88900D02*
X484024D01*
X365760Y60960D02*
X398780Y93980D01*
X484024Y88900D02*
Y92864D01*
X397002Y99822D02*
X454460D01*
X398780Y93980D02*
X459540D01*
X364708Y67528D02*
X397002Y99822D01*
X261184Y55880D02*
X368300D01*
X484024Y92864D02*
X492760Y101600D01*
X122559Y56642D02*
X171425D01*
X422148Y124968D02*
X426720Y129540D01*
X122559Y53086D02*
X172898D01*
X224714Y104902D01*
X435522Y149860D02*
X505949D01*
X431900Y144780D02*
X503844D01*
X420004Y165377D02*
X435522Y149860D01*
X505949D02*
X506030Y149778D01*
X503844Y144780D02*
X508924Y139700D01*
X501740D02*
X507981Y133459D01*
X492760Y101600D02*
X523240D01*
X375920Y137160D02*
X376600Y137840D01*
X379140D01*
X391378Y150078D01*
X375920Y167640D02*
X391378Y152182D01*
Y150078D02*
Y152182D01*
X497160Y164420D02*
X497840Y165100D01*
X489784Y162560D02*
X491644Y164420D01*
X437190Y162560D02*
X489784D01*
X487928Y167888D02*
X495300Y175260D01*
X506030Y149778D02*
X509860D01*
X491644Y164420D02*
X497160D01*
X509860Y149778D02*
X510540Y149098D01*
X508924Y139700D02*
X517543D01*
X518160Y140317D01*
X553393Y133459D02*
X558800Y128052D01*
X507981Y133459D02*
X553393D01*
X558800Y111760D02*
Y128052D01*
X250408Y67528D02*
X364708D01*
X213360Y30480D02*
X250408Y67528D01*
X132080Y30480D02*
X213360D01*
X256104Y160020D02*
X349758D01*
X266700Y152400D02*
X375920D01*
X506366Y157480D02*
X506614Y157728D01*
X435086Y157480D02*
X506366D01*
X418487Y165377D02*
X420004D01*
X441150Y172968D02*
X477768D01*
X427428Y186690D02*
X441150Y172968D01*
X426317Y180617D02*
X439046Y167888D01*
X422108Y170457D02*
X435086Y157480D01*
X477768Y172968D02*
X487531Y182731D01*
X424212Y175537D02*
X437190Y162560D01*
X439046Y167888D02*
X487928D01*
X487680Y83820D02*
X497938Y94079D01*
X462254Y40640D02*
X495300D01*
X452204Y15324D02*
X467360Y30480D01*
X457200Y50800D02*
X491092D01*
X459740Y45720D02*
X493196D01*
X467360Y30480D02*
X502920D01*
X477604Y15324D02*
X487680Y25400D01*
X491092Y50800D02*
X508400Y68108D01*
X469900Y12700D02*
X472524Y15324D01*
X452094Y30480D02*
X462254Y40640D01*
X454199Y25400D02*
X464359Y35560D01*
X449580D02*
X459740Y45720D01*
X464359Y35560D02*
X500380D01*
X447040Y40640D02*
X457200Y50800D01*
X487680Y25400D02*
X505460D01*
X472524Y15324D02*
X477604D01*
X476623Y71374D02*
X493133D01*
X497599Y64516D02*
X507505Y74422D01*
X474845Y69596D02*
X476623Y71374D01*
X493133D02*
X493641Y71882D01*
X540935Y55880D02*
X571936D01*
X518642Y55901D02*
X540915D01*
X507005Y42185D02*
X527850D01*
X536466Y50800D01*
X571936Y55880D02*
X573858Y57802D01*
X505460Y25400D02*
X512085Y32025D01*
X517164Y26944D02*
X535380D01*
X502920Y30480D02*
X509544Y37104D01*
X529955D02*
X538570Y45720D01*
X512085Y32025D02*
X532059D01*
X500380Y35560D02*
X507005Y42185D01*
X532059Y32025D02*
X540674Y40640D01*
X503972Y49312D02*
X512053D01*
X535380Y26944D02*
X543996Y35560D01*
X540915Y55901D02*
X540935Y55880D01*
X512053Y49312D02*
X518642Y55901D01*
X509544Y37104D02*
X529955D01*
X505011Y14792D02*
X517164Y26944D01*
X517688Y63028D02*
X540971D01*
X501868Y54392D02*
X509052D01*
X517688Y63028D01*
X573858Y57802D02*
Y64588D01*
X573930Y64660D01*
X495300Y40640D02*
X503972Y49312D01*
X493196Y45720D02*
X501868Y54392D01*
X497392Y14792D02*
X505011D01*
X495300Y12700D02*
X497392Y14792D01*
X507505Y74422D02*
X526702D01*
X508400Y68108D02*
X557130D01*
X526702Y74422D02*
X528370Y76090D01*
X548530D01*
X152400Y25400D02*
X223520D01*
X139700Y12700D02*
X152400Y25400D01*
X223520D02*
X259080Y60960D01*
X365760D01*
X241300Y12700D02*
X279400Y50800D01*
X215900Y12700D02*
X217945Y14746D01*
X558800Y111760D02*
X574021Y96539D01*
X592389D01*
X605070Y83859D01*
X613910D01*
X614269Y84218D01*
X649842D02*
X655320Y78740D01*
X614269Y84218D02*
X649842D01*
X655320Y72979D02*
Y78740D01*
Y72979D02*
X658258Y70041D01*
Y64359D02*
Y70041D01*
X626618Y50946D02*
X635346Y42218D01*
X633620Y51128D02*
X642530Y42218D01*
X658172Y64273D02*
X658258Y64359D01*
X623607Y35560D02*
X626328Y38280D01*
X587537Y35560D02*
X623607D01*
X622300Y12700D02*
X658172Y48572D01*
X635346Y40114D02*
Y42218D01*
X626328Y38280D02*
Y44014D01*
X658172Y48572D02*
Y64273D01*
X624950Y29718D02*
X635346Y40114D01*
X588879Y29718D02*
X624950D01*
X591058Y24638D02*
X627054D01*
X642530Y40114D01*
Y42218D01*
X617220Y40640D02*
X618708Y42128D01*
X608220Y54720D02*
Y65930D01*
X618708Y42128D02*
Y44232D01*
X617220Y53340D02*
Y64114D01*
X583328Y45720D02*
X604520D01*
X590222Y50800D02*
X591710Y52288D01*
X617110Y64224D02*
Y77360D01*
X591710Y52288D02*
Y67200D01*
X606008Y47208D02*
Y49748D01*
X576144Y45720D02*
X581224Y50800D01*
X617220Y53340D02*
X622300Y48260D01*
X600600Y55156D02*
Y78630D01*
X622300Y48042D02*
X626328Y44014D01*
X578248Y40640D02*
X583328Y45720D01*
X608220Y54720D02*
X618708Y44232D01*
X622300Y48042D02*
Y48260D01*
X604520Y45720D02*
X606008Y47208D01*
X626618Y50946D02*
Y65930D01*
X585433Y40640D02*
X617220D01*
X581224Y50800D02*
X590222D01*
X617110Y64224D02*
X617220Y64114D01*
X600600Y55156D02*
X606008Y49748D01*
X584561Y25400D02*
X588879Y29718D01*
X581211Y14791D02*
X591058Y24638D01*
X582457Y30480D02*
X587537Y35560D01*
X580353D02*
X585433Y40640D01*
X574040Y50800D02*
X582820Y59580D01*
X536466Y50800D02*
X574040D01*
X540674Y40640D02*
X578248D01*
X538570Y45720D02*
X576144D01*
X582820Y59580D02*
Y76090D01*
X566310Y61119D02*
Y76090D01*
X543039Y60960D02*
X566151D01*
X566310Y61119D01*
X543996Y35560D02*
X580353D01*
X633620Y51128D02*
Y77360D01*
X571500Y12700D02*
X573591Y14791D01*
X581211D01*
X396294Y24556D02*
X402981Y31242D01*
X424121D01*
X391160Y29718D02*
X397764Y36322D01*
X420243D02*
X424561Y40640D01*
X447040D01*
X397764Y36322D02*
X420243D01*
X424121Y31242D02*
X428439Y35560D01*
X449580D01*
X462748Y190500D02*
X493196D01*
X474980Y195580D02*
X495300D01*
X493196Y190500D02*
X508326Y175370D01*
X464820Y213360D02*
X477520Y200660D01*
X500019D01*
X487531Y182731D02*
X487829D01*
X243471Y172653D02*
X256104Y160020D01*
X425911Y186690D02*
X427428D01*
X424800Y180617D02*
X426317D01*
X420592Y170457D02*
X422108D01*
X422696Y175537D02*
X424212D01*
X335280Y198120D02*
X407297D01*
X353060Y205740D02*
X406861D01*
X370840Y213360D02*
X416996D01*
X391160Y218440D02*
X419100D01*
X266700Y241300D02*
X314960Y193040D01*
X292100Y241300D02*
X335280Y198120D01*
X551180Y163432D02*
X621822D01*
X541020Y173592D02*
Y173882D01*
X539532Y175370D02*
X541020Y173882D01*
X508326Y175370D02*
X539532D01*
X509778Y181102D02*
X534517D01*
X495300Y195580D02*
X509778Y181102D01*
X500019Y200660D02*
X514497Y186182D01*
X532481D01*
X541020Y173592D02*
X551180Y163432D01*
X583040Y181720D02*
Y204134D01*
X534826Y205622D02*
X581552D01*
X530389Y210058D02*
X534826Y205622D01*
X581552D02*
X583040Y204134D01*
X531461Y194618D02*
X563662D01*
X532481Y186182D02*
X533607Y187308D01*
X588436Y211754D02*
X591820Y208370D01*
X508436Y220980D02*
X514278Y215138D01*
X534598Y220218D02*
X537120Y217696D01*
X495300Y241300D02*
X516382Y220218D01*
X504227Y210820D02*
X510069Y204978D01*
X528285D02*
X533565Y199698D01*
X507965Y199898D02*
X526181D01*
X516382Y220218D02*
X534598D01*
X512174Y210058D02*
X530389D01*
X502123Y205740D02*
X507965Y199898D01*
X520700Y241300D02*
X539224Y222776D01*
X535877Y211754D02*
X588436D01*
X534517Y181102D02*
X535169Y180450D01*
X551591Y187308D02*
X556370Y182529D01*
X510069Y204978D02*
X528285D01*
X526181Y199898D02*
X531461Y194618D01*
X532494Y215138D02*
X535877Y211754D01*
X506332Y215900D02*
X512174Y210058D01*
X533607Y187308D02*
X551591D01*
X514278Y215138D02*
X532494D01*
X533565Y199698D02*
X572662D01*
X563662Y194618D02*
X565150Y193130D01*
Y181830D02*
Y193130D01*
X535169Y180450D02*
X548750D01*
X565150Y181830D02*
X565260Y181720D01*
X556370Y170290D02*
Y182529D01*
X572662Y199698D02*
X574150Y198210D01*
X482465Y205740D02*
X502123D01*
X488116Y215900D02*
X506332D01*
X486012Y210820D02*
X504227D01*
X490220Y220980D02*
X508436D01*
X591820Y173556D02*
Y208370D01*
X574150Y170290D02*
Y198210D01*
X469900Y241300D02*
X490220Y220980D01*
X474654Y229362D02*
X488116Y215900D01*
X473312Y223520D02*
X486012Y210820D01*
X469765Y218440D02*
X482465Y205740D01*
X444500Y241300D02*
X456438Y229362D01*
X474654D01*
X395791Y231589D02*
Y239209D01*
Y231589D02*
X403860Y223520D01*
X393700Y241300D02*
X395791Y239209D01*
X368300Y241300D02*
X391160Y218440D01*
X342900Y241300D02*
X370840Y213360D01*
X624506Y166115D02*
Y169846D01*
X624950Y170290D01*
X621822Y163432D02*
X624506Y166115D01*
X114300Y12700D02*
X132080Y30480D01*
X266700Y12700D02*
X299720Y45720D01*
X292100Y12700D02*
X320040Y40640D01*
X342900Y12700D02*
X359918Y29718D01*
X317500Y12700D02*
X340360Y35560D01*
X359918Y29718D02*
X391160D01*
X395100Y24556D02*
X396294D01*
X380238Y24638D02*
X393700D01*
X368300Y12700D02*
X380238Y24638D01*
X396324Y15324D02*
X401404D01*
X393700Y12700D02*
X396324Y15324D01*
X411480Y25400D02*
X426720D01*
X401404Y15324D02*
X411480Y25400D01*
X557130Y68108D02*
X557420Y67818D01*
X431800Y30480D02*
X452094D01*
X426804Y15324D02*
X436880Y25400D01*
X454199D01*
X426720D02*
X431800Y30480D01*
X540971Y63028D02*
X543039Y60960D01*
X563880Y25400D02*
X584561D01*
X530411Y14791D02*
X546100Y30480D01*
Y12700D02*
X548724Y15324D01*
X553804D02*
X563880Y25400D01*
X546100Y30480D02*
X582457D01*
X548724Y15324D02*
X553804D01*
X520700Y12700D02*
X522791Y14791D01*
X530411D01*
X419100Y12700D02*
X421724Y15324D01*
X426804D01*
X444500Y12700D02*
X447124Y15324D01*
X452204D01*
X546100Y237589D02*
X551924Y231765D01*
Y230396D02*
X553720Y228600D01*
X546100Y237589D02*
Y241300D01*
X551924Y230396D02*
Y231765D01*
X591340Y170970D02*
Y173076D01*
X590660Y170290D02*
X591340Y170970D01*
Y173076D02*
X591820Y173556D01*
D13*
X235689Y230763D02*
G03*
X241209Y229362I5611J10537D01*
G01*
X261089Y230763D02*
G03*
X264318Y229602I5611J10537D01*
G01*
X395100Y24556D02*
G03*
X393700Y24638I-1400J-11856D01*
G01*
D55*
X17150Y99100D02*
D03*
Y12700D02*
D03*
Y241300D02*
D03*
Y154900D02*
D03*
D56*
X57150Y99100D02*
D03*
Y12700D02*
D03*
Y241300D02*
D03*
Y154900D02*
D03*
D60*
X199593Y74717D02*
X214630Y89754D01*
X203200Y73223D02*
X216124Y86147D01*
X375707D02*
X394386Y104826D01*
X214630Y89754D02*
X374213D01*
X216124Y86147D02*
X375707D01*
X374213Y89754D02*
X392892Y108433D01*
X394386Y104826D02*
X450266D01*
X392892Y108433D02*
X448772D01*
X462412Y122072D01*
X450266Y104826D02*
X463906Y118466D01*
X462412Y122072D02*
X468744D01*
X463906Y118466D02*
X467250D01*
X199593Y63610D02*
Y74717D01*
X203200Y64143D02*
Y73223D01*
X198531Y62687D02*
X198671D01*
X195580Y60960D02*
X196803D01*
X205518Y61825D02*
X207415D01*
X208280Y60960D01*
X203200Y64143D02*
X205518Y61825D01*
X198671Y62687D02*
X199593Y63610D01*
X196803Y60960D02*
X198531Y62687D01*
X501997Y107950D02*
X502920D01*
X475505Y110211D02*
X499737D01*
X500308Y113817D02*
X502920Y116429D01*
X499737Y110211D02*
X501997Y107950D01*
X476999Y113817D02*
X500308D01*
X502920Y116429D02*
Y129540D01*
X468744Y122072D02*
X476999Y113817D01*
X467250Y118466D02*
X475505Y110211D01*
D63*
X361950Y127000D02*
D03*
X95250Y114300D02*
D03*
Y127000D02*
D03*
D64*
X349250D02*
D03*
D65*
X95250Y139700D02*
D03*
D66*
X673100Y12700D02*
D03*
Y241300D02*
D03*
D67*
X647700Y12700D02*
D03*
X622300D02*
D03*
X596900D02*
D03*
X571500D02*
D03*
X546100D02*
D03*
X520700D02*
D03*
X495300D02*
D03*
X469900D02*
D03*
X444500D02*
D03*
X419100D02*
D03*
X393700D02*
D03*
X368300D02*
D03*
X342900D02*
D03*
X317500D02*
D03*
X292100D02*
D03*
X266700D02*
D03*
X241300D02*
D03*
X215900D02*
D03*
X190500D02*
D03*
X165100D02*
D03*
X139700D02*
D03*
X114300D02*
D03*
X88900D02*
D03*
X647700Y241300D02*
D03*
X622300D02*
D03*
X596900D02*
D03*
X571500D02*
D03*
X546100D02*
D03*
X520700D02*
D03*
X495300D02*
D03*
X469900D02*
D03*
X444500D02*
D03*
X419100D02*
D03*
X393700D02*
D03*
X368300D02*
D03*
X342900D02*
D03*
X317500D02*
D03*
X292100D02*
D03*
X266700D02*
D03*
X241300D02*
D03*
X215900D02*
D03*
X190500D02*
D03*
X165100D02*
D03*
X139700D02*
D03*
X114300D02*
D03*
X88900D02*
D03*
D68*
X502920Y107950D02*
D03*
X373380Y114300D02*
D03*
X434109Y195349D02*
D03*
X467360Y180340D02*
D03*
X644000Y226170D02*
D03*
X121920Y83820D02*
D03*
X119380Y50800D02*
D03*
Y58928D02*
D03*
X213360Y207381D02*
D03*
X86360Y226060D02*
D03*
X99060Y215900D02*
D03*
X101140Y205740D02*
D03*
X676329Y43869D02*
D03*
X459737Y104151D02*
D03*
X461772Y95758D02*
D03*
X427182Y117302D02*
D03*
X665957Y63277D02*
D03*
X650991Y66923D02*
D03*
X665661Y73169D02*
D03*
X664320Y81170D02*
D03*
X659240Y182990D02*
D03*
X614680Y226060D02*
D03*
X421640Y200152D02*
D03*
X335049Y210589D02*
D03*
X243440Y222467D02*
D03*
X241771Y208751D02*
D03*
X226568Y184872D02*
D03*
X197111Y138931D02*
D03*
X231140Y172720D02*
D03*
X336179Y95621D02*
D03*
X111696Y41496D02*
D03*
X124460Y38100D02*
D03*
X434340Y57658D02*
D03*
X408709Y51031D02*
D03*
X182391Y167186D02*
D03*
X198120Y154178D02*
D03*
X185406Y228565D02*
D03*
X172720Y228600D02*
D03*
X238188Y154178D02*
D03*
X121005Y206654D02*
D03*
X101302Y186852D02*
D03*
X125647Y178788D02*
D03*
X119380Y170180D02*
D03*
X136572Y157286D02*
D03*
X119380Y149860D02*
D03*
X121332Y215706D02*
D03*
X144780Y132080D02*
D03*
X220980Y127000D02*
D03*
X197532Y124266D02*
D03*
X74077Y152977D02*
D03*
X83820Y147320D02*
D03*
X577850Y139700D02*
D03*
X439420Y114300D02*
D03*
Y132080D02*
D03*
X426720Y129540D02*
D03*
X95785Y65305D02*
D03*
X112634Y65877D02*
D03*
X450206Y179826D02*
D03*
X510540Y149098D02*
D03*
X497840Y165100D02*
D03*
X495300Y175260D02*
D03*
X375920Y137160D02*
D03*
X513028Y126601D02*
D03*
X518160Y140317D02*
D03*
X523240Y101600D02*
D03*
X513080Y109220D02*
D03*
X502920Y129540D02*
D03*
X213360Y53340D02*
D03*
X190500D02*
D03*
X208280Y60960D02*
D03*
X195580D02*
D03*
X375920Y152400D02*
D03*
X349758Y160020D02*
D03*
X506614Y157728D02*
D03*
X497938Y94079D02*
D03*
X469900Y57658D02*
D03*
X500380Y78740D02*
D03*
X493641Y71882D02*
D03*
X521483Y49043D02*
D03*
X636904Y223520D02*
D03*
X96520Y43180D02*
D03*
X73072Y98866D02*
D03*
X83232Y103946D02*
D03*
X85772Y27746D02*
D03*
X144780Y38100D02*
D03*
X137160Y73660D02*
D03*
X147320D02*
D03*
X127000D02*
D03*
X251460Y114300D02*
D03*
X259080D02*
D03*
X266700D02*
D03*
X274320D02*
D03*
X281940D02*
D03*
X251460Y96520D02*
D03*
X259080D02*
D03*
X266700D02*
D03*
X274320D02*
D03*
X281940D02*
D03*
Y78740D02*
D03*
X274320D02*
D03*
X266700D02*
D03*
X259080D02*
D03*
X664320Y106570D02*
D03*
X591710Y67200D02*
D03*
X573930Y64660D02*
D03*
X487829Y182731D02*
D03*
X185420Y200660D02*
D03*
Y187960D02*
D03*
X175260Y200660D02*
D03*
Y187960D02*
D03*
X180340Y195580D02*
D03*
X161972Y136966D02*
D03*
X251460Y78740D02*
D03*
X520700Y193040D02*
D03*
X556370Y170290D02*
D03*
X565260Y181720D02*
D03*
X548750Y180450D02*
D03*
X608655Y156574D02*
D03*
X608440Y170290D02*
D03*
X557420Y67818D02*
D03*
X582820Y76090D02*
D03*
X608220Y65930D02*
D03*
X626618D02*
D03*
X642510Y67200D02*
D03*
X548530Y76090D02*
D03*
X617110Y77360D02*
D03*
X664320Y205850D02*
D03*
X600202Y131572D02*
D03*
X616712D02*
D03*
Y115062D02*
D03*
X600202D02*
D03*
X608005Y90717D02*
D03*
X640803Y106355D02*
D03*
Y122865D02*
D03*
Y138105D02*
D03*
X574587Y107005D02*
D03*
X576580Y123190D02*
D03*
X668020Y182880D02*
D03*
X664320Y157370D02*
D03*
Y164990D02*
D03*
Y173880D02*
D03*
Y131970D02*
D03*
Y139590D02*
D03*
Y148480D02*
D03*
Y114190D02*
D03*
Y123080D02*
D03*
Y97680D02*
D03*
Y88790D02*
D03*
X624950Y170290D02*
D03*
X633620Y77360D02*
D03*
X600600Y78630D02*
D03*
X566310Y76090D02*
D03*
X583040Y181720D02*
D03*
X574150Y170290D02*
D03*
X599550Y181720D02*
D03*
X590660Y170290D02*
D03*
X617330Y181720D02*
D03*
X633840D02*
D03*
D69*
X193701Y164846D02*
X208026D01*
X213360Y170180D02*
Y207381D01*
X136572Y157286D02*
X186141D01*
X193701Y164846D01*
X208026D02*
X213360Y170180D01*
X95250Y127000D02*
X114664D01*
X108712Y132952D02*
Y179274D01*
Y132952D02*
X114664Y127000D01*
X139700D01*
X108712Y179274D02*
X139700Y210262D01*
Y127000D02*
X144780Y132080D01*
X139700Y210262D02*
Y241300D01*
M02*
