G04*
G04 #@! TF.GenerationSoftware,Altium Limited,Altium Designer,24.9.1 (31)*
G04*
G04 Layer_Physical_Order=2*
G04 Layer_Color=36540*
%FSLAX44Y44*%
%MOMM*%
G71*
G04*
G04 #@! TF.SameCoordinates,318047C4-B972-4631-9CD3-40AE8DFBCC20*
G04*
G04*
G04 #@! TF.FilePolarity,Positive*
G04*
G01*
G75*
G04:AMPARAMS|DCode=55|XSize=1mm|YSize=2.2mm|CornerRadius=0.5mm|HoleSize=0mm|Usage=FLASHONLY|Rotation=270.000|XOffset=0mm|YOffset=0mm|HoleType=Round|Shape=RoundedRectangle|*
%AMROUNDEDRECTD55*
21,1,1.0000,1.2000,0,0,270.0*
21,1,0.0000,2.2000,0,0,270.0*
1,1,1.0000,-0.6000,0.0000*
1,1,1.0000,-0.6000,0.0000*
1,1,1.0000,0.6000,0.0000*
1,1,1.0000,0.6000,0.0000*
%
%ADD55ROUNDEDRECTD55*%
G04:AMPARAMS|DCode=56|XSize=1mm|YSize=1.8mm|CornerRadius=0.5mm|HoleSize=0mm|Usage=FLASHONLY|Rotation=270.000|XOffset=0mm|YOffset=0mm|HoleType=Round|Shape=RoundedRectangle|*
%AMROUNDEDRECTD56*
21,1,1.0000,0.8000,0,0,270.0*
21,1,0.0000,1.8000,0,0,270.0*
1,1,1.0000,-0.4000,0.0000*
1,1,1.0000,-0.4000,0.0000*
1,1,1.0000,0.4000,0.0000*
1,1,1.0000,0.4000,0.0000*
%
%ADD56ROUNDEDRECTD56*%
%ADD61C,0.5080*%
%ADD62C,0.3810*%
%ADD63C,1.0160*%
%ADD64R,1.0160X1.0160*%
%ADD65R,1.0160X1.0160*%
%ADD66R,1.6256X1.6256*%
%ADD67C,1.6256*%
%ADD68C,0.6096*%
%ADD69C,1.0160*%
%ADD70C,1.5240*%
G36*
X680720Y248531D02*
Y233222D01*
X665022D01*
Y248920D01*
X679450D01*
X679547Y249017D01*
X680720Y248531D01*
D02*
G37*
G36*
X647200Y248920D02*
X645711Y248724D01*
X643857Y247956D01*
X642265Y246735D01*
X641099Y245568D01*
X639878Y243976D01*
X639110Y242123D01*
X638848Y240134D01*
Y233763D01*
X637565Y233594D01*
X635711Y232826D01*
X634119Y231605D01*
X631469Y228955D01*
X621020Y218506D01*
X411480D01*
X409491Y218244D01*
X407637Y217476D01*
X406045Y216255D01*
X377816Y188026D01*
X346083D01*
X306208Y227902D01*
X304616Y229123D01*
X302762Y229891D01*
X300773Y230153D01*
X296989D01*
X296894Y230314D01*
X297335Y232004D01*
X298650Y232764D01*
X300637Y234750D01*
X302041Y237182D01*
X302768Y239895D01*
Y242705D01*
X302041Y245418D01*
X300637Y247850D01*
X299567Y248920D01*
X300093Y250190D01*
X309507D01*
X310033Y248920D01*
X308964Y247850D01*
X307559Y245418D01*
X306832Y242705D01*
Y239895D01*
X307559Y237182D01*
X308964Y234750D01*
X310950Y232764D01*
X313382Y231359D01*
X316096Y230632D01*
X318904D01*
X321618Y231359D01*
X324050Y232764D01*
X326036Y234750D01*
X327441Y237182D01*
X328168Y239895D01*
Y242705D01*
X327441Y245418D01*
X326036Y247850D01*
X324967Y248920D01*
X325493Y250190D01*
X334907D01*
X335433Y248920D01*
X334364Y247850D01*
X332959Y245418D01*
X332232Y242705D01*
Y239895D01*
X332959Y237182D01*
X334364Y234750D01*
X336350Y232764D01*
X338782Y231359D01*
X341496Y230632D01*
X344305D01*
X347018Y231359D01*
X349450Y232764D01*
X351437Y234750D01*
X352841Y237182D01*
X353568Y239895D01*
Y242705D01*
X352841Y245418D01*
X351437Y247850D01*
X350367Y248920D01*
X350893Y250190D01*
X360307D01*
X360833Y248920D01*
X359763Y247850D01*
X358359Y245418D01*
X357632Y242705D01*
Y239895D01*
X358359Y237182D01*
X359763Y234750D01*
X361750Y232764D01*
X364182Y231359D01*
X366895Y230632D01*
X369705D01*
X372418Y231359D01*
X374850Y232764D01*
X376837Y234750D01*
X378241Y237182D01*
X378968Y239895D01*
Y242705D01*
X378241Y245418D01*
X376837Y247850D01*
X375767Y248920D01*
X376293Y250190D01*
X385707D01*
X386233Y248920D01*
X385163Y247850D01*
X383759Y245418D01*
X383032Y242705D01*
Y239895D01*
X383759Y237182D01*
X385163Y234750D01*
X387150Y232764D01*
X389582Y231359D01*
X392295Y230632D01*
X395104D01*
X397818Y231359D01*
X400250Y232764D01*
X402237Y234750D01*
X403641Y237182D01*
X404368Y239895D01*
Y242705D01*
X403641Y245418D01*
X402237Y247850D01*
X401167Y248920D01*
X401693Y250190D01*
X411107D01*
X411633Y248920D01*
X410564Y247850D01*
X409159Y245418D01*
X408432Y242705D01*
Y239895D01*
X409159Y237182D01*
X410564Y234750D01*
X412550Y232764D01*
X414982Y231359D01*
X417696Y230632D01*
X420504D01*
X423218Y231359D01*
X425650Y232764D01*
X427636Y234750D01*
X429041Y237182D01*
X429768Y239895D01*
Y242705D01*
X429041Y245418D01*
X427636Y247850D01*
X426567Y248920D01*
X427093Y250190D01*
X436507D01*
X437033Y248920D01*
X435964Y247850D01*
X434559Y245418D01*
X433832Y242705D01*
Y239895D01*
X434559Y237182D01*
X435964Y234750D01*
X437950Y232764D01*
X440382Y231359D01*
X443096Y230632D01*
X445905D01*
X448618Y231359D01*
X451050Y232764D01*
X453036Y234750D01*
X454441Y237182D01*
X455168Y239895D01*
Y242705D01*
X454441Y245418D01*
X453036Y247850D01*
X451967Y248920D01*
X452493Y250190D01*
X461907D01*
X462433Y248920D01*
X461363Y247850D01*
X459959Y245418D01*
X459232Y242705D01*
Y239895D01*
X459959Y237182D01*
X461363Y234750D01*
X463350Y232764D01*
X465782Y231359D01*
X468495Y230632D01*
X471305D01*
X474018Y231359D01*
X476450Y232764D01*
X478437Y234750D01*
X479841Y237182D01*
X480568Y239895D01*
Y242705D01*
X479841Y245418D01*
X478437Y247850D01*
X477367Y248920D01*
X477893Y250190D01*
X487307D01*
X487833Y248920D01*
X486763Y247850D01*
X485359Y245418D01*
X484632Y242705D01*
Y239895D01*
X485359Y237182D01*
X486763Y234750D01*
X488750Y232764D01*
X491182Y231359D01*
X493895Y230632D01*
X496704D01*
X499418Y231359D01*
X501850Y232764D01*
X503837Y234750D01*
X505241Y237182D01*
X505968Y239895D01*
Y242705D01*
X505241Y245418D01*
X503837Y247850D01*
X502767Y248920D01*
X503293Y250190D01*
X512707D01*
X513233Y248920D01*
X512164Y247850D01*
X510759Y245418D01*
X510032Y242705D01*
Y239895D01*
X510759Y237182D01*
X512164Y234750D01*
X514150Y232764D01*
X516582Y231359D01*
X519296Y230632D01*
X522104D01*
X524818Y231359D01*
X527250Y232764D01*
X529236Y234750D01*
X530641Y237182D01*
X531368Y239895D01*
Y242705D01*
X530641Y245418D01*
X529236Y247850D01*
X528167Y248920D01*
X528693Y250190D01*
X538107D01*
X538633Y248920D01*
X537564Y247850D01*
X536159Y245418D01*
X535432Y242705D01*
Y239895D01*
X536159Y237182D01*
X537564Y234750D01*
X539550Y232764D01*
X541982Y231359D01*
X544696Y230632D01*
X547505D01*
X550218Y231359D01*
X552650Y232764D01*
X554636Y234750D01*
X556041Y237182D01*
X556768Y239895D01*
Y242705D01*
X556041Y245418D01*
X554636Y247850D01*
X553567Y248920D01*
X554093Y250190D01*
X563507D01*
X564033Y248920D01*
X562963Y247850D01*
X561559Y245418D01*
X560832Y242705D01*
Y239895D01*
X561559Y237182D01*
X562963Y234750D01*
X564950Y232764D01*
X567382Y231359D01*
X570095Y230632D01*
X572905D01*
X575618Y231359D01*
X578050Y232764D01*
X580037Y234750D01*
X581441Y237182D01*
X582168Y239895D01*
Y242705D01*
X581441Y245418D01*
X580037Y247850D01*
X578967Y248920D01*
X579493Y250190D01*
X588907D01*
X589433Y248920D01*
X588363Y247850D01*
X586959Y245418D01*
X586232Y242705D01*
Y239895D01*
X586959Y237182D01*
X588363Y234750D01*
X590350Y232764D01*
X592782Y231359D01*
X595495Y230632D01*
X598304D01*
X601018Y231359D01*
X603450Y232764D01*
X605437Y234750D01*
X606841Y237182D01*
X607568Y239895D01*
Y242705D01*
X606841Y245418D01*
X605437Y247850D01*
X604367Y248920D01*
X604893Y250190D01*
X614307D01*
X614833Y248920D01*
X613764Y247850D01*
X612359Y245418D01*
X611632Y242705D01*
Y239895D01*
X612359Y237182D01*
X613764Y234750D01*
X615595Y232918D01*
X615485Y232278D01*
X615142Y231648D01*
X613568D01*
X611515Y230797D01*
X609943Y229225D01*
X609092Y227171D01*
Y224949D01*
X609943Y222895D01*
X611515Y221323D01*
X613568Y220472D01*
X615792D01*
X617845Y221323D01*
X619417Y222895D01*
X620268Y224949D01*
Y227171D01*
X619417Y229225D01*
X618751Y229892D01*
X619408Y231031D01*
X620896Y230632D01*
X623704D01*
X626418Y231359D01*
X628850Y232764D01*
X630836Y234750D01*
X632241Y237182D01*
X632968Y239895D01*
Y242705D01*
X632241Y245418D01*
X630836Y247850D01*
X629767Y248920D01*
X630293Y250190D01*
X647117D01*
X647200Y248920D01*
D02*
G37*
G36*
X207248Y247650D02*
X205959Y245418D01*
X205232Y242705D01*
Y239895D01*
X205959Y237182D01*
X207363Y234750D01*
X209350Y232764D01*
X210707Y231980D01*
X210614Y230567D01*
X209670Y230176D01*
X208078Y228955D01*
X198273Y219149D01*
X197052Y217558D01*
X196284Y215704D01*
X196022Y213715D01*
X196284Y211726D01*
X197047Y209884D01*
Y180271D01*
X196284Y178429D01*
X196022Y176440D01*
X196284Y174451D01*
X197052Y172597D01*
X198273Y171005D01*
X201102Y168176D01*
Y138706D01*
X192098Y129701D01*
X190876Y128109D01*
X190109Y126256D01*
X189847Y124266D01*
X190109Y122277D01*
X190876Y120423D01*
X192098Y118832D01*
X193689Y117610D01*
X195543Y116842D01*
X197532Y116581D01*
X199522Y116842D01*
X201375Y117610D01*
X202967Y118832D01*
X214223Y130087D01*
X215444Y131679D01*
X216212Y133533D01*
X216474Y135522D01*
Y171360D01*
X216474Y171360D01*
X216212Y173349D01*
X215444Y175203D01*
X214223Y176795D01*
X210369Y180648D01*
Y201428D01*
X211425Y202134D01*
X212248Y201793D01*
X214471D01*
X216525Y202643D01*
X218097Y204215D01*
X218948Y206269D01*
Y208492D01*
X218097Y210546D01*
X216525Y212118D01*
X215289Y212630D01*
X214991Y214128D01*
X216697Y215834D01*
X239567D01*
X239597Y215811D01*
X241451Y215043D01*
X243440Y214781D01*
X297589D01*
X337465Y174905D01*
X337465Y174905D01*
X339057Y173684D01*
X340911Y172916D01*
X342900Y172654D01*
X342900Y172654D01*
X354280D01*
Y165060D01*
X353107Y164574D01*
X352923Y164757D01*
X350869Y165608D01*
X348647D01*
X346593Y164757D01*
X345021Y163185D01*
X344170Y161131D01*
Y158909D01*
X345021Y156855D01*
X346593Y155283D01*
X348647Y154432D01*
X350869D01*
X352923Y155283D01*
X353107Y155466D01*
X354280Y154980D01*
Y134620D01*
X349749D01*
X349250Y134686D01*
X348879D01*
X348879Y134686D01*
X348379Y134620D01*
X341630D01*
Y130620D01*
X336928Y125919D01*
X334992Y125664D01*
X332520Y124640D01*
X330398Y123012D01*
X255734Y48348D01*
X125237D01*
X124374Y49582D01*
X124460Y49790D01*
Y51810D01*
X123687Y53678D01*
X122500Y54864D01*
X123687Y56050D01*
X124460Y57917D01*
Y59939D01*
X123687Y61806D01*
X122258Y63235D01*
X120391Y64008D01*
X118370D01*
X116502Y63235D01*
X115073Y61806D01*
X114300Y59939D01*
Y57917D01*
X115073Y56050D01*
X116260Y54864D01*
X115073Y53678D01*
X114300Y51810D01*
Y49790D01*
X115073Y47922D01*
X116502Y46493D01*
X116707Y46409D01*
X116910Y44950D01*
X115585Y43224D01*
X114562Y40752D01*
X114212Y38100D01*
X114562Y35448D01*
X115585Y32976D01*
X117214Y30854D01*
X119336Y29225D01*
X121808Y28201D01*
X124460Y27852D01*
X259979D01*
X259979Y27852D01*
X262631Y28201D01*
X265103Y29225D01*
X267225Y30854D01*
X344891Y108519D01*
X346519Y110642D01*
X347543Y113113D01*
X347798Y115050D01*
X352128Y119380D01*
X354280D01*
Y107905D01*
X354477Y106914D01*
X355039Y106074D01*
X355879Y105512D01*
X356870Y105315D01*
X367030D01*
X368021Y105512D01*
X368861Y106074D01*
X369423Y106914D01*
X369620Y107905D01*
Y108498D01*
X370890Y109283D01*
X372268Y108712D01*
X374492D01*
X376545Y109563D01*
X378117Y111135D01*
X378968Y113188D01*
Y115412D01*
X378117Y117465D01*
X376545Y119037D01*
X374492Y119888D01*
X372268D01*
X370890Y119317D01*
X369620Y120102D01*
Y134449D01*
X370890Y134702D01*
X371183Y133995D01*
X372755Y132423D01*
X374809Y131572D01*
X377032D01*
X379085Y132423D01*
X380657Y133995D01*
X381508Y136048D01*
Y138272D01*
X380657Y140325D01*
X379085Y141897D01*
X377032Y142748D01*
X374809D01*
X372755Y141897D01*
X371183Y140325D01*
X370890Y139618D01*
X369620Y139871D01*
Y149689D01*
X370890Y149942D01*
X371183Y149235D01*
X372755Y147663D01*
X374809Y146812D01*
X377032D01*
X379085Y147663D01*
X380657Y149235D01*
X381508Y151288D01*
Y153511D01*
X380657Y155565D01*
X379085Y157137D01*
X377032Y157988D01*
X374809D01*
X372755Y157137D01*
X371183Y155565D01*
X370890Y154858D01*
X369620Y155111D01*
Y172654D01*
X381000D01*
X382989Y172916D01*
X384843Y173684D01*
X386435Y174905D01*
X414664Y203134D01*
X464310D01*
X464796Y201961D01*
X463698Y200863D01*
X462575Y199182D01*
X462180Y197200D01*
Y182438D01*
X461772Y181451D01*
Y179228D01*
X462180Y178242D01*
Y127000D01*
X462575Y125018D01*
X463698Y123337D01*
X464720Y122315D01*
Y108866D01*
X463451Y108340D01*
X462903Y108888D01*
X460849Y109739D01*
X458626D01*
X456572Y108888D01*
X455000Y107316D01*
X454149Y105262D01*
Y103039D01*
X455000Y100985D01*
X456572Y99414D01*
X456970Y99249D01*
X457035Y98923D01*
X456184Y96869D01*
Y94647D01*
X457035Y92593D01*
X458607Y91021D01*
X460661Y90170D01*
X462883D01*
X463665Y90493D01*
X464720Y89788D01*
Y59756D01*
X464312Y58769D01*
Y56547D01*
X465163Y54493D01*
X466735Y52921D01*
X468788Y52070D01*
X471012D01*
X473065Y52921D01*
X474637Y54493D01*
X475488Y56547D01*
Y58769D01*
X475079Y59756D01*
Y124460D01*
X474685Y126442D01*
X473563Y128123D01*
X472539Y129145D01*
Y178242D01*
X472948Y179228D01*
Y181451D01*
X472539Y182438D01*
Y195055D01*
X480619Y203134D01*
X624204D01*
X626193Y203396D01*
X628047Y204164D01*
X628162Y204253D01*
X629814Y203919D01*
X629821Y203909D01*
X630662Y203347D01*
X631652Y203150D01*
X641300D01*
Y143484D01*
X641339Y143287D01*
X641331Y143087D01*
X641437Y142796D01*
X641497Y142493D01*
X641609Y142326D01*
X641678Y142137D01*
X641887Y141910D01*
X642059Y141653D01*
X642226Y141541D01*
X642362Y141393D01*
X642909Y140993D01*
X643279Y140821D01*
X643634Y140622D01*
X643734Y140610D01*
X643826Y140567D01*
X644233Y140550D01*
X644637Y140501D01*
X645143Y140171D01*
X645677Y139556D01*
X645708Y139483D01*
Y109220D01*
X645860Y108457D01*
X645289Y107367D01*
X644883Y107096D01*
X644474Y106831D01*
X644464Y106816D01*
X644448Y106806D01*
X644177Y106400D01*
X643901Y105999D01*
X643897Y105981D01*
X643887Y105966D01*
X643345Y104656D01*
X642197Y103509D01*
X642059Y103417D01*
X642059Y103417D01*
X642059Y103416D01*
X641745Y102947D01*
X641497Y102577D01*
X641497Y102576D01*
X641497Y102576D01*
X641391Y102041D01*
X641300Y101586D01*
X641300Y101585D01*
X641300Y101585D01*
Y72677D01*
X641497Y71686D01*
X642059Y70846D01*
X642899Y70284D01*
X644208Y69742D01*
X645057Y68893D01*
X645898Y68331D01*
X646889Y68134D01*
X647880Y68331D01*
X648720Y68893D01*
X649292Y69465D01*
X650394Y69921D01*
X652102D01*
X652352Y69971D01*
X652607D01*
X652639Y69954D01*
X652640Y69949D01*
X653622Y68479D01*
X653951Y68150D01*
Y65334D01*
X653727Y64886D01*
X652876Y64246D01*
X652626Y64196D01*
X652371D01*
X652135Y64098D01*
X651885Y64048D01*
X651587Y63925D01*
X650394D01*
X649292Y64381D01*
X648443Y65231D01*
X647603Y65792D01*
X646612Y65989D01*
X645621Y65792D01*
X644781Y65231D01*
X644208Y64658D01*
X643106Y64202D01*
X641914D01*
X640812Y64658D01*
X639968Y65502D01*
X639947Y65552D01*
X639805Y65764D01*
X639708Y66000D01*
X639528Y66180D01*
X639386Y66392D01*
X639174Y66534D01*
X638993Y66715D01*
X638758Y66812D01*
X638546Y66954D01*
X638296Y67004D01*
X638060Y67101D01*
X636814Y67349D01*
X636559D01*
X636309Y67399D01*
X636059Y67349D01*
X635804D01*
X635568Y67251D01*
X635318Y67202D01*
X635106Y67060D01*
X634870Y66962D01*
X634690Y66782D01*
X634478Y66640D01*
X633476Y65638D01*
X632206Y66165D01*
Y67042D01*
X631355Y69095D01*
X629783Y70667D01*
X627730Y71518D01*
X625507D01*
X623453Y70667D01*
X621881Y69095D01*
X621030Y67042D01*
Y64819D01*
X621881Y62765D01*
X623453Y61193D01*
X625507Y60342D01*
X626384D01*
X626909Y59072D01*
X611579Y43741D01*
X611237Y43230D01*
X588010D01*
X587019Y43033D01*
X586179Y42471D01*
X583639Y39931D01*
X583077Y39091D01*
X582880Y38100D01*
Y16353D01*
X581610Y16186D01*
X581441Y16818D01*
X580037Y19250D01*
X578050Y21237D01*
X575618Y22641D01*
X572905Y23368D01*
X570095D01*
X567382Y22641D01*
X564950Y21237D01*
X562963Y19250D01*
X561559Y16818D01*
X560832Y14104D01*
Y11295D01*
X561559Y8582D01*
X562848Y6350D01*
X562430Y5080D01*
X555170D01*
X554752Y6350D01*
X556041Y8582D01*
X556768Y11295D01*
Y14104D01*
X556041Y16818D01*
X554636Y19250D01*
X552650Y21237D01*
X550218Y22641D01*
X547505Y23368D01*
X544696D01*
X541982Y22641D01*
X539550Y21237D01*
X537564Y19250D01*
X536159Y16818D01*
X535432Y14104D01*
Y11295D01*
X536159Y8582D01*
X537448Y6350D01*
X537030Y5080D01*
X529770D01*
X529352Y6350D01*
X530641Y8582D01*
X531368Y11295D01*
Y14104D01*
X530641Y16818D01*
X529236Y19250D01*
X527250Y21237D01*
X524818Y22641D01*
X522104Y23368D01*
X519296D01*
X516582Y22641D01*
X514150Y21237D01*
X512164Y19250D01*
X510759Y16818D01*
X510032Y14104D01*
Y11295D01*
X510759Y8582D01*
X512048Y6350D01*
X511630Y5080D01*
X504370D01*
X503952Y6350D01*
X505241Y8582D01*
X505968Y11295D01*
Y14104D01*
X505241Y16818D01*
X503837Y19250D01*
X501850Y21237D01*
X499418Y22641D01*
X496704Y23368D01*
X493895D01*
X491182Y22641D01*
X488750Y21237D01*
X486763Y19250D01*
X485359Y16818D01*
X484632Y14104D01*
Y11295D01*
X485359Y8582D01*
X486648Y6350D01*
X486230Y5080D01*
X478970D01*
X478552Y6350D01*
X479841Y8582D01*
X480568Y11295D01*
Y14104D01*
X479841Y16818D01*
X478437Y19250D01*
X476450Y21237D01*
X474018Y22641D01*
X471305Y23368D01*
X468495D01*
X465782Y22641D01*
X463350Y21237D01*
X461363Y19250D01*
X459959Y16818D01*
X459232Y14104D01*
Y11295D01*
X459959Y8582D01*
X461248Y6350D01*
X460830Y5080D01*
X453570D01*
X453152Y6350D01*
X454441Y8582D01*
X455168Y11295D01*
Y14104D01*
X454441Y16818D01*
X453036Y19250D01*
X451050Y21237D01*
X448618Y22641D01*
X445905Y23368D01*
X443096D01*
X440382Y22641D01*
X437950Y21237D01*
X435964Y19250D01*
X434559Y16818D01*
X433832Y14104D01*
Y11295D01*
X434559Y8582D01*
X435848Y6350D01*
X435430Y5080D01*
X428170D01*
X427752Y6350D01*
X429041Y8582D01*
X429768Y11295D01*
Y14104D01*
X429041Y16818D01*
X427636Y19250D01*
X425650Y21237D01*
X423218Y22641D01*
X420504Y23368D01*
X417696D01*
X414982Y22641D01*
X412550Y21237D01*
X410564Y19250D01*
X409159Y16818D01*
X408432Y14104D01*
Y11295D01*
X409159Y8582D01*
X410448Y6350D01*
X410030Y5080D01*
X402770D01*
X402352Y6350D01*
X403641Y8582D01*
X404368Y11295D01*
Y14104D01*
X403641Y16818D01*
X402237Y19250D01*
X400250Y21237D01*
X397818Y22641D01*
X395104Y23368D01*
X392295D01*
X389582Y22641D01*
X387150Y21237D01*
X385163Y19250D01*
X383759Y16818D01*
X383032Y14104D01*
Y11295D01*
X383759Y8582D01*
X385048Y6350D01*
X384630Y5080D01*
X377370D01*
X376952Y6350D01*
X378241Y8582D01*
X378968Y11295D01*
Y14104D01*
X378241Y16818D01*
X376837Y19250D01*
X374850Y21237D01*
X372418Y22641D01*
X369705Y23368D01*
X366895D01*
X364182Y22641D01*
X361750Y21237D01*
X359763Y19250D01*
X358359Y16818D01*
X357632Y14104D01*
Y11295D01*
X358359Y8582D01*
X359648Y6350D01*
X359230Y5080D01*
X351970D01*
X351552Y6350D01*
X352841Y8582D01*
X353568Y11295D01*
Y14104D01*
X352841Y16818D01*
X351437Y19250D01*
X349450Y21237D01*
X347018Y22641D01*
X344305Y23368D01*
X341496D01*
X338782Y22641D01*
X336350Y21237D01*
X334364Y19250D01*
X332959Y16818D01*
X332232Y14104D01*
Y11295D01*
X332959Y8582D01*
X334248Y6350D01*
X333830Y5080D01*
X326570D01*
X326152Y6350D01*
X327441Y8582D01*
X328168Y11295D01*
Y14104D01*
X327441Y16818D01*
X326036Y19250D01*
X324050Y21237D01*
X321618Y22641D01*
X318904Y23368D01*
X316096D01*
X313382Y22641D01*
X310950Y21237D01*
X308964Y19250D01*
X307559Y16818D01*
X306832Y14104D01*
Y11295D01*
X307559Y8582D01*
X308848Y6350D01*
X308430Y5080D01*
X301170D01*
X300752Y6350D01*
X302041Y8582D01*
X302768Y11295D01*
Y14104D01*
X302041Y16818D01*
X300637Y19250D01*
X298650Y21237D01*
X296218Y22641D01*
X293505Y23368D01*
X290695D01*
X287982Y22641D01*
X285550Y21237D01*
X283563Y19250D01*
X282159Y16818D01*
X281432Y14104D01*
Y11295D01*
X282159Y8582D01*
X283448Y6350D01*
X283030Y5080D01*
X275770D01*
X275352Y6350D01*
X276641Y8582D01*
X277368Y11295D01*
Y14104D01*
X276641Y16818D01*
X275236Y19250D01*
X273250Y21237D01*
X270818Y22641D01*
X268104Y23368D01*
X265296D01*
X262582Y22641D01*
X260150Y21237D01*
X258164Y19250D01*
X256759Y16818D01*
X256032Y14104D01*
Y11295D01*
X256759Y8582D01*
X258048Y6350D01*
X257630Y5080D01*
X250370D01*
X249952Y6350D01*
X251241Y8582D01*
X251968Y11295D01*
Y14104D01*
X251241Y16818D01*
X249837Y19250D01*
X247850Y21237D01*
X245418Y22641D01*
X242705Y23368D01*
X239895D01*
X237182Y22641D01*
X234750Y21237D01*
X232764Y19250D01*
X231359Y16818D01*
X230632Y14104D01*
Y11295D01*
X231359Y8582D01*
X232648Y6350D01*
X232230Y5080D01*
X224970D01*
X224552Y6350D01*
X225841Y8582D01*
X226568Y11295D01*
Y14104D01*
X225841Y16818D01*
X224436Y19250D01*
X222450Y21237D01*
X220018Y22641D01*
X217304Y23368D01*
X214496D01*
X211782Y22641D01*
X209350Y21237D01*
X207363Y19250D01*
X205959Y16818D01*
X205232Y14104D01*
Y11295D01*
X205959Y8582D01*
X207248Y6350D01*
X206830Y5080D01*
X198908D01*
X198422Y6253D01*
X198630Y6462D01*
X199968Y8778D01*
X200660Y11362D01*
Y14038D01*
X199968Y16622D01*
X198630Y18938D01*
X196738Y20830D01*
X194422Y22168D01*
X191838Y22860D01*
X189162D01*
X186578Y22168D01*
X184262Y20830D01*
X182370Y18938D01*
X181032Y16622D01*
X180340Y14038D01*
Y11362D01*
X181032Y8778D01*
X182370Y6462D01*
X182578Y6253D01*
X182092Y5080D01*
X173508D01*
X173022Y6253D01*
X173230Y6462D01*
X174568Y8778D01*
X175260Y11362D01*
Y14038D01*
X174568Y16622D01*
X173230Y18938D01*
X171338Y20830D01*
X169022Y22168D01*
X166438Y22860D01*
X163762D01*
X161178Y22168D01*
X158862Y20830D01*
X156970Y18938D01*
X155632Y16622D01*
X154940Y14038D01*
Y11362D01*
X155632Y8778D01*
X156970Y6462D01*
X157178Y6253D01*
X156692Y5080D01*
X148770D01*
X148352Y6350D01*
X149641Y8582D01*
X150368Y11295D01*
Y14104D01*
X149641Y16818D01*
X148237Y19250D01*
X146250Y21237D01*
X143818Y22641D01*
X141104Y23368D01*
X138295D01*
X135582Y22641D01*
X133150Y21237D01*
X131164Y19250D01*
X129759Y16818D01*
X129032Y14104D01*
Y11295D01*
X129759Y8582D01*
X131048Y6350D01*
X130630Y5080D01*
X123370D01*
X122952Y6350D01*
X124241Y8582D01*
X124968Y11295D01*
Y14104D01*
X124241Y16818D01*
X122837Y19250D01*
X120850Y21237D01*
X118418Y22641D01*
X115704Y23368D01*
X112895D01*
X110182Y22641D01*
X107750Y21237D01*
X105764Y19250D01*
X104359Y16818D01*
X103632Y14104D01*
Y11295D01*
X104359Y8582D01*
X105648Y6350D01*
X105230Y5080D01*
X6350D01*
Y248920D01*
X79830D01*
X80248Y247650D01*
X78959Y245418D01*
X78232Y242705D01*
Y239895D01*
X78959Y237182D01*
X80364Y234750D01*
X82350Y232764D01*
X84782Y231359D01*
X87495Y230632D01*
X90304D01*
X93018Y231359D01*
X95450Y232764D01*
X97437Y234750D01*
X98841Y237182D01*
X99568Y239895D01*
Y242705D01*
X98841Y245418D01*
X97552Y247650D01*
X97970Y248920D01*
X130630D01*
X131048Y247650D01*
X129759Y245418D01*
X129032Y242705D01*
Y239895D01*
X129759Y237182D01*
X131164Y234750D01*
X133150Y232764D01*
X135582Y231359D01*
X138295Y230632D01*
X141104D01*
X143818Y231359D01*
X146250Y232764D01*
X148237Y234750D01*
X149641Y237182D01*
X150368Y239895D01*
Y242705D01*
X149641Y245418D01*
X148352Y247650D01*
X148770Y248920D01*
X156030D01*
X156448Y247650D01*
X155159Y245418D01*
X154432Y242705D01*
Y239895D01*
X155159Y237182D01*
X156564Y234750D01*
X158550Y232764D01*
X160982Y231359D01*
X163696Y230632D01*
X166504D01*
X169218Y231359D01*
X171650Y232764D01*
X173636Y234750D01*
X175041Y237182D01*
X175768Y239895D01*
Y242705D01*
X175041Y245418D01*
X173752Y247650D01*
X174170Y248920D01*
X181430D01*
X181848Y247650D01*
X180559Y245418D01*
X179832Y242705D01*
Y239895D01*
X180559Y237182D01*
X181964Y234750D01*
X182435Y234278D01*
X182241Y233302D01*
X180669Y231730D01*
X179818Y229676D01*
Y227453D01*
X180669Y225400D01*
X182241Y223828D01*
X184294Y222977D01*
X186518D01*
X188571Y223828D01*
X190143Y225400D01*
X190994Y227453D01*
Y229676D01*
X191512Y230451D01*
X191966Y230648D01*
X194618Y231359D01*
X197050Y232764D01*
X199037Y234750D01*
X200441Y237182D01*
X201168Y239895D01*
Y242705D01*
X200441Y245418D01*
X199152Y247650D01*
X199570Y248920D01*
X206830D01*
X207248Y247650D01*
D02*
G37*
G36*
X640532Y215483D02*
X642212Y214360D01*
X642659Y214272D01*
X645708Y211223D01*
Y143728D01*
X644438Y143083D01*
X643890Y143484D01*
Y205740D01*
X631652D01*
X631166Y206913D01*
X639808Y215555D01*
X640532Y215483D01*
D02*
G37*
G36*
X656075Y178253D02*
X658129Y177402D01*
X658356D01*
X659204Y176132D01*
X658732Y174991D01*
Y172768D01*
X659583Y170715D01*
X660862Y169435D01*
X659583Y168155D01*
X658732Y166101D01*
Y163878D01*
X659583Y161825D01*
X660227Y161180D01*
X659583Y160535D01*
X658732Y158482D01*
Y156258D01*
X659583Y154205D01*
X660862Y152925D01*
X659583Y151645D01*
X658732Y149592D01*
Y147368D01*
X659583Y145315D01*
X660862Y144035D01*
X659583Y142755D01*
X658732Y140702D01*
Y138478D01*
X659583Y136425D01*
X660227Y135780D01*
X659583Y135135D01*
X658732Y133082D01*
Y130858D01*
X659583Y128805D01*
X660862Y127525D01*
X659583Y126245D01*
X658732Y124192D01*
Y121968D01*
X659583Y119915D01*
X660862Y118635D01*
X659583Y117355D01*
X658732Y115302D01*
Y113078D01*
X659583Y111025D01*
X660227Y110380D01*
X659583Y109735D01*
X659099Y108567D01*
X657601Y108269D01*
X654772Y111097D01*
Y177896D01*
X655945Y178382D01*
X656075Y178253D01*
D02*
G37*
G36*
X367030Y107905D02*
X356870D01*
Y119380D01*
Y126501D01*
X356936Y127000D01*
X356870Y127500D01*
Y134620D01*
Y186690D01*
X367030D01*
Y107905D01*
D02*
G37*
G36*
X652295Y100756D02*
Y72640D01*
X652102Y72511D01*
X649879D01*
X647825Y71660D01*
X646889Y70724D01*
X645675Y71937D01*
X643890Y72677D01*
Y101585D01*
X643968Y101618D01*
X645540Y103189D01*
X646280Y104975D01*
X647183Y105335D01*
X647661Y105390D01*
X652295Y100756D01*
D02*
G37*
G36*
X660938Y185532D02*
X661854Y184616D01*
X662694Y184055D01*
X663685Y183858D01*
X664676Y184055D01*
X665516Y184616D01*
X666322Y185422D01*
X667424Y185878D01*
X668616D01*
X669718Y185422D01*
X670562Y184578D01*
X671018Y183476D01*
Y182284D01*
X670562Y181182D01*
X669718Y180338D01*
X669074Y180071D01*
X668892Y179949D01*
X668687Y179871D01*
X667798Y179313D01*
X667716Y179235D01*
X667614Y179186D01*
X667351Y178890D01*
X667064Y178619D01*
X667018Y178515D01*
X666943Y178431D01*
X666813Y178057D01*
X666651Y177696D01*
X666648Y177583D01*
X666611Y177476D01*
X666634Y177082D01*
X666623Y176686D01*
X666664Y176581D01*
X666670Y176468D01*
X666924Y175493D01*
X667002Y175331D01*
X667037Y175154D01*
X667318Y174476D01*
Y173284D01*
X666862Y172182D01*
X665946Y171266D01*
X665385Y170426D01*
X665188Y169435D01*
X665385Y168444D01*
X665946Y167604D01*
X666862Y166688D01*
X667318Y165586D01*
Y164394D01*
X666862Y163292D01*
X666581Y163011D01*
X666020Y162171D01*
X665823Y161180D01*
X666020Y160189D01*
X666581Y159349D01*
X666862Y159068D01*
X667318Y157966D01*
Y156774D01*
X666862Y155672D01*
X665946Y154756D01*
X665385Y153916D01*
X665188Y152925D01*
X665385Y151934D01*
X665946Y151094D01*
X666862Y150178D01*
X667318Y149076D01*
Y147884D01*
X666862Y146782D01*
X665946Y145866D01*
X665385Y145026D01*
X665188Y144035D01*
X665385Y143044D01*
X665946Y142204D01*
X666862Y141288D01*
X667318Y140186D01*
Y138994D01*
X666862Y137892D01*
X666581Y137611D01*
X666020Y136771D01*
X665823Y135780D01*
X666020Y134789D01*
X666581Y133949D01*
X666862Y133668D01*
X667318Y132566D01*
Y131374D01*
X666862Y130272D01*
X665946Y129356D01*
X665385Y128516D01*
X665188Y127525D01*
X665385Y126534D01*
X665946Y125694D01*
X666862Y124778D01*
X667318Y123676D01*
Y122484D01*
X666862Y121382D01*
X665946Y120466D01*
X665385Y119626D01*
X665188Y118635D01*
X665385Y117644D01*
X665946Y116804D01*
X666862Y115888D01*
X667318Y114786D01*
Y113594D01*
X666862Y112492D01*
X666581Y112211D01*
X666020Y111371D01*
X665823Y110380D01*
X666020Y109389D01*
X666581Y108549D01*
X666862Y108268D01*
X667318Y107166D01*
Y105974D01*
X666862Y104872D01*
X665946Y103956D01*
X665385Y103116D01*
X665188Y102125D01*
X665385Y101134D01*
X665946Y100294D01*
X666862Y99378D01*
X667318Y98276D01*
Y97084D01*
X666862Y95982D01*
X665946Y95066D01*
X665385Y94226D01*
X665188Y93235D01*
X665385Y92244D01*
X665946Y91404D01*
X666862Y90488D01*
X667318Y89386D01*
Y88194D01*
X666862Y87092D01*
X666581Y86811D01*
X666020Y85971D01*
X665823Y84980D01*
X666020Y83989D01*
X666581Y83149D01*
X666862Y82868D01*
X667318Y81766D01*
Y80574D01*
X666754Y79211D01*
X666500Y78831D01*
X666303Y77840D01*
X666500Y76849D01*
X667061Y76009D01*
X668203Y74867D01*
X668660Y73765D01*
Y72572D01*
X668203Y71470D01*
X667759Y71026D01*
X667747Y71009D01*
X667731Y70997D01*
X667468Y70590D01*
X667197Y70186D01*
X667194Y70166D01*
X667182Y70149D01*
X666735Y69019D01*
X666665Y68634D01*
X666560Y68256D01*
X666574Y68140D01*
X666553Y68025D01*
X666636Y67642D01*
X666684Y67253D01*
X666741Y67151D01*
X666766Y67037D01*
X666989Y66715D01*
X667182Y66374D01*
X667635Y65849D01*
X667711Y65789D01*
X667764Y65709D01*
X668499Y64975D01*
X668955Y63873D01*
Y62680D01*
X668499Y61578D01*
X667655Y60735D01*
X666553Y60278D01*
X665361D01*
X665043Y60410D01*
X664793Y60459D01*
X664557Y60557D01*
X664302D01*
X664052Y60607D01*
X663206Y61266D01*
X662996Y61704D01*
Y63720D01*
X663016Y63820D01*
Y69834D01*
X662671Y71569D01*
X662366Y72025D01*
X662356Y72076D01*
X661373Y73547D01*
X661359Y73561D01*
Y102633D01*
X661014Y104367D01*
X660546Y105068D01*
X660546Y105069D01*
X660501Y105296D01*
X660524Y106000D01*
X660844Y106650D01*
X660930Y106735D01*
X660930Y106735D01*
X661072Y106948D01*
X661252Y107128D01*
X661350Y107364D01*
X661491Y107576D01*
X661778Y108268D01*
X662059Y108549D01*
X662620Y109389D01*
X662817Y110380D01*
X662620Y111371D01*
X662059Y112211D01*
X661778Y112492D01*
X661322Y113594D01*
Y114786D01*
X661778Y115888D01*
X662694Y116804D01*
X663255Y117644D01*
X663452Y118635D01*
X663255Y119626D01*
X662694Y120466D01*
X661778Y121382D01*
X661322Y122484D01*
Y123676D01*
X661778Y124778D01*
X662694Y125694D01*
X663255Y126534D01*
X663452Y127525D01*
X663255Y128516D01*
X662694Y129356D01*
X661778Y130272D01*
X661322Y131374D01*
Y132566D01*
X661778Y133668D01*
X662059Y133949D01*
X662620Y134789D01*
X662817Y135780D01*
X662620Y136771D01*
X662059Y137611D01*
X661778Y137892D01*
X661322Y138994D01*
Y140186D01*
X661778Y141288D01*
X662694Y142204D01*
X663255Y143044D01*
X663452Y144035D01*
X663255Y145026D01*
X662694Y145866D01*
X661778Y146782D01*
X661322Y147884D01*
Y149076D01*
X661778Y150178D01*
X662694Y151094D01*
X663255Y151934D01*
X663452Y152925D01*
X663255Y153916D01*
X662694Y154756D01*
X661778Y155672D01*
X661322Y156774D01*
Y157966D01*
X661778Y159068D01*
X662059Y159349D01*
X662620Y160189D01*
X662817Y161180D01*
X662620Y162171D01*
X662059Y163011D01*
X661778Y163292D01*
X661322Y164394D01*
Y165586D01*
X661778Y166688D01*
X662694Y167604D01*
X663255Y168444D01*
X663452Y169435D01*
X663255Y170426D01*
X662694Y171266D01*
X661778Y172182D01*
X661322Y173284D01*
Y174476D01*
X661597Y175141D01*
X661647Y175391D01*
X661744Y175627D01*
Y175882D01*
X661794Y176132D01*
X661744Y176382D01*
Y176637D01*
X661647Y176873D01*
X661597Y177123D01*
X661455Y177335D01*
X661358Y177571D01*
X660509Y178841D01*
X660329Y179021D01*
X660187Y179233D01*
X659975Y179375D01*
X659795Y179555D01*
X659559Y179653D01*
X659347Y179795D01*
X659097Y179844D01*
X658861Y179942D01*
X658764D01*
X657235Y180575D01*
X656936Y180775D01*
X655945Y180972D01*
X655095Y181560D01*
X654772Y182033D01*
Y183947D01*
X655191Y184506D01*
X655945Y185008D01*
X656936Y185205D01*
X657235Y185405D01*
X658644Y185988D01*
X659836D01*
X660938Y185532D01*
D02*
G37*
G36*
X662432Y230632D02*
X680720D01*
Y49040D01*
X679547Y48554D01*
X679494Y48606D01*
X677440Y49457D01*
X675217D01*
X673164Y48606D01*
X671591Y47034D01*
X670948Y45481D01*
X669567Y45065D01*
X662996Y51637D01*
Y57312D01*
X664052Y58017D01*
X664845Y57688D01*
X667068D01*
X669122Y58539D01*
X670694Y60111D01*
X671545Y62165D01*
Y64388D01*
X670694Y66442D01*
X669595Y67541D01*
X669143Y68065D01*
X669590Y69195D01*
X670399Y70003D01*
X671249Y72057D01*
Y74280D01*
X670399Y76334D01*
X668893Y77840D01*
X669057Y78005D01*
X669908Y80058D01*
Y82282D01*
X669057Y84335D01*
X668413Y84980D01*
X669057Y85625D01*
X669908Y87678D01*
Y89902D01*
X669057Y91955D01*
X667778Y93235D01*
X669057Y94515D01*
X669908Y96568D01*
Y98792D01*
X669057Y100845D01*
X667778Y102125D01*
X669057Y103405D01*
X669908Y105458D01*
Y107682D01*
X669057Y109735D01*
X668413Y110380D01*
X669057Y111025D01*
X669908Y113078D01*
Y115302D01*
X669057Y117355D01*
X667778Y118635D01*
X669057Y119915D01*
X669908Y121968D01*
Y124192D01*
X669057Y126245D01*
X667778Y127525D01*
X669057Y128805D01*
X669908Y130858D01*
Y133082D01*
X669057Y135135D01*
X668413Y135780D01*
X669057Y136425D01*
X669908Y138478D01*
Y140702D01*
X669057Y142755D01*
X667778Y144035D01*
X669057Y145315D01*
X669908Y147368D01*
Y149592D01*
X669057Y151645D01*
X667778Y152925D01*
X669057Y154205D01*
X669908Y156258D01*
Y158482D01*
X669057Y160535D01*
X668413Y161180D01*
X669057Y161825D01*
X669908Y163878D01*
Y166101D01*
X669057Y168155D01*
X667778Y169435D01*
X669057Y170715D01*
X669908Y172768D01*
Y174991D01*
X669430Y176146D01*
X669176Y177120D01*
X670065Y177679D01*
X671185Y178143D01*
X672757Y179715D01*
X673608Y181768D01*
Y183992D01*
X672757Y186045D01*
X671185Y187617D01*
X669131Y188468D01*
X666908D01*
X664855Y187617D01*
X663685Y186448D01*
X662405Y187727D01*
X660351Y188578D01*
X658129D01*
X656075Y187727D01*
X655945Y187598D01*
X654772Y188084D01*
Y213100D01*
X654427Y214834D01*
X653445Y216305D01*
X653445Y216305D01*
X650085Y219664D01*
X649435Y220735D01*
X651968Y223269D01*
X653190Y224861D01*
X653958Y226714D01*
X654219Y228704D01*
Y237279D01*
X654356Y237457D01*
X655124Y239311D01*
X655386Y241300D01*
X655124Y243289D01*
X654356Y245143D01*
X653135Y246735D01*
X651543Y247956D01*
X649689Y248724D01*
X648199Y248920D01*
X648283Y250190D01*
X662432D01*
Y230632D01*
D02*
G37*
G36*
X637555Y64561D02*
X637773Y64035D01*
X639345Y62463D01*
X641398Y61612D01*
X643622D01*
X645675Y62463D01*
X646612Y63399D01*
X647825Y62186D01*
X649879Y61335D01*
X652102D01*
X652876Y61656D01*
X653932Y60950D01*
Y49759D01*
X654277Y48025D01*
X655259Y46555D01*
X668131Y33683D01*
Y13137D01*
X668476Y11402D01*
X669459Y9932D01*
X669895Y9495D01*
X671366Y8513D01*
X673100Y8168D01*
X674834Y8513D01*
X676305Y9495D01*
X677287Y10966D01*
X677632Y12700D01*
X677287Y14434D01*
X677195Y14572D01*
Y35560D01*
X677195Y35560D01*
X676907Y37011D01*
X677249Y37826D01*
X677658Y38371D01*
X679494Y39132D01*
X679547Y39184D01*
X680720Y38698D01*
Y5080D01*
X656770D01*
X656352Y6350D01*
X657641Y8582D01*
X658368Y11295D01*
Y14104D01*
X657641Y16818D01*
X656236Y19250D01*
X654250Y21237D01*
X651818Y22641D01*
X649105Y23368D01*
X646295D01*
X643582Y22641D01*
X641150Y21237D01*
X639164Y19250D01*
X637759Y16818D01*
X637032Y14104D01*
Y11295D01*
X637759Y8582D01*
X639048Y6350D01*
X638630Y5080D01*
X631370D01*
X630952Y6350D01*
X632241Y8582D01*
X632968Y11295D01*
Y14104D01*
X632241Y16818D01*
X630836Y19250D01*
X628850Y21237D01*
X626418Y22641D01*
X623704Y23368D01*
X620896D01*
X618182Y22641D01*
X615750Y21237D01*
X613764Y19250D01*
X612359Y16818D01*
X611632Y14104D01*
Y11295D01*
X612359Y8582D01*
X613648Y6350D01*
X613230Y5080D01*
X605970D01*
X605552Y6350D01*
X606841Y8582D01*
X607568Y11295D01*
Y14104D01*
X606841Y16818D01*
X605437Y19250D01*
X603450Y21237D01*
X601018Y22641D01*
X598304Y23368D01*
X595495D01*
X592782Y22641D01*
X590350Y21237D01*
X588363Y19250D01*
X586959Y16818D01*
X586740Y16000D01*
X585470Y16168D01*
Y38100D01*
X588010Y40640D01*
X613410D01*
Y41910D01*
X636309Y64809D01*
X637555Y64561D01*
D02*
G37*
G36*
X650818Y20228D02*
X652660Y19164D01*
X654164Y17660D01*
X655228Y15818D01*
X655778Y13764D01*
Y11637D01*
X655228Y9582D01*
X654109Y7645D01*
X654086Y7575D01*
X654041Y7517D01*
X653924Y7099D01*
X653785Y6688D01*
X653789Y6615D01*
X653770Y6544D01*
X653793Y6350D01*
X653511Y5786D01*
X652950Y5198D01*
X652730Y5080D01*
X642670D01*
X642450Y5198D01*
X641889Y5786D01*
X641607Y6350D01*
X641630Y6544D01*
X641611Y6615D01*
X641615Y6688D01*
X641476Y7099D01*
X641359Y7517D01*
X641314Y7575D01*
X641291Y7645D01*
X640172Y9582D01*
X639622Y11637D01*
Y13764D01*
X640172Y15818D01*
X641236Y17660D01*
X642740Y19164D01*
X644582Y20228D01*
X646637Y20778D01*
X648764D01*
X650818Y20228D01*
D02*
G37*
%LPC*%
G36*
X336161Y216177D02*
X333938D01*
X331884Y215327D01*
X330312Y213755D01*
X329461Y211701D01*
Y209478D01*
X330312Y207424D01*
X331884Y205852D01*
X333938Y205001D01*
X336161D01*
X338215Y205852D01*
X339787Y207424D01*
X340637Y209478D01*
Y211701D01*
X339787Y213755D01*
X338215Y215327D01*
X336161Y216177D01*
D02*
G37*
G36*
X102150Y210820D02*
X100129D01*
X98262Y210047D01*
X96833Y208618D01*
X96060Y206751D01*
Y204729D01*
X96833Y202862D01*
X98262Y201433D01*
X100129Y200660D01*
X102150D01*
X104018Y201433D01*
X105447Y202862D01*
X106220Y204729D01*
Y206751D01*
X105447Y208618D01*
X104018Y210047D01*
X102150Y210820D01*
D02*
G37*
G36*
X435221Y200937D02*
X432998D01*
X430944Y200087D01*
X429372Y198515D01*
X428521Y196461D01*
Y194238D01*
X429372Y192184D01*
X430944Y190612D01*
X432998Y189761D01*
X435221D01*
X437275Y190612D01*
X438847Y192184D01*
X439697Y194238D01*
Y196461D01*
X438847Y198515D01*
X437275Y200087D01*
X435221Y200937D01*
D02*
G37*
G36*
X102312Y191932D02*
X100291D01*
X98424Y191159D01*
X96995Y189730D01*
X96222Y187862D01*
Y185842D01*
X96995Y183974D01*
X98424Y182545D01*
X100291Y181772D01*
X102312D01*
X104179Y182545D01*
X105609Y183974D01*
X106382Y185842D01*
Y187862D01*
X105609Y189730D01*
X104179Y191159D01*
X102312Y191932D01*
D02*
G37*
G36*
X227680Y190460D02*
X225457D01*
X223403Y189609D01*
X221831Y188037D01*
X220980Y185984D01*
Y183761D01*
X221831Y181707D01*
X223403Y180135D01*
X225457Y179284D01*
X227680D01*
X229733Y180135D01*
X231305Y181707D01*
X232156Y183761D01*
Y185984D01*
X231305Y188037D01*
X229733Y189609D01*
X227680Y190460D01*
D02*
G37*
G36*
X634952Y187308D02*
X632729D01*
X630675Y186457D01*
X629103Y184885D01*
X628252Y182831D01*
Y180609D01*
X629103Y178555D01*
X630675Y176983D01*
X632729Y176132D01*
X634952D01*
X637005Y176983D01*
X638577Y178555D01*
X639428Y180609D01*
Y182831D01*
X638577Y184885D01*
X637005Y186457D01*
X634952Y187308D01*
D02*
G37*
G36*
X618442D02*
X616218D01*
X614165Y186457D01*
X612593Y184885D01*
X611742Y182831D01*
Y180609D01*
X612593Y178555D01*
X614165Y176983D01*
X616218Y176132D01*
X618442D01*
X620495Y176983D01*
X622067Y178555D01*
X622918Y180609D01*
Y182831D01*
X622067Y184885D01*
X620495Y186457D01*
X618442Y187308D01*
D02*
G37*
G36*
X600662D02*
X598438D01*
X596385Y186457D01*
X594813Y184885D01*
X593962Y182831D01*
Y180609D01*
X594813Y178555D01*
X596385Y176983D01*
X598438Y176132D01*
X600662D01*
X602715Y176983D01*
X604287Y178555D01*
X605138Y180609D01*
Y182831D01*
X604287Y184885D01*
X602715Y186457D01*
X600662Y187308D01*
D02*
G37*
G36*
X584151D02*
X581928D01*
X579875Y186457D01*
X578303Y184885D01*
X577452Y182831D01*
Y180609D01*
X578303Y178555D01*
X579875Y176983D01*
X581928Y176132D01*
X584151D01*
X586205Y176983D01*
X587777Y178555D01*
X588628Y180609D01*
Y182831D01*
X587777Y184885D01*
X586205Y186457D01*
X584151Y187308D01*
D02*
G37*
G36*
X566371D02*
X564148D01*
X562095Y186457D01*
X560523Y184885D01*
X559672Y182831D01*
Y180609D01*
X560523Y178555D01*
X562095Y176983D01*
X564148Y176132D01*
X566371D01*
X568425Y176983D01*
X569997Y178555D01*
X570848Y180609D01*
Y182831D01*
X569997Y184885D01*
X568425Y186457D01*
X566371Y187308D01*
D02*
G37*
G36*
X549861Y186038D02*
X547639D01*
X545585Y185187D01*
X544013Y183615D01*
X543162Y181562D01*
Y179338D01*
X544013Y177285D01*
X545585Y175713D01*
X547639Y174862D01*
X549861D01*
X551915Y175713D01*
X553487Y177285D01*
X554338Y179338D01*
Y181562D01*
X553487Y183615D01*
X551915Y185187D01*
X549861Y186038D01*
D02*
G37*
G36*
X232251Y178308D02*
X230028D01*
X227975Y177457D01*
X226403Y175885D01*
X225552Y173832D01*
Y171609D01*
X226403Y169555D01*
X227975Y167983D01*
X230028Y167132D01*
X232251D01*
X234305Y167983D01*
X235877Y169555D01*
X236728Y171609D01*
Y173832D01*
X235877Y175885D01*
X234305Y177457D01*
X232251Y178308D01*
D02*
G37*
G36*
X626062Y175878D02*
X623839D01*
X621785Y175027D01*
X620213Y173455D01*
X619362Y171402D01*
Y169179D01*
X620213Y167125D01*
X621785Y165553D01*
X623839Y164702D01*
X626062D01*
X628115Y165553D01*
X629687Y167125D01*
X630538Y169179D01*
Y171402D01*
X629687Y173455D01*
X628115Y175027D01*
X626062Y175878D01*
D02*
G37*
G36*
X609552D02*
X607328D01*
X605275Y175027D01*
X603703Y173455D01*
X602852Y171402D01*
Y169179D01*
X603703Y167125D01*
X605275Y165553D01*
X607328Y164702D01*
X609552D01*
X611605Y165553D01*
X613177Y167125D01*
X614028Y169179D01*
Y171402D01*
X613177Y173455D01*
X611605Y175027D01*
X609552Y175878D01*
D02*
G37*
G36*
X591772D02*
X589548D01*
X587495Y175027D01*
X585923Y173455D01*
X585072Y171402D01*
Y169179D01*
X585923Y167125D01*
X587495Y165553D01*
X589548Y164702D01*
X591772D01*
X593825Y165553D01*
X595397Y167125D01*
X596248Y169179D01*
Y171402D01*
X595397Y173455D01*
X593825Y175027D01*
X591772Y175878D01*
D02*
G37*
G36*
X575261D02*
X573038D01*
X570985Y175027D01*
X569413Y173455D01*
X568562Y171402D01*
Y169179D01*
X569413Y167125D01*
X570985Y165553D01*
X573038Y164702D01*
X575261D01*
X577315Y165553D01*
X578887Y167125D01*
X579738Y169179D01*
Y171402D01*
X578887Y173455D01*
X577315Y175027D01*
X575261Y175878D01*
D02*
G37*
G36*
X557481D02*
X555258D01*
X553205Y175027D01*
X551633Y173455D01*
X550782Y171402D01*
Y169179D01*
X551633Y167125D01*
X553205Y165553D01*
X555258Y164702D01*
X557481D01*
X559535Y165553D01*
X561107Y167125D01*
X561958Y169179D01*
Y171402D01*
X561107Y173455D01*
X559535Y175027D01*
X557481Y175878D01*
D02*
G37*
G36*
X137684Y162874D02*
X135461D01*
X133407Y162024D01*
X131835Y160452D01*
X130984Y158398D01*
Y156175D01*
X131835Y154121D01*
X133407Y152549D01*
X135461Y151698D01*
X137684D01*
X139738Y152549D01*
X141310Y154121D01*
X142160Y156175D01*
Y158398D01*
X141310Y160452D01*
X139738Y162024D01*
X137684Y162874D01*
D02*
G37*
G36*
X488941Y188319D02*
X486718D01*
X484664Y187468D01*
X483092Y185896D01*
X482241Y183842D01*
Y181619D01*
X483092Y179565D01*
X484664Y177993D01*
X486718Y177143D01*
X488657D01*
X489267Y176697D01*
X489712Y176087D01*
Y174149D01*
X490563Y172095D01*
X492135Y170523D01*
X493145Y170104D01*
X493443Y168606D01*
X493103Y168265D01*
X492252Y166211D01*
Y163988D01*
X493103Y161935D01*
X494675Y160363D01*
X496729Y159512D01*
X498951D01*
X500133Y160001D01*
X501105Y159029D01*
X501026Y158840D01*
Y156617D01*
X501877Y154563D01*
X503449Y152991D01*
X504542Y152538D01*
X505266Y150967D01*
X504952Y150210D01*
Y147986D01*
X505803Y145933D01*
X507375Y144361D01*
X509428Y143510D01*
X511651D01*
X512144Y143714D01*
X513116Y142742D01*
X512572Y141428D01*
Y139205D01*
X513423Y137151D01*
X514995Y135580D01*
X517048Y134729D01*
X519272D01*
X521325Y135580D01*
X522897Y137151D01*
X523748Y139205D01*
Y141428D01*
X522897Y143482D01*
X521325Y145054D01*
X519272Y145905D01*
X517048D01*
X516556Y145701D01*
X515584Y146673D01*
X516128Y147986D01*
Y150210D01*
X515277Y152263D01*
X513705Y153835D01*
X512612Y154288D01*
X511889Y155859D01*
X512202Y156617D01*
Y158840D01*
X511352Y160893D01*
X509780Y162465D01*
X507726Y163316D01*
X505503D01*
X504321Y162827D01*
X503349Y163799D01*
X503428Y163988D01*
Y166211D01*
X502577Y168265D01*
X501005Y169837D01*
X499995Y170256D01*
X499697Y171754D01*
X500037Y172095D01*
X500888Y174149D01*
Y176371D01*
X500037Y178425D01*
X498465Y179997D01*
X496412Y180848D01*
X494473D01*
X493863Y181294D01*
X493417Y181903D01*
Y183842D01*
X492567Y185896D01*
X490995Y187468D01*
X488941Y188319D01*
D02*
G37*
G36*
X145892Y137668D02*
X143668D01*
X141615Y136817D01*
X140043Y135245D01*
X139192Y133191D01*
Y130969D01*
X140043Y128915D01*
X141615Y127343D01*
X143668Y126492D01*
X145892D01*
X147945Y127343D01*
X149517Y128915D01*
X150368Y130969D01*
Y133191D01*
X149517Y135245D01*
X147945Y136817D01*
X145892Y137668D01*
D02*
G37*
G36*
X503931Y134620D02*
X501909D01*
X500042Y133847D01*
X498613Y132418D01*
X497840Y130550D01*
Y128530D01*
X498613Y126662D01*
X500042Y125233D01*
X501909Y124460D01*
X503931D01*
X505798Y125233D01*
X507227Y126662D01*
X508000Y128530D01*
Y130550D01*
X507227Y132418D01*
X505798Y133847D01*
X503931Y134620D01*
D02*
G37*
G36*
X427730D02*
X425709D01*
X423842Y133847D01*
X422413Y132418D01*
X421640Y130550D01*
Y128530D01*
X422413Y126662D01*
X423842Y125233D01*
X425709Y124460D01*
X427730D01*
X429598Y125233D01*
X431027Y126662D01*
X431800Y128530D01*
Y130550D01*
X431027Y132418D01*
X429598Y133847D01*
X427730Y134620D01*
D02*
G37*
G36*
X428193Y122382D02*
X426172D01*
X424305Y121609D01*
X422876Y120180D01*
X422102Y118313D01*
Y116292D01*
X422876Y114425D01*
X424305Y112996D01*
X426172Y112222D01*
X428193D01*
X430060Y112996D01*
X431489Y114425D01*
X432262Y116292D01*
Y118313D01*
X431489Y120180D01*
X430060Y121609D01*
X428193Y122382D01*
D02*
G37*
G36*
X102870Y147320D02*
X87630D01*
Y132080D01*
X87918D01*
X88651Y130810D01*
X88149Y129941D01*
X87630Y128003D01*
Y125997D01*
X88149Y124059D01*
X89152Y122321D01*
X89962Y121512D01*
X90433Y120650D01*
X89962Y119788D01*
X89152Y118979D01*
X88149Y117241D01*
X87630Y115303D01*
Y113297D01*
X88149Y111359D01*
X89152Y109621D01*
X90571Y108202D01*
X92309Y107199D01*
X94247Y106680D01*
X96253D01*
X98191Y107199D01*
X99929Y108202D01*
X101348Y109621D01*
X102351Y111359D01*
X102870Y113297D01*
Y115303D01*
X102351Y117241D01*
X101348Y118979D01*
X100538Y119788D01*
X100067Y120650D01*
X100538Y121512D01*
X101348Y122321D01*
X102351Y124059D01*
X102870Y125997D01*
Y128003D01*
X102351Y129941D01*
X101849Y130810D01*
X102582Y132080D01*
X102870D01*
Y147320D01*
D02*
G37*
G36*
X503931Y113030D02*
X501909D01*
X500042Y112257D01*
X498613Y110828D01*
X497840Y108961D01*
Y106939D01*
X498613Y105072D01*
X500042Y103643D01*
X501909Y102870D01*
X503931D01*
X505798Y103643D01*
X507227Y105072D01*
X508000Y106939D01*
Y108961D01*
X507227Y110828D01*
X505798Y112257D01*
X503931Y113030D01*
D02*
G37*
G36*
X524352Y107188D02*
X522128D01*
X520075Y106337D01*
X518503Y104765D01*
X517652Y102711D01*
Y100489D01*
X518503Y98435D01*
X520075Y96863D01*
X522128Y96012D01*
X524352D01*
X526405Y96863D01*
X527977Y98435D01*
X528828Y100489D01*
Y102711D01*
X527977Y104765D01*
X526405Y106337D01*
X524352Y107188D01*
D02*
G37*
G36*
X499050Y99667D02*
X496827D01*
X494773Y98816D01*
X493201Y97244D01*
X492351Y95190D01*
Y92967D01*
X493201Y90913D01*
X494773Y89341D01*
X496827Y88490D01*
X499050D01*
X501104Y89341D01*
X502676Y90913D01*
X503526Y92967D01*
Y95190D01*
X502676Y97244D01*
X501104Y98816D01*
X499050Y99667D01*
D02*
G37*
G36*
X601712Y84218D02*
X599488D01*
X597435Y83367D01*
X595863Y81795D01*
X595012Y79742D01*
Y77519D01*
X595863Y75465D01*
X597435Y73893D01*
X599488Y73042D01*
X601712D01*
X603765Y73893D01*
X605337Y75465D01*
X606188Y77519D01*
Y79742D01*
X605337Y81795D01*
X603765Y83367D01*
X601712Y84218D01*
D02*
G37*
G36*
X567421Y81678D02*
X565199D01*
X563145Y80827D01*
X561573Y79255D01*
X560722Y77201D01*
Y74978D01*
X561327Y73518D01*
X561151Y73290D01*
X560303Y72672D01*
X558531Y73406D01*
X556309D01*
X554537Y72672D01*
X553689Y73290D01*
X553513Y73518D01*
X554118Y74978D01*
Y77201D01*
X553267Y79255D01*
X551695Y80827D01*
X549641Y81678D01*
X547419D01*
X545365Y80827D01*
X543793Y79255D01*
X542942Y77201D01*
Y74978D01*
X543793Y72925D01*
X545365Y71353D01*
X547419Y70502D01*
X549641D01*
X551413Y71236D01*
X552261Y70618D01*
X552437Y70390D01*
X551832Y68930D01*
Y66707D01*
X552683Y64653D01*
X554255Y63081D01*
X556309Y62230D01*
X558531D01*
X560585Y63081D01*
X562157Y64653D01*
X563008Y66707D01*
Y68930D01*
X562403Y70390D01*
X562579Y70618D01*
X563427Y71236D01*
X565199Y70502D01*
X567421D01*
X569475Y71353D01*
X571047Y72925D01*
X571898Y74978D01*
Y77201D01*
X571047Y79255D01*
X569475Y80827D01*
X567421Y81678D01*
D02*
G37*
G36*
X634731Y82948D02*
X632509D01*
X630455Y82097D01*
X628883Y80525D01*
X628032Y78471D01*
Y76248D01*
X628883Y74195D01*
X630455Y72623D01*
X632509Y71772D01*
X634731D01*
X636785Y72623D01*
X638357Y74195D01*
X639208Y76248D01*
Y78471D01*
X638357Y80525D01*
X636785Y82097D01*
X634731Y82948D01*
D02*
G37*
G36*
X618222D02*
X615998D01*
X613945Y82097D01*
X612373Y80525D01*
X611522Y78471D01*
Y76248D01*
X612373Y74195D01*
X613945Y72623D01*
X615998Y71772D01*
X618222D01*
X620275Y72623D01*
X621847Y74195D01*
X622698Y76248D01*
Y78471D01*
X621847Y80525D01*
X620275Y82097D01*
X618222Y82948D01*
D02*
G37*
G36*
X583932Y81678D02*
X581708D01*
X579655Y80827D01*
X578083Y79255D01*
X577232Y77201D01*
Y74978D01*
X578083Y72925D01*
X579655Y71353D01*
X581708Y70502D01*
X583932D01*
X585985Y71353D01*
X587557Y72925D01*
X588408Y74978D01*
Y77201D01*
X587557Y79255D01*
X585985Y80827D01*
X583932Y81678D01*
D02*
G37*
G36*
X501492Y84328D02*
X499268D01*
X497215Y83477D01*
X495643Y81905D01*
X494792Y79851D01*
Y78643D01*
X494758Y77624D01*
X493619Y77470D01*
X492529D01*
X490476Y76619D01*
X488904Y75047D01*
X488053Y72993D01*
Y70771D01*
X488904Y68717D01*
X490476Y67145D01*
X492529Y66294D01*
X494752D01*
X496806Y67145D01*
X498378Y68717D01*
X499229Y70771D01*
Y71979D01*
X499263Y72998D01*
X500402Y73152D01*
X501492D01*
X503545Y74003D01*
X505117Y75575D01*
X505968Y77628D01*
Y79851D01*
X505117Y81905D01*
X503545Y83477D01*
X501492Y84328D01*
D02*
G37*
G36*
X592822Y72788D02*
X590598D01*
X588545Y71937D01*
X586973Y70365D01*
X586122Y68312D01*
Y66089D01*
X586973Y64035D01*
X588545Y62463D01*
X590598Y61612D01*
X592822D01*
X594875Y62463D01*
X596447Y64035D01*
X597298Y66089D01*
Y68312D01*
X596447Y70365D01*
X594875Y71937D01*
X592822Y72788D01*
D02*
G37*
G36*
X609332Y71518D02*
X607108D01*
X605055Y70667D01*
X603483Y69095D01*
X602632Y67042D01*
Y64819D01*
X603483Y62765D01*
X605055Y61193D01*
X607108Y60342D01*
X609332D01*
X611385Y61193D01*
X612957Y62765D01*
X613808Y64819D01*
Y67042D01*
X612957Y69095D01*
X611385Y70667D01*
X609332Y71518D01*
D02*
G37*
G36*
X575042Y70248D02*
X572818D01*
X570765Y69397D01*
X569193Y67825D01*
X568342Y65771D01*
Y63548D01*
X569193Y61495D01*
X570765Y59923D01*
X572818Y59072D01*
X575042D01*
X577095Y59923D01*
X578667Y61495D01*
X579518Y63548D01*
Y65771D01*
X578667Y67825D01*
X577095Y69397D01*
X575042Y70248D01*
D02*
G37*
G36*
X209291Y66040D02*
X207269D01*
X205402Y65267D01*
X203973Y63838D01*
X203200Y61971D01*
Y59949D01*
X203973Y58082D01*
X205402Y56653D01*
X207269Y55880D01*
X209291D01*
X211158Y56653D01*
X212587Y58082D01*
X213360Y59949D01*
Y61971D01*
X212587Y63838D01*
X211158Y65267D01*
X209291Y66040D01*
D02*
G37*
G36*
X196590D02*
X194569D01*
X192702Y65267D01*
X191273Y63838D01*
X190500Y61971D01*
Y59949D01*
X191273Y58082D01*
X192702Y56653D01*
X194569Y55880D01*
X196590D01*
X198458Y56653D01*
X199887Y58082D01*
X200660Y59949D01*
Y61971D01*
X199887Y63838D01*
X198458Y65267D01*
X196590Y66040D01*
D02*
G37*
G36*
X409821Y56619D02*
X407598D01*
X405544Y55768D01*
X403972Y54196D01*
X403121Y52142D01*
Y49919D01*
X403972Y47865D01*
X405544Y46293D01*
X407598Y45443D01*
X409821D01*
X411875Y46293D01*
X413447Y47865D01*
X414297Y49919D01*
Y52142D01*
X413447Y54196D01*
X411875Y55768D01*
X409821Y56619D01*
D02*
G37*
G36*
X665432Y211438D02*
X663208D01*
X661155Y210587D01*
X659583Y209015D01*
X658732Y206961D01*
Y204739D01*
X659583Y202685D01*
X661155Y201113D01*
X663208Y200262D01*
X665432D01*
X667485Y201113D01*
X669057Y202685D01*
X669908Y204739D01*
Y206961D01*
X669057Y209015D01*
X667485Y210587D01*
X665432Y211438D01*
D02*
G37*
%LPD*%
D55*
X17150Y99100D02*
D03*
Y12700D02*
D03*
Y241300D02*
D03*
Y154900D02*
D03*
D56*
X57150Y99100D02*
D03*
Y12700D02*
D03*
Y241300D02*
D03*
Y154900D02*
D03*
D61*
X467360Y127000D02*
X469900Y124460D01*
X467360Y180340D02*
Y197200D01*
X477385Y207225D02*
Y210820D01*
X467360Y197200D02*
X477385Y207225D01*
X467360Y127000D02*
Y180340D01*
X644000Y226170D02*
X644194Y225976D01*
Y219146D02*
Y225976D01*
X469900Y57658D02*
Y124460D01*
D62*
X672663Y13137D02*
Y35560D01*
Y13137D02*
X673100Y12700D01*
X658464Y49759D02*
Y63800D01*
X658484Y63820D02*
Y69834D01*
X658168Y70149D02*
X658484Y69834D01*
X658168Y70149D02*
Y70342D01*
X650240Y109220D02*
X656827Y102633D01*
Y71684D02*
Y102633D01*
Y71684D02*
X658168Y70342D01*
X658464Y49759D02*
X672663Y35560D01*
X658464Y63800D02*
X658484Y63820D01*
X650240Y109220D02*
Y213100D01*
X644194Y219146D02*
X650240Y213100D01*
D63*
X361950Y127000D02*
D03*
X95250Y114300D02*
D03*
Y127000D02*
D03*
D64*
X349250D02*
D03*
D65*
X95250Y139700D02*
D03*
D66*
X673100Y12700D02*
D03*
Y241300D02*
D03*
D67*
X647700Y12700D02*
D03*
X622300D02*
D03*
X596900D02*
D03*
X571500D02*
D03*
X546100D02*
D03*
X520700D02*
D03*
X495300D02*
D03*
X469900D02*
D03*
X444500D02*
D03*
X419100D02*
D03*
X393700D02*
D03*
X368300D02*
D03*
X342900D02*
D03*
X317500D02*
D03*
X292100D02*
D03*
X266700D02*
D03*
X241300D02*
D03*
X215900D02*
D03*
X190500D02*
D03*
X165100D02*
D03*
X139700D02*
D03*
X114300D02*
D03*
X88900D02*
D03*
X647700Y241300D02*
D03*
X622300D02*
D03*
X596900D02*
D03*
X571500D02*
D03*
X546100D02*
D03*
X520700D02*
D03*
X495300D02*
D03*
X469900D02*
D03*
X444500D02*
D03*
X419100D02*
D03*
X393700D02*
D03*
X368300D02*
D03*
X342900D02*
D03*
X317500D02*
D03*
X292100D02*
D03*
X266700D02*
D03*
X241300D02*
D03*
X215900D02*
D03*
X190500D02*
D03*
X165100D02*
D03*
X139700D02*
D03*
X114300D02*
D03*
X88900D02*
D03*
D68*
X502920Y107950D02*
D03*
X373380Y114300D02*
D03*
X434109Y195349D02*
D03*
X467360Y180340D02*
D03*
X644000Y226170D02*
D03*
X121920Y83820D02*
D03*
X119380Y50800D02*
D03*
Y58928D02*
D03*
X213360Y207381D02*
D03*
X86360Y226060D02*
D03*
X99060Y215900D02*
D03*
X101140Y205740D02*
D03*
X676329Y43869D02*
D03*
X459737Y104151D02*
D03*
X461772Y95758D02*
D03*
X427182Y117302D02*
D03*
X665957Y63277D02*
D03*
X650991Y66923D02*
D03*
X665661Y73169D02*
D03*
X664320Y81170D02*
D03*
X659240Y182990D02*
D03*
X614680Y226060D02*
D03*
X421640Y200152D02*
D03*
X335049Y210589D02*
D03*
X243440Y222467D02*
D03*
X241771Y208751D02*
D03*
X226568Y184872D02*
D03*
X197111Y138931D02*
D03*
X231140Y172720D02*
D03*
X336179Y95621D02*
D03*
X111696Y41496D02*
D03*
X124460Y38100D02*
D03*
X434340Y57658D02*
D03*
X408709Y51031D02*
D03*
X182391Y167186D02*
D03*
X198120Y154178D02*
D03*
X185406Y228565D02*
D03*
X172720Y228600D02*
D03*
X238188Y154178D02*
D03*
X121005Y206654D02*
D03*
X101302Y186852D02*
D03*
X125647Y178788D02*
D03*
X119380Y170180D02*
D03*
X136572Y157286D02*
D03*
X119380Y149860D02*
D03*
X121332Y215706D02*
D03*
X144780Y132080D02*
D03*
X220980Y127000D02*
D03*
X197532Y124266D02*
D03*
X74077Y152977D02*
D03*
X83820Y147320D02*
D03*
X577850Y139700D02*
D03*
X439420Y114300D02*
D03*
Y132080D02*
D03*
X426720Y129540D02*
D03*
X95785Y65305D02*
D03*
X112634Y65877D02*
D03*
X450206Y179826D02*
D03*
X510540Y149098D02*
D03*
X497840Y165100D02*
D03*
X495300Y175260D02*
D03*
X375920Y137160D02*
D03*
X513028Y126601D02*
D03*
X518160Y140317D02*
D03*
X523240Y101600D02*
D03*
X513080Y109220D02*
D03*
X502920Y129540D02*
D03*
X213360Y53340D02*
D03*
X190500D02*
D03*
X208280Y60960D02*
D03*
X195580D02*
D03*
X375920Y152400D02*
D03*
X349758Y160020D02*
D03*
X506614Y157728D02*
D03*
X497938Y94079D02*
D03*
X469900Y57658D02*
D03*
X500380Y78740D02*
D03*
X493641Y71882D02*
D03*
X521483Y49043D02*
D03*
X636904Y223520D02*
D03*
X96520Y43180D02*
D03*
X73072Y98866D02*
D03*
X83232Y103946D02*
D03*
X85772Y27746D02*
D03*
X144780Y38100D02*
D03*
X137160Y73660D02*
D03*
X147320D02*
D03*
X127000D02*
D03*
X251460Y114300D02*
D03*
X259080D02*
D03*
X266700D02*
D03*
X274320D02*
D03*
X281940D02*
D03*
X251460Y96520D02*
D03*
X259080D02*
D03*
X266700D02*
D03*
X274320D02*
D03*
X281940D02*
D03*
Y78740D02*
D03*
X274320D02*
D03*
X266700D02*
D03*
X259080D02*
D03*
X664320Y106570D02*
D03*
X591710Y67200D02*
D03*
X573930Y64660D02*
D03*
X487829Y182731D02*
D03*
X185420Y200660D02*
D03*
Y187960D02*
D03*
X175260Y200660D02*
D03*
Y187960D02*
D03*
X180340Y195580D02*
D03*
X161972Y136966D02*
D03*
X251460Y78740D02*
D03*
X520700Y193040D02*
D03*
X556370Y170290D02*
D03*
X565260Y181720D02*
D03*
X548750Y180450D02*
D03*
X608655Y156574D02*
D03*
X608440Y170290D02*
D03*
X557420Y67818D02*
D03*
X582820Y76090D02*
D03*
X608220Y65930D02*
D03*
X626618D02*
D03*
X642510Y67200D02*
D03*
X548530Y76090D02*
D03*
X617110Y77360D02*
D03*
X664320Y205850D02*
D03*
X600202Y131572D02*
D03*
X616712D02*
D03*
Y115062D02*
D03*
X600202D02*
D03*
X608005Y90717D02*
D03*
X640803Y106355D02*
D03*
Y122865D02*
D03*
Y138105D02*
D03*
X574587Y107005D02*
D03*
X576580Y123190D02*
D03*
X668020Y182880D02*
D03*
X664320Y157370D02*
D03*
Y164990D02*
D03*
Y173880D02*
D03*
Y131970D02*
D03*
Y139590D02*
D03*
Y148480D02*
D03*
Y114190D02*
D03*
Y123080D02*
D03*
Y97680D02*
D03*
Y88790D02*
D03*
X624950Y170290D02*
D03*
X633620Y77360D02*
D03*
X600600Y78630D02*
D03*
X566310Y76090D02*
D03*
X583040Y181720D02*
D03*
X574150Y170290D02*
D03*
X599550Y181720D02*
D03*
X590660Y170290D02*
D03*
X617330Y181720D02*
D03*
X633840D02*
D03*
D69*
X411480Y210820D02*
X477385D01*
X636904Y223520D02*
X639554Y226170D01*
X644000D01*
X646534Y228704D01*
Y240134D02*
X647700Y241300D01*
X646534Y228704D02*
Y240134D01*
X624204Y210820D02*
X636904Y223520D01*
X477385Y210820D02*
X624204D01*
X381000Y180340D02*
X411480Y210820D01*
X342900Y180340D02*
X381000D01*
X300773Y222467D02*
X342900Y180340D01*
X243440Y222467D02*
X300773D01*
X213513Y223520D02*
X242387D01*
X243440Y222467D01*
X203708Y176440D02*
X208788Y171360D01*
Y135522D02*
Y171360D01*
X203708Y176440D02*
Y213715D01*
X197532Y124266D02*
X208788Y135522D01*
X203708Y213715D02*
X213513Y223520D01*
X337644Y115765D02*
X348879Y127000D01*
X349250D01*
D70*
X124460Y38100D02*
X144780D01*
X259979D01*
X337644Y115765D01*
M02*
