G04*
G04 #@! TF.GenerationSoftware,Altium Limited,Altium Designer,24.9.1 (31)*
G04*
G04 Layer_Color=65535*
%FSLAX44Y44*%
%MOMM*%
G71*
G04*
G04 #@! TF.SameCoordinates,318047C4-B972-4631-9CD3-40AE8DFBCC20*
G04*
G04*
G04 #@! TF.FilePolarity,Positive*
G04*
G01*
G75*
%ADD10C,0.2000*%
%ADD11C,0.2500*%
%ADD12C,0.1524*%
%ADD13C,0.2540*%
%ADD14C,0.1270*%
%ADD15R,1.4224X0.3699*%
D10*
X668840Y207680D02*
G03*
X668840Y207680I-1000J0D01*
G01*
X327350Y160500D02*
X383850D01*
X325600Y178250D02*
Y202750D01*
X327350Y220500D02*
X383850D01*
X385600Y178250D02*
Y202750D01*
X327350Y33500D02*
X383850D01*
X325600Y51250D02*
Y75750D01*
X327350Y93500D02*
X383850D01*
X385600Y51250D02*
Y75750D01*
X178620Y40160D02*
Y107160D01*
X217620Y40160D02*
Y107160D01*
X178620D02*
X217620D01*
X178620Y40160D02*
X217620D01*
X195500Y214205D02*
X200500D01*
Y209205D02*
Y214205D01*
X160500D02*
X165500D01*
X160500Y209205D02*
Y214205D01*
X195500Y174205D02*
X200500D01*
Y179205D01*
X160500Y174205D02*
X165500D01*
X160500D02*
Y179205D01*
X286555Y210450D02*
Y217700D01*
X280054D02*
X286555D01*
Y188700D02*
Y195950D01*
X280054Y188700D02*
X286555D01*
Y164730D02*
Y171980D01*
X280054D02*
X286555D01*
Y142980D02*
Y150230D01*
X280054Y142980D02*
X286555D01*
X-4850Y10200D02*
X2400D01*
X31900D02*
X44400D01*
X-4850D02*
Y101600D01*
X2400D01*
X31900D02*
X44400D01*
X-4850Y152400D02*
X2400D01*
X31900D02*
X44400D01*
X-4850D02*
Y243800D01*
X2400D01*
X31900D02*
X44400D01*
D11*
X409850Y168000D02*
G03*
X409850Y168000I-1250J0D01*
G01*
Y41000D02*
G03*
X409850Y41000I-1250J0D01*
G01*
X168120Y106660D02*
G03*
X168120Y106660I-1250J0D01*
G01*
X191750Y223059D02*
G03*
X191750Y223059I-1250J0D01*
G01*
X75650Y87850D02*
G03*
X75650Y87850I-1250J0D01*
G01*
Y230050D02*
G03*
X75650Y230050I-1250J0D01*
G01*
D12*
X478028Y123952D02*
X497332D01*
X478028Y135128D02*
X497332D01*
Y123952D02*
Y135128D01*
X478288Y103632D02*
X497592D01*
X478288Y114808D02*
X497592D01*
Y103632D02*
Y114808D01*
X469648D02*
X488952D01*
X469648Y103632D02*
X488952D01*
X469648D02*
Y114808D01*
X680938Y212846D02*
Y223514D01*
X662142D02*
X680938D01*
X662142Y212846D02*
X680938D01*
X662142D02*
Y223514D01*
X103632Y104630D02*
Y149860D01*
X84455D02*
X103632D01*
X103142Y104140D02*
X103632Y104630D01*
X84455Y104140D02*
X103142D01*
X141412Y145014D02*
Y154666D01*
Y159492D01*
Y140188D02*
Y145014D01*
X152588Y140188D02*
Y159492D01*
X141412D02*
X152588D01*
X141412Y140188D02*
X152588D01*
X190569Y223037D02*
Y228117D01*
X190500Y24130D02*
Y29210D01*
X317500Y24130D02*
Y29210D01*
X444500Y24130D02*
Y29210D01*
X571500Y24130D02*
Y29210D01*
Y224790D02*
Y229870D01*
X444500Y224790D02*
Y229870D01*
X317500Y224790D02*
Y229870D01*
X339090Y116205D02*
Y137795D01*
Y116205D02*
X372110D01*
X339090Y137795D02*
X372110D01*
Y116205D02*
Y137795D01*
X524508Y29972D02*
X543812D01*
X524508D02*
Y41148D01*
X543812D01*
Y29972D02*
Y41148D01*
X469648Y135128D02*
X488952D01*
X469648Y123952D02*
X488952D01*
X469648D02*
Y135128D01*
X490728Y206248D02*
X510032D01*
Y195072D02*
Y206248D01*
X490728Y195072D02*
X510032D01*
X490728D02*
Y206248D01*
Y218948D02*
X510032D01*
Y207772D02*
Y218948D01*
X490728Y207772D02*
X510032D01*
X490728D02*
Y218948D01*
X501648Y29972D02*
X520952D01*
X501648D02*
Y41148D01*
X520952D01*
Y29972D02*
Y41148D01*
X424428Y42148D02*
Y61452D01*
X413252Y42148D02*
X424428D01*
X413252D02*
Y61452D01*
X424428D01*
X451612Y183388D02*
Y202692D01*
X462788D01*
Y183388D02*
Y202692D01*
X451612Y183388D02*
X462788D01*
Y44448D02*
Y63752D01*
X451612Y44448D02*
X462788D01*
X451612D02*
Y63752D01*
X462788D01*
X450850Y181788D02*
Y205664D01*
X438150Y181788D02*
X450850D01*
X438150D02*
Y205664D01*
X450850D01*
X438150Y40056D02*
Y63932D01*
X450850D01*
Y40056D02*
Y63932D01*
X438150Y40056D02*
X450850D01*
X416306Y179578D02*
X426974D01*
X416306Y160782D02*
Y179578D01*
Y160782D02*
X426974D01*
Y179578D01*
X413506Y85598D02*
X424174D01*
X413506Y66802D02*
Y85598D01*
Y66802D02*
X424174D01*
Y85598D01*
X658858Y212846D02*
Y223514D01*
X640062D02*
X658858D01*
X640062Y212846D02*
Y223514D01*
Y212846D02*
X658858D01*
X659402Y30226D02*
Y40894D01*
Y30226D02*
X678198D01*
Y40894D01*
X659402D02*
X678198D01*
X617982Y212846D02*
Y223514D01*
Y212846D02*
X636778D01*
Y223514D01*
X617982D02*
X636778D01*
X147574Y43942D02*
Y62738D01*
X136906Y43942D02*
X147574D01*
X136906D02*
Y62738D01*
X147574D01*
X134874Y43942D02*
Y62738D01*
X124206Y43942D02*
X134874D01*
X124206D02*
Y62738D01*
X134874D01*
X139446Y81262D02*
Y100058D01*
X150114D01*
Y81262D02*
Y100058D01*
X139446Y81262D02*
X150114D01*
X103142Y88646D02*
X121938D01*
X103142D02*
Y99314D01*
X121938D01*
Y88646D02*
Y99314D01*
X126002Y221234D02*
X144798D01*
Y210566D02*
Y221234D01*
X126002Y210566D02*
X144798D01*
X126002D02*
Y221234D01*
Y180594D02*
X144798D01*
Y169926D02*
Y180594D01*
X126002Y169926D02*
X144798D01*
X126002D02*
Y180594D01*
X154366Y140462D02*
Y159258D01*
X165034D01*
Y140462D02*
Y159258D01*
X154366Y140462D02*
X165034D01*
X219182Y198286D02*
X237978D01*
X219182D02*
Y208954D01*
X237978D01*
Y198286D02*
Y208954D01*
X173262Y134366D02*
X192058D01*
X173262D02*
Y145034D01*
X192058D01*
Y134366D02*
Y145034D01*
X102362Y154686D02*
X121158D01*
X102362D02*
Y165354D01*
X121158D01*
Y154686D02*
Y165354D01*
X173262Y147066D02*
X192058D01*
X173262D02*
Y157734D01*
X192058D01*
Y147066D02*
Y157734D01*
X80316Y88138D02*
Y99822D01*
Y88138D02*
X96064D01*
Y99822D01*
X80316D02*
X96064D01*
X80518Y69544D02*
X92202D01*
X80518Y53796D02*
Y69544D01*
Y53796D02*
X92202D01*
Y69544D01*
X80518Y37136D02*
X92202D01*
Y52884D01*
X80518D02*
X92202D01*
X80518Y37136D02*
Y52884D01*
X248412Y198628D02*
X259588D01*
Y217932D01*
X248412D02*
X259588D01*
X248412Y198628D02*
Y217932D01*
X245034Y182339D02*
X256210D01*
X245034Y163035D02*
Y182339D01*
Y163035D02*
X256210D01*
Y182339D01*
X98552Y55628D02*
X109728D01*
Y74932D01*
X98552D02*
X109728D01*
X98552Y55628D02*
Y74932D01*
Y49532D02*
X109728D01*
X98552Y30228D02*
Y49532D01*
Y30228D02*
X109728D01*
Y49532D01*
X215388Y144692D02*
Y155868D01*
Y144692D02*
X234692D01*
Y155868D01*
X215388D02*
X234692D01*
X103632Y198628D02*
X114808D01*
Y217932D01*
X103632D02*
X114808D01*
X103632Y198628D02*
Y217932D01*
Y188212D02*
X114808D01*
X103632Y168908D02*
Y188212D01*
Y168908D02*
X114808D01*
Y188212D01*
X215388Y157392D02*
Y168568D01*
Y157392D02*
X234692D01*
Y168568D01*
X215388D02*
X234692D01*
X215388Y131992D02*
Y143168D01*
Y131992D02*
X234692D01*
Y143168D01*
X215388D02*
X234692D01*
X125728Y195072D02*
Y206248D01*
Y195072D02*
X145032D01*
Y206248D01*
X125728D02*
X145032D01*
X125728Y182372D02*
Y193548D01*
Y182372D02*
X145032D01*
Y193548D01*
X125728D02*
X145032D01*
X238252Y210732D02*
Y221908D01*
X218948D02*
X238252D01*
X218948Y210732D02*
Y221908D01*
Y210732D02*
X238252D01*
X192312Y121412D02*
Y132588D01*
X173008D02*
X192312D01*
X173008Y121412D02*
Y132588D01*
Y121412D02*
X192312D01*
X152908D02*
Y132588D01*
Y121412D02*
X172212D01*
Y132588D01*
X152908D02*
X172212D01*
X84455Y104140D02*
Y149860D01*
X83058Y176836D02*
X94742D01*
Y192584D01*
X83058D02*
X94742D01*
X83058Y176836D02*
Y192584D01*
Y215444D02*
X94742D01*
X83058Y199696D02*
Y215444D01*
Y199696D02*
X94742D01*
Y215444D01*
X81026Y154178D02*
Y165862D01*
Y154178D02*
X96774D01*
Y165862D01*
X81026D02*
X96774D01*
X106680Y144269D02*
Y135805D01*
X108373Y134112D01*
X111758D01*
X113451Y135805D01*
Y144269D01*
X123608Y142576D02*
X121915Y144269D01*
X118530D01*
X116837Y142576D01*
Y140883D01*
X118530Y139190D01*
X121915D01*
X123608Y137498D01*
Y135805D01*
X121915Y134112D01*
X118530D01*
X116837Y135805D01*
X126993Y144269D02*
Y134112D01*
X132072D01*
X133765Y135805D01*
Y137498D01*
X132072Y139190D01*
X126993D01*
X132072D01*
X133765Y140883D01*
Y142576D01*
X132072Y144269D01*
X126993D01*
X137150Y134112D02*
X140536D01*
X138843D01*
Y144269D01*
X137150Y142576D01*
X595035Y219961D02*
X591650D01*
X593342D01*
Y211497D01*
X591650Y209804D01*
X589957D01*
X588264Y211497D01*
X598421Y209804D02*
X601806D01*
X600113D01*
Y219961D01*
X598421Y218268D01*
X595035Y42161D02*
X591650D01*
X593342D01*
Y33697D01*
X591650Y32004D01*
X589957D01*
X588264Y33697D01*
X605192Y32004D02*
X598421D01*
X605192Y38775D01*
Y40468D01*
X603499Y42161D01*
X600113D01*
X598421Y40468D01*
X13375Y120901D02*
X6604D01*
Y110744D01*
X13375D01*
X6604Y115822D02*
X9990D01*
X23532Y119208D02*
X21839Y120901D01*
X18454D01*
X16761Y119208D01*
Y117515D01*
X18454Y115822D01*
X21839D01*
X23532Y114130D01*
Y112437D01*
X21839Y110744D01*
X18454D01*
X16761Y112437D01*
X26917Y110744D02*
Y120901D01*
X31996D01*
X33689Y119208D01*
Y115822D01*
X31996Y114130D01*
X26917D01*
X6604Y143761D02*
Y135297D01*
X8297Y133604D01*
X11682D01*
X13375Y135297D01*
Y143761D01*
X16761Y133604D02*
Y140375D01*
X20146Y143761D01*
X23532Y140375D01*
Y133604D01*
Y138682D01*
X16761D01*
X26917Y133604D02*
Y143761D01*
X31996D01*
X33689Y142068D01*
Y138682D01*
X31996Y136990D01*
X26917D01*
X30303D02*
X33689Y133604D01*
X37074Y143761D02*
X43845D01*
X40460D01*
Y133604D01*
X52324Y125982D02*
X59095D01*
X55710Y129368D02*
Y122597D01*
X69252Y131061D02*
X62481D01*
Y125982D01*
X65866Y127675D01*
X67559D01*
X69252Y125982D01*
Y122597D01*
X67559Y120904D01*
X64173D01*
X62481Y122597D01*
X72637Y131061D02*
Y124290D01*
X76023Y120904D01*
X79409Y124290D01*
Y131061D01*
X106680Y118361D02*
Y109897D01*
X108373Y108204D01*
X111758D01*
X113451Y109897D01*
Y118361D01*
X123608Y116668D02*
X121915Y118361D01*
X118530D01*
X116837Y116668D01*
Y114975D01*
X118530Y113282D01*
X121915D01*
X123608Y111590D01*
Y109897D01*
X121915Y108204D01*
X118530D01*
X116837Y109897D01*
X126993Y118361D02*
Y108204D01*
X132072D01*
X133765Y109897D01*
Y111590D01*
X132072Y113282D01*
X126993D01*
X132072D01*
X133765Y114975D01*
Y116668D01*
X132072Y118361D01*
X126993D01*
X143921Y108204D02*
X137150D01*
X143921Y114975D01*
Y116668D01*
X142228Y118361D01*
X138843D01*
X137150Y116668D01*
X377444Y129368D02*
X379137Y131061D01*
X382522D01*
X384215Y129368D01*
Y127675D01*
X382522Y125982D01*
X380830D01*
X382522D01*
X384215Y124290D01*
Y122597D01*
X382522Y120904D01*
X379137D01*
X377444Y122597D01*
X387601Y131061D02*
Y124290D01*
X390986Y120904D01*
X394372Y124290D01*
Y131061D01*
X397757Y129368D02*
X399450Y131061D01*
X402836D01*
X404529Y129368D01*
Y127675D01*
X402836Y125982D01*
X401143D01*
X402836D01*
X404529Y124290D01*
Y122597D01*
X402836Y120904D01*
X399450D01*
X397757Y122597D01*
X306324Y120904D02*
Y131061D01*
X311402D01*
X313095Y129368D01*
Y125982D01*
X311402Y124290D01*
X306324D01*
X309710D02*
X313095Y120904D01*
X323252Y131061D02*
X316481D01*
Y120904D01*
X323252D01*
X316481Y125982D02*
X319866D01*
X333409Y129368D02*
X331716Y131061D01*
X328330D01*
X326637Y129368D01*
Y122597D01*
X328330Y120904D01*
X331716D01*
X333409Y122597D01*
Y125982D01*
X330023D01*
X331901Y98044D02*
Y108201D01*
X336979D01*
X338672Y106508D01*
Y103122D01*
X336979Y101430D01*
X331901D01*
X335287D02*
X338672Y98044D01*
X348829Y108201D02*
X342058D01*
Y98044D01*
X348829D01*
X342058Y103122D02*
X345443D01*
X358986Y106508D02*
X357293Y108201D01*
X353907D01*
X352214Y106508D01*
Y104815D01*
X353907Y103122D01*
X357293D01*
X358986Y101430D01*
Y99737D01*
X357293Y98044D01*
X353907D01*
X352214Y99737D01*
X369142Y108201D02*
X362371D01*
Y98044D01*
X369142D01*
X362371Y103122D02*
X365757D01*
X372528Y108201D02*
X379299D01*
X375913D01*
Y98044D01*
X316666Y153921D02*
Y143764D01*
X321744D01*
X323437Y145457D01*
Y147150D01*
X321744Y148842D01*
X316666D01*
X321744D01*
X323437Y150535D01*
Y152228D01*
X321744Y153921D01*
X316666D01*
X331901D02*
X328515D01*
X326823Y152228D01*
Y145457D01*
X328515Y143764D01*
X331901D01*
X333594Y145457D01*
Y152228D01*
X331901Y153921D01*
X342058D02*
X338672D01*
X336979Y152228D01*
Y145457D01*
X338672Y143764D01*
X342058D01*
X343750Y145457D01*
Y152228D01*
X342058Y153921D01*
X347136D02*
X353907D01*
X350522D01*
Y143764D01*
X357293D02*
X364064Y150535D01*
X367449Y153921D02*
Y145457D01*
X369142Y143764D01*
X372528D01*
X374221Y145457D01*
Y153921D01*
X384377Y152228D02*
X382685Y153921D01*
X379299D01*
X377606Y152228D01*
Y150535D01*
X379299Y148842D01*
X382685D01*
X384377Y147150D01*
Y145457D01*
X382685Y143764D01*
X379299D01*
X377606Y145457D01*
X387763Y143764D02*
Y153921D01*
X392841D01*
X394534Y152228D01*
Y148842D01*
X392841Y147150D01*
X387763D01*
X391148D02*
X394534Y143764D01*
X433324Y67564D02*
Y77721D01*
X438402D01*
X440095Y76028D01*
Y72642D01*
X438402Y70950D01*
X433324D01*
X448559Y77721D02*
X445173D01*
X443481Y76028D01*
Y69257D01*
X445173Y67564D01*
X448559D01*
X450252Y69257D01*
Y76028D01*
X448559Y77721D01*
X453637D02*
Y67564D01*
X457023Y70950D01*
X460409Y67564D01*
Y77721D01*
X470565D02*
X463794D01*
Y67564D01*
X470565D01*
X463794Y72642D02*
X467180D01*
X473951Y67564D02*
Y77721D01*
X479029D01*
X480722Y76028D01*
Y72642D01*
X479029Y70950D01*
X473951D01*
X477337D02*
X480722Y67564D01*
X436596Y177561D02*
Y169097D01*
X438288Y167404D01*
X441674D01*
X443367Y169097D01*
Y177561D01*
X453523Y175868D02*
X451831Y177561D01*
X448445D01*
X446752Y175868D01*
Y174175D01*
X448445Y172482D01*
X451831D01*
X453523Y170790D01*
Y169097D01*
X451831Y167404D01*
X448445D01*
X446752Y169097D01*
X463680Y177561D02*
X456909D01*
Y167404D01*
X463680D01*
X456909Y172482D02*
X460295D01*
X467066Y167404D02*
Y177561D01*
X472144D01*
X473837Y175868D01*
Y172482D01*
X472144Y170790D01*
X467066D01*
X470451D02*
X473837Y167404D01*
D13*
X74402Y229143D02*
X675840Y230193D01*
X76200Y9525D02*
Y24714D01*
Y24716D02*
X673100Y24130D01*
X76200Y0D02*
Y9525D01*
Y0D02*
X685319Y0D01*
X74402Y246875D02*
Y252451D01*
Y230149D02*
Y235725D01*
X685319Y0D02*
X685560Y240D01*
X685319Y0D02*
X685560Y240D01*
Y16496D01*
X685800Y235427D02*
Y254000D01*
X74402Y254000D02*
X685800Y254000D01*
X74402Y235725D02*
Y246875D01*
D14*
X685590Y200180D02*
X736090D01*
X531090Y46180D02*
Y200180D01*
X685590Y46180D02*
X736090D01*
Y200180D01*
D15*
X444500Y204830D02*
D03*
Y40890D02*
D03*
M02*
