G04*
G04 #@! TF.GenerationSoftware,Altium Limited,Altium Designer,24.9.1 (31)*
G04*
G04 Layer_Color=32896*
%FSLAX44Y44*%
%MOMM*%
G71*
G04*
G04 #@! TF.SameCoordinates,318047C4-B972-4631-9CD3-40AE8DFBCC20*
G04*
G04*
G04 #@! TF.FilePolarity,Positive*
G04*
G01*
G75*
%ADD12C,0.1524*%
%ADD13C,0.2540*%
D12*
X186439Y67056D02*
X194903D01*
X196596Y65363D01*
Y61978D01*
X194903Y60285D01*
X186439D01*
X188132Y50128D02*
X186439Y51821D01*
Y55206D01*
X188132Y56899D01*
X189825D01*
X191518Y55206D01*
Y51821D01*
X193210Y50128D01*
X194903D01*
X196596Y51821D01*
Y55206D01*
X194903Y56899D01*
X186439Y46743D02*
X196596D01*
Y41664D01*
X194903Y39971D01*
X193210D01*
X191518Y41664D01*
Y46743D01*
Y41664D01*
X189825Y39971D01*
X188132D01*
X186439Y41664D01*
Y46743D01*
X191518Y36586D02*
Y29815D01*
X188132Y33200D02*
X194903D01*
X161039Y67056D02*
X169503D01*
X171196Y65363D01*
Y61978D01*
X169503Y60285D01*
X161039D01*
X162732Y50128D02*
X161039Y51821D01*
Y55206D01*
X162732Y56899D01*
X164425D01*
X166118Y55206D01*
Y51821D01*
X167810Y50128D01*
X169503D01*
X171196Y51821D01*
Y55206D01*
X169503Y56899D01*
X161039Y46743D02*
X171196D01*
Y41664D01*
X169503Y39971D01*
X167810D01*
X166118Y41664D01*
Y46743D01*
Y41664D01*
X164425Y39971D01*
X162732D01*
X161039Y41664D01*
Y46743D01*
X166118Y36586D02*
Y29815D01*
X669716Y213955D02*
X668023Y215648D01*
Y219033D01*
X669716Y220726D01*
X676487D01*
X678180Y219033D01*
Y215648D01*
X676487Y213955D01*
X673102D01*
Y217340D01*
X678180Y210569D02*
X668023D01*
X678180Y203798D01*
X668023D01*
Y200413D02*
X678180D01*
Y195334D01*
X676487Y193641D01*
X669716D01*
X668023Y195334D01*
Y200413D01*
X439423Y220726D02*
Y217340D01*
Y219033D01*
X449580D01*
Y220726D01*
Y217340D01*
X439423Y207184D02*
Y210569D01*
X441116Y212262D01*
X447887D01*
X449580Y210569D01*
Y207184D01*
X447887Y205491D01*
X441116D01*
X439423Y207184D01*
Y202105D02*
Y195334D01*
X441116D01*
X447887Y202105D01*
X449580D01*
X464823Y220726D02*
Y217340D01*
Y219033D01*
X474980D01*
Y220726D01*
Y217340D01*
X464823Y207184D02*
Y210569D01*
X466516Y212262D01*
X473287D01*
X474980Y210569D01*
Y207184D01*
X473287Y205491D01*
X466516D01*
X464823Y207184D01*
Y195334D02*
X466516Y198720D01*
X469902Y202105D01*
X473287D01*
X474980Y200413D01*
Y197027D01*
X473287Y195334D01*
X471594D01*
X469902Y197027D01*
Y202105D01*
X490223Y220726D02*
Y217340D01*
Y219033D01*
X500380D01*
Y220726D01*
Y217340D01*
X490223Y207184D02*
Y210569D01*
X491916Y212262D01*
X498687D01*
X500380Y210569D01*
Y207184D01*
X498687Y205491D01*
X491916D01*
X490223Y207184D01*
Y195334D02*
Y202105D01*
X495302D01*
X493609Y198720D01*
Y197027D01*
X495302Y195334D01*
X498687D01*
X500380Y197027D01*
Y200413D01*
X498687Y202105D01*
X312423Y220726D02*
Y217340D01*
Y219033D01*
X322580D01*
Y220726D01*
Y217340D01*
X312423Y207184D02*
Y210569D01*
X314116Y212262D01*
X320887D01*
X322580Y210569D01*
Y207184D01*
X320887Y205491D01*
X314116D01*
X312423Y207184D01*
X322580Y202105D02*
Y198720D01*
Y200413D01*
X312423D01*
X314116Y202105D01*
X322580Y186870D02*
Y193641D01*
X315809Y186870D01*
X314116D01*
X312423Y188563D01*
Y191949D01*
X314116Y193641D01*
X337823Y220726D02*
Y217340D01*
Y219033D01*
X347980D01*
Y220726D01*
Y217340D01*
X337823Y207184D02*
Y210569D01*
X339516Y212262D01*
X346287D01*
X347980Y210569D01*
Y207184D01*
X346287Y205491D01*
X339516D01*
X337823Y207184D01*
X347980Y202105D02*
Y198720D01*
Y200413D01*
X337823D01*
X339516Y202105D01*
X347980Y193641D02*
Y190256D01*
Y191949D01*
X337823D01*
X339516Y193641D01*
X363223Y220726D02*
Y217340D01*
Y219033D01*
X373380D01*
Y220726D01*
Y217340D01*
X363223Y207184D02*
Y210569D01*
X364916Y212262D01*
X371687D01*
X373380Y210569D01*
Y207184D01*
X371687Y205491D01*
X364916D01*
X363223Y207184D01*
X373380Y202105D02*
Y198720D01*
Y200413D01*
X363223D01*
X364916Y202105D01*
Y193641D02*
X363223Y191949D01*
Y188563D01*
X364916Y186870D01*
X371687D01*
X373380Y188563D01*
Y191949D01*
X371687Y193641D01*
X364916D01*
X388623Y220726D02*
Y217340D01*
Y219033D01*
X398780D01*
Y220726D01*
Y217340D01*
X388623Y207184D02*
Y210569D01*
X390316Y212262D01*
X397087D01*
X398780Y210569D01*
Y207184D01*
X397087Y205491D01*
X390316D01*
X388623Y207184D01*
X397087Y202105D02*
X398780Y200413D01*
Y197027D01*
X397087Y195334D01*
X390316D01*
X388623Y197027D01*
Y200413D01*
X390316Y202105D01*
X392009D01*
X393702Y200413D01*
Y195334D01*
X414023Y220726D02*
Y217340D01*
Y219033D01*
X424180D01*
Y220726D01*
Y217340D01*
X414023Y207184D02*
Y210569D01*
X415716Y212262D01*
X422487D01*
X424180Y210569D01*
Y207184D01*
X422487Y205491D01*
X415716D01*
X414023Y207184D01*
X415716Y202105D02*
X414023Y200413D01*
Y197027D01*
X415716Y195334D01*
X417409D01*
X419102Y197027D01*
X420794Y195334D01*
X422487D01*
X424180Y197027D01*
Y200413D01*
X422487Y202105D01*
X420794D01*
X419102Y200413D01*
X417409Y202105D01*
X415716D01*
X419102Y200413D02*
Y197027D01*
X185423Y220726D02*
Y217340D01*
Y219033D01*
X195580D01*
Y220726D01*
Y217340D01*
X185423Y207184D02*
Y210569D01*
X187116Y212262D01*
X193887D01*
X195580Y210569D01*
Y207184D01*
X193887Y205491D01*
X187116D01*
X185423Y207184D01*
X195580Y202105D02*
Y198720D01*
Y200413D01*
X185423D01*
X187116Y202105D01*
X185423Y193641D02*
Y186870D01*
X187116D01*
X193887Y193641D01*
X195580D01*
X210823Y220726D02*
Y217340D01*
Y219033D01*
X220980D01*
Y220726D01*
Y217340D01*
X210823Y207184D02*
Y210569D01*
X212516Y212262D01*
X219287D01*
X220980Y210569D01*
Y207184D01*
X219287Y205491D01*
X212516D01*
X210823Y207184D01*
X220980Y202105D02*
Y198720D01*
Y200413D01*
X210823D01*
X212516Y202105D01*
X210823Y186870D02*
X212516Y190256D01*
X215902Y193641D01*
X219287D01*
X220980Y191949D01*
Y188563D01*
X219287Y186870D01*
X217594D01*
X215902Y188563D01*
Y193641D01*
X236223Y220726D02*
Y217340D01*
Y219033D01*
X246380D01*
Y220726D01*
Y217340D01*
X236223Y207184D02*
Y210569D01*
X237916Y212262D01*
X244687D01*
X246380Y210569D01*
Y207184D01*
X244687Y205491D01*
X237916D01*
X236223Y207184D01*
X246380Y202105D02*
Y198720D01*
Y200413D01*
X236223D01*
X237916Y202105D01*
X236223Y186870D02*
Y193641D01*
X241302D01*
X239609Y190256D01*
Y188563D01*
X241302Y186870D01*
X244687D01*
X246380Y188563D01*
Y191949D01*
X244687Y193641D01*
X261623Y220726D02*
Y217340D01*
Y219033D01*
X271780D01*
Y220726D01*
Y217340D01*
X261623Y207184D02*
Y210569D01*
X263316Y212262D01*
X270087D01*
X271780Y210569D01*
Y207184D01*
X270087Y205491D01*
X263316D01*
X261623Y207184D01*
X271780Y202105D02*
Y198720D01*
Y200413D01*
X261623D01*
X263316Y202105D01*
X271780Y188563D02*
X261623D01*
X266702Y193641D01*
Y186870D01*
X287023Y220726D02*
Y217340D01*
Y219033D01*
X297180D01*
Y220726D01*
Y217340D01*
X287023Y207184D02*
Y210569D01*
X288716Y212262D01*
X295487D01*
X297180Y210569D01*
Y207184D01*
X295487Y205491D01*
X288716D01*
X287023Y207184D01*
X297180Y202105D02*
Y198720D01*
Y200413D01*
X287023D01*
X288716Y202105D01*
Y193641D02*
X287023Y191949D01*
Y188563D01*
X288716Y186870D01*
X290409D01*
X292102Y188563D01*
Y190256D01*
Y188563D01*
X293794Y186870D01*
X295487D01*
X297180Y188563D01*
Y191949D01*
X295487Y193641D01*
X93980Y220726D02*
X83823D01*
X93980Y213955D01*
X83823D01*
X85516Y203798D02*
X83823Y205491D01*
Y208876D01*
X85516Y210569D01*
X92287D01*
X93980Y208876D01*
Y205491D01*
X92287Y203798D01*
X110916Y213955D02*
X109223Y215648D01*
Y219033D01*
X110916Y220726D01*
X117687D01*
X119380Y219033D01*
Y215648D01*
X117687Y213955D01*
X114302D01*
Y217340D01*
X119380Y210569D02*
X109223D01*
X119380Y203798D01*
X109223D01*
Y200413D02*
X119380D01*
Y195334D01*
X117687Y193641D01*
X110916D01*
X109223Y195334D01*
Y200413D01*
X134623Y213955D02*
Y220726D01*
X139702D01*
X138009Y217340D01*
Y215648D01*
X139702Y213955D01*
X143087D01*
X144780Y215648D01*
Y219033D01*
X143087Y220726D01*
X134623Y210569D02*
X141394D01*
X144780Y207184D01*
X141394Y203798D01*
X134623D01*
X160023Y220726D02*
Y217340D01*
Y219033D01*
X170180D01*
Y220726D01*
Y217340D01*
X160023Y207184D02*
Y210569D01*
X161716Y212262D01*
X168487D01*
X170180Y210569D01*
Y207184D01*
X168487Y205491D01*
X161716D01*
X160023Y207184D01*
X170180Y202105D02*
Y198720D01*
Y200413D01*
X160023D01*
X161716Y202105D01*
Y193641D02*
X160023Y191949D01*
Y188563D01*
X161716Y186870D01*
X163409D01*
X165102Y188563D01*
X166794Y186870D01*
X168487D01*
X170180Y188563D01*
Y191949D01*
X168487Y193641D01*
X166794D01*
X165102Y191949D01*
X163409Y193641D01*
X161716D01*
X165102Y191949D02*
Y188563D01*
X515623Y220726D02*
Y217340D01*
Y219033D01*
X525780D01*
Y220726D01*
Y217340D01*
X515623Y207184D02*
Y210569D01*
X517316Y212262D01*
X524087D01*
X525780Y210569D01*
Y207184D01*
X524087Y205491D01*
X517316D01*
X515623Y207184D01*
X525780Y197027D02*
X515623D01*
X520702Y202105D01*
Y195334D01*
X541023Y220726D02*
Y217340D01*
Y219033D01*
X551180D01*
Y220726D01*
Y217340D01*
X541023Y207184D02*
Y210569D01*
X542716Y212262D01*
X549487D01*
X551180Y210569D01*
Y207184D01*
X549487Y205491D01*
X542716D01*
X541023Y207184D01*
X542716Y202105D02*
X541023Y200413D01*
Y197027D01*
X542716Y195334D01*
X544409D01*
X546102Y197027D01*
Y198720D01*
Y197027D01*
X547794Y195334D01*
X549487D01*
X551180Y197027D01*
Y200413D01*
X549487Y202105D01*
X566423Y220726D02*
Y217340D01*
Y219033D01*
X576580D01*
Y220726D01*
Y217340D01*
X566423Y207184D02*
Y210569D01*
X568116Y212262D01*
X574887D01*
X576580Y210569D01*
Y207184D01*
X574887Y205491D01*
X568116D01*
X566423Y207184D01*
X576580Y195334D02*
Y202105D01*
X569809Y195334D01*
X568116D01*
X566423Y197027D01*
Y200413D01*
X568116Y202105D01*
X591823Y220726D02*
Y217340D01*
Y219033D01*
X601980D01*
Y220726D01*
Y217340D01*
X591823Y207184D02*
Y210569D01*
X593516Y212262D01*
X600287D01*
X601980Y210569D01*
Y207184D01*
X600287Y205491D01*
X593516D01*
X591823Y207184D01*
X601980Y202105D02*
Y198720D01*
Y200413D01*
X591823D01*
X593516Y202105D01*
X617223Y220726D02*
Y217340D01*
Y219033D01*
X627380D01*
Y220726D01*
Y217340D01*
X617223Y207184D02*
Y210569D01*
X618916Y212262D01*
X625687D01*
X627380Y210569D01*
Y207184D01*
X625687Y205491D01*
X618916D01*
X617223Y207184D01*
X618916Y202105D02*
X617223Y200413D01*
Y197027D01*
X618916Y195334D01*
X625687D01*
X627380Y197027D01*
Y200413D01*
X625687Y202105D01*
X618916D01*
X644316Y220726D02*
X642623Y219033D01*
Y215648D01*
X644316Y213955D01*
X646009D01*
X647702Y215648D01*
Y217340D01*
Y215648D01*
X649394Y213955D01*
X651087D01*
X652780Y215648D01*
Y219033D01*
X651087Y220726D01*
X642623Y210569D02*
X649394D01*
X652780Y207184D01*
X649394Y203798D01*
X642623D01*
X644316Y200413D02*
X642623Y198720D01*
Y195334D01*
X644316Y193641D01*
X646009D01*
X647702Y195334D01*
Y197027D01*
Y195334D01*
X649394Y193641D01*
X651087D01*
X652780Y195334D01*
Y198720D01*
X651087Y200413D01*
X591823Y64770D02*
Y61384D01*
Y63077D01*
X601980D01*
Y64770D01*
Y61384D01*
X591823Y51228D02*
Y54613D01*
X593516Y56306D01*
X600287D01*
X601980Y54613D01*
Y51228D01*
X600287Y49535D01*
X593516D01*
X591823Y51228D01*
X601980Y41071D02*
X591823D01*
X596902Y46149D01*
Y39378D01*
X591823Y29221D02*
X593516Y32607D01*
X596902Y35993D01*
X600287D01*
X601980Y34300D01*
Y30914D01*
X600287Y29221D01*
X598594D01*
X596902Y30914D01*
Y35993D01*
X617223Y57999D02*
Y64770D01*
X627380D01*
Y57999D01*
X622302Y64770D02*
Y61384D01*
X627380Y54613D02*
X617223D01*
X627380Y47842D01*
X617223D01*
X644316Y57999D02*
X642623Y59692D01*
Y63077D01*
X644316Y64770D01*
X651087D01*
X652780Y63077D01*
Y59692D01*
X651087Y57999D01*
X647702D01*
Y61384D01*
X652780Y54613D02*
X642623D01*
X652780Y47842D01*
X642623D01*
Y44457D02*
X652780D01*
Y39378D01*
X651087Y37685D01*
X644316D01*
X642623Y39378D01*
Y44457D01*
X669716Y64770D02*
X668023Y63077D01*
Y59692D01*
X669716Y57999D01*
X671409D01*
X673102Y59692D01*
Y61384D01*
Y59692D01*
X674794Y57999D01*
X676487D01*
X678180Y59692D01*
Y63077D01*
X676487Y64770D01*
X668023Y54613D02*
X674794D01*
X678180Y51228D01*
X674794Y47842D01*
X668023D01*
X669716Y44457D02*
X668023Y42764D01*
Y39378D01*
X669716Y37685D01*
X671409D01*
X673102Y39378D01*
Y41071D01*
Y39378D01*
X674794Y37685D01*
X676487D01*
X678180Y39378D01*
Y42764D01*
X676487Y44457D01*
X566423Y64770D02*
Y61384D01*
Y63077D01*
X576580D01*
Y64770D01*
Y61384D01*
X566423Y51228D02*
Y54613D01*
X568116Y56306D01*
X574887D01*
X576580Y54613D01*
Y51228D01*
X574887Y49535D01*
X568116D01*
X566423Y51228D01*
X576580Y41071D02*
X566423D01*
X571502Y46149D01*
Y39378D01*
X566423Y29221D02*
Y35993D01*
X571502D01*
X569809Y32607D01*
Y30914D01*
X571502Y29221D01*
X574887D01*
X576580Y30914D01*
Y34300D01*
X574887Y35993D01*
X439423Y64770D02*
Y61384D01*
Y63077D01*
X449580D01*
Y64770D01*
Y61384D01*
X439423Y51228D02*
Y54613D01*
X441116Y56306D01*
X447887D01*
X449580Y54613D01*
Y51228D01*
X447887Y49535D01*
X441116D01*
X439423Y51228D01*
X449580Y41071D02*
X439423D01*
X444502Y46149D01*
Y39378D01*
X441116Y35993D02*
X439423Y34300D01*
Y30914D01*
X441116Y29221D01*
X447887D01*
X449580Y30914D01*
Y34300D01*
X447887Y35993D01*
X441116D01*
X551180Y64770D02*
X541023D01*
Y59692D01*
X542716Y57999D01*
X546102D01*
X547794Y59692D01*
Y64770D01*
Y61384D02*
X551180Y57999D01*
X541023Y54613D02*
X551180Y47842D01*
X541023D02*
X551180Y54613D01*
X541023Y44457D02*
X551180D01*
Y39378D01*
X549487Y37685D01*
X542716D01*
X541023Y39378D01*
Y44457D01*
X515623Y64770D02*
Y57999D01*
Y61384D01*
X525780D01*
X515623Y54613D02*
X525780Y47842D01*
X515623D02*
X525780Y54613D01*
X515623Y44457D02*
X525780D01*
Y39378D01*
X524087Y37685D01*
X517316D01*
X515623Y39378D01*
Y44457D01*
X490223Y64770D02*
Y61384D01*
Y63077D01*
X500380D01*
Y64770D01*
Y61384D01*
X490223Y51228D02*
Y54613D01*
X491916Y56306D01*
X498687D01*
X500380Y54613D01*
Y51228D01*
X498687Y49535D01*
X491916D01*
X490223Y51228D01*
X500380Y41071D02*
X490223D01*
X495302Y46149D01*
Y39378D01*
X500380Y29221D02*
Y35993D01*
X493609Y29221D01*
X491916D01*
X490223Y30914D01*
Y34300D01*
X491916Y35993D01*
X464823Y64770D02*
Y61384D01*
Y63077D01*
X474980D01*
Y64770D01*
Y61384D01*
X464823Y51228D02*
Y54613D01*
X466516Y56306D01*
X473287D01*
X474980Y54613D01*
Y51228D01*
X473287Y49535D01*
X466516D01*
X464823Y51228D01*
X474980Y41071D02*
X464823D01*
X469902Y46149D01*
Y39378D01*
X474980Y35993D02*
Y32607D01*
Y34300D01*
X464823D01*
X466516Y35993D01*
X312423Y64770D02*
Y61384D01*
Y63077D01*
X322580D01*
Y64770D01*
Y61384D01*
X312423Y51228D02*
Y54613D01*
X314116Y56306D01*
X320887D01*
X322580Y54613D01*
Y51228D01*
X320887Y49535D01*
X314116D01*
X312423Y51228D01*
X314116Y46149D02*
X312423Y44457D01*
Y41071D01*
X314116Y39378D01*
X315809D01*
X317502Y41071D01*
Y42764D01*
Y41071D01*
X319194Y39378D01*
X320887D01*
X322580Y41071D01*
Y44457D01*
X320887Y46149D01*
X312423Y29221D02*
Y35993D01*
X317502D01*
X315809Y32607D01*
Y30914D01*
X317502Y29221D01*
X320887D01*
X322580Y30914D01*
Y34300D01*
X320887Y35993D01*
X414023Y64770D02*
Y61384D01*
Y63077D01*
X424180D01*
Y64770D01*
Y61384D01*
X414023Y51228D02*
Y54613D01*
X415716Y56306D01*
X422487D01*
X424180Y54613D01*
Y51228D01*
X422487Y49535D01*
X415716D01*
X414023Y51228D01*
X415716Y46149D02*
X414023Y44457D01*
Y41071D01*
X415716Y39378D01*
X417409D01*
X419102Y41071D01*
Y42764D01*
Y41071D01*
X420794Y39378D01*
X422487D01*
X424180Y41071D01*
Y44457D01*
X422487Y46149D01*
Y35993D02*
X424180Y34300D01*
Y30914D01*
X422487Y29221D01*
X415716D01*
X414023Y30914D01*
Y34300D01*
X415716Y35993D01*
X417409D01*
X419102Y34300D01*
Y29221D01*
X388623Y64770D02*
Y61384D01*
Y63077D01*
X398780D01*
Y64770D01*
Y61384D01*
X388623Y51228D02*
Y54613D01*
X390316Y56306D01*
X397087D01*
X398780Y54613D01*
Y51228D01*
X397087Y49535D01*
X390316D01*
X388623Y51228D01*
X390316Y46149D02*
X388623Y44457D01*
Y41071D01*
X390316Y39378D01*
X392009D01*
X393702Y41071D01*
Y42764D01*
Y41071D01*
X395394Y39378D01*
X397087D01*
X398780Y41071D01*
Y44457D01*
X397087Y46149D01*
X390316Y35993D02*
X388623Y34300D01*
Y30914D01*
X390316Y29221D01*
X392009D01*
X393702Y30914D01*
X395394Y29221D01*
X397087D01*
X398780Y30914D01*
Y34300D01*
X397087Y35993D01*
X395394D01*
X393702Y34300D01*
X392009Y35993D01*
X390316D01*
X393702Y34300D02*
Y30914D01*
X363223Y64770D02*
Y61384D01*
Y63077D01*
X373380D01*
Y64770D01*
Y61384D01*
X363223Y51228D02*
Y54613D01*
X364916Y56306D01*
X371687D01*
X373380Y54613D01*
Y51228D01*
X371687Y49535D01*
X364916D01*
X363223Y51228D01*
X364916Y46149D02*
X363223Y44457D01*
Y41071D01*
X364916Y39378D01*
X366609D01*
X368302Y41071D01*
Y42764D01*
Y41071D01*
X369994Y39378D01*
X371687D01*
X373380Y41071D01*
Y44457D01*
X371687Y46149D01*
X363223Y35993D02*
Y29221D01*
X364916D01*
X371687Y35993D01*
X373380D01*
X337823Y64770D02*
Y61384D01*
Y63077D01*
X347980D01*
Y64770D01*
Y61384D01*
X337823Y51228D02*
Y54613D01*
X339516Y56306D01*
X346287D01*
X347980Y54613D01*
Y51228D01*
X346287Y49535D01*
X339516D01*
X337823Y51228D01*
X339516Y46149D02*
X337823Y44457D01*
Y41071D01*
X339516Y39378D01*
X341209D01*
X342902Y41071D01*
Y42764D01*
Y41071D01*
X344594Y39378D01*
X346287D01*
X347980Y41071D01*
Y44457D01*
X346287Y46149D01*
X337823Y29221D02*
X339516Y32607D01*
X342902Y35993D01*
X346287D01*
X347980Y34300D01*
Y30914D01*
X346287Y29221D01*
X344594D01*
X342902Y30914D01*
Y35993D01*
X287023Y64770D02*
Y61384D01*
Y63077D01*
X297180D01*
Y64770D01*
Y61384D01*
X287023Y51228D02*
Y54613D01*
X288716Y56306D01*
X295487D01*
X297180Y54613D01*
Y51228D01*
X295487Y49535D01*
X288716D01*
X287023Y51228D01*
X288716Y46149D02*
X287023Y44457D01*
Y41071D01*
X288716Y39378D01*
X290409D01*
X292102Y41071D01*
Y42764D01*
Y41071D01*
X293794Y39378D01*
X295487D01*
X297180Y41071D01*
Y44457D01*
X295487Y46149D01*
X297180Y30914D02*
X287023D01*
X292102Y35993D01*
Y29221D01*
X261623Y64770D02*
Y61384D01*
Y63077D01*
X271780D01*
Y64770D01*
Y61384D01*
X261623Y51228D02*
Y54613D01*
X263316Y56306D01*
X270087D01*
X271780Y54613D01*
Y51228D01*
X270087Y49535D01*
X263316D01*
X261623Y51228D01*
X263316Y46149D02*
X261623Y44457D01*
Y41071D01*
X263316Y39378D01*
X265009D01*
X266702Y41071D01*
Y42764D01*
Y41071D01*
X268394Y39378D01*
X270087D01*
X271780Y41071D01*
Y44457D01*
X270087Y46149D01*
X263316Y35993D02*
X261623Y34300D01*
Y30914D01*
X263316Y29221D01*
X265009D01*
X266702Y30914D01*
Y32607D01*
Y30914D01*
X268394Y29221D01*
X270087D01*
X271780Y30914D01*
Y34300D01*
X270087Y35993D01*
X236223Y64770D02*
Y61384D01*
Y63077D01*
X246380D01*
Y64770D01*
Y61384D01*
X236223Y51228D02*
Y54613D01*
X237916Y56306D01*
X244687D01*
X246380Y54613D01*
Y51228D01*
X244687Y49535D01*
X237916D01*
X236223Y51228D01*
X246380Y39378D02*
Y46149D01*
X239609Y39378D01*
X237916D01*
X236223Y41071D01*
Y44457D01*
X237916Y46149D01*
X236223Y29221D02*
X237916Y32607D01*
X241302Y35993D01*
X244687D01*
X246380Y34300D01*
Y30914D01*
X244687Y29221D01*
X242994D01*
X241302Y30914D01*
Y35993D01*
X210823Y64770D02*
Y61384D01*
Y63077D01*
X220980D01*
Y64770D01*
Y61384D01*
X210823Y51228D02*
Y54613D01*
X212516Y56306D01*
X219287D01*
X220980Y54613D01*
Y51228D01*
X219287Y49535D01*
X212516D01*
X210823Y51228D01*
X220980Y39378D02*
Y46149D01*
X214209Y39378D01*
X212516D01*
X210823Y41071D01*
Y44457D01*
X212516Y46149D01*
X220980Y35993D02*
Y32607D01*
Y34300D01*
X210823D01*
X212516Y35993D01*
X134623Y64770D02*
Y61384D01*
Y63077D01*
X144780D01*
Y64770D01*
Y61384D01*
X134623Y51228D02*
Y54613D01*
X136316Y56306D01*
X143087D01*
X144780Y54613D01*
Y51228D01*
X143087Y49535D01*
X136316D01*
X134623Y51228D01*
X144780Y41071D02*
X134623D01*
X139702Y46149D01*
Y39378D01*
X136316Y35993D02*
X134623Y34300D01*
Y30914D01*
X136316Y29221D01*
X138009D01*
X139702Y30914D01*
X141394Y29221D01*
X143087D01*
X144780Y30914D01*
Y34300D01*
X143087Y35993D01*
X141394D01*
X139702Y34300D01*
X138009Y35993D01*
X136316D01*
X139702Y34300D02*
Y30914D01*
X109223Y64770D02*
Y61384D01*
Y63077D01*
X119380D01*
Y64770D01*
Y61384D01*
X109223Y51228D02*
Y54613D01*
X110916Y56306D01*
X117687D01*
X119380Y54613D01*
Y51228D01*
X117687Y49535D01*
X110916D01*
X109223Y51228D01*
X119380Y41071D02*
X109223D01*
X114302Y46149D01*
Y39378D01*
X109223Y35993D02*
Y29221D01*
X110916D01*
X117687Y35993D01*
X119380D01*
X85516Y57999D02*
X83823Y59692D01*
Y63077D01*
X85516Y64770D01*
X92287D01*
X93980Y63077D01*
Y59692D01*
X92287Y57999D01*
X88902D01*
Y61384D01*
X93980Y54613D02*
X83823D01*
X93980Y47842D01*
X83823D01*
Y44457D02*
X93980D01*
Y39378D01*
X92287Y37685D01*
X85516D01*
X83823Y39378D01*
Y44457D01*
X678180Y180850D02*
X673102Y185928D01*
X668023Y180850D01*
X673102Y175771D02*
Y169000D01*
Y165615D02*
Y158843D01*
Y155458D02*
Y148687D01*
X678180Y145301D02*
X668023D01*
Y140223D01*
X669716Y138530D01*
X673102D01*
X674794Y140223D01*
Y145301D01*
X668023Y135144D02*
Y131759D01*
Y133452D01*
X678180D01*
Y135144D01*
Y131759D01*
Y126680D02*
X668023D01*
X678180Y119909D01*
X668023D01*
X678180Y116524D02*
Y113138D01*
Y114831D01*
X668023D01*
X669716Y116524D01*
X673102Y108060D02*
Y101289D01*
Y97903D02*
Y91132D01*
Y87746D02*
Y80975D01*
X678180Y77590D02*
X673102Y72511D01*
X668023Y77590D01*
X667259Y-8636D02*
Y-5250D01*
Y-6943D01*
X677415D01*
X675722Y-8636D01*
X669544Y260604D02*
Y263990D01*
Y262297D01*
X679701D01*
X678008Y260604D01*
D13*
X76200Y0D02*
X685800D01*
X76200D02*
Y25400D01*
X685800D01*
Y0D02*
Y25400D01*
X76200Y228600D02*
X685800D01*
X76200D02*
Y254000D01*
X685800D01*
Y228600D02*
Y254000D01*
M02*
