G04*
G04 #@! TF.GenerationSoftware,Altium Limited,Altium Designer,24.9.1 (31)*
G04*
G04 Layer_Physical_Order=1*
G04 Layer_Color=255*
%FSLAX44Y44*%
%MOMM*%
G71*
G04*
G04 #@! TF.SameCoordinates,318047C4-B972-4631-9CD3-40AE8DFBCC20*
G04*
G04*
G04 #@! TF.FilePolarity,Positive*
G04*
G01*
G75*
%ADD12C,0.1524*%
%ADD17R,0.5400X0.6000*%
G04:AMPARAMS|DCode=18|XSize=0.6mm|YSize=0.54mm|CornerRadius=0.1431mm|HoleSize=0mm|Usage=FLASHONLY|Rotation=270.000|XOffset=0mm|YOffset=0mm|HoleType=Round|Shape=RoundedRectangle|*
%AMROUNDEDRECTD18*
21,1,0.6000,0.2538,0,0,270.0*
21,1,0.3138,0.5400,0,0,270.0*
1,1,0.2862,-0.1269,-0.1569*
1,1,0.2862,-0.1269,0.1569*
1,1,0.2862,0.1269,0.1569*
1,1,0.2862,0.1269,-0.1569*
%
%ADD18ROUNDEDRECTD18*%
%ADD19R,0.6000X0.5400*%
%ADD20R,1.2000X1.2000*%
%ADD21R,0.8000X0.4000*%
%ADD22R,0.4000X0.8000*%
%ADD23R,0.8000X0.8000*%
%ADD24R,1.5500X1.3000*%
%ADD25R,0.7000X0.6000*%
G04:AMPARAMS|DCode=26|XSize=0.6mm|YSize=0.54mm|CornerRadius=0.1431mm|HoleSize=0mm|Usage=FLASHONLY|Rotation=0.000|XOffset=0mm|YOffset=0mm|HoleType=Round|Shape=RoundedRectangle|*
%AMROUNDEDRECTD26*
21,1,0.6000,0.2538,0,0,0.0*
21,1,0.3138,0.5400,0,0,0.0*
1,1,0.2862,0.1569,-0.1269*
1,1,0.2862,-0.1569,-0.1269*
1,1,0.2862,-0.1569,0.1269*
1,1,0.2862,0.1569,0.1269*
%
%ADD26ROUNDEDRECTD26*%
%ADD27R,0.3500X0.6000*%
%ADD28R,0.6000X0.3500*%
G04:AMPARAMS|DCode=29|XSize=0.9mm|YSize=1.75mm|CornerRadius=0.0495mm|HoleSize=0mm|Usage=FLASHONLY|Rotation=90.000|XOffset=0mm|YOffset=0mm|HoleType=Round|Shape=RoundedRectangle|*
%AMROUNDEDRECTD29*
21,1,0.9000,1.6510,0,0,90.0*
21,1,0.8010,1.7500,0,0,90.0*
1,1,0.0990,0.8255,0.4005*
1,1,0.0990,0.8255,-0.4005*
1,1,0.0990,-0.8255,-0.4005*
1,1,0.0990,-0.8255,0.4005*
%
%ADD29ROUNDEDRECTD29*%
G04:AMPARAMS|DCode=30|XSize=3.2mm|YSize=1.75mm|CornerRadius=0.0525mm|HoleSize=0mm|Usage=FLASHONLY|Rotation=90.000|XOffset=0mm|YOffset=0mm|HoleType=Round|Shape=RoundedRectangle|*
%AMROUNDEDRECTD30*
21,1,3.2000,1.6450,0,0,90.0*
21,1,3.0950,1.7500,0,0,90.0*
1,1,0.1050,0.8225,1.5475*
1,1,0.1050,0.8225,-1.5475*
1,1,0.1050,-0.8225,-1.5475*
1,1,0.1050,-0.8225,1.5475*
%
%ADD30ROUNDEDRECTD30*%
G04:AMPARAMS|DCode=31|XSize=0.2425mm|YSize=0.8397mm|CornerRadius=0.1212mm|HoleSize=0mm|Usage=FLASHONLY|Rotation=270.000|XOffset=0mm|YOffset=0mm|HoleType=Round|Shape=RoundedRectangle|*
%AMROUNDEDRECTD31*
21,1,0.2425,0.5972,0,0,270.0*
21,1,0.0000,0.8397,0,0,270.0*
1,1,0.2425,-0.2986,0.0000*
1,1,0.2425,-0.2986,0.0000*
1,1,0.2425,0.2986,0.0000*
1,1,0.2425,0.2986,0.0000*
%
%ADD31ROUNDEDRECTD31*%
G04:AMPARAMS|DCode=32|XSize=0.8397mm|YSize=0.2425mm|CornerRadius=0.1212mm|HoleSize=0mm|Usage=FLASHONLY|Rotation=270.000|XOffset=0mm|YOffset=0mm|HoleType=Round|Shape=RoundedRectangle|*
%AMROUNDEDRECTD32*
21,1,0.8397,0.0000,0,0,270.0*
21,1,0.5972,0.2425,0,0,270.0*
1,1,0.2425,0.0000,-0.2986*
1,1,0.2425,0.0000,0.2986*
1,1,0.2425,0.0000,0.2986*
1,1,0.2425,0.0000,-0.2986*
%
%ADD32ROUNDEDRECTD32*%
%ADD33R,0.2425X0.8397*%
G04:AMPARAMS|DCode=34|XSize=1.3571mm|YSize=0.5721mm|CornerRadius=0.2861mm|HoleSize=0mm|Usage=FLASHONLY|Rotation=0.000|XOffset=0mm|YOffset=0mm|HoleType=Round|Shape=RoundedRectangle|*
%AMROUNDEDRECTD34*
21,1,1.3571,0.0000,0,0,0.0*
21,1,0.7850,0.5721,0,0,0.0*
1,1,0.5721,0.3925,0.0000*
1,1,0.5721,-0.3925,0.0000*
1,1,0.5721,-0.3925,0.0000*
1,1,0.5721,0.3925,0.0000*
%
%ADD34ROUNDEDRECTD34*%
%ADD35R,1.3571X0.5721*%
%ADD36R,1.1500X0.6000*%
%ADD37R,1.1500X0.3000*%
%ADD51R,2.0500X2.0500*%
G04:AMPARAMS|DCode=55|XSize=1mm|YSize=2.2mm|CornerRadius=0.5mm|HoleSize=0mm|Usage=FLASHONLY|Rotation=270.000|XOffset=0mm|YOffset=0mm|HoleType=Round|Shape=RoundedRectangle|*
%AMROUNDEDRECTD55*
21,1,1.0000,1.2000,0,0,270.0*
21,1,0.0000,2.2000,0,0,270.0*
1,1,1.0000,-0.6000,0.0000*
1,1,1.0000,-0.6000,0.0000*
1,1,1.0000,0.6000,0.0000*
1,1,1.0000,0.6000,0.0000*
%
%ADD55ROUNDEDRECTD55*%
G04:AMPARAMS|DCode=56|XSize=1mm|YSize=1.8mm|CornerRadius=0.5mm|HoleSize=0mm|Usage=FLASHONLY|Rotation=270.000|XOffset=0mm|YOffset=0mm|HoleType=Round|Shape=RoundedRectangle|*
%AMROUNDEDRECTD56*
21,1,1.0000,0.8000,0,0,270.0*
21,1,0.0000,1.8000,0,0,270.0*
1,1,1.0000,-0.4000,0.0000*
1,1,1.0000,-0.4000,0.0000*
1,1,1.0000,0.4000,0.0000*
1,1,1.0000,0.4000,0.0000*
%
%ADD56ROUNDEDRECTD56*%
%ADD59R,0.4000X0.4000*%
%ADD60C,0.1575*%
%ADD61C,0.5080*%
%ADD62C,0.3810*%
%ADD63C,1.0160*%
%ADD64R,1.0160X1.0160*%
%ADD65R,1.0160X1.0160*%
%ADD66R,1.6256X1.6256*%
%ADD67C,1.6256*%
%ADD68C,0.6096*%
G36*
X226060Y204859D02*
X224887Y204373D01*
X223520Y205740D01*
X210820D01*
Y218440D01*
X226060D01*
Y204859D01*
D02*
G37*
G36*
X153708Y183299D02*
X153616Y178265D01*
X153326Y162560D01*
X142240D01*
X139700Y160020D01*
Y147320D01*
X141067Y145953D01*
X140581Y144780D01*
X131161D01*
Y157416D01*
Y163148D01*
X136529Y168516D01*
X139700Y175560D01*
X148345Y184205D01*
X152819D01*
X153708Y183299D01*
D02*
G37*
G36*
X109220Y135078D02*
X109167Y134948D01*
X93055Y134670D01*
X91440D01*
X90873Y134835D01*
X90170Y135526D01*
Y161516D01*
X90717Y162560D01*
X109220D01*
Y135078D01*
D02*
G37*
G36*
X139700Y104140D02*
X180340D01*
Y91440D01*
X152400D01*
Y93980D01*
X134620D01*
X109220Y119380D01*
Y124460D01*
X91440D01*
Y132080D01*
X111760D01*
X139700Y104140D01*
D02*
G37*
G36*
X643890Y87630D02*
X571500Y87630D01*
Y160020D01*
X643890D01*
Y87630D01*
D02*
G37*
G36*
X289560Y73660D02*
X246380D01*
Y57150D01*
X220980D01*
Y69850D01*
X175260D01*
Y64770D01*
X130239D01*
X129540Y65060D01*
Y71120D01*
X120937D01*
Y87630D01*
X137160D01*
Y88900D01*
X147320D01*
Y82550D01*
X200660D01*
Y102870D01*
X246380D01*
Y119380D01*
X289560D01*
Y73660D01*
D02*
G37*
G36*
X99060Y114300D02*
X110490Y102870D01*
Y78740D01*
X90170D01*
Y80010D01*
Y118110D01*
X99060D01*
Y114300D01*
D02*
G37*
G36*
X170346Y49899D02*
Y30168D01*
X124897D01*
Y49936D01*
X125805Y50825D01*
X170346Y49899D01*
D02*
G37*
D12*
X373380Y86360D02*
X387840Y71900D01*
X373380Y86360D02*
Y114300D01*
X446730Y199690D02*
X447040Y200000D01*
X445000Y197460D02*
X446730Y199190D01*
X435072Y195349D02*
X437182Y197460D01*
X434109Y195349D02*
X435072D01*
X437182Y197460D02*
X445000D01*
X446730Y199190D02*
Y199690D01*
X447040Y200000D02*
Y226060D01*
X116840Y93593D02*
X121240Y89193D01*
Y84500D02*
Y89193D01*
Y84500D02*
X121920Y83820D01*
X116840Y93593D02*
Y93980D01*
X119246Y58928D02*
X119380D01*
X62162Y57662D02*
X63622Y59122D01*
X115436Y55118D02*
X119246Y58928D01*
X89491Y51562D02*
X118618D01*
X119380Y50800D01*
X89491Y55118D02*
X115436D01*
X208280Y208061D02*
X212680D01*
X206502Y208181D02*
X206622Y208061D01*
X208280D01*
X212680D02*
X213360Y207381D01*
X289560Y157480D02*
X299720Y147320D01*
Y55880D02*
Y147320D01*
Y55880D02*
X314600Y41000D01*
X93961Y211300D02*
X98561Y215900D01*
X88900Y210820D02*
X89380Y211300D01*
X93961D01*
X98561Y215900D02*
X99060D01*
X254000Y212600D02*
X254050Y212650D01*
X270499D01*
X270549Y212700D01*
X76040Y210600D02*
X81280Y215840D01*
X83880Y218440D01*
X62900Y210600D02*
X76040D01*
X83880Y218440D02*
X91901D01*
X96219Y222758D01*
X82320Y230100D02*
X86360Y226060D01*
X62900Y230100D02*
X82320D01*
X96219Y222758D02*
X107442D01*
X109220Y220980D01*
X108920Y212600D02*
X109220D01*
X107490Y214030D02*
X108920Y212600D01*
X109220D02*
Y220980D01*
X100676Y205276D02*
X101140Y205740D01*
X100676Y200406D02*
Y205276D01*
X96520Y196250D02*
X100676Y200406D01*
X77546Y204320D02*
X88900D01*
X76266Y205600D02*
X77546Y204320D01*
X387840Y71900D02*
X418840D01*
X172720Y228600D02*
X180500Y220820D01*
X642340Y193180D02*
Y203480D01*
X640080Y205740D02*
X642340Y203480D01*
X622300Y205740D02*
X640080D01*
X460418Y103470D02*
X465490D01*
X459737Y104151D02*
X460418Y103470D01*
X465490D02*
X477520Y91440D01*
X462280Y85308D02*
Y95250D01*
X461772Y95758D02*
X462280Y95250D01*
X391160Y137160D02*
X454660Y73660D01*
X391486Y144018D02*
X456764Y78740D01*
X469900D01*
X427182Y117302D02*
X427595Y117715D01*
X454660Y73660D02*
X464820D01*
X427595Y117715D02*
Y121027D01*
X428488Y121920D01*
X463768Y83820D02*
X472004D01*
X462280Y85308D02*
X463768Y83820D01*
X365760Y144018D02*
X391486D01*
X375920Y137160D02*
X391160D01*
X472004Y83820D02*
X491308Y64516D01*
X464820Y73660D02*
X501958Y36522D01*
X469900Y78740D02*
X506270Y42370D01*
X515620Y35260D02*
Y35560D01*
X523240Y15240D02*
Y27940D01*
X515620Y35260D02*
X517050Y33830D01*
X517350D02*
X523240Y27940D01*
X517050Y33830D02*
X517350D01*
X520700Y12700D02*
X523240Y15240D01*
X538480Y35260D02*
Y35560D01*
X548640Y15240D02*
Y25400D01*
X539910Y33830D02*
X540210D01*
X548640Y25400D01*
X538480Y35260D02*
X539910Y33830D01*
X546100Y12700D02*
X548640Y15240D01*
X651085Y55740D02*
X651400D01*
X650915Y66848D02*
X650991Y66923D01*
X650915Y55910D02*
X651085Y55740D01*
X650915Y55910D02*
Y66848D01*
X599901Y220980D02*
X611839Y232918D01*
X613918D01*
X622300Y241300D01*
X622300D01*
X496788Y220980D02*
X599901D01*
X409300Y213000D02*
X421640Y200660D01*
Y200152D02*
Y200660D01*
X333100Y213000D02*
X335280Y210820D01*
X315850Y213000D02*
X333100D01*
X254000Y203960D02*
X273648D01*
X233379Y196342D02*
X239061D01*
X237118Y208071D02*
X241091D01*
X241771Y208751D01*
X246679Y203960D02*
X254000D01*
X239061Y196342D02*
X246679Y203960D01*
X195380Y139700D02*
X196148Y138931D01*
X197111D01*
X186960Y139700D02*
X195380D01*
X226128Y185312D02*
X226568Y184872D01*
X210928Y185312D02*
X226128D01*
X231275Y191262D02*
X246996D01*
X218736Y191730D02*
X230807D01*
X231275Y191262D01*
X232911Y196810D02*
X233379Y196342D01*
X220840Y196810D02*
X232911D01*
X231140Y171758D02*
Y172720D01*
X229360Y169978D02*
X231140Y171758D01*
X229360Y162980D02*
Y169978D01*
X202584Y204263D02*
X206502Y208181D01*
X249434Y193700D02*
X268170D01*
X232880Y203620D02*
Y203833D01*
X246996Y191262D02*
X249434Y193700D01*
X232880Y203833D02*
X237118Y208071D01*
X105570Y42770D02*
X109459D01*
X104140Y44200D02*
X105570Y42770D01*
X109459D02*
X110734Y41496D01*
X111696D01*
X349758Y160020D02*
X365760Y144018D01*
X315850Y41000D02*
X396600D01*
X419140Y56120D02*
X421270Y53990D01*
X423418D01*
X418840Y56120D02*
X419140D01*
X423418Y53990D02*
X425650Y51758D01*
X415468Y33020D02*
X425650Y43202D01*
X401830Y34520D02*
Y35770D01*
Y34520D02*
X403330Y33020D01*
X425650Y43202D02*
Y51758D01*
X396600Y41000D02*
X401830Y35770D01*
X403330Y33020D02*
X415468D01*
X182391Y167186D02*
Y168148D01*
X180500Y170039D02*
X182391Y168148D01*
X180500Y170039D02*
Y175050D01*
X190535Y172482D02*
X193023D01*
X195380Y152400D02*
X197158Y154178D01*
X190478Y172540D02*
Y175028D01*
X197158Y154178D02*
X198120D01*
X193023Y172482D02*
X195348Y170158D01*
X190478Y172540D02*
X190535Y172482D01*
X195370Y170180D02*
X210647Y154903D01*
Y147953D02*
Y154903D01*
X186960Y152400D02*
X195380D01*
X213958Y207682D02*
X220218D01*
X222649Y205251D01*
X207761Y200141D02*
X208280D01*
X206825Y199205D02*
X207761Y200141D01*
X199655Y199205D02*
X206825D01*
X222862Y205251D02*
X224280Y203833D01*
X208280Y200141D02*
X217509D01*
X216181Y194285D02*
X218736Y191730D01*
X222649Y205251D02*
X222862D01*
X199655Y194205D02*
X208200D01*
X208280Y194285D02*
X216181D01*
X208200Y194205D02*
X208280Y194285D01*
X217509Y200141D02*
X220840Y196810D01*
X185406Y228565D02*
X190500Y223471D01*
Y216289D02*
Y223471D01*
X180500Y213360D02*
Y220820D01*
X224280Y203620D02*
Y216320D01*
X237507Y153498D02*
X238188Y154178D01*
X237507Y152520D02*
Y153498D01*
X235057Y150070D02*
X237507Y152520D01*
X229570Y150070D02*
X235057D01*
X229360Y150280D02*
X229570Y150070D01*
X124460Y175260D02*
X131100D01*
X159700Y140020D02*
X162560Y137160D01*
X121005Y205788D02*
Y206654D01*
X119178Y203960D02*
X121005Y205788D01*
X128229Y192694D02*
X129122Y191801D01*
Y189898D02*
Y191801D01*
X88900Y187960D02*
X89454Y187406D01*
X129122Y197143D02*
Y198722D01*
X83168Y196322D02*
X86796Y192694D01*
X88269Y196250D02*
X96520D01*
X100748Y187406D02*
X101302Y186852D01*
X89454Y187406D02*
X100748D01*
X128229Y196250D02*
X129122Y197143D01*
X86796Y192694D02*
X128229D01*
X96520Y196250D02*
X128229D01*
X109220Y203960D02*
X119178D01*
X116638Y187200D02*
X125050Y178788D01*
X125647D01*
X109220Y182880D02*
Y187200D01*
X116638D01*
X119380Y170180D02*
X124460Y175260D01*
X116060Y153180D02*
X119380Y149860D01*
X121920Y215900D02*
X131100D01*
X121332Y215706D02*
X121626Y215413D01*
X116060Y153180D02*
Y160020D01*
X265212Y177007D02*
X266700Y178494D01*
Y192230D01*
X250622Y177007D02*
X265212D01*
X251315Y167673D02*
X269856D01*
X270549Y166980D01*
X250622Y168367D02*
X251315Y167673D01*
X266700Y192230D02*
X268170Y193700D01*
X270549D01*
X227930Y133702D02*
Y136150D01*
X221228Y127000D02*
X227930Y133702D01*
Y136150D02*
X229360Y137580D01*
X220980Y127000D02*
X221228D01*
X94520Y180980D02*
X96430Y179070D01*
X102962D01*
X105342Y181450D01*
X89380Y180980D02*
X94520D01*
X92416Y175900D02*
X94326Y173990D01*
X108970D01*
X109220Y174240D01*
X88900Y181460D02*
X89380Y180980D01*
X105342Y181450D02*
X107790D01*
X109220Y182880D01*
X78226Y187960D02*
X88900D01*
X84322Y175900D02*
X92416D01*
X79622Y180600D02*
X84322Y175900D01*
X62900Y180600D02*
X79622D01*
X99060Y160020D02*
X107460D01*
X92150D02*
X99060D01*
X83820Y147320D02*
X85650Y149150D01*
Y160020D01*
X73660Y154940D02*
Y158090D01*
X63500Y165100D02*
X66650D01*
X73660Y158090D01*
X62900Y165700D02*
Y166100D01*
Y165700D02*
X63500Y165100D01*
X177480Y127000D02*
X177920Y127440D01*
X166880Y127000D02*
X177480D01*
X63622Y196322D02*
X83168D01*
X75586Y190600D02*
X78226Y187960D01*
X62900Y190600D02*
X75586D01*
X62900Y205600D02*
X76266D01*
X53340Y196493D02*
Y204707D01*
X54233Y195600D02*
X62900D01*
X53340Y196493D02*
X54233Y195600D01*
Y205600D02*
X62900D01*
X53340Y204707D02*
X54233Y205600D01*
X84641Y199878D02*
X88269Y196250D01*
X129122Y198722D02*
X131060Y200660D01*
X63622Y199878D02*
X84641D01*
X129122Y189898D02*
X131060Y187960D01*
X62900Y195600D02*
X63622Y196322D01*
X62900Y200600D02*
X63622Y199878D01*
X142531Y196088D02*
X154918D01*
Y192402D02*
X158115Y189205D01*
X154788Y192532D02*
X154918Y192402D01*
Y196088D02*
X156261D01*
X158144Y194205D01*
X161345D01*
X142531Y192532D02*
X154788D01*
X158115Y189205D02*
X161345D01*
X141638Y189898D02*
Y191639D01*
X142531Y192532D01*
X139700Y187960D02*
X141638Y189898D01*
X139700Y200660D02*
X141638Y198722D01*
Y196981D02*
X142531Y196088D01*
X141638Y196981D02*
Y198722D01*
X76459Y53599D02*
X78496Y51562D01*
X70936Y59122D02*
X76459Y53599D01*
X62900Y48400D02*
X71260D01*
X76459Y53599D01*
X50800Y54293D02*
Y62507D01*
X51693Y63400D01*
X62900D01*
X51693Y53400D02*
X62900D01*
X50800Y54293D02*
X51693Y53400D01*
X62900Y63400D02*
X63622Y62678D01*
X72409D01*
X79969Y55118D01*
X85269Y58420D02*
X86360D01*
X63622Y59122D02*
X70936D01*
X84281Y57432D02*
X85269Y58420D01*
X84281Y56011D02*
Y57432D01*
X85269Y48260D02*
X86360D01*
X84281Y49248D02*
X85269Y48260D01*
X83388Y51562D02*
X84281Y50669D01*
X78496Y51562D02*
X83388D01*
Y55118D02*
X84281Y56011D01*
X79969Y55118D02*
X83388D01*
X84281Y49248D02*
Y50669D01*
X426720Y128303D02*
Y129540D01*
X428044Y126369D02*
Y126979D01*
X428937Y125476D02*
X452071D01*
X426720Y128303D02*
X428044Y126979D01*
Y126369D02*
X428937Y125476D01*
X428488Y121920D02*
X450598D01*
X452071Y125476D02*
X456390Y121158D01*
X450598Y121920D02*
X454916Y117602D01*
X456390Y121158D02*
X472149D01*
X454916Y117602D02*
X472149D01*
Y121158D02*
X473042Y122051D01*
X472149Y117602D02*
X473042Y116709D01*
Y122051D02*
Y127602D01*
Y111158D02*
X474980Y109220D01*
X473042Y111158D02*
Y116709D01*
Y127602D02*
X474980Y129540D01*
X479008Y86360D02*
X532632D01*
X477520Y87848D02*
X479008Y86360D01*
X477520Y87848D02*
Y91440D01*
X86360Y58420D02*
X87610D01*
Y48260D02*
X88598Y49248D01*
Y50669D01*
X86360Y48260D02*
X87610D01*
Y58420D02*
X88598Y57432D01*
Y56011D02*
Y57432D01*
Y56011D02*
X89491Y55118D01*
X88598Y50669D02*
X89491Y51562D01*
X86360Y64920D02*
X86552Y65112D01*
X95592D01*
X95785Y65305D01*
X104140Y60960D02*
X105570Y62390D01*
X108110D01*
X110917Y65197D01*
X111953D01*
X112634Y65877D01*
X497840Y165100D02*
X498130Y165390D01*
X510958Y148680D02*
X538340D01*
X495840Y174720D02*
X537800D01*
X510540Y149098D02*
X510958Y148680D01*
X498130Y165390D02*
X538050D01*
X495300Y175260D02*
X495840Y174720D01*
X512629Y133459D02*
X518461D01*
X491148Y154940D02*
X512629Y133459D01*
X435285Y154940D02*
X491148D01*
X518461Y133459D02*
X520239Y131680D01*
X518228Y140248D02*
X537542D01*
X518160Y140317D02*
X518228Y140248D01*
X528359Y106180D02*
X538340D01*
X530530Y97680D02*
X538340D01*
X523779Y101600D02*
X528359Y106180D01*
X498037Y93980D02*
X526830D01*
X523240Y101600D02*
X523779D01*
X526830Y93980D02*
X530530Y97680D01*
X497938Y94079D02*
X498037Y93980D01*
X520239Y131680D02*
X538340D01*
X537542Y140248D02*
X537610Y140180D01*
X375920Y152400D02*
X432745D01*
X435285Y154940D01*
X314600Y168000D02*
X315850D01*
X395350D02*
X419133D01*
X315850D02*
X395350D01*
X507700Y157180D02*
X538340D01*
X421640Y174480D02*
X446260D01*
X538050Y165390D02*
X538340Y165680D01*
X446260Y175373D02*
X450206Y179319D01*
X446260Y174480D02*
Y175373D01*
X450206Y179319D02*
Y179826D01*
X506018Y36522D02*
X506980Y35560D01*
X501958Y36522D02*
X506018D01*
X532632Y86360D02*
X532762Y86490D01*
X535610Y88450D02*
X536340Y89180D01*
X535610Y87978D02*
Y88450D01*
X500380Y78740D02*
X508000Y71120D01*
X518160D01*
X534122Y86490D02*
X535610Y87978D01*
X536340Y89180D02*
X538340D01*
X532762Y86490D02*
X534122D01*
X493641Y71882D02*
X494538D01*
X491308Y64516D02*
X491744D01*
X500359Y55901D02*
X521550D01*
X506270Y42370D02*
X519898D01*
X503392Y63028D02*
X517688D01*
X494538Y71882D02*
X503392Y63028D01*
X491744Y64516D02*
X500359Y55901D01*
X521550D02*
X529330Y63680D01*
X538340D01*
X518160Y71120D02*
X527720Y80680D01*
X538340D01*
X517688Y63028D02*
X526542Y71882D01*
X538042D01*
X523516Y42185D02*
X529840Y35860D01*
X519898Y42370D02*
X520084Y42185D01*
X523516D01*
X529840Y35560D02*
Y35860D01*
X538042Y71882D02*
X538340Y72180D01*
X94138Y41760D02*
X95558Y43180D01*
X96520D01*
X86360Y41760D02*
X94138D01*
X82422Y35560D02*
X104140D01*
X79582Y38400D02*
X82422Y35560D01*
X62900Y38400D02*
X79582D01*
X103840Y69600D02*
X104140D01*
X99890Y73550D02*
X103840Y69600D01*
X84852Y73550D02*
X99890D01*
X79702Y68400D02*
X84852Y73550D01*
X62900Y68400D02*
X79702D01*
X83820Y104140D02*
X84940Y103020D01*
Y93980D02*
Y103020D01*
X596900Y12700D02*
X619760Y35560D01*
X644608D02*
X656650Y47602D01*
X619760Y35560D02*
X644608D01*
X591710Y55740D02*
Y67200D01*
X573930Y53200D02*
Y64660D01*
X566151Y54924D02*
Y76200D01*
X418840Y56120D02*
Y71900D01*
X314600Y41000D02*
X315850D01*
X474218Y177499D02*
Y178818D01*
X462599Y165880D02*
X474218Y177499D01*
X421640Y165880D02*
X462599D01*
X474218Y178818D02*
X484989Y189589D01*
X485289D01*
X496060Y200360D01*
Y200660D01*
X487829Y182731D02*
X487855Y182705D01*
X538315D02*
X538340Y182680D01*
X487855Y182705D02*
X538315D01*
X421253Y165880D02*
X421640D01*
X419133Y168000D02*
X421253Y165880D01*
X289560Y193040D02*
Y203200D01*
Y193040D02*
X314600Y168000D01*
X266624Y166980D02*
X270549D01*
X202040Y181500D02*
Y184147D01*
X201983Y184205D02*
X202040Y184147D01*
X199655Y184205D02*
X201983D01*
X202040Y181500D02*
X205740Y177800D01*
X207035Y189205D02*
X210928Y185312D01*
X199655Y189205D02*
X207035D01*
X205740Y166994D02*
Y177800D01*
X270549Y147980D02*
X271784D01*
X273254Y149450D02*
Y154651D01*
X281145Y162541D02*
Y196463D01*
X273648Y203960D02*
X281145Y196463D01*
X273254Y154651D02*
X281145Y162541D01*
X271784Y147980D02*
X273254Y149450D01*
X504700Y200660D02*
Y213360D01*
X507240Y215900D02*
X612140D01*
X504700Y213360D02*
Y213660D01*
X506130Y215090D01*
X506430D01*
X507240Y215900D01*
X612140D02*
X622300Y205740D01*
X496060Y213360D02*
X496788Y214088D01*
Y220980D01*
X559562Y229362D02*
X571500Y241300D01*
X450342Y229362D02*
X559562D01*
X154918Y184205D02*
X161345D01*
X147000Y154160D02*
X159700D01*
Y161379D01*
X170500Y172179D02*
Y175050D01*
X159700Y161379D02*
X170500Y172179D01*
X220720Y150280D02*
Y162980D01*
X205740Y166994D02*
X210174Y162560D01*
X220300D02*
X220720Y162980D01*
X210174Y162560D02*
X220300D01*
X159700Y140020D02*
Y145560D01*
X210647Y147953D02*
X220720Y137880D01*
Y137580D02*
Y137880D01*
X395350Y213000D02*
X409300D01*
X537800Y174720D02*
X538340Y174180D01*
X556529Y170180D02*
Y191456D01*
X565260Y181720D02*
Y193180D01*
X548750Y180450D02*
Y191910D01*
X625109Y170180D02*
Y191456D01*
X447040Y226060D02*
X450342Y229362D01*
X608599Y170180D02*
Y191456D01*
X548371Y54924D02*
Y76200D01*
X557420Y53200D02*
Y67818D01*
X582661Y54924D02*
Y76200D01*
X608220Y54470D02*
Y65930D01*
X600441Y57464D02*
Y78740D01*
X616951Y56194D02*
Y77470D01*
X625979Y55719D02*
Y65291D01*
X633461Y56194D02*
X633620Y56353D01*
X633461Y77470D02*
X633620Y77311D01*
Y56353D02*
Y77311D01*
X625979Y65291D02*
X626618Y65930D01*
X642510Y55740D02*
Y67200D01*
X624730Y54470D02*
X625979Y55719D01*
X656650Y48490D02*
X659340Y51180D01*
X656650Y47602D02*
Y48490D01*
X659340Y51180D02*
Y53180D01*
X624924Y15324D02*
X632873D01*
X665150Y47602D01*
Y48490D01*
X667840Y51180D01*
X622300Y12700D02*
X624924Y15324D01*
X667840Y51180D02*
Y53180D01*
X574309Y170180D02*
Y191456D01*
X583040Y181720D02*
Y193180D01*
X590819Y170180D02*
Y191456D01*
X599550Y181720D02*
Y193180D01*
X617330Y181720D02*
Y193180D01*
X633840Y181720D02*
Y193180D01*
X633730Y181610D02*
X633840Y181720D01*
D17*
X492000Y129540D02*
D03*
X483360D02*
D03*
X492260Y109220D02*
D03*
X483620D02*
D03*
X474980D02*
D03*
X483620D02*
D03*
X538480Y35560D02*
D03*
X529840D02*
D03*
X474980Y129540D02*
D03*
X483620D02*
D03*
X496060Y200660D02*
D03*
X504700D02*
D03*
X496060Y213360D02*
D03*
X504700D02*
D03*
X515620Y35560D02*
D03*
X506980D02*
D03*
X229360Y150280D02*
D03*
X220720D02*
D03*
X229360Y162980D02*
D03*
X220720D02*
D03*
X229360Y137580D02*
D03*
X220720D02*
D03*
X139700Y200660D02*
D03*
X131060D02*
D03*
X139700Y187960D02*
D03*
X131060D02*
D03*
X224280Y216320D02*
D03*
X232920D02*
D03*
X178340Y127000D02*
D03*
X186980D02*
D03*
X166880D02*
D03*
X158240D02*
D03*
D18*
X675840Y218180D02*
D03*
X667240D02*
D03*
X653760D02*
D03*
X645160D02*
D03*
X664500Y35560D02*
D03*
X673100D02*
D03*
X623080Y218180D02*
D03*
X631680D02*
D03*
X108240Y93980D02*
D03*
X116840D02*
D03*
X139700Y215900D02*
D03*
X131100D02*
D03*
X139700Y175260D02*
D03*
X131100D02*
D03*
X224280Y203620D02*
D03*
X232880D02*
D03*
X178360Y139700D02*
D03*
X186960D02*
D03*
X107460Y160020D02*
D03*
X116060D02*
D03*
X178360Y152400D02*
D03*
X186960D02*
D03*
D19*
X147000Y154160D02*
D03*
Y145520D02*
D03*
X418840Y56120D02*
D03*
Y47480D02*
D03*
X457200Y188720D02*
D03*
Y197360D02*
D03*
Y58420D02*
D03*
Y49780D02*
D03*
X254000Y212600D02*
D03*
Y203960D02*
D03*
X250622Y168367D02*
D03*
Y177007D02*
D03*
X104140Y69600D02*
D03*
Y60960D02*
D03*
Y35560D02*
D03*
Y44200D02*
D03*
X109220Y212600D02*
D03*
Y203960D02*
D03*
Y174240D02*
D03*
Y182880D02*
D03*
D20*
X608340Y139680D02*
D03*
X591840D02*
D03*
Y123180D02*
D03*
Y106680D02*
D03*
X608340D02*
D03*
X624840D02*
D03*
Y123180D02*
D03*
X608340D02*
D03*
D21*
X678340Y182680D02*
D03*
Y174180D02*
D03*
Y165680D02*
D03*
Y157180D02*
D03*
Y148680D02*
D03*
Y140180D02*
D03*
Y131680D02*
D03*
Y123180D02*
D03*
Y114680D02*
D03*
Y106180D02*
D03*
Y97680D02*
D03*
Y89180D02*
D03*
Y80680D02*
D03*
Y72180D02*
D03*
Y63680D02*
D03*
X538340D02*
D03*
Y72180D02*
D03*
Y80680D02*
D03*
Y89180D02*
D03*
Y97680D02*
D03*
Y106180D02*
D03*
Y114680D02*
D03*
Y123180D02*
D03*
Y131680D02*
D03*
Y140180D02*
D03*
Y148680D02*
D03*
Y157180D02*
D03*
Y165680D02*
D03*
Y174180D02*
D03*
Y182680D02*
D03*
D22*
X667840Y53180D02*
D03*
X659340D02*
D03*
X650840D02*
D03*
X642340D02*
D03*
X633840D02*
D03*
X625340D02*
D03*
X616840D02*
D03*
X608340D02*
D03*
X599840D02*
D03*
X591340D02*
D03*
X582840D02*
D03*
X574340D02*
D03*
X565840D02*
D03*
X557340D02*
D03*
X548840D02*
D03*
Y193180D02*
D03*
X557340D02*
D03*
X565840D02*
D03*
X574340D02*
D03*
X582840D02*
D03*
X591340D02*
D03*
X599840D02*
D03*
X608340D02*
D03*
X616840D02*
D03*
X625340D02*
D03*
X633840D02*
D03*
X642340D02*
D03*
X650840D02*
D03*
X659340D02*
D03*
X667840D02*
D03*
D23*
X538340Y53180D02*
D03*
X678340D02*
D03*
X538340Y193180D02*
D03*
X678340D02*
D03*
D24*
X395350Y168000D02*
D03*
X315850D02*
D03*
X395350Y213000D02*
D03*
X315850D02*
D03*
X395350Y41000D02*
D03*
X315850D02*
D03*
X395350Y86000D02*
D03*
X315850D02*
D03*
D25*
X444500Y187960D02*
D03*
Y197460D02*
D03*
Y57760D02*
D03*
Y48260D02*
D03*
D26*
X421640Y174480D02*
D03*
Y165880D02*
D03*
X418840Y80500D02*
D03*
Y71900D02*
D03*
X142240Y49040D02*
D03*
Y57640D02*
D03*
X129540Y49040D02*
D03*
Y57640D02*
D03*
X144780Y94960D02*
D03*
Y86360D02*
D03*
X159700Y154160D02*
D03*
Y145560D02*
D03*
D27*
X84940Y93980D02*
D03*
X91440D02*
D03*
X85650Y160020D02*
D03*
X92150D02*
D03*
D28*
X86360Y64920D02*
D03*
Y58420D02*
D03*
Y41760D02*
D03*
Y48260D02*
D03*
X88900Y181460D02*
D03*
Y187960D02*
D03*
Y210820D02*
D03*
Y204320D02*
D03*
D29*
X166870Y96660D02*
D03*
Y73660D02*
D03*
Y50660D02*
D03*
D30*
X229370Y73660D02*
D03*
D31*
X199655Y204205D02*
D03*
Y199205D02*
D03*
Y194205D02*
D03*
Y189205D02*
D03*
Y184205D02*
D03*
X161345D02*
D03*
Y189205D02*
D03*
Y194205D02*
D03*
Y199205D02*
D03*
Y204205D02*
D03*
D32*
X190500Y175050D02*
D03*
X185500D02*
D03*
X180500D02*
D03*
X175500D02*
D03*
X170500D02*
D03*
Y213360D02*
D03*
X175500D02*
D03*
X180500D02*
D03*
X185500D02*
D03*
D33*
X190500D02*
D03*
D34*
X289560Y203200D02*
D03*
X270549Y193700D02*
D03*
X289560Y157480D02*
D03*
X270549Y147980D02*
D03*
D35*
Y212700D02*
D03*
Y166980D02*
D03*
D36*
X62900Y23900D02*
D03*
Y87900D02*
D03*
Y79900D02*
D03*
Y31900D02*
D03*
Y166100D02*
D03*
Y230100D02*
D03*
Y222100D02*
D03*
Y174100D02*
D03*
D37*
Y38400D02*
D03*
Y43400D02*
D03*
Y48400D02*
D03*
Y53400D02*
D03*
Y58400D02*
D03*
Y63400D02*
D03*
Y68400D02*
D03*
Y73400D02*
D03*
Y180600D02*
D03*
Y185600D02*
D03*
Y190600D02*
D03*
Y195600D02*
D03*
Y200600D02*
D03*
Y205600D02*
D03*
Y210600D02*
D03*
Y215600D02*
D03*
D51*
X180500Y194205D02*
D03*
D55*
X17150Y99100D02*
D03*
Y12700D02*
D03*
Y241300D02*
D03*
Y154900D02*
D03*
D56*
X57150Y99100D02*
D03*
Y12700D02*
D03*
Y241300D02*
D03*
Y154900D02*
D03*
D59*
X624840Y139680D02*
D03*
D60*
X483620Y109220D02*
X485533Y111133D01*
X492260Y109220D02*
X500427D01*
X501697Y107950D01*
X502920D01*
X492000Y129540D02*
X502920D01*
X483620Y109220D02*
Y115607D01*
Y122253D02*
X485140Y120733D01*
X483620Y115607D02*
X485140Y117127D01*
X534205D01*
X485140Y120733D02*
X534205D01*
X483620Y122253D02*
Y129540D01*
X204785Y57465D02*
X208280Y60960D01*
X195580D02*
X201178Y55362D01*
X204785Y38595D02*
Y57465D01*
X201178Y40089D02*
Y55362D01*
X200256Y39167D02*
X201178Y40089D01*
X180649Y39167D02*
X200256D01*
X201750Y35560D02*
X204785Y38595D01*
X182143Y35560D02*
X201750D01*
X179603Y33020D02*
X182143Y35560D01*
X175997Y34514D02*
X180649Y39167D01*
X175997Y13622D02*
Y34514D01*
X179603Y13622D02*
Y33020D01*
Y13622D02*
X180526Y12700D01*
X190500D01*
X175074D02*
X175997Y13622D01*
X165100Y12700D02*
X175074D01*
X483360Y129540D02*
X483490Y129410D01*
X535127Y115893D02*
X536340Y114680D01*
X535127Y115893D02*
Y116204D01*
X536340Y114680D02*
X538340D01*
X535127Y121967D02*
X536340Y123180D01*
X538340D01*
X534205Y117127D02*
X535127Y116204D01*
Y121656D02*
Y121967D01*
X534205Y120733D02*
X535127Y121656D01*
D61*
X361950Y88810D02*
Y127000D01*
Y88810D02*
X385210Y65550D01*
X467360Y180340D02*
Y191444D01*
X461604Y197200D02*
X467360Y191444D01*
X457200Y197360D02*
X457360Y197200D01*
X461604D01*
X142942Y116138D02*
X230438D01*
X246380Y132080D02*
Y157480D01*
X230438Y116138D02*
X246380Y132080D01*
X413040Y86000D02*
X418540Y80500D01*
X394190Y65550D02*
X412260Y47480D01*
X385210Y65550D02*
X394190D01*
X395350Y86000D02*
X413040D01*
X418540Y80500D02*
X418840D01*
X412260Y47480D02*
X418840D01*
X95250Y139700D02*
X97790D01*
X119380D01*
X142942Y116138D01*
X241340Y162520D02*
X246380Y157480D01*
X229520Y162520D02*
X241340D01*
X229360Y162680D02*
X229520Y162520D01*
X229360Y162680D02*
Y162980D01*
X91695Y167640D02*
X96084D01*
X99060Y160020D02*
Y164664D01*
X96084Y167640D02*
X99060Y164664D01*
X91079Y168256D02*
X91695Y167640D01*
X82574Y168256D02*
X91079D01*
X62900Y174100D02*
X76730D01*
X82574Y168256D01*
X47316Y174100D02*
X62900D01*
X99060Y149860D02*
Y160020D01*
X97790Y142240D02*
Y148590D01*
X99060Y149860D01*
X95250Y139700D02*
X97790Y142240D01*
X43180Y178236D02*
Y218440D01*
Y178236D02*
X47316Y174100D01*
X46840Y222100D02*
X62900D01*
X43180Y218440D02*
X46840Y222100D01*
X46301Y79900D02*
X62900D01*
X43325Y40495D02*
X51920Y31900D01*
X43325Y76924D02*
X46301Y79900D01*
X43325Y40495D02*
Y76924D01*
X62900Y79900D02*
X100220D01*
X108080Y87760D01*
Y93820D01*
X108240Y93980D01*
X51920Y31900D02*
X62900D01*
X520770Y193110D02*
X538270D01*
X520700Y193040D02*
X520770Y193110D01*
X538270D02*
X538340Y193180D01*
X608635Y155643D02*
X608655Y155663D01*
X608635Y142943D02*
Y155643D01*
X608655Y155663D02*
Y156574D01*
X649838Y235882D02*
X667240Y218480D01*
X649838Y235882D02*
Y239162D01*
X647700Y241300D02*
X649838Y239162D01*
X667240Y218180D02*
Y218480D01*
X608005Y90717D02*
Y91987D01*
X608025Y92007D02*
Y104707D01*
X608005Y91987D02*
X608025Y92007D01*
X639533Y106355D02*
X640803D01*
X626813Y106375D02*
X639513D01*
X639533Y106355D01*
Y122865D02*
X640803D01*
X626813Y122885D02*
X639513D01*
X639533Y122865D01*
Y138105D02*
X640803D01*
X626813Y138125D02*
X639513D01*
X639533Y138105D01*
X574587Y107005D02*
X575857D01*
X575877Y106985D02*
X588577D01*
X575857Y107005D02*
X575877Y106985D01*
X577850Y123190D02*
X577870Y123170D01*
X590570D01*
X576580Y123190D02*
X577850D01*
Y139700D02*
X579120D01*
X579140Y139680D02*
X591840D01*
X579120Y139700D02*
X579140Y139680D01*
D62*
X645160Y218180D02*
Y226060D01*
X136354Y147845D02*
Y157068D01*
X444880Y188340D02*
X456820D01*
X457200Y188720D01*
X444500Y187960D02*
X444880Y188340D01*
X676329Y43869D02*
X676766Y44306D01*
Y51606D02*
X678340Y53180D01*
X676766Y44306D02*
Y51606D01*
X424302Y80638D02*
X434340Y70600D01*
X418840Y80500D02*
X418978Y80638D01*
X434340Y57658D02*
Y70600D01*
X418978Y80638D02*
X424302D01*
X650840Y193180D02*
Y203340D01*
X645160Y209020D02*
X650840Y203340D01*
X645160Y209020D02*
Y218180D01*
X459661Y67945D02*
X469900Y57706D01*
Y57658D02*
Y57706D01*
X452293Y67945D02*
X459661D01*
X393238Y127000D02*
X452293Y67945D01*
X361950Y127000D02*
X393238D01*
X444830Y58090D02*
X456870D01*
X457200Y58420D01*
X444500Y57760D02*
X444830Y58090D01*
X666070Y63390D02*
X675780D01*
X665957Y63277D02*
X666070Y63390D01*
X665661Y73169D02*
X674891D01*
X675780Y72280D01*
X664320Y81170D02*
X675780D01*
X659240Y182990D02*
Y194450D01*
X622285Y218975D02*
Y219275D01*
Y218975D02*
X623080Y218180D01*
X615937Y225623D02*
X622285Y219275D01*
X614680Y226060D02*
X615117Y225623D01*
X615937D01*
X243003Y222030D02*
X243440Y222467D01*
X238330Y222030D02*
X243003D01*
X232920Y216320D02*
Y216620D01*
X238330Y222030D01*
X195580Y127000D02*
X198120Y124460D01*
X317100Y86000D02*
X327083Y95983D01*
X335817D02*
X336179Y95621D01*
X327083Y95983D02*
X335817D01*
X124897Y38537D02*
Y44397D01*
X124460Y38100D02*
X124897Y38537D01*
X142540Y49040D02*
X143335Y48245D01*
X434648Y50492D02*
Y57350D01*
Y50492D02*
X436880Y48260D01*
X434340Y57658D02*
X434648Y57350D01*
X177920Y139700D02*
Y151960D01*
X175478Y164939D02*
X178360Y162057D01*
Y152400D02*
Y162057D01*
X177920Y127440D02*
Y139700D01*
X175478Y164939D02*
Y165100D01*
Y170180D01*
X233680Y73660D02*
Y76205D01*
X73660Y95910D02*
Y99060D01*
X82320Y23900D02*
X86360Y27940D01*
X137883Y146315D02*
X146205D01*
X136354Y147845D02*
X137883Y146315D01*
X136572Y157905D02*
X139700Y161033D01*
Y175260D01*
X149860Y127000D02*
X158240D01*
X144780Y132080D02*
X149860Y127000D01*
X165965Y95755D02*
X166870Y96660D01*
X144780Y94960D02*
X145575Y95755D01*
X165965D01*
X112440Y127000D02*
X144480Y94960D01*
X144780D01*
X95250Y127000D02*
X112440D01*
X136135Y156849D02*
X136572Y157286D01*
X465915Y49780D02*
X469463Y53328D01*
Y57221D02*
X469900Y57658D01*
X469463Y53328D02*
Y57221D01*
X457200Y49780D02*
X465915D01*
X524925Y49480D02*
X528625Y53180D01*
X538340D01*
X521920Y49480D02*
X524925D01*
X521483Y49043D02*
X521920Y49480D01*
X636720Y223520D02*
X636904D01*
X631680Y218480D02*
X636720Y223520D01*
X91440Y93980D02*
X108240D01*
Y101310D01*
X95250Y114300D02*
X108240Y101310D01*
X65650Y87900D02*
X73660Y95910D01*
X62900Y87900D02*
X65650D01*
X62900Y23900D02*
X82320D01*
X62900D02*
X63940Y22860D01*
X129540Y49040D02*
X142240D01*
X142540D01*
X128445Y48245D02*
X129240Y49040D01*
X128445Y47945D02*
Y48245D01*
X129240Y49040D02*
X129540D01*
X124897Y44397D02*
X128445Y47945D01*
X152093Y50660D02*
X166870D01*
X150955Y49523D02*
X152093Y50660D01*
X142723Y49523D02*
X150955D01*
X129540Y57640D02*
Y70501D01*
X127000Y73041D02*
X129540Y70501D01*
X127000Y73041D02*
Y73660D01*
X142540Y57640D02*
X143335Y58435D01*
Y58735D01*
X142240Y57640D02*
X142540D01*
X143335Y58735D02*
X147320Y62720D01*
Y73660D01*
X137160D02*
X147320D01*
X127000D02*
X137160D01*
X137597Y79477D02*
X144480Y86360D01*
X137597Y74097D02*
Y79477D01*
X144480Y86360D02*
X144780D01*
X137160Y73660D02*
X137597Y74097D01*
X147320Y73660D02*
X166870D01*
X664320Y106570D02*
X675780D01*
X631680Y218180D02*
Y218480D01*
X139700Y215900D02*
Y241300D01*
X148645Y184205D02*
X154918D01*
X140795Y176355D02*
X148645Y184205D01*
X139700Y175260D02*
Y175560D01*
X140495Y176355D01*
X140795D01*
X136572Y157286D02*
Y157905D01*
X146205Y146315D02*
X147000Y145520D01*
X177920Y151960D02*
X178360Y152400D01*
X175478Y170180D02*
X175500Y170202D01*
X186980Y127000D02*
X195580D01*
X233680Y76205D02*
X236215Y78740D01*
X251460D01*
X436880Y48260D02*
X444500D01*
X315850Y86000D02*
X317100D01*
X673100Y12700D02*
Y35560D01*
X663705Y34765D02*
X664500Y35560D01*
X647700Y12700D02*
X663705Y28705D01*
Y34765D01*
X673100Y241300D02*
X675840Y238560D01*
Y218180D02*
Y238560D01*
X664320Y205850D02*
X664757Y206287D01*
X666495D01*
X675045Y214837D02*
Y217385D01*
X666495Y206287D02*
X675045Y214837D01*
Y217385D02*
X675840Y218180D01*
X665640Y205580D02*
X678340D01*
X665640D02*
X667840Y203380D01*
X657313Y206287D02*
X663883D01*
X664320Y205850D01*
X653760Y209840D02*
Y218180D01*
Y209840D02*
X657313Y206287D01*
X678340Y193180D02*
Y205580D01*
X667840Y193180D02*
Y203380D01*
X668020Y182880D02*
X668120Y182780D01*
X678005D02*
X678015Y182770D01*
X668120Y182780D02*
X678005D01*
X664320Y157370D02*
X675780D01*
X664320Y164990D02*
X675780D01*
X664320Y173880D02*
X675780D01*
X664320Y131970D02*
X675780D01*
X664320Y139590D02*
X675780D01*
X664320Y148480D02*
X675780D01*
X664320Y114190D02*
X675780D01*
X664320Y123080D02*
X675780D01*
X664320Y97680D02*
X675780D01*
X664320Y88790D02*
X675780D01*
D63*
X361950Y127000D02*
D03*
X95250Y114300D02*
D03*
Y127000D02*
D03*
D64*
X349250D02*
D03*
D65*
X95250Y139700D02*
D03*
D66*
X673100Y12700D02*
D03*
Y241300D02*
D03*
D67*
X647700Y12700D02*
D03*
X622300D02*
D03*
X596900D02*
D03*
X571500D02*
D03*
X546100D02*
D03*
X520700D02*
D03*
X495300D02*
D03*
X469900D02*
D03*
X444500D02*
D03*
X419100D02*
D03*
X393700D02*
D03*
X368300D02*
D03*
X342900D02*
D03*
X317500D02*
D03*
X292100D02*
D03*
X266700D02*
D03*
X241300D02*
D03*
X215900D02*
D03*
X190500D02*
D03*
X165100D02*
D03*
X139700D02*
D03*
X114300D02*
D03*
X88900D02*
D03*
X647700Y241300D02*
D03*
X622300D02*
D03*
X596900D02*
D03*
X571500D02*
D03*
X546100D02*
D03*
X520700D02*
D03*
X495300D02*
D03*
X469900D02*
D03*
X444500D02*
D03*
X419100D02*
D03*
X393700D02*
D03*
X368300D02*
D03*
X342900D02*
D03*
X317500D02*
D03*
X292100D02*
D03*
X266700D02*
D03*
X241300D02*
D03*
X215900D02*
D03*
X190500D02*
D03*
X165100D02*
D03*
X139700D02*
D03*
X114300D02*
D03*
X88900D02*
D03*
D68*
X502920Y107950D02*
D03*
X373380Y114300D02*
D03*
X434109Y195349D02*
D03*
X467360Y180340D02*
D03*
X644000Y226170D02*
D03*
X121920Y83820D02*
D03*
X119380Y50800D02*
D03*
Y58928D02*
D03*
X213360Y207381D02*
D03*
X86360Y226060D02*
D03*
X99060Y215900D02*
D03*
X101140Y205740D02*
D03*
X676329Y43869D02*
D03*
X459737Y104151D02*
D03*
X461772Y95758D02*
D03*
X427182Y117302D02*
D03*
X665957Y63277D02*
D03*
X650991Y66923D02*
D03*
X665661Y73169D02*
D03*
X664320Y81170D02*
D03*
X659240Y182990D02*
D03*
X614680Y226060D02*
D03*
X421640Y200152D02*
D03*
X335049Y210589D02*
D03*
X243440Y222467D02*
D03*
X241771Y208751D02*
D03*
X226568Y184872D02*
D03*
X197111Y138931D02*
D03*
X231140Y172720D02*
D03*
X336179Y95621D02*
D03*
X111696Y41496D02*
D03*
X124460Y38100D02*
D03*
X434340Y57658D02*
D03*
X408709Y51031D02*
D03*
X182391Y167186D02*
D03*
X198120Y154178D02*
D03*
X185406Y228565D02*
D03*
X172720Y228600D02*
D03*
X238188Y154178D02*
D03*
X121005Y206654D02*
D03*
X101302Y186852D02*
D03*
X125647Y178788D02*
D03*
X119380Y170180D02*
D03*
X136572Y157286D02*
D03*
X119380Y149860D02*
D03*
X121332Y215706D02*
D03*
X144780Y132080D02*
D03*
X220980Y127000D02*
D03*
X197532Y124266D02*
D03*
X74077Y152977D02*
D03*
X83820Y147320D02*
D03*
X577850Y139700D02*
D03*
X439420Y114300D02*
D03*
Y132080D02*
D03*
X426720Y129540D02*
D03*
X95785Y65305D02*
D03*
X112634Y65877D02*
D03*
X450206Y179826D02*
D03*
X510540Y149098D02*
D03*
X497840Y165100D02*
D03*
X495300Y175260D02*
D03*
X375920Y137160D02*
D03*
X513028Y126601D02*
D03*
X518160Y140317D02*
D03*
X523240Y101600D02*
D03*
X513080Y109220D02*
D03*
X502920Y129540D02*
D03*
X213360Y53340D02*
D03*
X190500D02*
D03*
X208280Y60960D02*
D03*
X195580D02*
D03*
X375920Y152400D02*
D03*
X349758Y160020D02*
D03*
X506614Y157728D02*
D03*
X497938Y94079D02*
D03*
X469900Y57658D02*
D03*
X500380Y78740D02*
D03*
X493641Y71882D02*
D03*
X521483Y49043D02*
D03*
X636904Y223520D02*
D03*
X96520Y43180D02*
D03*
X73072Y98866D02*
D03*
X83232Y103946D02*
D03*
X85772Y27746D02*
D03*
X144780Y38100D02*
D03*
X137160Y73660D02*
D03*
X147320D02*
D03*
X127000D02*
D03*
X251460Y114300D02*
D03*
X259080D02*
D03*
X266700D02*
D03*
X274320D02*
D03*
X281940D02*
D03*
X251460Y96520D02*
D03*
X259080D02*
D03*
X266700D02*
D03*
X274320D02*
D03*
X281940D02*
D03*
Y78740D02*
D03*
X274320D02*
D03*
X266700D02*
D03*
X259080D02*
D03*
X664320Y106570D02*
D03*
X591710Y67200D02*
D03*
X573930Y64660D02*
D03*
X487829Y182731D02*
D03*
X185420Y200660D02*
D03*
Y187960D02*
D03*
X175260Y200660D02*
D03*
Y187960D02*
D03*
X180340Y195580D02*
D03*
X161972Y136966D02*
D03*
X251460Y78740D02*
D03*
X520700Y193040D02*
D03*
X556370Y170290D02*
D03*
X565260Y181720D02*
D03*
X548750Y180450D02*
D03*
X608655Y156574D02*
D03*
X608440Y170290D02*
D03*
X557420Y67818D02*
D03*
X582820Y76090D02*
D03*
X608220Y65930D02*
D03*
X626618D02*
D03*
X642510Y67200D02*
D03*
X548530Y76090D02*
D03*
X617110Y77360D02*
D03*
X664320Y205850D02*
D03*
X600202Y131572D02*
D03*
X616712D02*
D03*
Y115062D02*
D03*
X600202D02*
D03*
X608005Y90717D02*
D03*
X640803Y106355D02*
D03*
Y122865D02*
D03*
Y138105D02*
D03*
X574587Y107005D02*
D03*
X576580Y123190D02*
D03*
X668020Y182880D02*
D03*
X664320Y157370D02*
D03*
Y164990D02*
D03*
Y173880D02*
D03*
Y131970D02*
D03*
Y139590D02*
D03*
Y148480D02*
D03*
Y114190D02*
D03*
Y123080D02*
D03*
Y97680D02*
D03*
Y88790D02*
D03*
X624950Y170290D02*
D03*
X633620Y77360D02*
D03*
X600600Y78630D02*
D03*
X566310Y76090D02*
D03*
X583040Y181720D02*
D03*
X574150Y170290D02*
D03*
X599550Y181720D02*
D03*
X590660Y170290D02*
D03*
X617330Y181720D02*
D03*
X633840D02*
D03*
M02*
